<?xml version="1.0" encoding="UTF-8"?>
<svg width="309px" height="115px" viewBox="0 0 309 115" version="1.1" xmlns="http://www.w3.org/2000/svg" xmlns:xlink="http://www.w3.org/1999/xlink">
    <title>logo_epet</title>
    <g id="V4" stroke="none" stroke-width="1" fill="none" fill-rule="evenodd">
        <g id="Artboard" transform="translate(-293.000000, -1325.000000)" fill="#FFFFFF" fill-rule="nonzero">
            <path d="M532.302,1325 C532.444,1325 532.56,1325.115 532.56,1325.258 L532.56,1325.258 L532.56,1341.163 L548.538,1341.163 C548.681,1341.163 548.796,1341.279 548.796,1341.42 L548.796,1341.42 L548.796,1357.108 C548.796,1357.249 548.681,1357.365 548.538,1357.365 L548.538,1357.365 L532.559,1357.365 L532.559,1381.572 C532.547,1381.809 532.537,1382.034 532.537,1382.262 C532.537,1394.474 542.471,1404.486 554.682,1404.585 L554.682,1404.585 L555.708,1404.592 C555.85,1404.592 555.964,1404.708 555.964,1404.849 L555.964,1404.849 L555.964,1420.625 C555.964,1420.693 555.938,1420.757 555.888,1420.809 C555.84,1420.857 555.775,1420.886 555.706,1420.886 L555.706,1420.886 L554.666,1420.878 C536.208,1420.787 520.754,1407.623 517.077,1390.227 L517.077,1390.227 L500.746875,1390.2265 L500.746875,1390.2265 L500.724,1390.223 L479.665,1390.223 C479.522,1390.223 479.407,1390.108 479.407,1389.965 L479.407,1389.965 L479.407,1374.278 C479.407,1374.137 479.522,1374.02 479.665,1374.02 L479.665,1374.02 L501.365,1374.02 C497.985,1365.455 489.879,1359.942 480.611,1359.942 C468.301,1359.942 458.287,1369.954 458.287,1382.262 C458.287,1394.553 468.286,1404.569 480.576,1404.589 L480.576,1404.589 L481.606,1404.591 C481.75,1404.591 481.866,1404.704 481.866,1404.848 L481.866,1404.848 L481.866,1420.626 C481.866,1420.694 481.84,1420.758 481.791,1420.81 C481.742,1420.858 481.676,1420.887 481.606,1420.887 L481.606,1420.887 L480.574,1420.885 C462.809,1420.864 447.818,1408.778 443.353,1392.407 C438.886,1408.795 423.879,1420.886 406.094,1420.886 C398.12,1420.886 390.186,1418.343 383.69,1413.718 L383.69,1413.718 L383.69,1438.878 C383.69,1439.019 383.574,1439.135 383.431,1439.135 L383.431,1439.135 L367.745,1439.135 C367.605,1439.135 367.487,1439.019 367.487,1438.878 L367.487,1438.878 L367.483,1390.227 L330.382,1390.223 C330.239,1390.223 330.124,1390.108 330.124,1389.965 L330.124,1389.965 L330.124,1374.278 C330.124,1374.137 330.239,1374.02 330.382,1374.02 L330.382,1374.02 L352.374,1374.02 C348.994,1365.455 340.889,1359.942 331.621,1359.942 C319.31,1359.942 309.297,1369.954 309.297,1382.262 C309.297,1394.523 319.272,1404.539 331.532,1404.587 L331.532,1404.587 L332.563,1404.592 C332.706,1404.592 332.819,1404.704 332.819,1404.848 L332.819,1404.848 L332.819,1420.626 C332.819,1420.695 332.792,1420.759 332.743,1420.809 C332.695,1420.859 332.63,1420.886 332.563,1420.886 L332.563,1420.886 L332.56,1420.886 L331.524,1420.881 C310.282,1420.829 293,1403.505 293,1382.262 C293,1360.965 310.326,1343.645 331.621,1343.645 C349.378,1343.645 364.364,1355.692 368.858,1372.039 C373.353,1355.692 388.337,1343.645 406.094,1343.645 C423.878,1343.645 438.884,1355.729 443.353,1372.115 C447.82,1355.729 462.827,1343.645 480.611,1343.645 C496.746,1343.645 510.594,1353.592 516.361,1367.675 L516.361,1367.675 L516.358,1325.258 C516.358,1325.19 516.384,1325.125 516.433,1325.075 C516.482,1325.028 516.548,1325 516.616,1325 L516.616,1325 Z M585.899,1389.178 C594.795,1389.178 602.009,1396.388 602.008,1405.283 C602.008,1414.181 594.795,1421.395 585.899,1421.395 C577.003,1421.395 569.792,1414.181 569.792,1405.283 C569.792,1396.388 577.003,1389.178 585.899,1389.178 Z M406.094,1359.942 C393.784,1359.942 383.77,1369.954 383.77,1382.262 C383.77,1394.571 393.784,1404.591 406.094,1404.591 C418.405,1404.591 428.418,1394.571 428.418,1382.262 C428.418,1369.954 418.405,1359.942 406.094,1359.942 Z" id="logo_epet"></path>
        </g>
    </g>
</svg>