<?xml version="1.0" encoding="utf-8"?>
<!-- Generator: Adobe Illustrator 22.1.0, SVG Export Plug-In . SVG Version: 6.00 Build 0)  -->
<svg version="1.1"
	 id="svg2" inkscape:output_extension="org.inkscape.output.svg.inkscape" inkscape:version="0.45.1" sodipodi:docbase="/home/butze/Desktop" sodipodi:docname="veolia-environment-logo.svg" sodipodi:version="0.32" xmlns:cc="http://web.resource.org/cc/" xmlns:dc="http://purl.org/dc/elements/1.1/" xmlns:inkscape="http://www.inkscape.org/namespaces/inkscape" xmlns:rdf="http://www.w3.org/1999/02/22-rdf-syntax-ns#" xmlns:sodipodi="http://sodipodi.sourceforge.net/DTD/sodipodi-0.dtd" xmlns:svg="http://www.w3.org/2000/svg"
	 xmlns="http://www.w3.org/2000/svg" xmlns:xlink="http://www.w3.org/1999/xlink" x="0px" y="0px" viewBox="0 0 428.5 105.3"
	 style="enable-background:new 0 0 428.5 105.3;" xml:space="preserve">
<style type="text/css">
	.st0{fill:#ED1C24;}
</style>
<sodipodi:namedview  bordercolor="#666666" borderopacity="1.0" gridtolerance="10.0" guidetolerance="10.0" id="base" inkscape:current-layer="svg2" inkscape:cx="674.34972" inkscape:cy="71.225174" inkscape:pageopacity="0.0" inkscape:pageshadow="2" inkscape:window-height="752" inkscape:window-width="1280" inkscape:window-x="0" inkscape:window-y="25" inkscape:zoom="0.53150301" objecttolerance="10.0" pagecolor="#ffffff">
	</sodipodi:namedview>
<g id="g4124" transform="matrix(0.2429929,0,0,0.2429929,-1.2943742,-2.0936675)">
	
		<path id="path2181" sodipodi:nodetypes="csssssssssccsssssssscccsssssssssssccccssssssssccsssssssccsssssssssssssccccssssscccccsscccccccccsscccccccsscccssssscccccccccscccssccccssscccssscccccccccccccccccc" class="st0" d="
		M199.5,440.8c-24.1-2.4-49.3-9.7-72-20.8C0,357.9-34.7,193.6,56.8,84.9C85,51.4,124.7,26.5,167.5,15.5C201,6.9,238.1,6.3,270.9,14
		c23.5,5.5,51.4,17.6,71.2,30.8c36.9,24.7,66.7,62,82.6,103.7c4.4,11.5,9.7,31.9,11.9,46c2.3,14.9,2.3,45.9,0,61
		c-7.1,46.5-26.3,85.9-58.2,119.4C332.5,423.2,266.3,447.6,199.5,440.8z M217.8,346.1c-1.3-1.6-5.2-6.4-8.7-10.8
		c-19.3-23.7-32.3-49.4-35.3-69.9c-2.8-19.4,4.6-41.9,17.5-53.1c2.3-2,7.5-5.2,11.6-7.2c7.3-3.5,7.8-3.6,19.1-3.6
		c11.4,0,11.7,0.1,19.3,3.8c15.3,7.5,24.7,21.1,28.2,40.3c1.5,8.5,1.6,11,0.6,18.8c-3.2,24.1-15.4,46.8-44.1,81.8l-2.5,3l9-0.7
		c49.5-3.9,92.5-29.2,119-70c11.3-17.4,18.9-37.1,22.5-58.6c2.7-15.8,2.2-40.7-1.1-56.1c-11.9-55.4-53.7-100.6-107.7-116.3
		c-15.4-4.5-27.9-5.8-47.8-5.3c-19.2,0.6-26.1,1.7-42.5,6.9c-38.3,12.2-71.4,40.8-89.5,77.3c-7.1,14.3-10.4,23.8-13.7,38.9
		c-3.2,14.8-3.1,44.5,0.1,59.6c6.8,31.8,19.9,55.9,42.6,78.6c17.5,17.5,35.5,28.8,58.2,36.8c13.4,4.7,30.7,8,44.2,8.6l3.3,0.1
		L217.8,346.1z M1083.5,353.5c-56.8-8.1-84.9-33-95.2-84.1c-2.2-11.1-2.5-45.8-0.5-57.4c4.7-26.8,13.1-44.8,27.8-59.3
		c19.7-19.5,48.1-28.7,88.6-28.7c70.7,0,107.8,28.9,116.9,91.1c1.9,12.9,1.6,43.3-0.5,55.4c-4,22.5-11.9,39.3-24.9,53.2
		c-14.7,15.6-30.9,23.9-56.7,28.9C1127.2,354.8,1096.6,355.4,1083.5,353.5z M1122.5,314.5c22.4-4.7,35.3-19.1,41.2-45.9
		c2.1-9.4,2.9-38.6,1.5-49.7c-3.4-25.3-12.3-41-28.1-49.3c-9.2-4.8-17.8-6.6-32.5-6.6c-34.8,0-51.9,13.4-59.1,46.3
		c-2.2,9.9-3,38-1.4,50.4c3.8,31.2,18.2,49.4,43.3,54.8C1095.6,316.3,1113.8,316.3,1122.5,314.5z M600.7,343.3
		C579.6,296,508.6,135,508.2,133.6c-0.5-1.8,0.4-1.8,20.4-1.5c20.4,0.4,21,0.4,27,3.2c3.4,1.5,8,4.7,10.3,7
		c4.9,4.9,5.1,5.5,38.7,84.3c13.2,30.9,24.2,56.2,24.5,56.2s12.4-29.9,27-66.5c19.1-48,27.5-67.8,30-71.2
		c4.4-5.8,12.1-10.6,19.6-12.1c3.1-0.6,14.5-1.1,25.1-1.1c16.6,0,19.4,0.2,18.9,1.5c-0.3,0.8-20.7,46.1-45.4,100.6
		c-49.2,109-47.6,106-59.1,111.6c-5.5,2.7-6.3,2.8-23.8,3.1l-18.1,0.3L600.7,343.3z M841.5,347.9c-11.2-1.4-18.4-3.6-28-8.3
		c-16.5-8.1-28.7-20.8-37.9-39.3c-9.6-19.4-12.6-33.3-12.6-59.8s2.9-40.4,12.6-59.8c9.2-18.5,22.1-31.7,38.7-39.7
		c17-8.2,25.3-9,86.9-9l48.8,0v19.4v19.4l-42.2,0.5c-47.3,0.5-51.9,1.1-64.4,7.2c-8.1,4-13.2,9.2-16.9,17
		c-2.7,5.9-5.2,15.2-5.6,21.5l-0.3,4.5l61.8,0.3L944,222v18.5V259l-61.7,0.3l-61.8,0.3l0.3,4.5c0.8,12.3,6.7,26.5,13.3,32.5
		c2.3,2,6.9,5,10.2,6.6c12.1,5.7,16.2,6.1,62.9,6.6l42.8,0.5v19.4V349l-50.7-0.1C871.3,348.8,845.3,348.3,841.5,347.9z
		 M1327.5,347.9c-8.8-1.1-23.1-5.1-29.3-8.3c-12.4-6.3-23.8-17.9-29.1-29.8c-7.2-16-8.3-31.4-7.9-113.9l0.3-63.5h17.5
		c16,0,17.8,0.2,21.5,2.2c5,2.7,7.9,5.8,10.2,10.9c1.7,3.7,1.8,9.4,2.3,71.5c0.4,46.7,0.9,68.5,1.7,70.8c2.9,8.4,9.4,14.9,18.2,18.3
		c7.5,2.9,22.7,3.9,55.2,3.9h29.9v19.5V349l-41.8-0.1C1353.3,348.8,1331.3,348.4,1327.5,347.9z M1449,249.2v-99.8l2.5-5.1
		c2.7-5.4,7.8-9.7,13.5-11.3c1.9-0.5,10.5-1,19.2-1h15.8v97.5c0,64-0.4,99.1-1,102.3c-1.4,6.3-6,11.9-12.4,14.8
		c-4.7,2.2-6.4,2.4-21.3,2.4l-16.2,0V249.2z M1542.9,308.3c9.8-22.5,29.2-67.1,43.2-99.3c14-32.2,26.8-60.5,28.4-63s5.2-6,7.9-7.7
		c8.1-5.4,12.7-6.3,34.1-6.2l19.1,0l46.5,107.1c25.6,58.9,46.7,107.7,46.8,108.6c0.3,1.3-2.6,1.4-21.5,1.1
		c-21.5-0.3-21.9-0.4-27.5-3.1c-9.4-4.6-13.5-10.2-21.8-29.7l-7.3-17l-43.4,0.3l-43.4,0.3l-7.3,16.8c-8.7,19.9-12,24.3-21.3,28.9
		l-6.7,3.3l-21.7,0.3l-21.7,0.3L1542.9,308.3z M1679,259.6c0-0.2-7.1-17.2-15.9-37.6l-15.9-37.2l-10.8,25.4
		c-5.9,14-13.2,30.9-16.1,37.6l-5.3,12.2h31.9C1664.6,260,1679,259.8,1679,259.6z"/>
</g>
</svg>
