<?xml version="1.0" encoding="UTF-8" standalone="no"?>
<!-- Generator: Adobe Illustrator 22.1.0, SVG Export Plug-In . SVG Version: 6.00 Build 0)  -->
<svg id="Vrstva_1" style="enable-background:new 0 0 204.7 46.6" xmlns="http://www.w3.org/2000/svg" xml:space="preserve" viewBox="0 0 204.7 46.6" version="1.1" y="0px" x="0px" xmlns:xlink="http://www.w3.org/1999/xlink">
			<path d="m202.4 3.2h-0.4v-2.3h0.9c0.3 0 0.5 0.1 0.7 0.2 0.1 0.1 0.2 0.3 0.2 0.5 0 0.3-0.1 0.5-0.5 0.7l0.5 0.9h-0.5l-0.5-0.9h-0.4v0.9zm0.4-1.3c0.3 0 0.5-0.1 0.5-0.4 0-0.2-0.2-0.4-0.5-0.4h-0.4v0.7h0.4z" fill="#009FE3"/>
		<path d="m200.6 2.1c0-1.1 0.9-2.1 2.1-2.1 1.1 0 2.1 0.9 2.1 2.1 0 1.1-0.9 2.1-2.1 2.1-1.1-0.1-2.1-1-2.1-2.1zm0.4 0c0 0.9 0.8 1.7 1.7 1.7s1.7-0.8 1.7-1.7-0.8-1.7-1.7-1.7-1.7 0.7-1.7 1.7z" fill="#009FE3"/>
		<linearGradient id="SVGID_1_" y2="12.69" gradientUnits="userSpaceOnUse" x2="176.54" y1="12.69" x1="13.621">
			<stop stop-color="#95C11F" offset=".05"/>
			<stop stop-color="#009FE3" offset=".95"/>
		</linearGradient>
		<rect height="5.6" width="12.4" y="9.9" x="127.8" fill="url(#SVGID_1_)"/>
		<linearGradient id="SVGID_2_" y2="26.161" gradientUnits="userSpaceOnUse" x2="176.54" y1="26.161" x1="13.614">
			<stop stop-color="#95C11F" offset=".05"/>
			<stop stop-color="#009FE3" offset=".95"/>
		</linearGradient>
		<path d="m133.5 27.6c-0.8 0-1.3-0.4-1.3-1.2v-0.8c0-0.9 0.4-1.3 1.3-1.3h6.6v-5.2h-7.1c-4.2 0-7 2.8-7 7v0.4c0.1 4 2.9 6.7 7 6.7h7.1v-5.6h-6.6z" fill="url(#SVGID_2_)"/>
		<linearGradient id="SVGID_3_" y2="21.561" gradientUnits="userSpaceOnUse" x2="176.41" y1="21.561" x1="13.477">
			<stop stop-color="#95C11F" offset=".05"/>
			<stop stop-color="#009FE3" offset=".95"/>
		</linearGradient>
		<path d="m162.1 16.9c0-4.2-2.8-7.1-7-7.1h-11.6v5.6h10.8c0.9 0 1.3 0.4 1.3 1.3v2.2h-6.9c-4.2 0-7 2.8-7 7v0.4c0.1 4 2.9 6.7 7 6.7h13.4v-16.1zm-12.9 10.7c-0.8 0-1.3-0.4-1.3-1.2v-0.8c0-0.9 0.4-1.3 1.3-1.3h6.4v3.4h-6.4z" fill="url(#SVGID_3_)"/>
		<linearGradient id="SVGID_4_" y2="21.542" gradientUnits="userSpaceOnUse" x2="176.41" y1="21.542" x1="13.46">
			<stop stop-color="#95C11F" offset=".05"/>
			<stop stop-color="#009FE3" offset=".95"/>
		</linearGradient>
		<path d="m171.3 9.8c-4.2 0-7.1 2.8-7.1 7.1v16.3h6.5v-16.4c0-0.9 0.5-1.3 1.3-1.3h4.5v-5.7h-5.2z" fill="url(#SVGID_4_)"/>
		<linearGradient id="SVGID_5_" y2="28.22" gradientUnits="userSpaceOnUse" x2="176.54" y1="28.22" x1="13.62">
			<stop stop-color="#95C11F" offset=".05"/>
			<stop stop-color="#009FE3" offset=".95"/>
		</linearGradient>
		<path d="m104.3 30.5c0 4.2 2.8 7.1 7 7.1h5.6c0.9 0 1.3 0.5 1.3 1.4v0.9c-0.1 0.8-0.5 1.2-1.3 1.2h-11.2v5.6h11.9c4.1 0 6.9-2.7 7-6.7v-0.4c0-4.2-2.8-7-7-7h-5.3c-0.9 0-1.3-0.4-1.3-1.3v-1.4h6.9c4.2 0 7.1-2.8 7.1-7.1v-5.6c0-4.2-2.8-7.1-7.1-7.1h-6.4c-4.2 0-7 2.8-7 7.1v13.3zm6.6-13.7c0-0.9 0.4-1.3 1.3-1.3h4.7c0.9 0 1.3 0.4 1.3 1.3v5.8c0 0.9-0.4 1.3-1.3 1.3h-6.1v-7.1z" fill="url(#SVGID_5_)"/>
		<linearGradient id="SVGID_6_" y2="16.619" gradientUnits="userSpaceOnUse" x2="176.41" y1="16.619" x1="13.491">
			<stop stop-color="#95C11F" offset=".05"/>
			<stop stop-color="#009FE3" offset=".95"/>
		</linearGradient>
		<path d="m191.9 0v9.9h-6.9c-4.2 0-7.1 2.8-7.1 7.1v9.3c0 4.2 2.8 7.1 7.1 7.1h6.4c4.2 0 7-2.8 7-7.1v-26.3h-6.5zm0 26.3c0 0.8-0.4 1.3-1.1 1.3h-5c-0.9 0-1.3-0.4-1.3-1.3v-9.4c0-0.9 0.4-1.3 1.3-1.3h6.1v10.7z" fill="url(#SVGID_6_)"/>
		<linearGradient id="SVGID_7_" y2="21.561" gradientUnits="userSpaceOnUse" x2="176.54" y1="21.561" x1="13.619">
			<stop stop-color="#95C11F" offset=".05"/>
			<stop stop-color="#009FE3" offset=".95"/>
		</linearGradient>
		<path d="m89.3 27.6c-0.9 0-1.3-0.4-1.3-1.3v-2.3h14.2v-7.1c0-4.2-2.8-7.1-7.1-7.1h-6.7c-4.2 0-7 2.8-7 7.1v9.3c0 4.2 2.8 7.1 7 7.1h11.6v-5.6h-10.7zm-1.4-10.8c0-0.9 0.5-1.3 1.3-1.3h5c0.9 0 1.3 0.4 1.3 1.3v2h-7.7v-2z" fill="url(#SVGID_7_)"/>
		<linearGradient id="SVGID_8_" y2="21.544" gradientUnits="userSpaceOnUse" x2="176.55" y1="21.544" x1="13.619">
			<stop stop-color="#95C11F" offset=".05"/>
			<stop stop-color="#009FE3" offset=".95"/>
		</linearGradient>
		<path d="m27.5 26.3c0 0.9-0.4 1.3-1.3 1.3h-4.7c-0.9 0-1.3-0.4-1.3-1.3v-16.5h-6.5v16.3c0 4.2 2.8 7.1 7 7.1h6.3c4.2 0 7.1-2.8 7.1-7.1v-16.3h-6.5v16.5z" fill="url(#SVGID_8_)"/>
		<linearGradient id="SVGID_9_" y2="21.542" gradientUnits="userSpaceOnUse" x2="176.54" y1="21.542" x1="13.618">
			<stop stop-color="#95C11F" offset=".05"/>
			<stop stop-color="#009FE3" offset=".95"/>
		</linearGradient>
		<path d="m42.7 16.8c0-0.9 0.4-1.3 1.3-1.3h4.7c0.9 0 1.3 0.4 1.3 1.3v16.4h6.5v-16.3c0-4.2-2.8-7.1-7-7.1h-6.4c-4.2 0-7.1 2.8-7.1 7.1v16.3h6.5v-16.4z" fill="url(#SVGID_9_)"/>
		<linearGradient id="SVGID_10_" y2="16.619" gradientUnits="userSpaceOnUse" x2="176.54" y1="16.619" x1="13.619">
			<stop stop-color="#95C11F" offset=".05"/>
			<stop stop-color="#009FE3" offset=".95"/>
		</linearGradient>
		<path d="m72.7 0v9.9h-6.9c-4.2 0-7.1 2.8-7.1 7.1v9.3c0 4.2 2.8 7.1 7.1 7.1h13.4v-33.4h-6.5zm0 27.6h-6.1c-0.9 0-1.3-0.5-1.3-1.4v-9.4c0-0.9 0.4-1.3 1.3-1.3h6.1v12.1z" fill="url(#SVGID_10_)"/>
		<linearGradient id="SVGID_11_" y2="16.622" gradientUnits="userSpaceOnUse" x2="176.55" y1="16.622" x1="13.618">
			<stop stop-color="#95C11F" offset=".05"/>
			<stop stop-color="#009FE3" offset=".95"/>
		</linearGradient>
		<path d="m0 26.2c0 4.2 2.8 7.1 7.1 7.1h5.2v-5.6h-4.4c-0.9 0-1.3-0.5-1.3-1.3l-0.1-26.4h-6.5v26.2z" fill="url(#SVGID_11_)"/>
</svg>
