<?xml version="1.0" encoding="UTF-8"?>
<svg width="449px" height="143px" viewBox="0 0 449 143" version="1.1" xmlns="http://www.w3.org/2000/svg" xmlns:xlink="http://www.w3.org/1999/xlink">
    <title>logo_Alpiq</title>
    <g id="V4" stroke="none" stroke-width="1" fill="none" fill-rule="evenodd">
        <g id="Artboard" transform="translate(-292.000000, -1121.000000)" fill="#FFFFFF" fill-rule="nonzero">
            <path d="M688.082097,1122.35438 C741.749153,1121.08665 752.313534,1196.30505 723.578417,1229.68849 L723.578417,1229.68849 L723.155842,1230.53364 L722.310691,1231.37879 L740.904002,1263.49451 L739.213701,1263.91708 C737.796831,1263.91708 736.379961,1263.93024 734.963091,1263.94727 L732.129351,1263.98374 C726.461872,1264.05599 720.794392,1264.09109 715.126912,1263.49451 L715.126912,1263.49451 L676.24999,1200.5308 L677.517716,1200.5308 C683.433769,1200.10822 693.575575,1200.10822 699.491629,1200.5308 L699.491629,1200.5308 L701.181929,1200.5308 L705.830257,1208.9823 L706.675408,1209.82745 L707.520558,1211.09518 L707.943133,1211.51775 L708.365709,1212.36291 L709.210859,1213.20806 L709.210859,1213.63063 L709.633434,1213.63063 L710.05601,1213.20806 L710.478585,1212.78548 C719.77524,1186.16324 718.93009,1133.34134 677.095141,1142.21542 L677.095141,1142.21542 L675.827415,1142.63799 L674.137114,1143.06057 L672.869388,1143.90572 C656.388954,1150.24435 655.121228,1175.17628 655.966379,1189.54384 L655.966379,1189.54384 L655.966379,1193.76959 C657.234105,1205.6017 659.346981,1214.89836 667.798486,1223.77244 L667.798486,1223.77244 L668.221061,1224.61759 L669.488786,1225.88531 L658.50183,1246.5915 L657.234105,1245.74635 L655.543804,1244.9012 C618.357182,1216.58866 620.892634,1123.19953 682.166044,1122.35438 L682.166044,1122.35438 Z M345.796153,1123.19953 L345.979672,1123.6218 L358.895985,1123.6221 L361.431437,1130.38331 C374.108694,1168.41508 387.631101,1206.02428 399.463208,1244.05605 L399.463208,1244.05605 L399.463208,1244.47862 L375.798995,1244.47862 L375.798995,1243.2109 L375.376419,1242.78832 L374.108694,1238.98515 L373.686118,1236.44969 L372.840968,1233.91424 L372.418393,1230.95622 L371.573242,1227.99819 C369.882941,1223.77244 369.037791,1218.70153 367.34749,1214.89836 L367.34749,1214.89836 L366.924915,1214.05321 L366.924915,1213.63063 L345.373577,1213.63063 L345.171672,1213.2078 L324.667391,1213.20806 L324.667391,1213.63063 C321.286789,1223.77244 318.328762,1233.49167 315.370735,1243.63347 L315.370735,1243.63347 L315.370735,1244.05605 L292.551672,1244.05605 L292.551672,1243.63347 C304.383779,1205.17913 318.328762,1167.99251 331.006019,1129.96073 L331.006019,1129.96073 L333.541471,1123.19953 L345.796153,1123.19953 Z M612.441129,1123.19953 L612.441129,1244.05605 L589.622066,1244.05605 L589.622066,1123.19953 L612.441129,1123.19953 Z M437.49498,1123.19953 L437.49498,1225.04016 L477.217052,1225.04016 L477.217052,1243.63347 L415.098492,1243.63347 L415.098492,1140.52511 L403.688961,1139.25739 L403.266385,1138.41224 L403.266385,1138.41224 L403.266385,1124.04468 L403.688961,1123.19953 L437.49498,1123.19953 Z M515.248824,1121.9318 L515.671399,1122.35438 L518.629426,1122.35438 C541.871064,1121.08665 566.803003,1124.88983 571.451331,1151.93465 L571.451331,1151.93465 L572.296481,1156.58297 C574.409357,1183.62779 559.196649,1201.79852 532.151833,1203.48883 L532.151833,1203.48883 L516.093974,1203.48883 L515.645672,1202.4578 L515.248824,1203.06625 L515.248824,1243.2109 L492.852336,1243.2109 L492.852336,1140.10254 L480.597654,1138.83481 L480.597654,1137.98966 C480.175079,1133.76391 480.175079,1127.84786 480.597654,1123.6221 L480.597654,1123.6221 L480.597654,1122.77695 L482.71053,1122.77695 L484.823407,1122.35438 C491.58461,1122.35438 497.923239,1121.9318 504.684443,1121.9318 L504.684443,1121.9318 L515.248824,1121.9318 Z M345.295672,1142.8678 L344.951002,1143.90572 C345.373577,1145.59602 342.838126,1151.51207 342.415551,1153.62495 L342.415551,1153.62495 L328.893143,1196.30505 L345.373577,1196.30505 L345.594672,1196.7268 L362.276587,1196.72762 L348.754179,1154.04752 C347.909029,1151.0895 347.063878,1147.70889 346.218728,1144.32829 L346.218728,1144.32829 L345.796153,1143.06057 L345.373577,1143.06057 L345.295672,1142.8678 Z M548.632268,1155.31525 C544.829091,1139.25739 532.574409,1139.67996 518.629426,1140.52511 L518.629426,1140.52511 L515.671399,1140.52511 L515.671399,1185.31809 L516.093974,1185.74067 C516.206714,1185.88159 516.317575,1186.02252 516.426806,1186.16344 L528.771232,1186.16324 L530.038957,1185.74067 L531.306683,1185.74067 C532.996984,1185.74067 535.955011,1184.47294 537.645312,1184.05036 L537.645312,1184.05036 L538.490462,1183.62779 L539.335613,1183.20521 C541.025914,1181.93749 541.871064,1181.93749 543.13879,1179.82461 L543.13879,1179.82461 L544.829091,1178.13431 L545.251666,1177.28916 C549.054843,1172.21826 549.054843,1165.45705 549.054843,1159.11843 L549.054843,1157.8507 L548.632268,1156.58297 Z" id="logo_Alpiq"></path>
        </g>
    </g>
</svg>