<?xml version="1.0" encoding="UTF-8"?>
<svg width="104px" height="103px" viewBox="0 0 104 103" version="1.1" xmlns="http://www.w3.org/2000/svg" xmlns:xlink="http://www.w3.org/1999/xlink">
    <title>logo_yello</title>
    <g id="V4" stroke="none" stroke-width="1" fill="none" fill-rule="evenodd">
        <g id="Artboard" transform="translate(-293.000000, -557.000000)" fill="#FFFFFF">
            <path d="M345,557 C373.717927,557 397,580.05663 397,608.499065 C397,636.94337 373.717927,660 345,660 C316.280202,659.998129 293,636.941499 293,608.497194 C293,580.05663 316.280202,557 345,557 Z M355.771188,628.917605 C349.726796,630.586662 343.856487,632.207828 337.870122,631.710965 C327.979266,630.887848 323.479338,627.051 321.52887,624.443215 C320.411375,622.946639 321.167603,622.557529 321.603744,622.74086 C321.837725,622.840008 322.24766,623.068236 322.507847,623.216023 C327.030238,625.782651 338.250108,630.152654 355.081785,625.068036 C371.604608,620.073212 383.12959,624.123322 384.338805,626.949981 C384.49604,627.318513 384.127286,627.690786 383.745428,627.559836 C373.490497,624.024174 364.451519,626.520464 355.771188,628.917605 Z M305.52455,624.201893 C305.52455,625.401024 306.432397,626.343867 307.817567,626.343867 L308.122678,626.343867 C311.497624,626.343867 313.229086,625.058683 315.046652,620.473547 L322.70252,601.149004 C322.83748,600.792257 322.911044,600.415307 322.919654,600.034054 C322.919654,598.748869 321.925702,597.763 320.583585,597.763 C319.458603,597.763 318.724838,598.363501 318.331749,599.47658 L313.876746,611.860749 L313.792513,611.860749 L309.07545,599.47658 C308.641181,598.36163 307.948596,597.763 306.825486,597.763 C305.440317,597.763 304.40144,598.748869 304.40144,600.034054 C304.404772,600.420358 304.493629,600.80105 304.661627,601.149004 L311.538805,617.817123 L310.932325,619.487677 C310.153636,621.588496 309.331893,622.01502 307.817567,622.059918 C306.389345,622.102944 305.52455,623.002761 305.52455,624.201893 Z M338.238877,605.986687 C338.238877,605.260847 338.152772,604.74827 337.980562,604.235693 C337.417135,602.572622 335.857883,601.590494 333.911159,601.590494 C331.921382,601.590494 330.364003,602.572622 329.802448,604.235693 C329.628366,604.74827 329.542261,605.260847 329.542261,605.986687 C329.542261,606.158793 329.628366,606.242976 329.800576,606.242976 L337.980562,606.242976 C338.152772,606.242976 338.238877,606.158793 338.238877,605.986687 Z M334.130166,619.117274 C329.671418,619.117274 326.556659,616.973429 325.388625,613.374162 C324.956228,612.045951 324.652988,610.45958 324.652988,608.319475 C324.652988,606.17563 324.911303,604.548103 325.345572,603.219891 C326.513607,599.620625 329.714471,597.519806 333.868107,597.519806 C338.152772,597.519806 341.267531,599.704808 342.435565,603.219891 C342.867963,604.59113 343.12815,606.218656 343.12815,608.188525 C343.12815,609.174395 342.52167,609.860949 341.441613,609.860949 L329.802448,609.860949 C329.628366,609.860949 329.542261,609.947002 329.542261,610.119109 C329.547315,610.661243 329.650079,611.197953 329.8455,611.703609 C330.538085,613.718375 332.181569,614.831454 334.562563,614.831454 C336.335205,614.831454 337.50324,614.317005 338.843485,613.417189 C339.406911,613.03182 339.970338,612.732505 340.617999,612.732505 C341.87401,612.732505 342.6527,613.589295 342.6527,614.7454 C342.6527,615.561035 342.304536,616.116639 341.656875,616.629216 C339.796256,618.131404 337.50324,619.117274 334.130166,619.117274 Z M346.647228,612.855973 C346.647228,616.797581 348.118503,618.8984 352.358243,618.8984 L352.706407,618.8984 C354.434125,618.8984 355.214687,617.955557 355.214687,616.711528 C355.214687,615.641476 354.608207,614.784686 353.179986,614.612579 C351.968898,614.442344 351.493449,613.927896 351.493449,612.468734 L351.493449,591.815979 C351.493449,590.229608 350.454572,589.288636 349.071274,589.288636 C347.643053,589.288636 346.647228,590.231479 346.647228,591.815979 L346.647228,612.855973 Z M357.87833,612.855973 C357.87833,616.797581 359.349604,618.8984 363.589345,618.8984 L363.935637,618.8984 C365.665227,618.8984 366.445788,617.955557 366.445788,616.711528 C366.445788,615.641476 365.839309,614.784686 364.409215,614.612579 C363.2,614.442344 362.72455,613.927896 362.72455,612.468734 L362.72455,591.815979 C362.72455,590.229608 361.687545,589.288636 360.302376,589.288636 C358.872282,589.288636 357.87833,590.231479 357.87833,591.815979 L357.87833,612.855973 Z M377.250108,614.831454 C379.200576,614.831454 380.542693,613.845584 381.149172,612.130133 L381.149172,612.132004 C381.495464,611.061952 381.581569,610.076082 381.581569,608.319475 C381.581569,606.562869 381.495464,605.618155 381.149172,604.505076 C380.542693,602.791496 379.200576,601.805627 377.250108,601.805627 C375.301512,601.805627 373.914471,602.791496 373.307991,604.503206 C372.961699,605.618155 372.875594,606.560998 372.875594,608.319475 C372.875594,610.074211 372.961699,611.061952 373.307991,612.132004 C373.914471,613.845584 375.301512,614.831454 377.250108,614.831454 Z M377.25198,619.117274 C373.010367,619.117274 369.807631,617.016455 368.641469,613.417189 C368.164147,611.959898 367.948884,610.588659 367.948884,608.319475 C367.948884,606.04655 368.164147,604.675312 368.639597,603.219891 C369.807631,599.620625 373.010367,597.519806 377.250108,597.519806 C381.446796,597.519806 384.64766,599.620625 385.815695,603.219891 C386.293017,604.675312 386.508279,606.04655 386.508279,608.319475 C386.508279,610.588659 386.293017,611.959898 385.815695,613.417189 C384.64766,617.016455 381.446796,619.117274 377.25198,619.117274 Z" id="logo_yello"></path>
        </g>
    </g>
</svg>