<?xml version="1.0" encoding="UTF-8"?>
<svg width="418px" height="110px" viewBox="0 0 418 110" version="1.1" xmlns="http://www.w3.org/2000/svg" xmlns:xlink="http://www.w3.org/1999/xlink">
    <title>logo_ppas</title>
    <g id="V4" stroke="none" stroke-width="1" fill="none" fill-rule="evenodd">
        <g id="Artboard" transform="translate(-293.000000, -889.000000)">
            <g id="ppas" transform="translate(293.000000, 889.000000)">
                <path d="M87.299115,0.277310924 L87.299115,109.537815 L13.5942478,109.537815 C6.10353982,109.537815 0,103.436975 0,95.9495798 L0,95.9495798 L0,13.8655462 C0,6.37815126 6.01106195,0.277310924 13.5017699,0.277310924 L13.5017699,0.277310924 L87.299115,0.277310924 Z M45.9615044,63.2268908 C43.9269912,63.2268908 34.7716814,75.7058824 34.7716814,85.2268908 C34.7716814,89.5714286 36.3438053,92.6218487 38.3783186,94.5630252 C40.7827434,96.8739496 43.9269912,97.7058824 45.9615044,97.7058824 C48.0884956,97.7058824 51.1402655,96.8739496 53.5446903,94.5630252 C55.5792035,92.6218487 57.1513274,89.5714286 57.1513274,85.2268908 C57.1513274,75.7058824 47.8110619,63.2268908 45.9615044,63.2268908 Z M45.3141593,13.5882353 C40.5053097,13.5882353 15.2588496,49.9159664 18.3106195,72.1932773 C20.0676991,84.6722689 25.2464602,90.7731092 31.1650442,93.8235294 C30.2402655,92.2521008 29.5004425,90.4957983 28.7606195,88.3697479 C21.8247788,67.2941176 42.1699115,42.2436975 45.3141593,42.2436975 C48.2734513,42.2436975 68.6185841,67.1092437 61.8676991,88.3697479 C61.220354,90.4957983 60.480531,92.2521008 59.5557522,93.7310924 C65.2893805,90.6806723 70.2831858,84.487395 71.4853982,72.1932773 C73.7973451,49.9159664 49.8455752,13.5882353 45.3141593,13.5882353 Z" id="Combined-Shape" fill="#FFFFFF" fill-rule="nonzero"></path>
                <g id="Group" transform="translate(131.318584, 3.697479)" fill="#FFFFFF" fill-rule="nonzero">
                    <path d="M0,9.5210084 L8.87787611,9.5210084 C15.9986726,9.5210084 19.8827434,14.1428571 19.8827434,19.5966387 C19.8827434,25.1428571 15.9986726,29.6722689 8.87787611,29.6722689 L5.36371681,29.6722689 L5.36371681,40.8571429 L0,40.8571429 L0,9.5210084 Z M8.69292035,25.1428571 C12.5769912,25.1428571 14.2415929,22.3697479 14.2415929,19.5966387 C14.2415929,16.6386555 12.5769912,14.0504202 8.69292035,14.0504202 L5.36371681,14.0504202 L5.36371681,25.1428571 L8.69292035,25.1428571 Z" id="Shape"></path>
                    <path d="M25.2464602,10.7226891 C28.5756637,9.70588235 31.9048673,8.96638655 35.1415929,8.96638655 C41.9849558,8.96638655 45.5915929,13.8655462 45.5915929,19.1344538 C45.5915929,22.1848739 43.9269912,26.6218487 39.2106195,28.2857143 L45.2216814,40.8571429 L39.3955752,40.8571429 L33.9393805,29.0252101 L30.610177,29.0252101 L30.610177,40.8571429 L25.2464602,40.8571429 L25.2464602,10.7226891 L25.2464602,10.7226891 Z M34.6792035,24.6806723 C38.1933628,24.6806723 40.0429204,22.2773109 40.0429204,19.0420168 C40.0429204,15.9915966 38.6557522,13.4033613 35.2340708,13.4033613 C33.6619469,13.4033613 32.1823009,13.5882353 30.610177,14.0504202 L30.610177,24.6806723 L34.6792035,24.6806723 Z" id="Shape"></path>
                    <path d="M56.0415929,14.2352941 C56.7814159,11.1848739 59.000885,8.87394958 62.3300885,8.87394958 C65.659292,8.87394958 67.8787611,11.2773109 68.6185841,14.2352941 L75.6469027,40.7647059 L70.2831858,40.7647059 L68.1561947,32.3529412 L56.6889381,32.3529412 L54.5619469,40.7647059 L49.1982301,40.7647059 L56.0415929,14.2352941 Z M67.0464602,27.9159664 L63.8097345,14.8823529 C63.6247788,14.0504202 63.1623894,13.4957983 62.4225664,13.4957983 C61.5902655,13.4957983 61.220354,14.0504202 61.0353982,14.8823529 L57.7986726,27.9159664 L67.0464602,27.9159664 Z" id="Shape"></path>
                    <path d="M79.4384956,36.697479 L93.4951327,14.0504202 L79.900885,14.0504202 L79.900885,9.5210084 L99.6911504,9.5210084 L99.6911504,13.6806723 L85.6345133,36.3277311 L100.430973,36.3277311 L100.430973,40.8571429 L79.4384956,40.8571429 L79.4384956,36.697479 L79.4384956,36.697479 Z M85.7269912,0.462184874 L89.9809735,2.86554622 L94.2349558,0.462184874 L96.3619469,3.60504202 L89.9809735,7.11764706 L83.6,3.60504202 L85.7269912,0.462184874 Z" id="Shape"></path>
                    <path d="M105.517257,35.2184874 C108.384071,36.1428571 110.788496,36.789916 113.562832,36.789916 C117.169469,36.789916 118.649115,34.9411765 118.649115,32.3529412 C118.649115,25.697479 105.054867,27.9159664 105.054867,17.4705882 C105.054867,12.0168067 109.493805,8.87394958 115.504867,8.87394958 C118.371681,8.87394958 120.406195,9.5210084 123.273009,10.5378151 L121.885841,14.789916 C119.481416,13.9579832 117.816814,13.4033613 115.504867,13.4033613 C112.360619,13.4033613 110.696018,14.9747899 110.696018,17.4705882 C110.696018,23.2941176 124.290265,21.907563 124.290265,32.3529412 C124.290265,37.8067227 120.036283,41.3193277 113.562832,41.3193277 C110.233628,41.3193277 107.829204,40.5798319 104.592478,39.5630252 L105.517257,35.2184874 Z" id="Path"></path>
                    <path d="M129.931416,9.5210084 L135.295133,9.5210084 L135.295133,22.6470588 L138.531858,22.4621849 L144.450442,9.5210084 L150.369027,9.5210084 L143.895575,22.9243697 C145.745133,23.6638655 146.854867,25.1428571 147.502212,27.1764706 L152.126106,40.8571429 L146.484956,40.8571429 L142.323451,28.6554622 C141.95354,27.6386555 141.306195,26.8067227 139.919027,26.8991597 L135.387611,27.1764706 L135.387611,39.7478992 C135.387611,40.394958 135.017699,40.8571429 134.277876,40.8571429 L130.023894,40.8571429 L129.931416,9.5210084 L129.931416,9.5210084 Z" id="Path"></path>
                    <path d="M161.836283,14.2352941 C162.576106,11.1848739 164.795575,8.87394958 168.124779,8.87394958 C171.453982,8.87394958 173.673451,11.2773109 174.413274,14.2352941 L181.441593,40.7647059 L176.077876,40.7647059 L173.858407,32.3529412 L162.39115,32.3529412 L160.264159,40.7647059 L154.900442,40.7647059 L161.836283,14.2352941 Z M162.761062,3.88235294 L172.00885,0.462184874 L173.396018,4.34453782 L163.963274,7.11764706 L162.761062,3.88235294 Z M172.84115,27.9159664 L169.604425,14.8823529 C169.419469,14.0504202 168.95708,13.4957983 168.217257,13.4957983 C167.384956,13.4957983 167.015044,14.0504202 166.830088,14.8823529 L163.593363,27.9159664 L172.84115,27.9159664 Z" id="Shape"></path>
                    <path d="M0,63.3193277 L8.87787611,63.3193277 C15.9986726,63.3193277 19.8827434,67.9411765 19.8827434,73.394958 C19.8827434,78.9411765 15.9986726,83.4705882 8.87787611,83.4705882 L5.36371681,83.4705882 L5.36371681,94.6554622 L0,94.6554622 L0,63.3193277 Z M8.69292035,78.9411765 C12.5769912,78.9411765 14.2415929,76.1680672 14.2415929,73.394958 C14.2415929,70.4369748 12.5769912,67.8487395 8.69292035,67.8487395 L5.36371681,67.8487395 L5.36371681,78.9411765 L8.69292035,78.9411765 Z" id="Shape"></path>
                    <path d="M25.2464602,63.3193277 L30.610177,63.3193277 L30.610177,90.1260504 L44.3893805,90.1260504 L44.3893805,93.5462185 C44.3893805,94.1932773 44.019469,94.6554622 43.279646,94.6554622 L25.2464602,94.6554622 L25.2464602,63.3193277 Z" id="Path"></path>
                    <path d="M53.1747788,81.9915966 C49.0132743,81.0672269 47.1637168,77.9243697 46.3314159,73.7647059 L44.2044248,63.3193277 L49.5681416,63.3193277 L51.510177,73.0252101 C52.0650442,75.8907563 52.989823,77.8319328 55.8566372,77.8319328 C58.7234513,77.8319328 59.5557522,75.7983193 60.2030973,72.9327731 L62.1451327,63.3193277 L67.5088496,63.3193277 L65.3818584,73.7647059 C64.5495575,77.9243697 62.7,81.1596639 58.5384956,81.9915966 L58.5384956,94.6554622 L53.2672566,94.6554622 L53.2672566,81.9915966 L53.1747788,81.9915966 Z" id="Path"></path>
                    <path d="M72.6876106,63.3193277 L77.5889381,63.3193277 L89.9809735,84.9495798 C89.7960177,82.8235294 89.7035398,80.605042 89.7035398,79.0336134 L89.7035398,63.3193277 L94.9747788,63.3193277 L94.9747788,94.6554622 L90.0734513,94.6554622 L77.6814159,73.0252101 C77.8663717,75.1512605 77.9588496,77.3697479 77.9588496,78.9411765 L77.9588496,94.6554622 L72.6876106,94.6554622 L72.6876106,63.3193277 L72.6876106,63.3193277 Z" id="Path"></path>
                    <path d="M107.181858,68.0336134 C107.921681,65.0756303 110.14115,62.6722689 113.470354,62.6722689 C116.799558,62.6722689 119.019027,65.0756303 119.75885,68.0336134 L126.787168,94.5630252 L121.423451,94.5630252 L119.29646,86.1512605 L107.829204,86.1512605 L105.702212,94.5630252 L100.338496,94.5630252 L107.181858,68.0336134 Z M108.106637,57.6806723 L117.354425,54.2605042 L118.741593,58.1428571 L109.30885,60.9159664 L108.106637,57.6806723 Z M118.186726,81.7142857 L114.95,68.6806723 C114.765044,67.8487395 114.302655,67.2941176 113.562832,67.2941176 C112.730531,67.2941176 112.360619,67.8487395 112.175664,68.6806723 L108.938938,81.7142857 L118.186726,81.7142857 Z" id="Shape"></path>
                    <path d="M132.058407,64.5210084 C135.387611,63.5042017 138.716814,62.7647059 141.95354,62.7647059 C148.796903,62.7647059 152.40354,67.6638655 152.40354,72.9327731 C152.40354,75.8907563 150.738938,80.4201681 146.022566,82.0840336 L152.033628,94.6554622 L146.207522,94.6554622 L140.751327,82.8235294 L137.422124,82.8235294 L137.422124,94.6554622 L132.058407,94.6554622 L132.058407,64.5210084 L132.058407,64.5210084 Z M141.49115,78.4789916 C145.00531,78.4789916 146.854867,76.0756303 146.854867,72.8403361 C146.854867,69.789916 145.467699,67.2016807 142.046018,67.2016807 C140.566372,67.2016807 138.994248,67.3865546 137.514602,67.8487395 L137.514602,78.4789916 L141.49115,78.4789916 L141.49115,78.4789916 Z" id="Shape"></path>
                    <path d="M157.212389,71.6386555 C157.212389,66.6470588 160.356637,63.3193277 166.737611,63.3193277 L175.245575,63.3193277 L175.245575,67.8487395 L166.830088,67.8487395 C163.593363,67.8487395 162.576106,69.3277311 162.576106,72.0084034 L162.576106,76.3529412 L173.858407,76.3529412 L173.858407,80.8823529 L162.576106,80.8823529 L162.576106,86.0588235 C162.576106,88.8319328 163.593363,90.2184874 166.830088,90.2184874 L175.430531,90.2184874 L175.430531,93.6386555 C175.430531,94.2857143 175.060619,94.7478992 174.320796,94.7478992 L166.737611,94.7478992 C160.449115,94.7478992 157.212389,91.4201681 157.212389,86.4285714 L157.212389,71.6386555 L157.212389,71.6386555 Z" id="Path"></path>
                    <path d="M181.441593,63.3193277 L186.34292,63.3193277 L198.734956,84.9495798 C198.55,82.8235294 198.457522,80.605042 198.457522,79.0336134 L198.457522,63.3193277 L203.728761,63.3193277 L203.728761,94.6554622 L198.827434,94.6554622 L186.435398,73.0252101 C186.620354,75.1512605 186.712832,77.3697479 186.712832,78.9411765 L186.712832,94.6554622 L181.441593,94.6554622 L181.441593,63.3193277 L181.441593,63.3193277 Z" id="Path"></path>
                    <path d="M210.202212,89.0168067 C213.069027,89.9411765 215.473451,90.5882353 218.247788,90.5882353 C221.854425,90.5882353 223.334071,88.7394958 223.334071,86.1512605 C223.334071,79.4957983 209.739823,81.7142857 209.739823,71.2689076 C209.739823,65.8151261 214.178761,62.6722689 220.189823,62.6722689 C223.056637,62.6722689 225.09115,63.3193277 227.957965,64.3361345 L226.570796,68.5882353 C224.166372,67.7563025 222.50177,67.2016807 220.189823,67.2016807 C217.045575,67.2016807 215.380973,68.7731092 215.380973,71.2689076 C215.380973,77.092437 228.975221,75.7058824 228.975221,86.1512605 C228.975221,91.605042 224.721239,95.1176471 218.247788,95.1176471 C214.918584,95.1176471 212.514159,94.3781513 209.277434,93.3613445 L210.202212,89.0168067 Z" id="Path"></path>
                    <path d="M234.70885,63.3193277 L240.072566,63.3193277 L240.072566,76.4453782 L243.309292,76.2605042 L249.227876,63.3193277 L255.14646,63.3193277 L248.673009,76.7226891 C250.522566,77.4621849 251.632301,78.9411765 252.279646,80.9747899 L256.90354,94.6554622 L251.262389,94.6554622 L247.100885,82.4537815 C246.730973,81.4369748 246.083628,80.605042 244.69646,80.697479 L240.165044,80.9747899 L240.165044,93.5462185 C240.165044,94.1932773 239.795133,94.6554622 239.05531,94.6554622 L234.801327,94.6554622 L234.70885,63.3193277 L234.70885,63.3193277 Z" id="Path"></path>
                    <path d="M266.521239,68.0336134 C267.261062,65.0756303 269.480531,62.6722689 272.809735,62.6722689 C276.138938,62.6722689 278.358407,65.0756303 279.09823,68.0336134 L286.126549,94.5630252 L280.762832,94.5630252 L278.635841,86.1512605 L267.168584,86.1512605 L265.041593,94.5630252 L259.677876,94.5630252 L266.521239,68.0336134 Z M267.538496,57.6806723 L276.786283,54.2605042 L278.173451,58.1428571 L268.740708,60.9159664 L267.538496,57.6806723 Z M277.526106,81.7142857 L274.289381,68.6806723 C274.104425,67.8487395 273.642035,67.2941176 272.902212,67.2941176 C272.069912,67.2941176 271.7,67.8487395 271.515044,68.6806723 L268.185841,81.7142857 L277.526106,81.7142857 Z" id="Shape"></path>
                </g>
                <rect id="Rectangle" fill="#FFFFFF" fill-rule="nonzero" x="92.570354" y="0.277310924" width="17.0159292" height="109.168067"></rect>
                <g id="Group" transform="translate(17.570796, 12.941176)"></g>
            </g>
        </g>
    </g>
</svg>