<?xml version="1.0" encoding="UTF-8"?>
<svg width="577px" height="95px" viewBox="0 0 577 95" version="1.1" xmlns="http://www.w3.org/2000/svg" xmlns:xlink="http://www.w3.org/1999/xlink">
    <title>logo_bohemia</title>
    <g id="V4" stroke="none" stroke-width="1" fill="none" fill-rule="evenodd">
        <g id="Artboard" transform="translate(-293.000000, -721.000000)" fill="#FFFFFF" fill-rule="nonzero">
            <path d="M349.9,769.9 C362.2,769.9 371,780 371,792.5 C371,805.2 362.5,815.1 349.9,815.1 C337.5,815.1 328.8,805.2 328.8,792.5 C328.8,779.7 337.4,769.9 349.9,769.9 Z M812.7,769.8 C822,769.8 829.6,774.2 829.6,778.5 C829.6,781.1 827.9,782.8 825.8,782.8 C821.6,782.8 820.8,778.3 812.7,778.3 C805,778.3 801.2,785 801.2,792.4 C801.2,799.9 804.9,806.5 812.7,806.5 C817.5,806.5 823.1,803.8 823.1,796.8 L816.8,796.8 C814.3,796.8 812.5,795 812.5,792.5 C812.5,789.9 814.5,788.3 816.8,788.3 L827.3,788.4 C831.2,788.4 832.7,790.4 832.7,794.3 C832.7,806.1 825,815 812.7,815 C800.2,815 791.6,805.1 791.6,792.4 C791.6,779.6 800.2,769.8 812.7,769.8 Z M543,769.9 C546.3,769.9 548.5,772.1 549.6,775 L561.6,808.4 C562,809.4 562.1,810.2 562.1,810.7 C562.1,813.1 560.1,814.8 557.9,814.8 C555.3,814.8 554,813.4 553.4,811.6 L551.6,805.8 L534.5,805.8 L532.7,811.5 C532.1,813.4 530.8,814.8 528.3,814.8 C525.8,814.8 523.8,813 523.8,810.5 C523.8,809.5 524.1,808.8 524.2,808.5 L536.4,775 C537.4,772.2 539.8,769.9 543,769.9 Z M410.3,769.9 C412.9,769.9 414.9,771.6 414.9,774.7 L414.9,809.6 C414.9,812.7 412.9,814.4 410.3,814.4 C407.7,814.4 405.7,812.7 405.7,809.6 L405.7,796.2 L386.4,796.2 L386.4,809.6 C386.4,812.7 384.4,814.4 381.8,814.4 C379.2,814.4 377.2,812.7 377.2,809.6 L377.2,774.7 L377.2,774.7 C377.2,771.6 379.2,769.9 381.8,769.9 C384.4,769.9 386.4,771.6 386.4,774.7 L386.4,787.7 L405.7,787.7 L405.7,774.7 C405.7,771.6 407.7,769.9 410.3,769.9 Z M513.8,769.9 C516.4,769.9 518.4,771.6 518.4,774.7 L518.4,809.6 C518.4,812.7 516.4,814.4 513.8,814.4 C511.2,814.4 509.2,812.7 509.2,809.6 L509.2,774.7 C509.2,771.6 511.2,769.9 513.8,769.9 Z M714,769.9 C716.6,769.9 718.6,771.6 718.6,774.7 L718.6,809.6 C718.6,812.7 716.6,814.4 714,814.4 C712.8,814.4 711,813.5 710.1,812.4 L690.6,786.7 L690.5,786.7 L690.5,809.6 C690.5,812.7 688.5,814.4 685.9,814.4 C683.3,814.4 681.3,812.7 681.3,809.6 L681.3,774.7 C681.3,771.6 683.3,769.9 685.9,769.9 C687.1,769.9 689,770.8 689.8,771.9 L709.3,797.9 L709.4,797.9 L709.4,774.7 C709.4,771.6 711.4,769.9 714,769.9 Z M490.7,769.9 C494,769.9 496.3,772.4 496.7,774.6 L502.4,808.9 C502.5,809.3 502.5,809.6 502.5,809.9 C502.5,812.6 500.5,814.3 498.1,814.3 C495,814.3 493.7,812.9 493.3,810 L489.7,785 L489.6,785 L482.2,810.7 C481.8,812.2 480.6,814.3 477.3,814.3 C474,814.3 472.8,812.2 472.4,810.7 L465,785 L464.9,785 L461.3,810 C460.9,812.9 459.6,814.3 456.5,814.3 C454,814.3 452.1,812.6 452.1,809.9 C452.1,809.6 452.1,809.2 452.2,808.9 L458,774.6 C458.4,772.4 460.8,769.9 464,769.9 C467.1,769.9 469.5,772.1 470.1,774.3 L477.3,798.6 L477.4,798.6 L484.6,774.3 C485.3,772.1 487.7,769.9 490.7,769.9 Z M600.3,749.4 L603.5,760.7 L609.9,750.8 L609.7,762.6 L618.7,755 L615,766.2 L625.8,761.6 L618.9,771.2 L630.6,770 L621.3,777.2 L632.8,779.6 L621.8,783.6 L632.1,789.2 L620.4,789.8 L628.6,798.3 L617.2,795.4 L622.6,805.9 L612.5,799.8 L614.5,811.4 L606.7,802.6 L605.3,814.3 L600.4,803.6 L595.6,814.3 L594.1,802.6 L586.3,811.5 L588.3,799.9 L578.3,806 L583.7,795.6 L572.3,798.5 L580.5,790 L568.7,789.4 L579,783.7 L567.9,779.7 L579.4,777.3 L570.1,770.2 L581.8,771.3 L574.9,761.7 L585.8,766.3 L582,755.1 L591.1,762.6 L590.8,750.8 L597.2,760.6 L600.3,749.4 Z M865,769.8 C867.6,769.8 869.4,771.8 869.4,774.3 C869.4,775.3 869.1,776.3 868.5,777.1 L857.1,793.4 L857.1,809.8 C857.1,812.1 855.8,814.3 852.5,814.3 C849.3,814.3 847.9,812.1 847.9,809.8 L847.9,793.4 L836.3,777.1 C835.7,776.3 835.4,775.3 835.4,774.3 C835.4,771.8 837.2,769.8 839.8,769.8 C841.4,769.8 842.8,770.5 843.6,771.6 L852.4,784.4 L861.2,771.6 C862,770.4 863.4,769.8 865,769.8 Z M772.3,769.9 C781.8,769.9 787.6,774.1 787.6,783.8 C787.6,790.5 782.5,794.4 776.2,795.4 L786.6,806.6 C787.5,807.5 787.8,808.4 787.8,809.3 C787.8,811.7 785.9,814 783.2,814 C782.1,814 780.6,813.6 779.6,812.4 L766,795.9 L765.9,795.9 L765.9,809.2 C765.9,812.3 763.9,814 761.3,814 C758.7,814 756.7,812.3 756.7,809.2 L756.8,774.7 C756.8,771.8 758.5,769.9 761.5,769.9 L772.3,769.9 Z M309.6,769.9 C316,769.9 321.1,774.2 321.1,780.7 C321.1,785 319.3,787.9 315.4,789.7 L315.4,789.8 C320.6,790.5 324.7,794.9 324.7,800.2 C324.7,808.9 318.9,813.5 310.5,813.5 L297.9,813.5 C295.1,813.5 293,811.7 293,808.8 L293,774.5 L293,774.5 C293,771.6 295,769.9 297.8,769.9 L309.6,769.9 Z M746.1,769.9 C749,769.9 750.5,772 750.5,774.1 C750.5,776.2 749,778.3 746.1,778.3 L735.3,778.3 L735.3,787.3 L745.3,787.3 C748.3,787.3 749.8,789.4 749.8,791.5 C749.8,793.6 748.3,795.7 745.3,795.7 L735.3,795.7 L735.3,805 L746.7,805 C749.6,805 751.1,807.1 751.1,809.2 C751.1,811.3 749.6,813.4 746.7,813.4 L730.9,813.4 C728.2,813.4 726.2,811.6 726.2,808.8 L726.2,775.2 L726.1,775.2 C726.1,772.1 727.6,769.9 730.9,769.9 L746.1,769.9 Z M442.8,769.9 C445.7,769.9 447.2,772 447.2,774.1 C447.2,776.2 445.7,778.3 442.8,778.3 L432,778.3 L432,787.3 L442.1,787.3 C445.1,787.3 446.6,789.4 446.6,791.5 C446.6,793.6 445.1,795.7 442.1,795.7 L432,795.7 L432,805 L443.3,805 C446.2,805 447.7,807.1 447.7,809.2 C447.7,811.3 446.2,813.4 443.3,813.4 L427.5,813.4 C424.8,813.4 422.8,811.6 422.8,808.8 L422.8,775.2 C422.8,772.1 424.3,769.9 427.6,769.9 L442.8,769.9 Z M670.9,769.9 C673.8,769.9 675.3,772 675.3,774.1 C675.3,776.2 673.8,778.3 670.9,778.3 L660.1,778.3 L660.1,787.3 L670.2,787.3 C673.2,787.3 674.7,789.4 674.7,791.5 C674.7,793.6 673.2,795.7 670.2,795.7 L660.1,795.7 L660.1,805 L671.5,805 C674.4,805 675.9,807.1 675.9,809.2 C675.9,811.3 674.4,813.4 671.5,813.4 L655.7,813.4 C653,813.4 651,811.6 651,808.8 L650.9,775.2 C650.9,772.1 652.4,769.9 655.7,769.9 L670.9,769.9 Z M350,778.4 C342.3,778.4 338.5,785.1 338.5,792.5 C338.5,800 342.2,806.6 350,806.6 C357.8,806.6 361.5,800 361.5,792.5 C361.5,785.1 357.6,778.4 350,778.4 Z M308.7,795.4 L302.2,795.4 L302.2,805.5 L309.4,805.5 C312.7,805.5 315.2,803.6 315.2,800.2 C315.2,797.3 313,795.4 308.7,795.4 Z M543.1,779.5 L543,779.5 L537.1,797.3 L548.8,797.3 L543.1,779.5 Z M772.3,778.3 L766,778.3 L766,789.2 L772.3,789.2 C775.7,789.2 778,787.2 778,783.7 C778,780.2 775.7,778.3 772.3,778.3 Z M307,778 L302.2,778 L302.2,787.2 L307,787.2 C310,787.2 312,785.4 312,782.4 C312,779.5 309.7,778 307,778 Z M600.4,721 C601.8,721 603.3,721.5 604.6,722.4 L604.6,722.4 L648.5,754.9 C651.7,757.2 652.3,761.7 650,764.8 C647.7,768 643.2,768.6 640.1,766.3 L640.1,766.3 L600.3,736.9 L560.6,766.3 L560.391299,766.448895 C557.301086,768.567704 552.948889,767.831111 550.7,764.8 C548.4,761.6 549.1,757.2 552.2,754.9 L552.2,754.9 L596.2,722.4 C597.4,721.5 598.9,721 600.4,721 Z" id="logo_bohemia"></path>
        </g>
    </g>
</svg>