<?xml version="1.0" encoding="utf-8"?>
<!-- Generator: Adobe Illustrator 22.1.0, SVG Export Plug-In . SVG Version: 6.00 Build 0)  -->
<svg version="1.1"
	 id="svg2002" shape-rendering="geometricPrecision" image-rendering="optimizeQuality" text-rendering="geometricPrecision" inkscape:version="0.44" sodipodi:docbase="C:\Dokumente und Einstellungen\Andreas\Eigene Dateien\Eigene Bilder\sonstiges\Logos\Vektor" sodipodi:docname="EON.svg" sodipodi:version="0.32" xmlns:cc="http://web.resource.org/cc/" xmlns:dc="http://purl.org/dc/elements/1.1/" xmlns:inkscape="http://www.inkscape.org/namespaces/inkscape" xmlns:rdf="http://www.w3.org/1999/02/22-rdf-syntax-ns#" xmlns:sodipodi="http://sodipodi.sourceforge.net/DTD/sodipodi-0.dtd" xmlns:svg="http://www.w3.org/2000/svg"
	 xmlns="http://www.w3.org/2000/svg" xmlns:xlink="http://www.w3.org/1999/xlink" x="0px" y="0px" viewBox="0 0 472.8 138"
	 style="enable-background:new 0 0 472.8 138;" xml:space="preserve">
<style type="text/css">
	.st0{fill:#F21C0A;}
</style>
<sodipodi:namedview  bordercolor="#666666" borderopacity="1.0" gridtolerance="10.0" guidetolerance="10.0" id="base" inkscape:current-layer="svg2002" inkscape:cx="425.19684" inkscape:cy="79.724411" inkscape:pageopacity="0.0" inkscape:pageshadow="2" inkscape:window-height="574" inkscape:window-width="904" inkscape:window-x="69" inkscape:window-y="69" inkscape:zoom="0.96308336" objecttolerance="10.0" pagecolor="#ffffff">
	</sodipodi:namedview>
<g id="Ebene_x0020_1" transform="translate(-6.041939e-2,0.147204)">
	<path id="path2006" class="st0" d="M323,51c0,15.4-9.6,35.6-16.5,48.9c-10.9,21-25.6,33.6-49.5,35.1c-21.1,1.3-68.9,5-60.5-30.6
		c3.6-15.4,11.7-29,16.6-43.9c16.6-33.2,58.5-39.5,91.8-31.2C316.1,33.3,322.1,38.8,323,51L323,51z M267.1,52.5
		c-17.1,0-19.2,23.9-22.4,36.7c-0.8,4.8-6.2,21.1,2.5,21.1c20.6,4.1,22.5-18.4,25.9-33.4c1.3-5.5,3.8-14.8,2.7-20.5
		C275.8,52.1,270,52.8,267.1,52.5L267.1,52.5z M149.5,53.5C147.4,94,119,90.8,85.2,90.7c-12.8-0.1-25.9-0.9-38.6-0.9
		c-4.7,4.7,8.9,19.1,12.7,21.5c13,8.1,29.3,4.6,39.8-5.9c5.6,0,66-7.9,45.1,13c-10.1,9-24.4,14.3-37.4,17.4
		C65.4,145.5-24,121.7,6.2,63.4C26.8,29.5,71.4,11,108.2,1.4c3.4-0.7,6.8-1.2,10.3-1.5C144.7-2,149.5,34.1,149.5,53.5L149.5,53.5z
		 M111,50.3c0-3.7,0.1-7.5-1-11c-4-16.3-46.5,18.5-51.6,23.6c-0.6,1.3-0.2,0.9,0.7,1.3c14.1,0,28.2-0.1,42.3-0.1
		C110.7,62.5,111,59.7,111,50.3L111,50.3z M192.8,71.1c-3.2,6.4-2.5,14.9-9,19.7c-8.9,6.7-31.3,6.7-26.4-9.4
		c4.7-15.3,13.5-21.8,29.6-17.8C190.9,64.9,191.9,67.5,192.8,71.1L192.8,71.1z M472.9,51.2c0,4.1-0.9,8.4-1.8,12.4
		c-5.3,23.5-13.9,45.9-21.5,68.5c-7,7-21.5,3.2-29-1.3c-3.8-3.8,5.6-22.9,7.1-27.5c2.3-7.1,14.8-33.3,4.3-38.6
		c-3.4,0-6.1,0.4-9.4,1.3c-31.5,11-53.8,43-76.4,65.7c-9.8,4.9-16.9,3.7-26.5-1.2c-1-1-0.5-2.5-0.3-3.7
		c7.3-30.5,18.8-60.7,31.4-89.4c2-5.9,22.2-3.7,27.2-1.2c0,6.5-0.7,17.4,8.7,17.4c21-2.3,72.5-48,85.6-8.8
		C472.5,46.9,472.9,48.9,472.9,51.2L472.9,51.2z"/>
</g>
</svg>
