<?xml version="1.0" encoding="utf-8"?>
<!-- Generator: Adobe Illustrator 22.1.0, SVG Export Plug-In . SVG Version: 6.00 Build 0)  -->
<svg version="1.1" id="Vrstva_1" xmlns="http://www.w3.org/2000/svg" xmlns:xlink="http://www.w3.org/1999/xlink" x="0px" y="0px"
	 viewBox="0 0 309 114.1" style="enable-background:new 0 0 309 114.1;" xml:space="preserve">
<style type="text/css">
	.st0{clip-path:url(#SVGID_2_);fill:#2B4762;}
	.st1{clip-path:url(#SVGID_4_);fill:#2B4762;}
</style>
<g>
	<g>
		<defs>
			<rect id="SVGID_1_" width="309" height="114.1"/>
		</defs>
		<clipPath id="SVGID_2_">
			<use xlink:href="#SVGID_1_"  style="overflow:visible;"/>
		</clipPath>
		<path class="st0" d="M262.7,79.6l-1,0c-12.2-0.1-22.1-10.1-22.1-22.3c0-0.2,0-0.5,0-0.7V32.4h16c0.1,0,0.3-0.1,0.3-0.3V16.4
			c0-0.1-0.1-0.3-0.3-0.3h-16V0.3c0-0.1-0.1-0.3-0.3-0.3h-15.7c-0.1,0-0.1,0-0.2,0.1c0,0-0.1,0.1-0.1,0.2l0,42.4
			c-5.8-14.1-19.6-24-35.8-24c-17.8,0-32.8,12.1-37.3,28.5c-4.5-16.4-19.5-28.5-37.3-28.5c-17.8,0-32.7,12-37.2,28.4
			c-4.5-16.3-19.5-28.4-37.2-28.4C17.3,18.6,0,36,0,57.3c0,21.2,17.3,38.6,38.5,38.6l1,0h0c0.1,0,0.1,0,0.2-0.1
			c0-0.1,0.1-0.1,0.1-0.2V79.8c0-0.1-0.1-0.3-0.3-0.3l-1,0c-12.3,0-22.2-10.1-22.2-22.3c0-12.3,10-22.3,22.3-22.3
			c9.3,0,17.4,5.5,20.8,14.1h-22c-0.1,0-0.3,0.1-0.3,0.3V65c0,0.1,0.1,0.3,0.3,0.3l37.1,0l0,48.7c0,0.1,0.1,0.3,0.3,0.3h15.7
			c0.1,0,0.3-0.1,0.3-0.3V88.7c6.5,4.6,14.4,7.2,22.4,7.2c17.8,0,32.8-12.1,37.3-28.5c4.5,16.4,19.5,28.5,37.2,28.5l1,0
			c0.1,0,0.1,0,0.2-0.1c0-0.1,0.1-0.1,0.1-0.2V79.8c0-0.1-0.1-0.3-0.3-0.3l-1,0c-12.3,0-22.3-10-22.3-22.3c0-12.3,10-22.3,22.3-22.3
			c9.3,0,17.4,5.5,20.8,14.1h-21.7c-0.1,0-0.3,0.1-0.3,0.3V65c0,0.1,0.1,0.3,0.3,0.3h21.1c0,0,0,0,0,0h16.3
			c3.7,17.4,19.1,30.6,37.6,30.7l1,0c0.1,0,0.1,0,0.2-0.1c0-0.1,0.1-0.1,0.1-0.2V79.8C263,79.7,262.9,79.6,262.7,79.6 M113.1,79.6
			c-12.3,0-22.3-10-22.3-22.3c0-12.3,10-22.3,22.3-22.3c12.3,0,22.3,10,22.3,22.3C135.4,69.6,125.4,79.6,113.1,79.6"/>
	</g>
	<g>
		<defs>
			<rect id="SVGID_3_" width="309" height="114.1"/>
		</defs>
		<clipPath id="SVGID_4_">
			<use xlink:href="#SVGID_3_"  style="overflow:visible;"/>
		</clipPath>
		<path class="st1" d="M292.9,64.2c-8.9,0-16.1,7.2-16.1,16.1c0,8.9,7.2,16.1,16.1,16.1S309,89.2,309,80.3
			C309,71.4,301.8,64.2,292.9,64.2"/>
	</g>
</g>
</svg>
