<?xml version="1.0" encoding="utf-8"?>
<!-- Generator: Adobe Illustrator 22.1.0, SVG Export Plug-In . SVG Version: 6.00 Build 0)  -->
<svg version="1.1" id="svg2" xmlns:svg="http://www.w3.org/2000/svg"
	 xmlns="http://www.w3.org/2000/svg" xmlns:xlink="http://www.w3.org/1999/xlink" x="0px" y="0px" viewBox="0 0 651.1 271.3"
	 style="enable-background:new 0 0 651.1 271.3;" xml:space="preserve">
<style type="text/css">
	.st0{fill:#0D1B3C;}
	.st1{fill:#FF9400;}
</style>
<g id="layer1" transform="translate(-4.7153961e-2,-1.1262905)">
	<g id="g2678" transform="matrix(4.2257524,0,0,4.2257524,-1236.5974,-2076.7347)">
		<g>
			<g id="g2496" transform="matrix(0,0.3084498,0.2323006,0,274.24613,485.60452)">
				<path id="path2502" class="st0" d="M19.8,79.2h208.1v663.2H19.8V79.2z"/>
			</g>
		</g>
		<g id="g2657" transform="translate(-325.62356,313.67959)">
			<path id="path2510" class="st1" d="M712.6,222.3h5.4v-28.6l-2.6,1.4l-2.8-1.4V222.3"/>
			<path id="path2514" class="st1" d="M712.6,193.7h5.4l-2.6,3.1L712.6,193.7"/>
			<path id="path2518" class="st1" d="M696.5,210.3L696.5,210.3l-0.2-0.3c-0.4-0.5-0.7-1-1.1-1.5l-0.1-0.1v-10.7
				c0.5-0.6,0.7-1.4,1.1-1.9l0.1-0.3l0.1-0.1l-0.1-0.1l-0.1-0.2l-0.2-0.3l-0.5-0.8l-0.2-0.3l-0.2-0.2l-0.1-0.1h-2.5
				c-1.6,0-3.1,0.1-4.7,0.1l-0.5,0.1h-0.5v0.2c-0.1,1-0.1,2.4,0,3.4v0.2l2.9,0.3v24.4h5.3v-9.5L696.5,210.3"/>
			<path id="path2522" class="st1" d="M694.2,210.4l1,2.3h3.8c6.4-0.4,10-4.7,9.5-11.1l-0.2-1.1c-1.1-6.4-7-7.3-12.5-7h-0.7v0.1
				l-0.1,0.2c-0.2,0.5-0.5,1-0.8,1.5v0.2c0.3,0.6,0.6,1.2,0.8,1.9l0.1,0.3v0.1h0.7c3.3-0.2,6.2-0.3,7.1,3.5v0.3l0.1,0.3v0.3
				c0,1.5,0,3.1-0.9,4.3l-0.1,0.2l-0.2,0.2l-0.2,0.2c-0.3,0.5-0.5,0.5-0.9,0.8l-0.2,0.1l-0.2,0.1c-0.4,0.1-1.1,0.4-1.5,0.4h-0.3
				l-0.3,0.1h-3.1L694.2,210.4"/>
			<path id="path2526" class="st1" d="M676.6,217.8v-24.1h-0.2c-2.4,0-4.8,0-7.1,0h-0.7l-0.1,0.2c0,1.1,0,2.3,0,3.4l0.1,0.2l2.7,0.3
				v24.4H686v-4.4H676.6"/>
			<path id="path2530" class="st1" d="M653.8,195.9l1,2.5h0.1l0.1,0.3c0.2,0.8,0.4,1.6,0.6,2.3l3.2,10.1h-4l-1,1.9l1,2.1h5.1v0.1
				l0.1,0.2c0.4,0.9,0.6,2.1,1,3.1l0.2,0.7l0.1,0.7l0.2,0.6l0.1,0.6l0.3,0.9l0.1,0.1v0.3h5.6v-0.1c-2.8-9-6-17.9-9-26.9l-0.6-1.6
				h-3.4L653.8,195.9"/>
			<path id="path2534" class="st1" d="M655.8,212.9l-1-1.9h-3.9l3.2-10.1c0.1-0.5,0.7-1.9,0.6-2.3l0.1-0.3h0.1l1-2.3l-1-2.3h-2.9
				l-0.6,1.6c-3,9-6.3,17.8-9.1,26.9v0.1h5.4v-0.1c0.7-2.4,1.4-4.7,2.2-7.1V215h5.1L655.8,212.9"/>
			<path id="path2538" class="st1" d="M744,219.3l0.2-0.2l0.1-0.2c6.8-7.9,4.3-25.7-8.4-25.4h-1.4c-14.5,0.2-15.1,22.3-6.3,29
				l0.4,0.2l0.3,0.2l2.6-4.9l-0.3-0.3l-0.1-0.2c-2-2.1-2.5-4.3-2.8-7.1v-1c-0.2-3.4,0.1-9.3,4-10.8l0.3-0.2l0.4-0.1l0.3-0.1
				c9.9-2.1,10.1,10.4,7.9,16.7l-0.1,0.1l-0.1,0.1h-0.1v-0.1l-0.1-0.1l-0.1-0.1l-0.1-0.2l-0.1-0.1l-0.2-0.3l-0.2-0.2l-1.1-2h-0.4
				c-1.4-0.1-3.8-0.1-5.2,0h-0.3l9.2,14.9c1.9,0.2,3.8,0.1,5.7,0.1l0.4-0.1L744,219.3"/>
		</g>
	</g>
</g>
</svg>
