<?xml version="1.0" encoding="utf-8"?>
<!-- Generator: Adobe Illustrator 16.0.0, SVG Export Plug-In . SVG Version: 6.00 Build 0)  -->
<!DOCTYPE svg PUBLIC "-//W3C//DTD SVG 1.1//EN" "http://www.w3.org/Graphics/SVG/1.1/DTD/svg11.dtd">
<svg version="1.1" id="Vrstva_1" xmlns="http://www.w3.org/2000/svg" xmlns:xlink="http://www.w3.org/1999/xlink" x="0px" y="0px"
	 width="309.009px" height="114.135px" viewBox="0 0 309.009 114.135" enable-background="new 0 0 309.009 114.135"
	 xml:space="preserve">
<g>
	<defs>
		<rect id="SVGID_1_" width="309.009" height="114.135"/>
	</defs>
	<clipPath id="SVGID_2_">
		<use xlink:href="#SVGID_1_"  overflow="visible"/>
	</clipPath>
	<path clip-path="url(#SVGID_2_)" fill="#8DC63F" d="M262.708,79.592l-1.026-0.007c-12.211-0.099-22.145-10.111-22.145-22.323
		c0-0.228,0.01-0.453,0.022-0.69V32.365h15.979c0.143,0,0.258-0.116,0.258-0.257V16.42c0-0.141-0.115-0.257-0.258-0.257H239.56
		V0.258c0-0.143-0.116-0.258-0.258-0.258h-15.686c-0.068,0-0.134,0.028-0.183,0.075c-0.049,0.05-0.075,0.115-0.075,0.183
		l0.003,42.417c-5.767-14.083-19.615-24.03-35.75-24.03c-17.784,0-32.791,12.084-37.258,28.47
		c-4.469-16.386-19.475-28.47-37.259-28.47c-17.757,0-32.741,12.047-37.236,28.394c-4.494-16.347-19.48-28.394-37.237-28.394
		C17.326,18.645,0,35.965,0,57.262c0,21.243,17.282,38.567,38.524,38.619l1.036,0.005h0.003c0.067,0,0.132-0.027,0.18-0.077
		c0.049-0.05,0.076-0.114,0.076-0.183V79.848c0-0.144-0.113-0.256-0.256-0.256l-1.031-0.005
		c-12.26-0.048-22.235-10.064-22.235-22.325c0-12.308,10.013-22.32,22.324-22.32c9.268,0,17.373,5.513,20.753,14.078H37.382
		c-0.143,0-0.258,0.117-0.258,0.258v15.687c0,0.143,0.115,0.258,0.258,0.258l37.101,0.004l0.004,48.651
		c0,0.141,0.118,0.257,0.258,0.257h15.686c0.143,0,0.259-0.116,0.259-0.257v-25.16c6.496,4.625,14.43,7.168,22.404,7.168
		c17.785,0,32.792-12.091,37.259-28.479c4.465,16.371,19.456,28.457,37.221,28.478l1.032,0.002c0.07,0,0.136-0.029,0.185-0.077
		c0.049-0.052,0.075-0.116,0.075-0.184V79.848c0-0.144-0.116-0.257-0.26-0.257l-1.03-0.002c-12.29-0.02-22.289-10.036-22.289-22.327
		c0-12.308,10.014-22.32,22.324-22.32c9.268,0,17.374,5.513,20.754,14.078h-21.7c-0.143,0-0.258,0.117-0.258,0.258v15.687
		c0,0.143,0.115,0.258,0.258,0.258h21.059c0.016,0.004,0.03,0.004,0.045,0.004h16.308c3.677,17.396,19.131,30.56,37.589,30.651
		l1.04,0.008c0.069,0,0.134-0.029,0.182-0.077c0.05-0.052,0.076-0.116,0.076-0.184V79.849
		C262.963,79.708,262.85,79.592,262.708,79.592 M113.094,79.591c-12.31,0-22.324-10.02-22.324-22.329
		c0-12.308,10.014-22.32,22.324-22.32c12.311,0,22.324,10.012,22.324,22.32C135.418,69.571,125.405,79.591,113.094,79.591"/>
	<path clip-path="url(#SVGID_2_)" fill="#8DC63F" d="M292.899,64.178c-8.896,0-16.107,7.21-16.107,16.105
		c0,8.898,7.211,16.112,16.107,16.112c8.896,0,16.109-7.214,16.109-16.112C309.009,71.388,301.795,64.178,292.899,64.178"/>
</g>
</svg>
