<?xml version="1.0" encoding="utf-8"?>
<!-- Generator: Adobe Illustrator 22.1.0, SVG Export Plug-In . SVG Version: 6.00 Build 0)  -->
<svg version="1.1" id="Vrstva_1" xmlns="http://www.w3.org/2000/svg" xmlns:xlink="http://www.w3.org/1999/xlink" x="0px" y="0px"
	 viewBox="0 0 576.4 94.1" style="enable-background:new 0 0 576.4 94.1;" xml:space="preserve">
<style type="text/css">
	.st0{fill:#2B4762;}
</style>
<path class="st0" d="M0,53.5c0-2.9,2-4.6,4.8-4.6h11.8c6.4,0,11.5,4.3,11.5,10.8c0,4.3-1.8,7.2-5.7,9v0.1c5.2,0.7,9.3,5.1,9.3,10.4
	c0,8.7-5.8,13.3-14.2,13.3H4.9c-2.8,0-4.9-1.8-4.9-4.7V53.5z M9.2,66.2H14c3,0,5-1.8,5-4.8c0-2.9-2.3-4.4-5-4.4H9.2V66.2z M9.2,84.5
	h7.2c3.3,0,5.8-1.9,5.8-5.3c0-2.9-2.2-4.8-6.5-4.8H9.2V84.5z"/>
<path class="st0" d="M35.8,71.5c0-12.8,8.6-22.6,21.1-22.6C69.2,48.9,78,59,78,71.5c0,12.7-8.5,22.6-21.1,22.6
	C44.5,94.1,35.8,84.2,35.8,71.5 M68.5,71.5c0-7.4-3.9-14.1-11.5-14.1c-7.7,0-11.5,6.7-11.5,14.1c0,7.5,3.7,14.1,11.5,14.1
	S68.5,79,68.5,71.5"/>
<path class="st0" d="M84.2,53.7c0-3.1,2-4.8,4.6-4.8s4.6,1.7,4.6,4.8v13h19.3v-13c0-3.1,2-4.8,4.6-4.8s4.6,1.7,4.6,4.8v34.9
	c0,3.1-2,4.8-4.6,4.8s-4.6-1.7-4.6-4.8V75.2H93.4v13.4c0,3.1-2,4.8-4.6,4.8s-4.6-1.7-4.6-4.8C84.2,88.6,84.2,53.7,84.2,53.7z"/>
<path class="st0" d="M129.8,54.2c0-3.1,1.5-5.3,4.8-5.3h15.2c2.9,0,4.4,2.1,4.4,4.2s-1.5,4.2-4.4,4.2H139v9h10.1
	c3,0,4.5,2.1,4.5,4.2s-1.5,4.2-4.5,4.2H139V84h11.3c2.9,0,4.4,2.1,4.4,4.2s-1.5,4.2-4.4,4.2h-15.8c-2.7,0-4.7-1.8-4.7-4.6V54.2z"/>
<path class="st0" d="M165,53.6c0.4-2.2,2.8-4.7,6-4.7c3.1,0,5.5,2.2,6.1,4.4l7.2,24.3h0.1l7.2-24.3c0.7-2.2,3.1-4.4,6.1-4.4
	c3.3,0,5.6,2.5,6,4.7l5.7,34.3c0.1,0.4,0.1,0.7,0.1,1c0,2.7-2,4.4-4.4,4.4c-3.1,0-4.4-1.4-4.8-4.3l-3.6-25h-0.1l-7.4,25.7
	c-0.4,1.5-1.6,3.6-4.9,3.6c-3.3,0-4.5-2.1-4.9-3.6L172,64h-0.1l-3.6,25c-0.4,2.9-1.7,4.3-4.8,4.3c-2.5,0-4.4-1.7-4.4-4.4
	c0-0.3,0-0.7,0.1-1L165,53.6z"/>
<path class="st0" d="M216.2,53.7c0-3.1,2-4.8,4.6-4.8s4.6,1.7,4.6,4.8v34.9c0,3.1-2,4.8-4.6,4.8s-4.6-1.7-4.6-4.8V53.7z"/>
<path class="st0" d="M243.4,54c1-2.8,3.4-5.1,6.6-5.1c3.3,0,5.5,2.2,6.6,5.1l12,33.4c0.4,1,0.5,1.8,0.5,2.3c0,2.4-2,4.1-4.2,4.1
	c-2.6,0-3.9-1.4-4.5-3.2l-1.8-5.8h-17.1l-1.8,5.7c-0.6,1.9-1.9,3.3-4.4,3.3s-4.5-1.8-4.5-4.3c0-1,0.3-1.7,0.4-2L243.4,54z
	 M244.1,76.3h11.7l-5.7-17.8H250L244.1,76.3z"/>
<path class="st0" d="M357.9,54.2c0-3.1,1.5-5.3,4.8-5.3h15.2c2.9,0,4.4,2.1,4.4,4.2s-1.5,4.2-4.4,4.2h-10.8v9h10.1
	c3,0,4.5,2.1,4.5,4.2s-1.5,4.2-4.5,4.2h-10.1V84h11.4c2.9,0,4.4,2.1,4.4,4.2s-1.5,4.2-4.4,4.2h-15.8c-2.7,0-4.7-1.8-4.7-4.6
	L357.9,54.2L357.9,54.2z"/>
<path class="st0" d="M388.3,53.7c0-3.1,2-4.8,4.6-4.8c1.2,0,3.1,0.9,3.9,2l19.5,26h0.1V53.7c0-3.1,2-4.8,4.6-4.8s4.6,1.7,4.6,4.8
	v34.9c0,3.1-2,4.8-4.6,4.8c-1.2,0-3-0.9-3.9-2l-19.5-25.7h-0.1v22.9c0,3.1-2,4.8-4.6,4.8s-4.6-1.7-4.6-4.8V53.7z"/>
<path class="st0" d="M433.1,54.2c0-3.1,1.5-5.3,4.8-5.3h15.2c2.9,0,4.4,2.1,4.4,4.2s-1.5,4.2-4.4,4.2h-10.8v9h10
	c3,0,4.5,2.1,4.5,4.2s-1.5,4.2-4.5,4.2h-10V84h11.4c2.9,0,4.4,2.1,4.4,4.2s-1.5,4.2-4.4,4.2h-15.8c-2.7,0-4.7-1.8-4.7-4.6V54.2
	H433.1z"/>
<path class="st0" d="M463.8,53.7c0-2.9,1.7-4.8,4.7-4.8h10.8c9.5,0,15.3,4.2,15.3,13.9c0,6.7-5.1,10.6-11.4,11.6l10.4,11.2
	c0.9,0.9,1.2,1.8,1.2,2.7c0,2.4-1.9,4.7-4.6,4.7c-1.1,0-2.6-0.4-3.6-1.6L473,74.9h-0.1v13.3c0,3.1-2,4.8-4.6,4.8s-4.6-1.7-4.6-4.8
	L463.8,53.7L463.8,53.7z M473,68.2h6.3c3.4,0,5.7-2,5.7-5.5s-2.3-5.4-5.7-5.4H473V68.2z"/>
<path class="st0" d="M534.3,67.4c3.9,0,5.4,2,5.4,5.9c0,11.8-7.7,20.7-20,20.7c-12.5,0-21.1-9.9-21.1-22.6
	c0-12.8,8.6-22.6,21.1-22.6c9.3,0,16.9,4.4,16.9,8.7c0,2.6-1.7,4.3-3.8,4.3c-4.2,0-5-4.5-13.1-4.5c-7.7,0-11.5,6.7-11.5,14.1
	c0,7.5,3.7,14.1,11.5,14.1c4.8,0,10.4-2.7,10.4-9.7h-6.3c-2.5,0-4.3-1.8-4.3-4.3c0-2.6,2-4.2,4.3-4.2L534.3,67.4L534.3,67.4z"/>
<path class="st0" d="M554.9,72.4l-11.6-16.3c-0.6-0.8-0.9-1.8-0.9-2.8c0-2.5,1.8-4.5,4.4-4.5c1.6,0,3,0.7,3.8,1.8l8.8,12.8l8.8-12.8
	c0.8-1.2,2.2-1.8,3.8-1.8c2.6,0,4.4,2,4.4,4.5c0,1-0.3,2-0.9,2.8l-11.4,16.3v16.4c0,2.3-1.3,4.5-4.6,4.5c-3.2,0-4.6-2.2-4.6-4.5
	V72.4L554.9,72.4z"/>
<path class="st0" d="M321.5,90.4l-7.8-8.8l-1.4,11.7l-4.9-10.7l-4.8,10.7l-1.5-11.7l-7.8,8.9l2-11.6l-10,6.1l5.4-10.4l-11.4,2.9
	l8.2-8.5l-11.8-0.6l10.3-5.7l-11.1-4l11.5-2.4l-9.3-7.1l11.7,1.1l-6.9-9.6l10.9,4.6L289,34.1l9.1,7.5l-0.3-11.8l6.4,9.8l3.1-11.2
	l3.2,11.3l6.4-9.9l-0.2,11.8l9-7.6L322,45.2l10.8-4.6l-6.9,9.6l11.7-1.2l-9.3,7.2l11.5,2.4l-11,4l10.3,5.6l-11.7,0.6l8.2,8.5
	l-11.4-2.9l5.4,10.5l-10.1-6.1L321.5,90.4z M307.3,15.9l39.8,29.4l0,0c3.1,2.3,7.6,1.7,9.9-1.5c2.3-3.1,1.7-7.6-1.5-9.9L311.6,1.4
	c-1.3-0.9-2.8-1.4-4.2-1.4c-1.5,0-3,0.5-4.2,1.4l-44,32.5c-3.1,2.3-3.8,6.7-1.5,9.9c2.3,3.1,6.8,3.8,9.9,1.5l0,0L307.3,15.9z"/>
</svg>
