<?xml version="1.0" encoding="utf-8"?>
<!-- Generator: Adobe Illustrator 22.1.0, SVG Export Plug-In . SVG Version: 6.00 Build 0)  -->
<svg version="1.1" id="Vrstva_1" xmlns="http://www.w3.org/2000/svg" xmlns:xlink="http://www.w3.org/1999/xlink" x="0px" y="0px"
	 viewBox="0 0 228.8 66.7" style="enable-background:new 0 0 228.8 66.7;" xml:space="preserve">
<style type="text/css">
	.st0{fill:url(#SVGID_1_);}
	.st1{fill:#585A5B;}
	.st2{fill:url(#SVGID_3_);}
</style>
<linearGradient id="SVGID_1_" gradientUnits="userSpaceOnUse" x1="186.7272" y1="9.2787" x2="211.9469" y2="46.3163" gradientTransform="matrix(1 0 0 -1 0 69)">
	<stop  offset="0" style="stop-color:#9FBE13"/>
	<stop  offset="1" style="stop-color:#006E2B"/>
</linearGradient>
<path class="st0" d="M191.9,66.3c2.2-0.2,4.5-0.4,6.4-0.8c16.5-3.3,29.1-16.6,30.4-33.2c0.6-8.2-1.9-18.2-10.1-25.1
	c-5.2-4.4-11.5-6.8-20.2-7.2c6.1,1.2,10.4,3.8,13.3,7.1c6.8,7.7,6.1,19.1,3.6,26.2c-3.9,11-15.5,26.2-35.5,33.2
	C181,66.5,186.5,66.6,191.9,66.3"/>
<path class="st1" d="M65.9,0.3h13l-9.7,66.4H50.1l5.1-34.9L37.9,53.2h-2.4L24,31.8l-5.1,34.9H0L9,7.2c0.8-4,4.3-6.9,8.5-6.9h11.1
	l12,22.3c4-4.9,13.5-16.4,14.5-17.6C58,1.6,61.1,0.3,65.9,0.3 M207.4,10.1c-4.1-6.4-11-9.9-19.7-9.9c-2.8,0-17.9,0-17.9,0
	c-4.2,0-7.7,3-8.5,6.9l-8.8,59.6c13.3-1.1,29.9-7.7,42.4-18.1c-3.1,1.3-6.7,1.7-11.7,1.7c-4.8,0-9.1,0-9.1,0l5-33.9h9.3
	c6.7,0,10.5,1.4,13.5,4.9c2.7,3.2,4,7.4,3.5,12.5c-0.2,2.1-0.7,3.9-1.2,5.4c2.2-2.9,3.8-5.8,5-9.2C211.7,22.5,210.8,15.5,207.4,10.1
	 M140,0.2c-4.2,0-7.7,3-8.5,6.9c0,0-2.4,16.2-3.9,26.2L106.9,0.2h-9.1c-4.2,0-7.7,3-8.5,6.9l-8.7,59.5H99l5.2-35l21.7,35h15.5
	l9.7-66.4L140,0.2z"/>
<g>
	<g>
		<g>
			<g>
				
					<linearGradient id="SVGID_3_" gradientUnits="userSpaceOnUse" x1="210.0387" y1="14.0715" x2="211.7444" y2="66.7038" gradientTransform="matrix(1 0 0 -1 0 69)">
					<stop  offset="0" style="stop-color:#9FBE13"/>
					<stop  offset="1" style="stop-color:#006E2B"/>
				</linearGradient>
				<path id="SVGID_2_" class="st2" d="M218.5,7.2C213.3,2.8,207,0.4,198.3,0c6.1,1.2,10.4,3.8,13.3,7.1c7.7,8.4,9.6,20.1,6.9,31
					c-1.4,5.7-4.5,11.4-8.2,15.9c-2.9,3.5-4.8,5.7-8.9,8.5c-3.1,2.1-6.4,3.3-9.6,3.8c2.2-0.2,4.5-0.4,6.4-0.8
					c16.5-3.3,29.1-16.6,30.4-33.2C229.3,24.2,226.7,14.2,218.5,7.2"/>
			</g>
		</g>
	</g>
</g>
</svg>
