<svg width="56" height="56" xmlns="http://www.w3.org/2000/svg"><defs><clipPath id="a"><path d="M0 .5h55.559v55.058H0z"/></clipPath></defs><g clip-path="url(#a)"><path d="M0 28.029C0 12.825 12.437.5 27.78.5c15.342 0 27.78 12.325 27.78 27.529 0 15.205-12.438 27.53-27.78 27.53C12.437 55.558 0 43.233 0 28.028"/></g><path d="M48.48 38.218c-9.295-3.206-16.718 2.866-24.509 2.219-5.284-.44-7.688-2.491-8.73-3.885-.597-.8-.193-1.008.04-.91.125.053.344.175.483.254 2.416 1.372 8.41 3.708 17.402.99 8.827-2.67 14.984-.505 15.63 1.006.084.197-.113.396-.317.326" fill="#fff"/><path d="M7.916 37.568c-.74 0-1.225-.504-1.225-1.145s.462-1.122 1.225-1.145c.809-.024 1.248-.252 1.664-1.375l.324-.893L6.23 24.1a1.399 1.399 0 01-.139-.596c0-.687.555-1.214 1.295-1.214.6 0 .97.32 1.202.916l2.52 6.62h.045l2.38-6.62c.21-.595.602-.916 1.203-.916.717 0 1.248.527 1.248 1.214a1.8 1.8 0 01-.116.596l-4.09 10.33c-.971 2.451-1.896 3.138-3.699 3.138zM24.03 25.75c.092.274.138.548.138.936 0 .092-.046.137-.138.137h-4.37c-.092 0-.138-.045-.138-.137 0-.388.046-.662.139-.936.3-.889 1.132-1.414 2.195-1.414 1.04 0 1.873.525 2.174 1.414m-6.727 4.885c.624 1.924 2.288 3.07 4.67 3.07 1.802 0 3.027-.527 4.021-1.33.346-.274.532-.571.532-1.007 0-.618-.416-1.076-1.087-1.076-.346 0-.647.16-.948.366-.716.481-1.34.756-2.287.756-1.272 0-2.15-.595-2.52-1.672a2.413 2.413 0 01-.162-.847c0-.092.046-.138.139-.138h6.218c.577 0 .901-.367.901-.894 0-1.053-.139-1.923-.37-2.656-.624-1.879-2.288-3.047-4.577-3.047-2.219 0-3.929 1.123-4.553 3.047-.232.71-.37 1.58-.37 2.726 0 1.144.162 1.992.393 2.702m14.408 2.953c-2.265 0-3.051-1.123-3.051-3.23V19.111c0-.847.532-1.351 1.295-1.351.739 0 1.294.503 1.294 1.351v11.04c0 .78.254 1.055.901 1.146.763.092 1.087.55 1.087 1.122 0 .665-.417 1.169-1.34 1.169zm6 0c-2.265 0-3.051-1.123-3.051-3.23V19.111c0-.847.531-1.351 1.295-1.351.74 0 1.294.503 1.294 1.351v11.04c0 .78.254 1.055.9 1.146.764.092 1.088.55 1.088 1.122 0 .665-.417 1.169-1.341 1.169zm9.381-3.618c-.324.917-1.041 1.444-2.083 1.444-1.041 0-1.782-.527-2.106-1.443-.185-.572-.231-1.1-.231-2.038 0-.94.046-1.444.231-2.04.324-.915 1.065-1.442 2.106-1.442 1.042 0 1.759.527 2.083 1.443.185.595.231 1.1.231 2.039 0 .939-.046 1.466-.231 2.038m-6.682.687c.623 1.924 2.334 3.047 4.6 3.047 2.241 0 3.951-1.123 4.575-3.047.255-.779.37-1.512.37-2.725 0-1.215-.115-1.948-.37-2.726-.624-1.924-2.334-3.047-4.576-3.047-2.265 0-3.976 1.123-4.6 3.047-.254.778-.369 1.511-.369 2.726 0 1.213.115 1.946.37 2.725" fill="#ffe500"/></svg>