<svg width="454" height="349" viewBox="0 0 454 349" fill="none" xmlns="http://www.w3.org/2000/svg">
<g clip-path="url(#clip0)">
<path d="M43.5 342.4C43.5 342.6 43.4 343.4 43.2 344.6L42.9 348.6H41.3C34.7664 348.694 28.2571 347.783 22 345.9C16.866 344.334 12.1496 341.635 8.20001 338C5.67069 335.542 3.63421 332.623 2.20001 329.4C0.667324 325.764 -0.0822795 321.845 6.92485e-06 317.9C-0.0662431 314.247 0.685439 310.625 2.20001 307.3C3.58092 304.211 5.51237 301.398 7.90001 299C11.8056 295.289 16.4841 292.489 21.6 290.8C27.5203 288.77 33.7414 287.755 40 287.8H42C42.1 288.4 42.1 289.2 42.2 290.4C42.3 291.6 42.4 292.8 42.5 294.2H41C37.1364 294.219 33.2842 294.621 29.5 295.4C25.8842 296.05 22.4027 297.3 19.2 299.1C15.6561 301.021 12.6877 303.852 10.6 307.3C8.62911 310.52 7.59058 314.224 7.60001 318C7.54196 321.806 8.47227 325.561 10.3 328.9C12.2976 332.445 15.2865 335.329 18.9 337.2C22.2311 339.094 25.8432 340.445 29.6 341.2C33.4839 341.99 37.4366 342.392 41.4 342.4H43.5Z" fill="white"/>
<path d="M79.9 333.2V329.4C79.9 327.9 79.9 326.1 79.8 324.1C77.5193 324.229 75.2484 324.496 73 324.9C70.2032 325.218 67.4519 325.856 64.8 326.8C63.1429 327.393 61.6395 328.35 60.4 329.6C59.7694 330.189 59.2665 330.901 58.9225 331.692C58.5784 332.484 58.4006 333.337 58.4 334.2C58.3079 335.992 58.9177 337.75 60.1 339.1C61.3271 340.414 62.8795 341.379 64.6 341.9C66.1518 342.452 67.7627 342.821 69.4 343C71.2572 343.244 73.1271 343.377 75 343.4H79.8C79.8 343.2 79.8 342.2 79.9 340.5V333.4V333.2ZM86.7 322.7C86.7 330.1 86.7 336 86.6 340.7V348.1L82.5 348.5C80 348.7 76.8 348.8 73 348.8C70.5186 348.765 68.0439 348.531 65.6 348.1C63.4357 347.704 61.3226 347.066 59.3 346.2C57.0322 345.189 55.0423 343.646 53.5 341.7C52.0362 339.7 51.2639 337.278 51.3 334.8C51.2705 332.135 52.1923 329.546 53.9 327.5C55.9114 325.334 58.3676 323.628 61.1 322.5C63.5931 321.554 66.1717 320.85 68.8 320.4C72.4365 319.699 76.1087 319.198 79.8 318.9C79.7867 316.908 79.1962 314.963 78.1 313.3C77.0705 311.733 75.5623 310.54 73.8 309.9C72.3872 309.324 70.9097 308.921 69.4 308.7C67.5414 308.484 65.6711 308.383 63.8 308.4H60.4L56.7 308.6L57.4 302.7H60L65.4 302.5C68.5667 302.479 71.7238 302.848 74.8 303.6C77.3201 304.244 79.6509 305.478 81.6 307.2C83.3098 308.764 84.6139 310.72 85.4 312.9C86.3 315.1 86.7 318.4 86.7 322.7ZM127.3 308.1C124.755 308.793 122.251 309.627 119.8 310.6C116.4 311.8 112.6 313.5 108.2 315.5C108.2 315.9 108.2 317.4 108.1 320V327.4C108.1 330.9 108.1 335 108.2 339.8C108.3 344.6 108.3 347.3 108.3 347.8H101.3C101.3 347.3 101.3 345.7 101.4 342.9C101.5 340.1 101.5 335.2 101.5 328.4C101.5 325.7 101.5 321.8 101.4 316.9C101.3 312 101.4 307.3 101.3 302.9H108.2V309.6C111.6 307.7 114.9 306 118.1 304.6C120.677 303.514 123.315 302.579 126 301.8L127.3 308.1ZM167.7 325.2C167.785 321.925 166.684 318.729 164.6 316.2C162.571 313.712 159.86 311.87 156.8 310.9C155.043 310.303 153.236 309.868 151.4 309.6C149.416 309.276 147.41 309.109 145.4 309.1H143.3C143.3 309.8 143.3 312.1 143.2 316.2V326.2C143.2 331.2 143.2 334.7 143.3 336.7V342.9C146.282 342.94 149.261 342.705 152.2 342.2C154.634 341.783 156.993 341.008 159.2 339.9C161.887 338.588 164.117 336.497 165.6 333.9C167.055 331.236 167.78 328.235 167.7 325.2ZM174.8 325C174.913 329.438 173.656 333.802 171.2 337.5C168.811 341.004 165.435 343.719 161.5 345.3C158.618 346.512 155.594 347.352 152.5 347.8C148.458 348.363 144.381 348.63 140.3 348.6H136.4C136.4 346.3 136.4 342 136.5 335.9C136.6 329.8 136.6 322.2 136.6 313.5C136.6 308.2 136.5 303 136.5 298C136.5 293 136.4 287.9 136.4 282.7H143.4V303.2C148.313 303.155 153.214 303.692 158 304.8C161.231 305.64 164.281 307.063 167 309C169.442 310.736 171.431 313.034 172.8 315.7C174.163 318.608 174.846 321.789 174.8 325ZM219.9 325.7C219.916 322.914 219.477 320.144 218.6 317.5C217.757 314.992 216.315 312.726 214.4 310.9C213.2 309.794 211.812 308.914 210.3 308.3C206.971 307.101 203.329 307.101 200 308.3C198.38 309.046 196.92 310.098 195.7 311.4C194.047 313.147 192.785 315.227 192 317.5C191.084 319.999 190.61 322.638 190.6 325.3C190.584 328.127 191.058 330.935 192 333.6C192.926 336.141 194.473 338.41 196.5 340.2C197.661 341.234 199.023 342.017 200.5 342.5C202.027 343.105 203.657 343.411 205.3 343.4C207.079 343.378 208.84 343.039 210.5 342.4C212.089 341.74 213.52 340.752 214.7 339.5C216.43 337.737 217.76 335.623 218.6 333.3C219.484 330.865 219.924 328.291 219.9 325.7ZM227 325.4C227.013 328.75 226.403 332.073 225.2 335.2C224.045 338.254 222.236 341.019 219.9 343.3C215.974 347.049 210.728 349.098 205.3 349C202.572 349.007 199.864 348.533 197.3 347.6C194.558 346.511 192.078 344.851 190.026 342.731C187.975 340.61 186.398 338.077 185.4 335.3C184.119 332.123 183.474 328.725 183.5 325.3C183.494 322.098 184.035 318.919 185.1 315.9C186.163 313.012 187.834 310.386 190 308.2C191.961 306.115 194.349 304.478 197 303.4C199.624 302.281 202.447 301.702 205.3 301.7C208.181 301.64 211.043 302.185 213.7 303.3C216.244 304.324 218.531 305.894 220.4 307.9C222.576 310.136 224.277 312.789 225.4 315.7C226.505 318.813 227.047 322.097 227 325.4ZM275.5 347.8H268.7V342.7H268.6C266.165 344.33 263.588 345.735 260.9 346.9C258.076 348.322 254.962 349.075 251.8 349.1C247.667 349.1 244.467 347.9 242.2 345.5C239.9 343 238.7 339.6 238.7 335.2C238.7 332.9 238.7 330 238.8 326.8V319.6C238.8 316.9 238.8 313.6 238.7 309.7C238.6 305.8 238.6 303.5 238.6 303H245.6C245.6 303.4 245.6 305.5 245.5 309.4V332.8C245.6 336.3 246.2 338.9 247.4 340.5C248.6 342.1 250.4 342.9 253 342.9C256.013 342.803 258.975 342.089 261.7 340.8C264.094 339.751 266.401 338.514 268.6 337.1V332.1C268.7 329.2 268.7 325.6 268.7 321.2C268.7 316.8 268.7 314.4 268.6 310.1C268.5 305.8 268.5 303.4 268.5 303H275.5C275.5 303.5 275.5 305.2 275.4 308C275.3 310.8 275.3 315.6 275.3 322.4C275.3 326.3 275.3 329.6 275.4 332.5C275.5 335.4 275.4 340.5 275.5 347.9V347.8ZM327.4 347.8H320.4C320.4 347 320.4 344.3 320.5 339.6C320.6 334.9 320.6 332.1 320.6 331C320.6 329.9 320.5 327.2 320.5 324.2V317.6C320.4 314.2 319.7 311.7 318.5 310.3C317.3 308.9 315.2 308 312.2 308C309.893 308.154 307.628 308.694 305.5 309.6C302.703 310.766 299.995 312.136 297.4 313.7V319C297.3 322.2 297.3 325.1 297.3 327.8C297.3 330.5 297.4 335.3 297.4 340.2C297.4 345.1 297.5 347.6 297.5 347.8H290.5C290.5 347.6 290.6 345.8 290.6 342.4C290.6 339 290.7 333.9 290.7 327.1V316.2C290.7 312 290.6 307.6 290.5 302.9H297.5V308H297.6C300.883 306.04 304.329 304.367 307.9 303C310.118 302.195 312.443 301.723 314.8 301.6C316.5 301.525 318.196 301.807 319.781 302.427C321.365 303.047 322.802 303.992 324 305.2C326.3 307.6 327.4 310.9 327.4 315C327.4 319.1 327.4 322 327.3 324.7V331.3C327.3 334 327.3 337.3 327.4 341.4C327.5 345.5 327.5 347.5 327.5 347.7L327.4 347.8ZM349.4 347.8H342.3C342.4 347.4 342.4 344.5 342.4 339.1C342.4 333.7 342.5 329.3 342.5 325.8V315.7C342.5 312.1 342.4 307.8 342.3 302.9H349.4C349.3 307.1 349.2 311.1 349.2 314.9C349.2 318.7 349.1 321.9 349.1 324.8C349.1 331.7 349.2 337.2 349.2 341.4C349.2 345.6 349.4 347.7 349.4 347.8ZM349.8 294.3H341.9V286.6H349.8V294.3ZM397.7 325.7C397.682 322.909 397.209 320.139 396.3 317.5C395.457 314.992 394.015 312.726 392.1 310.9C390.934 309.751 389.536 308.865 388 308.3C386.435 307.703 384.775 307.398 383.1 307.4C381.259 307.354 379.427 307.66 377.7 308.3C376.11 309.048 374.683 310.101 373.5 311.4C371.847 313.147 370.585 315.227 369.8 317.5C368.884 319.999 368.41 322.638 368.4 325.3C368.384 328.127 368.858 330.935 369.8 333.6C370.726 336.116 372.233 338.378 374.2 340.2C375.376 341.212 376.734 341.993 378.2 342.5C379.727 343.105 381.357 343.411 383 343.4C384.78 343.386 386.542 343.048 388.2 342.4C389.832 341.767 391.302 340.776 392.5 339.5C394.232 337.757 395.533 335.634 396.3 333.3C397.216 330.87 397.69 328.297 397.7 325.7ZM404.8 325.4C404.826 328.761 404.18 332.093 402.9 335.2C401.745 338.254 399.936 341.019 397.6 343.3C395.734 345.118 393.524 346.546 391.1 347.5C388.526 348.532 385.773 349.042 383 349C380.272 348.999 377.566 348.525 375 347.6C372.528 346.636 370.281 345.172 368.4 343.3C366.076 341.048 364.268 338.318 363.1 335.3C361.897 332.104 361.287 328.715 361.3 325.3C361.245 322.094 361.787 318.907 362.9 315.9C363.942 313.139 365.522 310.613 367.547 308.467C369.573 306.322 372.004 304.599 374.7 303.4C377.357 302.273 380.214 301.694 383.1 301.7C385.948 301.651 388.775 302.196 391.4 303.3C393.956 304.299 396.249 305.873 398.1 307.9C400.309 310.11 402.014 312.77 403.1 315.7C404.239 318.806 404.815 322.091 404.8 325.4ZM453.5 347.8H446.5C446.6 347 446.6 344.3 446.6 339.6C446.6 334.9 446.7 332.1 446.7 331V324.2C446.7 321.2 446.6 319 446.6 317.6C446.5 314.2 445.9 311.7 444.7 310.3C443.5 308.9 441.3 308 438.3 308C435.993 308.154 433.728 308.694 431.6 309.6C428.845 310.787 426.173 312.157 423.6 313.7C423.6 314 423.5 315.8 423.5 319V327.8C423.5 331.2 423.5 335.3 423.6 340.2C423.7 345.1 423.7 347.6 423.7 347.8H416.7C416.7 347.6 416.7 345.8 416.8 342.4V316.2C416.8 312 416.8 307.6 416.7 302.9H423.6V308C426.906 306.018 430.387 304.344 434 303C436.214 302.179 438.541 301.707 440.9 301.6C442.585 301.527 444.266 301.81 445.834 302.43C447.402 303.05 448.821 303.994 450 305.2C452.3 307.6 453.5 310.9 453.5 315C453.5 319.1 453.4 322 453.4 324.7C453.4 327.4 453.3 329.6 453.3 331.3C453.3 333 453.4 337.3 453.4 341.4C453.4 345.5 453.5 347.5 453.5 347.7" fill="white"/>
<path d="M320.4 196.1C304.1 199 294.6 199.8 294.6 199.8L305.2 209.3L295.7 226C295.7 226 309.6 217.6 320.4 196.1ZM348.8 123.4C330.8 125.3 310.2 126.9 310.2 126.9L326.6 145.6L322.1 174.2C322.1 174.2 343.9 147.5 348.8 123.4ZM337.7 49C321.9 51.9 293.3 55.5 293.3 55.5L321.3 68.5L321.1 104.8C321.1 104.8 337.8 75.1 337.7 49ZM281.7 15.9C264 16.7 234.9 17.7 234.9 17.7L260.3 31.2L264.3 56.2C264.3 56.2 281.3 33 281.7 15.9ZM208.5 19.6L206.1 7.4L191.2 0.7C191.2 0.7 205.3 0 217.7 0C216.7 6.2 208.5 19.6 208.5 19.6Z" fill="white"/>
<path d="M213.7 64.4C232.291 56.9414 250.335 48.1865 267.7 38.2L257.2 21.8L252.1 20C236.957 28.7301 221.218 36.3824 205 42.9C166 58.6 120.8 70.3 122.2 58C118.384 65.3572 115.27 73.058 112.9 81C113.3 95.7 166.4 83.6 213.7 64.4ZM194.5 17C199.5 15 204.3 12.9 208.7 10.9C211.2 9.69999 209 4.89999 209 4.89999L199.1 2.69999C196.4 3.99999 193.4 5.29999 190.3 6.59999C175.7 12.5 162.2 15.4 163.8 13.4C166.7 9.79999 171.8 7.09999 184.4 0.299988H184.2C170.104 6.40275 157.229 15.0083 146.2 25.7C137 37.1 169.6 27 194.5 16.9V17ZM331.7 126.9C313.4 142.2 287.2 157.6 256.6 170C206.1 190.5 151.9 200.5 127.1 183.7C131.819 191.253 137.315 198.291 143.5 204.7C172.7 220.1 225.8 208.1 265.5 192C290.1 182 311.7 169.5 328.3 156.4L332.7 137.4L331.7 126.9ZM240.6 130.8C277.6 115.8 308.5 97.4 326.6 81.1L323 59.9L314.3 56.9C297.1 71.9 266.5 89.6 229.9 104.4C173.1 127.5 113.8 137.3 107.9 119.3C108.057 128.264 109.197 137.184 111.3 145.9C125.7 163.8 183 154.1 240.6 130.8ZM306 202.5C261.4 228.7 211.5 238 180.4 231.1C189.785 235.478 199.653 238.734 209.8 240.8C242.8 241.8 282.9 230.3 309.2 212.4C309.2 212.4 308.5 201.1 306 202.5ZM271.7 207.4L270.7 204.8C234.3 219.6 187.6 230.8 156.5 216.3L161.7 220.2C193 232 239.1 220.6 271.7 207.4ZM222.4 85.7L220.7 81.7C164.4 104.6 114.4 112.5 109.1 99.5V99.3C109 100.2 108.8 101.2 108.7 102.2C113.7 118.9 169.8 107.1 222.5 85.7H222.4ZM249.7 153L248.1 149.1C196.3 170.1 135.6 181.4 116.9 163.5C117.19 164.35 117.524 165.184 117.9 166C135.2 185.1 194.2 175.6 249.7 153ZM199.9 30.4L198.8 27.5C167 40.4 132.9 49.1 133 40.9L130.9 43.7C131.1 53.2 168.3 43.3 199.9 30.4Z" fill="white"/>
</g>
<defs>
<clipPath id="clip0">
<rect width="453.5" height="349" fill="white"/>
</clipPath>
</defs>
</svg>
