<?xml version="1.0" encoding="UTF-8"?>
<svg width="337px" height="82px" viewBox="0 0 337 82" version="1.1" xmlns="http://www.w3.org/2000/svg" xmlns:xlink="http://www.w3.org/1999/xlink">
    <!-- Generator: Sketch 53.2 (72643) - https://sketchapp.com -->
    <title>Group 79</title>
    <desc>Created with Sketch.</desc>
    <defs>
        <polygon id="path-1" points="0 81.4268 336.579 81.4268 336.579 -0.0002 0 -0.0002"></polygon>
    </defs>
    <g id="Landing-page" stroke="none" stroke-width="1" fill="none" fill-rule="evenodd">
        <g id="Landing-page-desktop" transform="translate(-332.000000, -2674.000000)">
            <g id="Group-79" transform="translate(332.000000, 2674.000000)">
                <path d="M132.7822,39.8565 C132.4052,39.8565 132.1032,39.8565 131.8212,39.8745 L131.8212,43.8655 C132.0762,43.9105 132.3612,43.9265 132.6432,43.9265 C134.1442,43.9105 135.1082,43.1005 135.1082,41.8245 C135.1082,40.5645 134.3732,39.8565 132.7822,39.8565 M132.6312,45.0685 C132.3762,45.0685 132.0912,45.0685 131.8212,45.0365 L131.8212,48.9095 L130.4412,48.9095 L130.4412,38.7785 C131.1912,38.7465 132.0152,38.7165 132.9322,38.7165 C135.2592,38.7165 136.5482,39.8895 136.5482,41.6895 C136.5482,43.6705 134.9282,45.0685 132.6312,45.0685" id="Fill-1" fill="#2B4762"></path>
                <path d="M140.3125,39.8443 C139.9665,39.8443 139.6675,39.8563 139.3975,39.8743 L139.3975,43.3253 C139.5455,43.3403 139.8475,43.3573 140.2535,43.3573 C141.7085,43.3573 142.5475,42.6203 142.5475,41.5393 C142.5475,40.3243 141.7845,39.8443 140.3125,39.8443 L140.3125,39.8443 Z M142.8935,48.9093 L139.5755,44.3753 L139.3975,44.3753 L139.3975,48.9093 L138.0175,48.9093 L138.0175,38.7783 C138.7075,38.7333 139.4415,38.7173 140.5525,38.7173 C142.5475,38.7173 143.9915,39.4243 143.9915,41.3603 C143.9915,43.0863 142.6245,44.0913 141.0175,44.2133 C141.3175,44.5713 141.6305,44.9613 141.8885,45.2913 L144.6505,48.9093 L142.8935,48.9093 Z" id="Fill-3" fill="#2B4762"></path>
                <path d="M150.3671,41.7051 C150.1851,41.2101 150.0521,40.7601 149.9301,40.3251 L149.9031,40.3251 C149.7811,40.7601 149.6471,41.2101 149.4821,41.6891 L148.1301,45.4401 L151.7181,45.4401 L150.3671,41.7051 Z M152.9181,48.9091 L152.0781,46.5361 L147.7711,46.5361 L146.9281,48.9091 L145.5181,48.9091 L149.2101,38.7781 L150.7421,38.7781 L154.4651,48.9091 L152.9181,48.9091 Z" id="Fill-5" fill="#2B4762"></path>
                <path d="M159.8408,49.044 C156.7778,49.044 154.8128,47.184 154.8128,44.046 C154.8128,40.94 156.8828,38.644 160.2598,38.644 C161.2518,38.644 162.1958,38.807 163.0678,39.079 L162.7678,40.325 C161.9408,40.007 161.0578,39.829 160.1408,39.829 C158.0528,39.829 156.2818,41.18 156.2818,43.882 C156.2818,46.403 157.7558,47.844 160.0348,47.844 C160.7118,47.844 161.2808,47.739 161.8208,47.573 L161.8208,43.745 L163.1868,43.745 L163.1868,48.46 C162.1818,48.834 160.9498,49.044 159.8408,49.044" id="Fill-7" fill="#2B4762"></path>
                <path d="M169.1333,49.0596 C165.9683,49.0596 165.3363,47.3016 165.3363,45.5036 L165.3363,38.7786 L166.7163,38.7786 L166.7163,45.3956 C166.7163,46.7936 167.1823,47.9166 169.2233,47.9166 C170.9943,47.9166 171.8203,47.1836 171.8203,45.1416 L171.8203,38.7786 L173.1723,38.7786 L173.1723,45.0366 C173.1723,47.6946 171.7783,49.0596 169.1333,49.0596" id="Fill-9" fill="#2B4762"></path>
                <polygon id="Fill-11" fill="#2B4762" points="175.5268 48.9092 175.5268 38.7782 180.7338 38.7782 180.7338 39.9172 176.9048 39.9172 176.9048 43.1312 180.5558 43.1312 180.5558 44.2402 176.9048 44.2402 176.9048 47.7542 180.7338 47.7542 180.7338 48.9092"></polygon>
                <path d="M188.1196,49.044 C187.2926,49.044 186.5286,48.94 185.8986,48.76 L186.0656,47.437 C186.7106,47.694 187.4456,47.844 188.1946,47.844 C189.3676,47.844 190.3876,47.363 190.3876,46.118 C190.3876,43.837 185.8076,44.738 185.8076,41.509 C185.8076,39.844 187.0686,38.644 189.3506,38.644 C189.9366,38.644 190.6126,38.703 191.1826,38.838 L191.0166,40.052 C190.4766,39.889 189.8596,39.784 189.2776,39.784 C187.8956,39.784 187.2336,40.415 187.2336,41.36 C187.2336,43.536 191.8736,42.755 191.8736,45.939 C191.8736,47.754 190.3876,49.044 188.1196,49.044" id="Fill-13" fill="#2B4762"></path>
                <polygon id="Fill-15" fill="#2B4762" points="196.9057 39.9341 196.9057 48.9091 195.5247 48.9091 195.5247 39.9341 192.6127 39.9341 192.6127 38.7781 199.8327 38.7781 199.8327 39.9341"></polygon>
                <path d="M204.8823,39.8443 C203.2013,39.8443 201.7023,41.2103 201.7023,43.7613 C201.7023,46.1783 202.7223,47.8293 204.8673,47.8293 C206.5053,47.8293 208.0813,46.5093 208.0813,43.8953 C208.0813,41.2983 206.9083,39.8443 204.8823,39.8443 M204.7503,49.0593 C201.7023,49.0593 200.2313,47.0343 200.2313,43.9553 C200.2313,40.5783 202.3913,38.6263 205.0333,38.6263 C207.7633,38.6263 209.5513,40.3993 209.5513,43.7303 C209.5513,47.1063 207.3883,49.0593 204.7503,49.0593" id="Fill-17" fill="#2B4762"></path>
                <path d="M215.4106,49.0303 C212.1556,49.0303 210.8056,46.9563 210.8056,44.0913 C210.8056,40.9993 212.3356,38.6883 215.7566,38.6883 C216.5376,38.6883 217.3636,38.7943 218.0846,39.0013 L217.8576,40.2633 C217.1546,40.0243 216.3716,39.8743 215.6056,39.8743 C213.2966,39.8743 212.3046,41.6443 212.3046,43.8653 C212.3046,46.3583 213.3846,47.7993 215.7416,47.7993 C216.4786,47.7993 217.3636,47.5873 217.9676,47.2893 L218.1886,48.4893 C217.4256,48.8043 216.4316,49.0303 215.4106,49.0303" id="Fill-19" fill="#2B4762"></path>
                <polygon id="Fill-21" fill="#2B4762" points="225.1411 48.9092 221.1321 43.8952 221.1321 48.9092 219.7521 48.9092 219.7521 38.7782 221.1321 38.7782 221.1321 43.5512 225.1541 38.7782 226.8671 38.7782 222.5731 43.6712 227.0171 48.9092"></polygon>
                <polygon id="Fill-23" fill="#2B4762" points="231.7885 48.9092 231.7885 38.7782 236.9995 38.7782 236.9995 39.9172 233.1725 39.9172 233.1725 43.1312 236.8185 43.1312 236.8185 44.2402 233.1725 44.2402 233.1725 47.7542 236.9995 47.7542 236.9995 48.9092"></polygon>
                <polygon id="Fill-25" fill="#2B4762" points="244.9907 48.9092 242.4087 44.7212 239.8447 48.9092 238.2367 48.9092 241.5677 43.6872 238.4457 38.7782 240.0367 38.7782 242.4377 42.6502 244.7957 38.7782 246.3567 38.7782 243.2777 43.6402 246.7177 48.9092"></polygon>
                <path d="M251.687,49.0303 C248.43,49.0303 247.08,46.9563 247.08,44.0913 C247.08,40.9993 248.612,38.6883 252.033,38.6883 C252.814,38.6883 253.638,38.7943 254.361,39.0013 L254.137,40.2633 C253.429,40.0243 252.651,39.8743 251.882,39.8743 C249.571,39.8743 248.579,41.6443 248.579,43.8653 C248.579,46.3583 249.663,47.7993 252.018,47.7993 C252.753,47.7993 253.638,47.5873 254.24,47.2893 L254.463,48.4893 C253.702,48.8043 252.709,49.0303 251.687,49.0303" id="Fill-27" fill="#2B4762"></path>
                <polygon id="Fill-29" fill="#2B4762" points="262.5717 48.9092 262.5717 44.2402 257.4067 44.2402 257.4067 48.9092 256.0277 48.9092 256.0277 38.7782 257.4067 38.7782 257.4067 43.0702 262.5717 43.0702 262.5717 38.7782 263.9537 38.7782 263.9537 48.9092"></polygon>
                <path d="M270.1059,41.7051 C269.9259,41.2101 269.7909,40.7601 269.6729,40.3251 L269.6389,40.3251 C269.5199,40.7601 269.3859,41.2101 269.2209,41.6891 L267.8689,45.4401 L271.4569,45.4401 L270.1059,41.7051 Z M272.6589,48.9091 L271.8189,46.5361 L267.5079,46.5361 L266.6679,48.9091 L265.2569,48.9091 L268.9529,38.7781 L270.4829,38.7781 L274.2039,48.9091 L272.6589,48.9091 Z" id="Fill-31" fill="#2B4762"></path>
                <path d="M281.7319,48.9092 L277.7999,42.4092 C277.3629,41.6892 277.0169,41.0592 276.7319,40.4142 C276.7939,41.4802 276.8369,44.3622 276.8369,46.0892 L276.8369,48.9092 L275.5019,48.9092 L275.5019,38.7782 L277.3319,38.7782 L281.2209,45.1562 C281.6099,45.8162 282.0019,46.5362 282.3309,47.2142 C282.2869,45.9512 282.2259,43.1152 282.2259,41.3602 L282.2259,38.7782 L283.5639,38.7782 L283.5639,48.9092 L281.7319,48.9092 Z" id="Fill-33" fill="#2B4762"></path>
                <path d="M290.3481,49.044 C287.2891,49.044 285.3221,47.184 285.3221,44.046 C285.3221,40.94 287.3951,38.644 290.7721,38.644 C291.7621,38.644 292.7051,38.807 293.5771,39.079 L293.2781,40.325 C292.4521,40.007 291.5671,39.829 290.6481,39.829 C288.5651,39.829 286.7911,41.18 286.7911,43.882 C286.7911,46.403 288.2631,47.844 290.5431,47.844 C291.2211,47.844 291.7911,47.739 292.3311,47.573 L292.3311,43.745 L293.6991,43.745 L293.6991,48.46 C292.6911,48.834 291.4621,49.044 290.3481,49.044" id="Fill-35" fill="#2B4762"></path>
                <polygon id="Fill-37" fill="#2B4762" points="295.9487 48.9092 295.9487 38.7782 301.1577 38.7782 301.1577 39.9172 297.3287 39.9172 297.3287 43.1312 300.9767 43.1312 300.9767 44.2402 297.3287 44.2402 297.3287 47.7542 301.1577 47.7542 301.1577 48.9092"></polygon>
                <path d="M132.7675,61.6221 C132.6015,61.6221 132.0615,61.6221 131.8215,61.6381 L131.8215,65.1811 C132.0905,65.2261 132.5265,65.2561 133.1125,65.2561 C134.7625,65.2561 135.4965,64.4461 135.4965,63.3471 C135.4965,62.0441 134.3275,61.6221 132.7675,61.6221 M133.1715,57.2681 C132.6925,57.2681 132.2275,57.2861 131.8215,57.3001 L131.8215,60.5701 C132.1035,60.5871 132.3755,60.5871 132.7385,60.5871 C134.4025,60.5871 135.1985,59.9261 135.1985,58.8151 C135.1985,57.9161 134.7335,57.2681 133.1715,57.2681 M133.0355,66.3821 C132.4365,66.3821 131.4295,66.3521 130.4415,66.3361 L130.4415,56.2021 C131.1765,56.1901 132.1815,56.1571 133.3955,56.1571 C135.5725,56.1571 136.6405,57.0751 136.6405,58.5901 C136.6405,59.6571 136.0075,60.5701 134.8985,60.9471 L134.8985,60.9761 C136.3245,61.2181 136.9555,62.2531 136.9555,63.3031 C136.9555,64.5201 136.2035,66.3821 133.0355,66.3821" id="Fill-39" fill="#2B4762"></path>
                <path d="M142.5693,66.4873 C139.4013,66.4873 138.7713,64.7303 138.7713,62.9273 L138.7713,56.2023 L140.1533,56.2023 L140.1533,62.8253 C140.1533,64.2173 140.6183,65.3453 142.6613,65.3453 C144.4303,65.3453 145.2573,64.6103 145.2573,62.5693 L145.2573,56.2023 L146.6073,56.2023 L146.6073,62.4663 C146.6073,65.1223 145.2113,66.4873 142.5693,66.4873" id="Fill-41" fill="#2B4762"></path>
                <path d="M151.2597,57.2686 C150.9117,57.2686 150.6137,57.2866 150.3447,57.2996 L150.3447,60.7546 C150.4907,60.7666 150.7947,60.7826 151.1967,60.7826 C152.6557,60.7826 153.4927,60.0466 153.4927,58.9666 C153.4927,57.7506 152.7267,57.2686 151.2597,57.2686 L151.2597,57.2686 Z M153.8407,66.3356 L150.5227,61.8056 L150.3447,61.8056 L150.3447,66.3356 L148.9607,66.3356 L148.9607,56.2026 C149.6517,56.1576 150.3867,56.1426 151.4997,56.1426 C153.4927,56.1426 154.9357,56.8506 154.9357,58.7866 C154.9357,60.5146 153.5707,61.5186 151.9647,61.6376 C152.2627,61.9976 152.5777,62.3896 152.8357,62.7176 L155.5947,66.3356 L153.8407,66.3356 Z" id="Fill-43" fill="#2B4762"></path>
                <path d="M156.7294,66.336 L156.7294,65.315 L160.9794,58.619 C161.2644,58.187 161.5044,57.812 161.8044,57.403 C161.3234,57.422 160.6334,57.435 159.5814,57.435 L156.8804,57.435 L156.8804,56.202 L163.4104,56.202 L163.4104,57.253 L158.9364,64.218 C158.7444,64.521 158.5444,64.806 158.3334,65.105 C158.6514,65.075 159.5514,65.075 160.8564,65.075 L163.4704,65.075 L163.4704,66.336 L156.7294,66.336 Z" id="Fill-45" fill="#2B4762"></path>
                <path d="M169.3178,59.1299 C169.1368,58.6359 169.0038,58.1869 168.8838,57.7509 L168.8538,57.7509 C168.7348,58.1869 168.5978,58.6359 168.4328,59.1149 L167.0798,62.8669 L170.6688,62.8669 L169.3178,59.1299 Z M171.8718,66.3359 L171.0298,63.9659 L166.7228,63.9659 L165.8828,66.3359 L164.4718,66.3359 L168.1618,56.2019 L169.6948,56.2019 L173.4168,66.3359 L171.8718,66.3359 Z" id="Fill-47" fill="#2B4762"></path>
                <path d="M182.1215,66.458 C178.8665,66.458 177.5145,64.385 177.5145,61.519 C177.5145,58.427 179.0445,56.112 182.4675,56.112 C183.2485,56.112 184.0725,56.218 184.7935,56.43 L184.5705,57.69 C183.8635,57.451 183.0825,57.3 182.3185,57.3 C180.0075,57.3 179.0175,59.071 179.0175,61.29 C179.0175,63.782 180.0975,65.227 182.4525,65.227 C183.1885,65.227 184.0725,65.017 184.6765,64.716 L184.8975,65.917 C184.1335,66.231 183.1425,66.458 182.1215,66.458" id="Fill-49" fill="#2B4762"></path>
                <polygon id="Fill-51" fill="#2B4762" points="186.4614 66.336 186.4614 56.202 191.6704 56.202 191.6704 57.347 187.8454 57.347 187.8454 60.558 191.4904 60.558 191.4904 61.667 187.8454 61.667 187.8454 65.181 191.6704 65.181 191.6704 66.336"></polygon>
                <path d="M199.852,66.336 L195.92,59.838 C195.483,59.115 195.137,58.485 194.855,57.841 C194.914,58.906 194.959,61.786 194.959,63.515 L194.959,66.336 L193.622,66.336 L193.622,56.202 L195.454,56.202 L199.341,62.583 C199.733,63.246 200.122,63.966 200.453,64.638 C200.407,63.38 200.346,60.541 200.346,58.786 L200.346,56.202 L201.681,56.202 L201.681,66.336 L199.852,66.336 Z" id="Fill-53" fill="#2B4762"></path>
                <path d="M210.2876,66.336 L206.3536,59.838 C205.9186,59.115 205.5756,58.485 205.2886,57.841 C205.3476,58.906 205.3926,61.786 205.3926,63.515 L205.3926,66.336 L204.0586,66.336 L204.0586,56.202 L205.8876,56.202 L209.7746,62.583 C210.1666,63.246 210.5586,63.966 210.8876,64.638 C210.8436,63.38 210.7816,60.541 210.7816,58.786 L210.7816,56.202 L212.1176,56.202 L212.1176,66.336 L210.2876,66.336 Z" id="Fill-55" fill="#2B4762"></path>
                <path d="M217.0043,55.4541 L216.7323,54.6721 L219.4663,53.5611 L219.8553,54.6141 L217.0043,55.4541 Z M217.9673,62.6861 L217.9673,66.3361 L216.5833,66.3361 L216.5833,62.6861 L213.4153,56.2021 L214.9313,56.2021 L216.5373,59.6261 C216.8233,60.2271 217.0773,60.8111 217.3033,61.3831 L217.3163,61.3831 C217.5573,60.7661 217.8743,60.1051 218.1893,59.4461 L219.7503,56.2021 L221.1913,56.2021 L217.9673,62.6861 Z" id="Fill-57" fill="#2B4762"></path>
                <path d="M225.9848,66.458 C222.7278,66.458 221.3778,64.385 221.3778,61.519 C221.3778,58.427 222.9078,56.112 226.3288,56.112 C227.1098,56.112 227.9338,56.218 228.6568,56.43 L228.4318,57.69 C227.7268,57.451 226.9458,57.3 226.1798,57.3 C223.8688,57.3 222.8788,59.071 222.8788,61.29 C222.8788,63.782 223.9588,65.227 226.3138,65.227 C227.0478,65.227 227.9338,65.017 228.5358,64.716 L228.7628,65.917 C227.9978,66.231 227.0068,66.458 225.9848,66.458" id="Fill-59" fill="#2B4762"></path>
                <polygon id="Fill-61" fill="#2B4762" points="236.8696 66.336 236.8696 61.667 231.7066 61.667 231.7066 66.336 230.3226 66.336 230.3226 56.202 231.7066 56.202 231.7066 60.495 236.8696 60.495 236.8696 56.202 238.2516 56.202 238.2516 66.336"></polygon>
                <path d="M246.4184,57.2862 C246.0414,57.2862 245.7414,57.2862 245.4544,57.3002 L245.4544,61.2902 C245.7104,61.3372 245.9954,61.3532 246.2814,61.3532 C247.7824,61.3372 248.7434,60.5262 248.7434,59.2512 C248.7434,57.9912 248.0074,57.2862 246.4184,57.2862 M246.2674,62.4922 C246.0124,62.4922 245.7274,62.4922 245.4544,62.4662 L245.4544,66.3362 L244.0754,66.3362 L244.0754,56.2022 C244.8224,56.1752 245.6514,56.1422 246.5664,56.1422 C248.8934,56.1422 250.1824,57.3132 250.1824,59.1152 C250.1824,61.0992 248.5624,62.4922 246.2674,62.4922" id="Fill-63" fill="#2B4762"></path>
                <path d="M254.7729,59.1299 C254.5929,58.6359 254.4579,58.1869 254.3399,57.7509 L254.3079,57.7509 C254.1869,58.1869 254.0529,58.6359 253.8879,59.1149 L252.5379,62.8669 L256.1239,62.8669 L254.7729,59.1299 Z M257.3239,66.3359 L256.4859,63.9659 L252.1749,63.9659 L251.3349,66.3359 L249.9269,66.3359 L253.6179,56.2019 L255.1479,56.2019 L258.8729,66.3359 L257.3239,66.3359 Z" id="Fill-65" fill="#2B4762"></path>
                <path d="M262.5092,57.2862 C262.1342,57.2862 261.8342,57.2862 261.5502,57.3002 L261.5502,61.2902 C261.8052,61.3372 262.0902,61.3532 262.3742,61.3532 C263.8732,61.3372 264.8342,60.5262 264.8342,59.2512 C264.8342,57.9912 264.1002,57.2862 262.5092,57.2862 M262.3582,62.4922 C262.1052,62.4922 261.8182,62.4922 261.5502,62.4662 L261.5502,66.3362 L260.1662,66.3362 L260.1662,56.2022 C260.9172,56.1752 261.7422,56.1422 262.6572,56.1422 C264.9862,56.1422 266.2772,57.3132 266.2772,59.1152 C266.2772,61.0992 264.6552,62.4922 262.3582,62.4922" id="Fill-67" fill="#2B4762"></path>
                <mask id="mask-2" fill="white">
                    <use xlink:href="#path-1"></use>
                </mask>
                <g id="Clip-70"></g>
                <path d="M267.743,66.3358 L269.123,66.3358 L269.123,56.2018 L267.743,56.2018 L267.743,66.3358 Z M267.757,55.4538 L267.488,54.6718 L270.219,53.5618 L270.611,54.6138 L267.757,55.4538 Z" id="Fill-69" fill="#2B4762" mask="url(#mask-2)"></path>
                <path d="M273.8139,57.2686 C273.4679,57.2686 273.1709,57.2866 272.8989,57.2996 L272.8989,60.7546 C273.0499,60.7666 273.3489,60.7826 273.7549,60.7826 C275.2119,60.7826 276.0519,60.0466 276.0519,58.9666 C276.0519,57.7506 275.2859,57.2686 273.8139,57.2686 L273.8139,57.2686 Z M276.3969,66.3356 L273.0819,61.8056 L272.8989,61.8056 L272.8989,66.3356 L271.5189,66.3356 L271.5189,56.2026 C272.2089,56.1576 272.9449,56.1426 274.0549,56.1426 C276.0519,56.1426 277.4929,56.8506 277.4929,58.7866 C277.4929,60.5146 276.1269,61.5186 274.5219,61.6376 C274.8189,61.9976 275.1369,62.3896 275.3919,62.7176 L278.1519,66.3356 L276.3969,66.3356 Z" id="Fill-71" fill="#2B4762" mask="url(#mask-2)"></path>
                <path d="M283.3227,54.042 C282.9037,54.042 282.5737,54.388 282.5737,54.808 C282.5737,55.227 282.9037,55.588 283.3227,55.588 C283.7417,55.588 284.0897,55.227 284.0897,54.808 C284.0897,54.388 283.7417,54.042 283.3227,54.042 M283.3227,56.339 C282.4387,56.339 281.7337,55.722 281.7337,54.839 C281.7337,53.966 282.4827,53.276 283.3397,53.276 C284.2397,53.276 284.9277,53.921 284.9277,54.794 C284.9277,55.633 284.1937,56.339 283.3227,56.339 M283.2037,66.487 C280.0357,66.487 279.4057,64.73 279.4057,62.928 L279.4057,56.202 L280.7857,56.202 L280.7857,62.825 C280.7857,64.218 281.2507,65.346 283.2937,65.346 C285.0647,65.346 285.8887,64.61 285.8887,62.569 L285.8887,56.202 L287.2397,56.202 L287.2397,62.466 C287.2397,65.122 285.8447,66.487 283.2037,66.487" id="Fill-72" fill="#2B4762" mask="url(#mask-2)"></path>
                <path d="M295.4233,57.2862 C295.0463,57.2862 294.7443,57.2862 294.4603,57.3002 L294.4603,61.2902 C294.7153,61.3372 295.0003,61.3532 295.2843,61.3532 C296.7863,61.3372 297.7493,60.5262 297.7493,59.2512 C297.7493,57.9912 297.0143,57.2862 295.4233,57.2862 M295.2703,62.4922 C295.0173,62.4922 294.7333,62.4922 294.4603,62.4662 L294.4603,66.3362 L293.0803,66.3362 L293.0803,56.2022 C293.8303,56.1752 294.6543,56.1422 295.5693,56.1422 C297.9003,56.1422 299.1903,57.3132 299.1903,59.1152 C299.1903,61.0992 297.5673,62.4922 295.2703,62.4922" id="Fill-73" fill="#2B4762" mask="url(#mask-2)"></path>
                <path d="M302.9516,57.2686 C302.6056,57.2686 302.3086,57.2866 302.0366,57.2996 L302.0366,60.7546 C302.1896,60.7666 302.4866,60.7826 302.8926,60.7826 C304.3476,60.7826 305.1896,60.0466 305.1896,58.9666 C305.1896,57.7506 304.4236,57.2686 302.9516,57.2686 L302.9516,57.2686 Z M305.5346,66.3356 L302.2196,61.8056 L302.0366,61.8056 L302.0366,66.3356 L300.6546,66.3356 L300.6546,56.2026 C301.3466,56.1576 302.0806,56.1426 303.1946,56.1426 C305.1896,56.1426 306.6306,56.8506 306.6306,58.7866 C306.6306,60.5146 305.2636,61.5186 303.6596,61.6376 C303.9586,61.9976 304.2726,62.3896 304.5276,62.7176 L307.2916,66.3356 L305.5346,66.3356 Z" id="Fill-74" fill="#2B4762" mask="url(#mask-2)"></path>
                <path d="M313.0073,59.1299 C312.8263,58.6359 312.6913,58.1869 312.5713,57.7509 L312.5393,57.7509 C312.4203,58.1869 312.2863,58.6359 312.1213,59.1149 L310.7693,62.8669 L314.3573,62.8669 L313.0073,59.1299 Z M315.5573,66.3359 L314.7173,63.9659 L310.4103,63.9659 L309.5673,66.3359 L308.1583,66.3359 L311.8513,56.2019 L313.3813,56.2019 L317.1063,66.3359 L315.5573,66.3359 Z" id="Fill-75" fill="#2B4762" mask="url(#mask-2)"></path>
                <polygon id="Fill-76" fill="#2B4762" mask="url(#mask-2)" points="324.9438 66.336 324.9438 61.667 319.7838 61.667 319.7838 66.336 318.3998 66.336 318.3998 56.202 319.7838 56.202 319.7838 60.495 324.9438 60.495 324.9438 56.202 326.3278 56.202 326.3278 66.336"></polygon>
                <path d="M332.4809,59.1299 C332.2999,58.6359 332.1649,58.1869 332.0449,57.7509 L332.0139,57.7509 C331.8949,58.1869 331.7629,58.6359 331.5929,59.1149 L330.2449,62.8669 L333.8319,62.8669 L332.4809,59.1299 Z M335.0309,66.3359 L334.1909,63.9659 L329.8819,63.9659 L329.0429,66.3359 L327.6299,66.3359 L331.3249,56.2019 L332.8579,56.2019 L336.5799,66.3359 L335.0309,66.3359 Z" id="Fill-77" fill="#2B4762" mask="url(#mask-2)"></path>
                <path d="M110.582,56.3272 C105.484,51.2332 89.415,35.1612 87.56,33.3102 C89.417,31.4532 105.518,15.3522 110.597,10.2732 L110.582,10.2582 L100.345,0.0212 C95.27,5.0982 79.165,21.2042 77.31,23.0582 C75.111,20.8612 54.254,0.0002 54.254,0.0002 L0.004,0.0002 L0,81.4272 L14.445,81.4272 L14.445,66.5962 C17.613,66.5962 54.27,66.5992 54.27,66.5992 C54.27,66.5992 75.111,45.7562 77.31,43.5602 C79.163,45.4112 95.234,61.4872 100.328,66.5832 L110.582,56.3272 Z M48.188,52.1732 L14.443,52.1732 C14.443,49.1432 14.429,17.4572 14.427,14.4232 L48.17,14.4232 C49.07,15.3262 64.872,31.1892 66.962,33.2882 C64.874,35.3892 49.087,51.2682 48.188,52.1732 L48.188,52.1732 Z" id="Fill-78" fill="#2B4762" mask="url(#mask-2)"></path>
            </g>
        </g>
    </g>
</svg>