<?xml version="1.0" encoding="utf-8"?>
<!-- Generator: Adobe Illustrator 22.1.0, SVG Export Plug-In . SVG Version: 6.00 Build 0)  -->
<svg version="1.1" id="Vrstva_1" xmlns="http://www.w3.org/2000/svg" xmlns:xlink="http://www.w3.org/1999/xlink" x="0px" y="0px"
	 viewBox="0 0 451.4 118.2" style="enable-background:new 0 0 451.4 118.2;" xml:space="preserve">
<style type="text/css">
	.st0{fill:url(#SVGID_1_);}
	.st1{fill:#FDB73B;}
	.st2{fill:#005793;}
	.st3{fill:url(#SVGID_2_);}
	.st4{fill:url(#SVGID_3_);}
	.st5{fill:url(#SVGID_4_);}
</style>
<g>
	<g>
		
			<linearGradient id="SVGID_1_" gradientUnits="userSpaceOnUse" x1="47.2" y1="512.8962" x2="47.2" y2="368.5627" gradientTransform="matrix(1 0 0 1 0 -374)">
			<stop  offset="0" style="stop-color:#005793"/>
			<stop  offset="0.5408" style="stop-color:#00619E"/>
			<stop  offset="1" style="stop-color:#006DAA"/>
		</linearGradient>
		<path class="st0" d="M14.6,0C6.5,0,0,6.6,0,14.7v88.8c0,8.1,6.6,14.7,14.7,14.7h79.7V0H14.6z"/>
	</g>
	<g>
		<path class="st1" d="M142,14h9.6c7.7,0,11.9,5,11.9,10.9c0,6-4.2,10.9-11.9,10.9h-3.8v12.1H142V14z M151.4,30.9c4.2,0,6-3,6-6
			c0-3.2-1.8-6-6-6h-3.6v12H151.4z"/>
		<path class="st1" d="M169.3,15.3c3.6-1.1,7.2-1.9,10.7-1.9c7.4,0,11.3,5.3,11.3,11c0,3.3-1.8,8.1-6.9,9.9l6.5,13.6h-6.3l-5.9-12.8
			h-3.6v12.8h-5.8V15.3z M179.5,30.4c3.8,0,5.8-2.6,5.8-6.1c0-3.3-1.5-6.1-5.2-6.1c-1.7,0-3.3,0.2-5,0.7v11.5H179.5z"/>
		<path class="st1" d="M202.6,19.1c0.8-3.3,3.2-5.8,6.8-5.8s6,2.6,6.8,5.8l7.6,28.7H218l-2.3-9.1h-12.4l-2.3,9.1h-5.8L202.6,19.1z
			 M214.5,33.9L211,19.8c-0.2-0.9-0.7-1.5-1.5-1.5c-0.9,0-1.3,0.6-1.5,1.5l-3.5,14.1H214.5z"/>
		<path class="st1" d="M227.9,43.4l15.2-24.5h-14.7V14h21.4v4.5L234.6,43h16v4.9h-22.7V43.4z M234.7,4.2l4.6,2.6l4.6-2.6l2.3,3.4
			l-6.9,3.8l-6.9-3.8L234.7,4.2z"/>
		<path class="st1" d="M256.1,41.8c3.1,1,5.7,1.7,8.7,1.7c3.9,0,5.5-2,5.5-4.8c0-7.2-14.7-4.8-14.7-16.1c0-5.9,4.8-9.3,11.3-9.3
			c3.1,0,5.3,0.7,8.4,1.8l-1.5,4.6c-2.6-0.9-4.4-1.5-6.9-1.5c-3.4,0-5.2,1.7-5.2,4.4c0,6.3,14.7,4.8,14.7,16.1
			c0,5.9-4.6,9.7-11.6,9.7c-3.6,0-6.2-0.8-9.7-1.9L256.1,41.8z"/>
		<path class="st1" d="M282.5,14h5.8v14.2l3.5-0.2l6.4-14h6.4l-7,14.5c2,0.8,3.2,2.4,3.9,4.6l5,14.8h-6.1l-4.5-13.2
			c-0.4-1.1-1.1-2-2.6-1.9l-4.9,0.3v13.6c0,0.7-0.4,1.2-1.2,1.2h-4.6L282.5,14L282.5,14z"/>
		<path class="st1" d="M317,19.1c0.8-3.3,3.2-5.8,6.8-5.8c3.6,0,6,2.6,6.8,5.8l7.6,28.7h-5.8l-2.4-9.1h-12.4l-2.3,9.1h-5.8L317,19.1
			z M318,7.9l10-3.7l1.5,4.2l-10.2,3L318,7.9z M328.9,33.9l-3.5-14.1c-0.2-0.9-0.7-1.5-1.5-1.5c-0.9,0-1.3,0.6-1.5,1.5l-3.5,14.1
			H328.9z"/>
		<path class="st2" d="M142,72.2h9.6c7.7,0,11.9,5,11.9,10.9c0,6-4.2,10.9-11.9,10.9h-3.8v12.1H142V72.2z M151.4,89.1c4.2,0,6-3,6-6
			c0-3.2-1.8-6-6-6h-3.6v12H151.4z"/>
		<path class="st2" d="M169.3,72.2h5.8v29H190v3.7c0,0.7-0.4,1.2-1.2,1.2h-19.5V72.2z"/>
		<path class="st2" d="M199.5,92.4c-4.5-1-6.5-4.4-7.4-8.9l-2.3-11.3h5.8l2.1,10.5c0.6,3.1,1.6,5.2,4.7,5.2c3.1,0,4-2.2,4.7-5.3
			l2.1-10.4h5.8l-2.3,11.3c-0.9,4.5-2.9,8-7.4,8.9v13.7h-5.7V92.4H199.5z"/>
		<path class="st2" d="M220.6,72.2h5.3l13.4,23.4c-0.2-2.3-0.3-4.7-0.3-6.4v-17h5.7v33.9h-5.3L226,82.7c0.2,2.3,0.3,4.7,0.3,6.4v17
			h-5.7V72.2z"/>
		<path class="st2" d="M257.9,77.3c0.8-3.2,3.2-5.8,6.8-5.8c3.6,0,6,2.6,6.8,5.8l7.6,28.7h-5.8l-2.3-9.1h-12.4l-2.3,9.1h-5.8
			L257.9,77.3z M258.9,66.1l10-3.7l1.5,4.2l-10.2,3L258.9,66.1z M269.8,92.1L266.3,78c-0.2-0.9-0.7-1.5-1.5-1.5
			c-0.9,0-1.3,0.6-1.5,1.5l-3.5,14.1H269.8z"/>
		<path class="st2" d="M284.8,73.5c3.6-1.1,7.2-1.9,10.7-1.9c7.4,0,11.3,5.3,11.3,11c0,3.2-1.8,8.1-6.9,9.9l6.5,13.6h-6.3l-5.9-12.8
			h-3.6v12.8h-5.8L284.8,73.5L284.8,73.5z M295,88.6c3.8,0,5.8-2.6,5.8-6.1c0-3.3-1.5-6.1-5.2-6.1c-1.6,0-3.3,0.2-4.9,0.7v11.5H295z
			"/>
		<path class="st2" d="M312,81.2c0-5.4,3.4-9,10.3-9h9.2v4.9h-9.1c-3.5,0-4.6,1.6-4.6,4.5v4.7H330v4.9h-12.2v5.6
			c0,3,1.1,4.5,4.6,4.5h9.3v3.7c0,0.7-0.4,1.2-1.2,1.2h-8.2c-6.8,0-10.3-3.6-10.3-9L312,81.2L312,81.2z"/>
		<path class="st2" d="M338.2,72.2h5.3l13.4,23.4c-0.2-2.3-0.3-4.7-0.3-6.4v-17h5.7v33.9H357l-13.4-23.4c0.2,2.3,0.3,4.7,0.3,6.4v17
			h-5.7L338.2,72.2L338.2,72.2z"/>
		<path class="st2" d="M369.3,100c3.1,1,5.7,1.7,8.7,1.7c3.9,0,5.5-2,5.5-4.8c0-7.2-14.7-4.8-14.7-16.1c0-5.9,4.8-9.3,11.3-9.3
			c3.1,0,5.3,0.7,8.4,1.8l-1.5,4.6c-2.6-0.9-4.4-1.5-6.9-1.5c-3.4,0-5.2,1.7-5.2,4.4c0,6.3,14.7,4.8,14.7,16.1
			c0,5.9-4.6,9.7-11.6,9.7c-3.6,0-6.2-0.8-9.7-1.9L369.3,100z"/>
		<path class="st2" d="M395.8,72.2h5.8v14.2l3.5-0.2l6.4-14h6.4l-7,14.5c2,0.8,3.2,2.4,3.9,4.6l5,14.8h-6.1l-4.5-13.2
			c-0.4-1.1-1.1-2-2.6-1.9l-4.9,0.3v13.6c0,0.7-0.4,1.2-1.2,1.2h-4.6L395.8,72.2L395.8,72.2z"/>
		<path class="st2" d="M430.2,77.3c0.8-3.2,3.2-5.8,6.8-5.8c3.6,0,6,2.6,6.8,5.8l7.6,28.7h-5.8l-2.3-9.1h-12.4l-2.3,9.1h-5.8
			L430.2,77.3z M431.3,66.1l10-3.7l1.5,4.2l-10.2,3L431.3,66.1z M442.1,92.1L438.6,78c-0.2-0.9-0.7-1.5-1.5-1.5
			c-0.9,0-1.3,0.6-1.5,1.5L432,92.1H442.1z"/>
	</g>
	
		<linearGradient id="SVGID_2_" gradientUnits="userSpaceOnUse" x1="109.3" y1="492.1" x2="109.3" y2="374" gradientTransform="matrix(1 0 0 1 0 -374)">
		<stop  offset="0" style="stop-color:#FDB73B"/>
		<stop  offset="0.646" style="stop-color:#FFC333"/>
		<stop  offset="1" style="stop-color:#FFCB2B"/>
	</linearGradient>
	<rect x="100.1" class="st3" width="18.4" height="118.1"/>
	<g>
		
			<linearGradient id="SVGID_3_" gradientUnits="userSpaceOnUse" x1="19.5242" y1="61.6" x2="77.4695" y2="61.6" gradientTransform="matrix(1 0 0 -1 0 119.4)">
			<stop  offset="0" style="stop-color:#FDB73B"/>
			<stop  offset="0.646" style="stop-color:#FFC333"/>
			<stop  offset="1" style="stop-color:#FFCB2B"/>
		</linearGradient>
		<path class="st4" d="M49,14.4c-5.2,0-32.5,39.3-29.2,63.4c1.9,13.5,7.5,20.1,13.9,23.4c-1-1.7-1.8-3.6-2.6-5.9
			C23.6,72.5,45.6,45.4,49,45.4c3.2,0,25.2,26.9,17.9,49.9c-0.7,2.3-1.5,4.2-2.5,5.8c6.2-3.3,11.6-10,12.9-23.3
			C79.8,53.7,53.9,14.4,49,14.4z"/>
		
			<linearGradient id="SVGID_4_" gradientUnits="userSpaceOnUse" x1="37.6" y1="32.65" x2="61.8" y2="32.65" gradientTransform="matrix(1 0 0 -1 0 119.4)">
			<stop  offset="0" style="stop-color:#FDB73B"/>
			<stop  offset="0.646" style="stop-color:#FFC333"/>
			<stop  offset="1" style="stop-color:#FFCB2B"/>
		</linearGradient>
		<path class="st5" d="M61.8,91.9c0,4.7-1.7,8-3.9,10.1c-2.6,2.5-5.9,3.4-8.2,3.4c-2.2,0-5.6-0.9-8.2-3.4c-2.2-2.1-3.9-5.4-3.9-10.1
			c0-10.3,9.9-23.8,12.1-23.8C51.7,68.1,61.8,81.6,61.8,91.9z"/>
	</g>
</g>
</svg>
