<svg xmlns="http://www.w3.org/2000/svg" viewBox="0 0 567 567" width="567" height="567">
	<defs>
		<clipPath clipPathUnits="userSpaceOnUse" id="cp1">
			<path d="M0 0L567 0L567 567L0 567Z" />
		</clipPath>
		<clipPath clipPathUnits="userSpaceOnUse" id="cp2">
			<path d="" />
		</clipPath>
		<clipPath clipPathUnits="userSpaceOnUse" id="cp3">
			<path d="" />
		</clipPath>
		<clipPath clipPathUnits="userSpaceOnUse" id="cp4">
			<path d="" />
		</clipPath>
		<clipPath clipPathUnits="userSpaceOnUse" id="cp5">
			<path d="" />
		</clipPath>
		<clipPath clipPathUnits="userSpaceOnUse" id="cp6">
			<path d="" />
		</clipPath>
		<clipPath clipPathUnits="userSpaceOnUse" id="cp7">
			<path d="" />
		</clipPath>
	</defs>
	<style>
		tspan { white-space:pre }
		.shp0 { fill: #ffe23b } 
		.shp1 { fill: #000000 } 
	</style>
	<g id="Page 1" clip-path="url(#cp1)">
		<path id="Path 1" class="shp0" d="M283.51 566.6C127.12 566.6 0.31 440 0 283.71C2.38 282.51 59.33 254.23 143.03 254.75C221.62 255.25 272.11 279.88 283.53 283.75C293.22 287.03 344.25 312.14 425.22 312.14C510.87 312.14 566.93 283.67 566.93 283.67C566.74 439.96 439.91 566.6 283.51 566.6ZM283.51 567C127.12 567 0.31 440.39 0 284.11C2.38 282.9 59.33 254.63 143.03 255.15C221.62 255.64 272.11 280.28 283.53 284.15C293.22 287.43 344.25 312.54 425.22 312.54C510.87 312.54 566.93 284.07 566.93 284.07C566.74 440.35 439.91 567 283.51 567ZM158.65 99.31C158.65 99.31 140.22 141.82 139.86 142.64C139.5 141.82 120.95 99.43 120.95 99.43L87.88 99.31L124.68 171.53L124.66 221.08L154.89 221.08L154.89 171.44L191.67 99.31L158.65 99.31Z" />
		<path id="Path 2" fill-rule="evenodd" class="shp0" d="M191.7 99.69L155.09 171.54L155.09 221.28L124.46 221.28L124.46 171.54L87.85 99.69L87.56 99.11L121.03 99.11L121.13 99.35L139.86 142.15L158.42 99.35L158.52 99.11L191.99 99.11L191.7 99.69ZM140.02 142.78L139.86 143.15L139.7 142.78L139.64 142.65L120.77 99.51L88.21 99.51L124.86 171.44L124.86 220.88L154.69 220.88L154.69 171.44L191.34 99.51L158.78 99.51L140.08 142.65L140.02 142.78ZM309.15 99.31L309.15 191.73C309.15 195.28 311.03 197.15 314.57 197.15L324.49 197.15L324.49 221.08L309.46 221.08C289.66 221.08 280.79 207.36 280.79 193.77L280.79 99.31L309.15 99.31Z" />
		<path id="Path 3" fill-rule="evenodd" class="shp0" d="M309.35 191.73C309.35 195.2 311.11 196.95 314.57 196.95L324.69 196.95L324.69 221.28L309.46 221.28C300.14 221.28 292.48 218.18 287.32 212.32C283.04 207.47 280.59 200.71 280.59 193.77L280.59 99.11L309.35 99.11L309.35 191.73ZM280.99 193.77C280.99 206.39 289.17 220.88 309.46 220.88L324.29 220.88L324.29 197.35L314.57 197.35C310.82 197.35 308.95 195.31 308.95 191.73L308.95 99.51L280.99 99.51L280.99 193.77ZM367.25 99.31L367.25 191.73C367.25 195.28 369.13 197.15 372.68 197.15L382.59 197.15L382.59 221.08L367.57 221.08C347.76 221.08 338.9 207.36 338.9 193.77L338.9 99.31L367.25 99.31Z" />
		<path id="Path 4" fill-rule="evenodd" class="shp0" d="M367.45 191.73C367.45 195.2 369.21 196.95 372.68 196.95L382.79 196.95L382.79 221.28L367.56 221.28C358.24 221.28 350.59 218.18 345.42 212.32C341.15 207.47 338.7 200.71 338.7 193.77L338.7 99.11L367.45 99.11L367.45 191.73ZM339.1 193.77C339.1 206.39 347.28 220.88 367.56 220.88L382.39 220.88L382.39 197.35L372.68 197.35C368.93 197.35 367.05 195.31 367.05 191.73L367.05 99.51L339.1 99.51L339.1 193.77ZM430.96 222.1C415.66 222.1 406.4 215.67 401.33 210.27C393.67 201.94 391.21 193.37 391.21 175.02C391.21 156.9 393.76 148 401.33 139.77C406.4 134.37 415.66 127.94 430.96 127.94C446.25 127.94 455.52 134.37 460.6 139.77C468.16 148.01 470.71 156.9 470.71 175.02C470.71 193.37 468.25 201.94 460.6 210.27C455.52 215.67 446.25 222.1 430.96 222.1ZM430.96 153.58C427.64 153.58 425.3 154.37 423.6 156.07C420.21 159.46 419.57 165.35 419.57 175.02C419.57 184.7 420.21 190.58 423.6 193.97C425.3 195.68 427.64 196.47 430.96 196.47C434.28 196.47 436.61 195.68 438.32 193.97C441.71 190.58 442.35 184.69 442.35 175.02C442.35 165.35 441.71 159.47 438.32 156.07C436.62 154.37 434.28 153.58 430.96 153.58Z" />
		<path id="Path 5" fill-rule="evenodd" class="shp0" d="M460.74 139.64C468.34 147.91 470.91 156.84 470.91 175.02C470.91 193.43 468.44 202.03 460.74 210.41C455.63 215.83 446.32 222.3 430.96 222.3C415.59 222.3 406.28 215.83 401.18 210.41C393.48 202.03 391.01 193.43 391.01 175.02C391.01 156.84 393.57 147.91 401.18 139.63C406.28 134.21 415.59 127.74 430.96 127.74C446.32 127.74 455.63 134.21 460.74 139.64ZM401.47 139.91C393.8 148.26 391.41 157.12 391.41 175.02C391.41 193.09 393.8 201.79 401.47 210.14C406.92 215.93 416.13 221.9 430.96 221.9C445.79 221.9 454.99 215.93 460.45 210.14C468.12 201.79 470.51 193.09 470.51 175.02C470.51 157.12 468.12 148.26 460.45 139.91C454.99 134.11 445.79 128.14 430.96 128.14C416.13 128.14 406.92 134.11 401.47 139.91ZM423.46 194.11C419.88 190.53 419.37 184.06 419.37 175.02C419.37 165.99 419.88 159.51 423.46 155.93C425.16 154.23 427.55 153.37 430.96 153.37C434.37 153.37 436.76 154.23 438.46 155.93C442.03 159.51 442.55 165.99 442.55 175.02C442.55 184.06 442.03 190.53 438.46 194.11C436.76 195.82 434.37 196.67 430.96 196.67C427.55 196.67 425.16 195.82 423.46 194.11ZM438.18 193.83C441.52 190.49 442.15 184.64 442.15 175.02C442.15 165.4 441.52 159.56 438.18 156.21C436.51 154.55 434.22 153.78 430.96 153.78C427.69 153.78 425.4 154.55 423.74 156.21C420.4 159.56 419.77 165.4 419.77 175.02C419.77 184.64 420.4 190.49 423.74 193.83C425.4 195.49 427.7 196.27 430.96 196.27C434.22 196.27 436.51 195.49 438.18 193.83ZM226.13 222.1C197.04 222.1 182.29 206.26 182.29 175.02C182.29 145.98 198.11 127.94 223.58 127.94C248.37 127.94 265.03 145.49 265.03 171.61L265.03 184.26L210.14 184.26C210.23 191 215.25 198.18 226.13 198.18C235.57 198.18 239.86 195.61 244.91 190.56L245.05 190.42L262.04 207.41L261.9 207.55C252.92 216.53 243.8 222.1 226.13 222.1ZM237.01 165.28C236.98 162.68 236.48 160.37 235.5 158.41C233.52 153.86 229.28 151.36 223.58 151.36C217.86 151.36 213.63 153.86 211.65 158.4C210.67 160.37 210.16 162.68 210.14 165.28L237.01 165.28Z" />
		<path id="Path 6" fill-rule="evenodd" class="shp0" d="M265.23 171.61L265.23 184.46L210.34 184.46C210.53 191.04 215.49 197.98 226.13 197.98C235.5 197.98 239.76 195.43 244.77 190.42L245.05 190.14L245.33 190.42L262.04 207.13L262.32 207.41L262.04 207.69C253.02 216.71 243.87 222.3 226.13 222.3C196.91 222.3 182.09 206.39 182.09 175.02C182.09 160.5 186.11 148.41 193.72 140.06C201.07 132 211.4 127.74 223.58 127.74C248.49 127.74 265.23 145.37 265.23 171.61ZM182.49 175.02C182.49 214.57 205.84 221.9 226.13 221.9C243.18 221.9 252.38 216.79 261.76 207.41L245.05 190.71C240.11 195.65 235.85 198.38 226.13 198.38C215.73 198.38 209.93 191.56 209.93 184.06L264.83 184.06L264.83 171.61C264.83 147.58 250.17 128.14 223.58 128.14C199.54 128.14 182.49 145.02 182.49 175.02ZM211.47 158.32C213.18 154.39 216.93 151.16 223.58 151.16C230.22 151.16 233.97 154.39 235.68 158.32C236.87 160.7 237.21 163.26 237.21 165.48L209.93 165.48C209.93 163.26 210.28 160.7 211.47 158.32ZM236.81 165.08C236.76 162.59 236.26 160.38 235.31 158.48C233.37 154.01 229.2 151.56 223.58 151.56C217.95 151.56 213.78 154.01 211.83 158.49C210.89 160.38 210.39 162.59 210.34 165.08L236.81 165.08Z" />
		<path id="Path 7" fill-rule="evenodd" class="shp1" d="M425.16 312.34C354.08 312.34 306.73 293.23 288.91 286.04C286.49 285.06 284.74 284.36 283.56 283.96C282.08 283.46 279.93 282.6 277.2 281.52C259.22 274.37 211.47 255.38 143.01 254.95L140.72 254.94C60.38 254.94 5.17 281.32 0.2 283.78L0.2 283.53C0.2 127.34 127.27 0.27 283.47 0.27C439.66 0.27 566.73 127.34 566.73 283.54L566.73 283.91C563.08 285.72 507.99 312.34 425.16 312.34ZM430.96 127.95C415.66 127.95 406.4 134.38 401.33 139.78C393.76 148.01 391.21 156.91 391.21 175.03C391.21 193.38 393.67 201.94 401.33 210.28C406.4 215.68 415.66 222.11 430.96 222.11C446.25 222.11 455.52 215.68 460.6 210.28C468.25 201.94 470.71 193.38 470.71 175.03C470.71 156.91 468.16 148.01 460.6 139.78C455.52 134.38 446.25 127.95 430.96 127.95ZM124.68 171.54L124.66 221.08L154.89 221.08L154.89 171.45L191.67 99.31L158.65 99.31L139.86 142.65L120.9 99.31L87.88 99.31L124.68 171.54ZM280.79 193.78C280.79 207.37 289.66 221.08 309.46 221.08L324.49 221.08L324.49 197.16L314.57 197.16C311.03 197.16 309.15 195.28 309.15 191.74L309.15 99.31L280.79 99.31L280.79 193.78ZM338.9 193.78C338.9 207.37 347.76 221.08 367.57 221.08L382.59 221.08L382.59 197.16L372.68 197.16C369.13 197.16 367.25 195.28 367.25 191.74L367.25 99.31L338.9 99.31L338.9 193.78ZM223.57 127.95C198.11 127.95 182.29 145.99 182.29 175.03C182.29 206.27 197.04 222.11 226.13 222.11C243.8 222.11 252.92 216.54 261.9 207.56L262.04 207.42L245.05 190.43L244.91 190.57C239.86 195.62 235.57 198.18 226.13 198.18C215.25 198.18 210.23 191.01 210.14 184.26L265.03 184.26L265.03 171.62C265.03 145.5 248.37 127.95 223.57 127.95ZM430.96 196.48C427.64 196.48 425.3 195.68 423.6 193.98C420.21 190.59 419.57 184.7 419.57 175.03C419.57 165.36 420.21 159.47 423.6 156.08C425.3 154.37 427.64 153.58 430.96 153.58C434.28 153.58 436.61 154.37 438.32 156.08C441.71 159.47 442.35 165.36 442.35 175.03C442.35 184.7 441.71 190.58 438.32 193.98C436.62 195.68 434.28 196.48 430.96 196.48ZM210.14 165.28C210.16 162.68 210.67 160.37 211.65 158.41C213.63 153.86 217.86 151.36 223.57 151.36C229.28 151.36 233.51 153.86 235.49 158.4C236.48 160.37 236.98 162.68 237.01 165.28L210.14 165.28Z" />
		<path id="Path 8" fill-rule="evenodd" class="shp1" d="M566.93 283.54L566.93 284.03C566.85 284.07 510.79 312.54 425.16 312.54C344.2 312.54 293.18 287.43 283.49 284.15C272.07 280.28 221.59 255.64 143.01 255.15C142.25 255.15 141.47 255.14 140.72 255.14C58.28 255.14 2.36 282.91 0 284.11L0 283.54C0 126.98 126.91 0.07 283.47 0.07C440.02 0.07 566.93 126.98 566.93 283.54ZM83.31 83.38C29.86 136.83 0.42 207.88 0.4 283.46C6.93 280.27 61.67 254.74 140.72 254.74C141.47 254.74 142.25 254.75 143.01 254.75C211.51 255.18 259.29 274.18 277.27 281.33C280 282.41 282.15 283.27 283.62 283.77C284.81 284.17 286.56 284.88 288.99 285.85C306.8 293.04 354.12 312.14 425.16 312.14C507.32 312.14 562.15 285.94 566.53 283.78L566.53 283.54C566.53 207.93 537.08 136.84 483.62 83.38C430.16 29.92 359.07 0.47 283.47 0.47C207.86 0.47 136.77 29.92 83.31 83.38ZM182.09 175.03C182.09 145.87 197.99 127.75 223.57 127.75C248.48 127.75 265.23 145.38 265.23 171.62L265.23 184.46L210.34 184.46C210.53 191.05 215.49 197.98 226.13 197.98C235.5 197.98 239.76 195.44 244.77 190.43L245.05 190.15L245.33 190.43L262.04 207.13L262.32 207.42L262.04 207.7C253.02 216.72 243.87 222.31 226.13 222.31C196.91 222.31 182.09 206.4 182.09 175.03ZM401.18 210.42C393.48 202.03 391.01 193.44 391.01 175.03C391.01 156.85 393.57 147.92 401.18 139.64C406.28 134.22 415.59 127.75 430.96 127.75C446.32 127.75 455.63 134.22 460.74 139.64C468.34 147.92 470.91 156.85 470.91 175.03C470.91 193.44 468.44 202.03 460.74 210.41C455.63 215.84 446.32 222.31 430.96 222.31C415.59 222.31 406.28 215.84 401.18 210.42ZM158.42 99.35L158.52 99.11L191.99 99.11L191.7 99.69L155.09 171.55L155.09 221.28L124.46 221.28L124.46 171.55L87.85 99.69L87.56 99.11L121.03 99.11L121.13 99.35L139.86 142.15L158.42 99.35ZM280.59 193.78L280.59 99.11L309.35 99.11L309.35 191.74C309.35 195.2 311.11 196.96 314.57 196.96L324.69 196.96L324.69 221.28L309.46 221.28C289.52 221.28 280.59 207.47 280.59 193.78ZM338.7 193.78L338.7 99.11L367.45 99.11L367.45 191.74C367.45 195.2 369.21 196.96 372.68 196.96L382.79 196.96L382.79 221.28L367.57 221.28C347.63 221.28 338.7 207.47 338.7 193.78ZM460.45 210.14C468.12 201.79 470.51 193.1 470.51 175.03C470.51 157.13 468.12 148.27 460.45 139.91C454.99 134.12 445.79 128.15 430.96 128.15C416.13 128.15 406.92 134.12 401.47 139.91C393.8 148.27 391.41 157.13 391.41 175.03C391.41 193.1 393.8 201.79 401.47 210.14C406.92 215.94 416.13 221.91 430.96 221.91C445.79 221.91 454.99 215.94 460.45 210.14ZM438.46 155.94C442.03 159.52 442.55 165.99 442.55 175.03C442.55 184.06 442.03 190.54 438.46 194.12C436.76 195.83 434.37 196.68 430.96 196.68C427.55 196.68 425.16 195.83 423.46 194.12C419.88 190.54 419.37 184.06 419.37 175.03C419.37 165.99 419.88 159.52 423.46 155.94C425.16 154.23 427.55 153.38 430.96 153.38C434.37 153.38 436.76 154.23 438.46 155.94ZM261.76 207.42L245.05 190.71C240.11 195.66 235.84 198.38 226.13 198.38C215.73 198.38 209.93 191.56 209.93 184.06L264.83 184.06L264.83 171.62C264.83 147.58 250.17 128.15 223.57 128.15C199.54 128.15 182.49 145.03 182.49 175.03C182.49 214.58 205.84 221.91 226.13 221.91C243.18 221.91 252.38 216.79 261.76 207.42ZM235.68 158.32C236.87 160.71 237.21 163.27 237.21 165.48L209.93 165.48C209.93 163.27 210.28 160.71 211.47 158.32C213.17 154.4 216.93 151.16 223.57 151.16C230.22 151.16 233.97 154.4 235.68 158.32ZM423.74 156.22C420.4 159.56 419.77 165.41 419.77 175.03C419.77 184.65 420.4 190.5 423.74 193.84C425.4 195.5 427.69 196.28 430.96 196.28C434.22 196.28 436.51 195.5 438.18 193.84C441.52 190.49 442.15 184.65 442.15 175.03C442.15 165.41 441.52 159.57 438.18 156.22C436.51 154.55 434.22 153.78 430.96 153.78C427.7 153.78 425.4 154.55 423.74 156.22ZM158.78 99.51L139.86 143.15L120.77 99.51L88.21 99.51L124.86 171.45L124.86 220.88L154.69 220.88L154.69 171.45L191.34 99.51L158.78 99.51ZM324.29 220.88L324.29 197.36L314.57 197.36C310.82 197.36 308.95 195.32 308.95 191.74L308.95 99.51L280.99 99.51L280.99 193.78C280.99 206.39 289.17 220.88 309.46 220.88L324.29 220.88ZM382.39 220.88L382.39 197.36L372.68 197.36C368.93 197.36 367.05 195.32 367.05 191.74L367.05 99.51L339.1 99.51L339.1 193.78C339.1 206.39 347.28 220.88 367.57 220.88L382.39 220.88ZM211.83 158.48C210.89 160.38 210.39 162.6 210.34 165.08L236.81 165.08C236.76 162.6 236.26 160.38 235.32 158.5C233.37 154.02 229.2 151.56 223.57 151.56C217.94 151.56 213.78 154.02 211.83 158.48Z" />
		<g id="Mask" clip-path="url(#cp2)">
			<path id="Energy " fill="#000000" d="M86.03 429.95L86.03 426.56L97.03 424.83L97.03 349.23L86.03 347.56L86.03 344.17L150.38 344.17L150.38 364.71L146.16 364.71L144.11 350.83Q136.95 349.93 123.39 349.93L109.38 349.93L109.38 383.45L132.53 383.45L134.52 373.21L138.61 373.21L138.61 399.57L134.52 399.57L132.53 389.2L109.38 389.2L109.38 424.19L126.26 424.19Q142.77 424.19 147.88 423.17L151.53 407.31L155.75 407.31L154.54 429.95L86.03 429.95ZM182.43 369.82L183 374.68Q187.93 371.87 193.49 370.08Q199.06 368.22 202.77 368.22Q210.57 368.22 214.54 372.77Q218.5 377.31 218.5 385.94L218.5 425.47L225.79 427.07L225.79 429.95L199.89 429.95L199.89 427.07L207.88 425.47L207.88 387.09Q207.88 381.78 205.26 378.78Q202.7 375.71 197.27 375.71Q191.51 375.71 183.13 377.56L183.13 425.47L191.25 427.07L191.25 429.95L165.28 429.95L165.28 427.07L172.51 425.47L172.51 374.3L165.28 372.7L165.28 369.82L182.43 369.82ZM281.38 399.69L244.41 399.69L244.41 400.85Q244.41 409.67 246.33 414.6Q248.31 419.46 252.34 422.02Q256.43 424.58 263.02 424.58Q266.48 424.58 271.21 424Q275.94 423.43 279.01 422.72L279.01 426.3Q275.94 428.29 270.63 429.76Q265.39 431.23 259.89 431.23Q245.88 431.23 239.35 423.68Q232.89 416.13 232.89 399.44Q232.89 383.7 239.48 375.96Q246.07 368.22 258.29 368.22Q281.38 368.22 281.38 394.45L281.38 399.69ZM258.29 373.34Q251.64 373.34 248.05 378.71Q244.54 384.09 244.54 394.58L270.25 394.58Q270.25 383.13 267.31 378.27Q264.36 373.34 258.29 373.34ZM327.43 368.22L328.39 368.22L328.39 384.47L325.64 384.47L321.93 377.43Q318.73 377.43 314.32 378.33Q309.97 379.16 306.77 380.57L306.77 425.47L317.07 427.07L317.07 429.95L288.54 429.95L288.54 427.07L296.15 425.47L296.15 374.3L288.54 372.7L288.54 369.82L306.07 369.82L306.65 377.31Q310.48 374.11 317.01 371.17Q323.6 368.22 327.43 368.22ZM382.83 388.82Q382.83 399.18 376.62 404.49Q370.42 409.8 358.78 409.8Q353.53 409.8 349.05 408.84L345.02 417.22Q345.22 418.31 347.52 419.27Q349.82 420.23 353.28 420.23L371.06 420.23Q380.78 420.23 385.45 424.45Q390.18 428.67 390.18 436.09Q390.18 442.81 386.41 447.8Q382.7 452.79 375.47 455.54Q368.24 458.22 357.94 458.22Q345.66 458.22 339.2 454.45Q332.81 450.67 332.81 443.7Q332.81 440.31 335.11 437.05Q337.41 433.72 343.55 429.31Q339.91 428.09 337.41 425.15Q334.92 422.21 334.92 418.82L345.02 407.43Q334.92 402.7 334.92 388.82Q334.92 378.97 341.12 373.6Q347.39 368.22 359.29 368.22Q361.65 368.22 365.36 368.74Q369.07 369.18 371.06 369.82L385.19 362.72L387.43 365.47L378.54 374.68Q382.83 379.48 382.83 388.82ZM380.2 438.07Q380.2 434.43 377.97 432.38Q375.73 430.33 371.19 430.33L347.9 430.33Q345.22 432.64 343.49 436.22Q341.83 439.74 341.83 442.81Q341.83 448.31 345.79 450.74Q349.76 453.11 357.94 453.11Q368.63 453.11 374.38 449.14Q380.2 445.17 380.2 438.07ZM358.9 404.94Q365.88 404.94 368.75 400.97Q371.7 396.94 371.7 388.82Q371.7 380.31 368.69 376.73Q365.68 373.09 359.03 373.09Q352.32 373.09 349.18 376.73Q346.05 380.38 346.05 388.82Q346.05 397.26 349.12 401.1Q352.19 404.94 358.9 404.94ZM405.41 458.22Q400.42 458.22 395.56 457.07L395.56 444.09L398.56 444.09L400.67 450.23Q402.66 451.7 406.17 451.7Q409.5 451.7 412.31 449.78Q415.13 447.86 417.43 444.09Q419.8 440.31 423.32 430.59L400.42 374.3L394.28 372.7L394.28 369.82L422.17 369.82L422.17 372.7L412.7 374.43L428.95 416.45L444.68 374.3L435.28 372.7L435.28 369.82L457.67 369.82L457.67 372.7L451.4 374.04L427.92 433.72Q423.76 444.28 420.69 448.88Q417.62 453.49 413.91 455.86Q410.2 458.22 405.41 458.22Z" />
		</g>
		<path id="Path 12" class="shp1" d="M97.02 429.66L153.78 429.66L153.78 423.18L103.5 423.18L103.5 385.38L146.4 385.38L146.4 378.9L103.5 378.9L103.5 342.18L153.78 342.18L153.78 335.7L97.02 335.7L97.02 429.66Z" />
		<g id="Mask" clip-path="url(#cp3)">
		</g>
		<path id="Path 15" class="shp1" d="M216.06 429.66L222.54 429.66L222.54 389.58C222.54 382.14 220.38 376.26 216.18 372.06C211.92 368.28 206.22 366.42 199.2 366.42C191.34 366.42 185.1 369 180.3 374.28L180.3 367.14L173.82 367.14L173.82 429.66L180.3 429.66L180.3 390.72C180.3 378.72 186.84 371.94 198.36 371.94C209.94 371.94 216.06 378.6 216.06 390.72L216.06 429.66Z" />
		<g id="Mask" clip-path="url(#cp4)">
		</g>
		<path id="Path 18" fill-rule="evenodd" class="shp1" d="M269.34 424.14C276.78 424.14 281.4 421.98 286.8 416.7L291.78 420.54C285.36 426.66 279.42 429.66 268.92 429.66C251.46 429.66 241.98 419.04 241.98 398.28C241.98 377.88 251.46 366.42 267.36 366.42C283.26 366.42 292.68 377.4 292.68 396.66L292.68 399.78L248.46 399.78C248.46 415.56 255.78 424.14 269.34 424.14ZM283.74 382.44C280.98 375.84 274.68 371.94 267.36 371.94C259.98 371.94 253.68 375.84 250.92 382.44C249.48 386.46 249.06 388.14 248.46 394.26L286.02 394.26C285.6 388.32 285.48 386.22 283.74 382.44Z" />
		<g id="Mask" clip-path="url(#cp5)">
		</g>
		<path id="Path 21" class="shp1" d="M349.56 376.92L354.48 372.06C349.86 367.74 345.36 366.42 339.18 366.42C331.74 366.42 324.36 369.48 320.46 375.18L320.46 367.14L313.98 367.14L313.98 429.66L320.46 429.66L320.46 391.02C320.46 380.94 326.7 371.94 337.62 371.94C342.9 371.94 345.78 373.14 349.56 376.92Z" />
		<g id="Mask" clip-path="url(#cp6)">
		</g>
		<path id="Path 24" fill-rule="evenodd" class="shp1" d="M383.58 460.26C373.86 460.26 368.82 457.92 362.34 452.16L366.66 447.54C371.82 452.28 375.3 454.74 383.58 454.74C397.2 454.74 403.26 445.14 403.26 432.12L403.26 421.14C397.44 428.16 391.38 429.66 383.94 429.66C377.1 429.66 371.4 427.56 368.04 424.5C361.74 418.2 360.06 407.88 360.06 398.04C360.06 388.2 361.74 377.88 368.04 371.58C371.4 368.52 377.1 366.42 383.94 366.42C391.38 366.42 397.44 367.92 403.26 374.94L403.26 367.14L409.74 367.14L409.74 432.48C409.74 448.92 400.44 460.26 383.58 460.26ZM384.9 371.94C369 371.94 366.54 385.14 366.54 398.04C366.54 410.94 369 424.14 384.9 424.14C400.86 424.14 403.26 410.94 403.26 398.04C403.26 385.14 400.86 371.94 384.9 371.94Z" />
		<g id="Mask" clip-path="url(#cp7)">
		</g>
		<path id="Path 27" class="shp1" d="M448.56 447L478.02 366.42L470.64 366.42L451.62 421.92L432.54 366.42L425.22 366.42L448.32 429.78L443.22 443.88C440.94 450.18 438.84 452.52 431.64 452.52L429.12 452.52L429.12 458.34L432.3 458.34C436.5 458.34 441.12 457.32 444.24 454.38C445.98 452.94 447.42 450.42 448.56 447Z" />
	</g>
</svg>