<?xml version="1.0" encoding="utf-8"?>
<!-- Generator: Adobe Illustrator 22.1.0, SVG Export Plug-In . SVG Version: 6.00 Build 0)  -->
<svg version="1.1" xmlns="http://www.w3.org/2000/svg" xmlns:xlink="http://www.w3.org/1999/xlink" x="0px" y="0px"
	 viewBox="0 0 204.7 46.6" style="enable-background:new 0 0 204.7 46.6;" xml:space="preserve">
<style type="text/css">
	.st0{display:none;}
	.st1{display:inline;fill:#EFEFEF;}
	.st2{fill:#CCCCCC;}
</style>
<g id="Vrstva_2" class="st0">
	<polygon class="st1" points="204.7,46.6 -0.1,46.6 0,0 204.8,0 	"/>
</g>
<g id="Vrstva_1">
	<path class="st2" d="M175.6,8.6h-0.3V6.9h0.7c0.2,0,0.4,0.1,0.5,0.1c0.1,0.1,0.1,0.2,0.1,0.4c0,0.2-0.1,0.4-0.4,0.5l0.4,0.7h-0.4
		l-0.4-0.7h-0.3C175.6,7.9,175.6,8.6,175.6,8.6z M175.9,7.6c0.2,0,0.4-0.1,0.4-0.3c0-0.1-0.1-0.3-0.4-0.3h-0.3v0.5L175.9,7.6
		L175.9,7.6z"/>
	<path class="st2" d="M174.3,7.8c0-0.8,0.7-1.5,1.5-1.5c0.8,0,1.5,0.7,1.5,1.5c0,0.8-0.7,1.5-1.5,1.5C175.1,9.3,174.3,8.6,174.3,7.8
		z M174.6,7.8c0,0.7,0.6,1.2,1.2,1.2s1.2-0.6,1.2-1.2s-0.6-1.2-1.2-1.2S174.6,7.1,174.6,7.8z"/>
	<rect x="121" y="13.5" class="st2" width="9.1" height="4.1"/>
	<path class="st2" d="M125.2,26.5c-0.6,0-1-0.3-1-0.9V25c0-0.7,0.3-1,1-1h4.8v-3.8h-5.2c-3.1,0-5.1,2.1-5.1,5.1v0.3
		c0.1,2.9,2.1,4.9,5.1,4.9h5.2v-4.1H125.2z"/>
	<path class="st2" d="M146.1,18.6c0-3.1-2.1-5.2-5.1-5.2h-8.5v4.1h7.9c0.7,0,1,0.3,1,1v1.6h-5.1c-3.1,0-5.1,2.1-5.1,5.1v0.3
		c0.1,2.9,2.1,4.9,5.1,4.9h9.8V18.6z M136.7,26.5c-0.6,0-1-0.3-1-0.9V25c0-0.7,0.3-1,1-1h4.7v2.5L136.7,26.5L136.7,26.5z"/>
	<path class="st2" d="M152.9,13.4c-3.1,0-5.2,2.1-5.2,5.2v11.9h4.8v-12c0-0.7,0.4-1,1-1h3.3v-4.2C156.7,13.4,152.9,13.4,152.9,13.4z
		"/>
	<path class="st2" d="M103.8,28.6c0,3.1,2.1,5.2,5.1,5.2h4.1c0.7,0,1,0.4,1,1v0.7c-0.1,0.6-0.4,0.9-1,0.9h-8.2v4.1h8.7
		c3,0,5.1-2,5.1-4.9v-0.3c0-3.1-2.1-5.1-5.1-5.1h-3.9c-0.7,0-1-0.3-1-1v-1h5.1c3.1,0,5.2-2.1,5.2-5.2v-4.1c0-3.1-2.1-5.2-5.2-5.2
		h-4.7c-3.1,0-5.1,2.1-5.1,5.2v9.7H103.8z M108.6,18.6c0-0.7,0.3-1,1-1h3.4c0.7,0,1,0.3,1,1v4.2c0,0.7-0.3,1-1,1h-4.5L108.6,18.6
		L108.6,18.6z"/>
	<path class="st2" d="M168,6.2v7.3h-5.1c-3.1,0-5.2,2.1-5.2,5.2v6.8c0,3.1,2.1,5.2,5.2,5.2h4.7c3.1,0,5.1-2.1,5.1-5.2V6.2
		C172.7,6.2,168,6.2,168,6.2z M168,25.5c0,0.6-0.3,1-0.8,1h-3.7c-0.7,0-1-0.3-1-1v-6.9c0-0.7,0.3-1,1-1h4.5V25.5z"/>
	<path class="st2" d="M92.8,26.5c-0.7,0-1-0.3-1-1v-1.7h10.4v-5.2c0-3.1-2.1-5.2-5.2-5.2h-4.9c-3.1,0-5.1,2.1-5.1,5.2v6.8
		c0,3.1,2.1,5.2,5.1,5.2h8.5v-4.1L92.8,26.5L92.8,26.5z M91.8,18.6c0-0.7,0.4-1,1-1h3.7c0.7,0,1,0.3,1,1V20h-5.6L91.8,18.6
		L91.8,18.6z"/>
	<path class="st2" d="M47.5,25.5c0,0.7-0.3,1-1,1h-3.4c-0.7,0-1-0.3-1-1V13.4h-4.8v11.9c0,3.1,2.1,5.2,5.1,5.2h4.6
		c3.1,0,5.2-2.1,5.2-5.2V13.4h-4.8L47.5,25.5L47.5,25.5z"/>
	<path class="st2" d="M58.7,18.6c0-0.7,0.3-1,1-1h3.4c0.7,0,1,0.3,1,1v12h4.8V18.6c0-3.1-2.1-5.2-5.1-5.2H59c-3.1,0-5.2,2.1-5.2,5.2
		v11.9h4.8v-12L58.7,18.6z"/>
	<path class="st2" d="M80.6,6.2v7.3h-5.1c-3.1,0-5.2,2.1-5.2,5.2v6.8c0,3.1,2.1,5.2,5.2,5.2h9.8V6.2C85.4,6.2,80.6,6.2,80.6,6.2z
		 M80.6,26.5h-4.5c-0.7,0-1-0.4-1-1v-6.9c0-0.7,0.3-1,1-1h4.5C80.6,17.6,80.6,26.5,80.6,26.5z"/>
	<path class="st2" d="M27.4,25.4c0,3.1,2.1,5.2,5.2,5.2h3.8v-4.1h-3.2c-0.7,0-1-0.4-1-1L32.2,6.2h-4.8C27.4,6.2,27.4,25.4,27.4,25.4
		z"/>
</g>
</svg>
