<?xml version="1.0" encoding="UTF-8"?>
<svg width="930px" height="535px" viewBox="0 0 930 535" version="1.1" xmlns="http://www.w3.org/2000/svg" xmlns:xlink="http://www.w3.org/1999/xlink">
    <!-- Generator: sketchtool 53.2 (72643) - https://sketchapp.com -->
    <title>7C3F4829-603C-4E9E-8E06-777CBB8EAF0E</title>
    <desc>Created with sketchtool.</desc>
    <g id="Landing-page" stroke="none" stroke-width="1" fill="none" fill-rule="evenodd">
        <g id="Landing-page-desktop" transform="translate(-220.000000, -2114.000000)" stroke="#FFFFFF">
            <g id="Group-4" transform="translate(220.000000, 2115.000000)">
                <g id="Group-31">
                    <path d="M832.037703,403.782136 C831.18289,408.029985 828.865499,411.989798 826.181119,415.386102 C824.596808,417.389788 822.153208,418.838937 819.671119,419.426673 C818.103814,419.798158 816.639445,417.798959 815.045287,418.023286 C806.12391,419.27772 805.714854,420.414607 805.517934,421.40972 C804.291658,427.625362 806.12033,435.39783 801.837318,440.058439 C798.528165,443.656638 791.372804,438.695431 787.238376,441.300311 C782.310898,444.404094 781.316451,451.512555 777.162332,455.598889 C772.773699,459.917624 771.290532,455.830394 769.001783,457.20417 C763.612438,460.441651 759.0788,466.231969 752.831062,466.916614 C748.552525,467.3877 746.104449,460.064782 741.80443,460.181432 C738.373545,460.275649 737.378203,465.610136 734.45573,467.418208 C733.125624,468.241038 731.106297,468.445624 729.766346,467.635357 C727.190272,466.076735 726.3829,462.306254 723.711947,460.920813 C718.182072,458.053919 712.101716,454.666587 705.904998,455.263296 C702.613747,455.580942 702.578838,461.22141 699.932053,463.209841 C698.410397,464.35301 695.512987,462.554808 694.276865,464.004855 C691.752707,466.965069 691.647087,472.199057 691.852063,472.685397 C692.057038,473.171737 692.840244,473.777419 692.4652,474.147109 C690.548809,476.035939 687.613805,476.709816 685.777077,478.680301 C685.27135,479.221377 686.588925,480.250587 686.191504,480.876907 C684.300176,483.852375 680.57212,485.605712 679.284084,488.889853 C678.623506,490.572303 681.487799,492.278082 681.030407,494.028727 C680.690272,495.332513 677.893112,494.637101 677.454517,495.912173 C676.010734,500.109772 677.019502,504.859215 675.832611,509.135777 C675.447722,510.521219 674.307375,512.002671 672.903872,512.304166 C671.563025,512.592202 669.532063,511.898584 669.16239,510.573262 C668.235075,507.248742 670.082544,503.626316 669.525797,500.219244 C668.96726,496.801404 669.105104,491.726239 665.878299,490.496929 C661.357192,488.774101 656.455672,494.038597 651.657982,493.410483 C647.642602,492.884661 645.105017,488.213284 641.1693,487.253166 C639.140128,486.757853 636.791408,490.858543 635.279599,489.411188 C632.344594,486.598133 634.436423,480.503628 631.359993,477.846703 C629.098097,475.893267 625.216086,479.313799 622.406394,478.298048 C619.260147,477.160264 617.931832,472.756284 614.720244,471.828469 C613.278251,471.412119 613.2147,475.042621 611.722582,475.203239 C605.541976,475.868143 604.852756,470.750804 604.01495,472.971638 C602.868338,476.012609 602.341129,479.369432 600.575114,482.097244 C598.471649,485.34639 595.623468,488.119067 592.624911,490.566919 C591.950013,491.117865 590.739849,491.20939 590.014825,490.726639 C588.74111,489.879582 588.809137,487.233426 587.295537,487.026148 C586.177568,486.874503 587.145162,490.138904 586.016451,490.176591 C575.176894,490.533719 564.199493,490.124547 553.535373,488.130732 C548.245383,487.141003 543.520195,484.067729 538.86393,481.36235 C536.332611,479.891665 533.671504,478.200242 532.145373,475.700346 C531.5206,474.677417 534.051023,473.252495 533.327789,472.296863 C532.671687,471.430963 531.08469,473.653591 530.160061,473.081109 C528.767298,472.220592 529.135181,469.607636 527.701244,468.818006 C526.645932,468.238346 525.21289,470.502251 524.225604,469.814016 C522.71648,468.761476 523.420022,465.854203 521.923429,464.785511 C520.51366,463.779631 518.121976,465.506048 516.73906,464.464276 C515.764305,463.730279 517.76931,461.195389 516.619117,460.796087 C513.949955,459.868272 510.712409,460.25232 508.164979,461.479835 C506.277231,462.388806 506.513535,465.939447 504.530908,466.624092 C501.652294,467.619205 498.175758,467.185806 495.422457,465.882917 C491.255807,463.912432 488.74239,459.31284 484.641081,457.210451 C480.790397,455.238171 475.418059,455.410454 474.215951,455.009358 C473.013843,454.608262 471.46265,454.744653 470.609628,453.807865 C469.513141,452.60368 469.978588,450.461809 468.937597,449.211862 C467.727433,447.76002 466.005277,446.626722 464.190927,446.108976 C462.189502,445.537392 459.877481,446.841178 457.943189,446.072187 C454.056702,444.526128 451.298925,440.646175 447.307712,439.39174 C445.379685,438.785161 443.403323,441.266213 441.419801,440.868707 C439.718232,440.52773 438.812399,436.279882 437.504671,437.42305 C435.249936,439.394432 437.587019,444.162719 435.360032,446.164609 C433.732756,447.626321 431.023314,444.78186 428.874199,445.183853 C426.113737,445.699804 423.382813,450.647552 421.253391,448.806279 C418.45623,446.385346 423.00956,440.213673 420.26342,437.737107 C417.168193,434.943793 411.763631,437.99284 407.808222,436.676491 C406.829887,436.351666 408.615595,434.167623 407.771524,433.577195 C406.035046,432.35955 403.660369,432.297636 401.537212,432.285074 C400.289454,432.276998 398.608473,432.41967 397.99444,433.511692 C396.411023,436.328336 395.561581,439.6717 395.566057,442.907387 C395.574113,447.810269 398.097375,452.511257 398.033824,457.415934 C398.005181,459.616129 395.468492,461.226794 395.287683,463.420708 C395.095239,465.754602 397.334757,467.933262 396.974036,470.248313 C396.422659,473.791776 392.781427,476.529458 392.677597,480.115991 C392.620311,482.10532 396.469204,482.668828 396.552448,484.659054 C396.62137,486.317276 394.665595,488.253663 393.012361,488.159446 C388.904786,487.925249 387.196952,486.366628 385.454209,485.705313 C381.396759,484.16374 376.273256,481.703326 372.551466,483.939414 C369.833073,485.572511 374.10982,490.714974 372.536249,493.473294 C370.589425,496.88934 365.780994,497.66551 363.087664,500.52702 C361.728915,501.970786 361.547212,504.193414 360.75058,506.018535 C359.950369,507.849937 360.660176,520.733463 360.511591,521.681915 C360.250224,523.354495 359.122409,525.064761 357.637452,525.875926 C356.110426,526.710421 353.807356,527.15369 352.418174,526.101149 C350.730032,524.823385 351.673458,521.593082 350.105258,520.172646 C349.266557,519.412628 347.734161,521.689094 346.814007,521.027779 C345.43109,520.032666 346.463131,516.224498 344.766038,516.333969 C341.935758,516.51702 340.852698,521.121099 338.050167,521.588596 C335.244055,522.057887 332.282197,520.474141 329.979127,518.801562 C327.750349,517.182821 327.333237,513.699478 325.055229,512.152522 C324.038405,511.46339 321.883025,511.860897 321.465912,513.021114 C320.963766,514.420015 323.506721,515.630481 323.275787,517.100269 C322.837192,519.889097 321.917934,523.106838 319.620234,524.74532 C318.084257,525.839136 315.684517,522.705742 314.064401,523.669449 C312.711023,524.47523 314.698126,527.337638 313.514815,528.381205 C312.492621,529.282998 310.685431,527.082803 309.478848,527.715404 C307.634064,528.681803 307.403131,531.659963 305.528809,532.570729 C304.735758,532.955673 305.330099,530.595757 304.615816,530.081601 C302.330648,528.435941 299.768001,526.927569 297.000378,526.423282 C287.576856,524.703146 277.815884,525.307033 268.413843,523.473836 C267.569772,523.308732 269.347423,521.535655 268.759348,520.910232 C267.820397,519.912427 265.624738,520.791788 264.837953,519.670155 C264.224815,518.796178 266.352448,517.440348 265.717828,516.584318 C264.533622,514.986215 260.184372,515.733671 260.45827,513.759597 C260.763497,511.561197 264.947154,512.56618 266.500138,510.986921 C267.512486,509.956813 268.053121,508.006069 267.370167,506.732791 C266.809839,505.687429 264.726066,506.913149 263.873044,506.089422 C262.103449,504.378259 262.084652,501.195513 260.116346,499.720341 C258.207115,498.289138 255.051023,499.503193 253.156115,498.052249 C249.689425,495.398016 249.317067,493.545079 247.301321,491.772001 C245.286471,489.998924 243.686047,487.583375 241.254979,486.453666 C238.762149,485.296141 234.881033,487.28188 233.107857,485.177697 C230.469127,482.047892 232.028376,476.872229 230.121832,473.245316 C229.502428,472.067153 227.003333,473.288387 226.273833,472.173035 C224.224074,469.032463 225.493314,463.811037 222.495653,461.568668 C220.005508,459.707655 215.508569,464.483119 213.201023,462.39419 C209.44701,458.998782 210.554238,452.411656 207.728434,448.207776 C207.10187,447.276372 205.849637,450.766894 204.939329,450.108271 C202.758886,448.528114 202.901206,444.819547 200.772679,443.171195 C199.797029,442.41656 198.813323,443.890835 196.754613,443.770596 C194.695903,443.650357 192.259464,442.215564 190.574902,443.408084 C188.906451,444.590734 190.955316,449.472978 188.916297,449.330306 C184.979685,449.053038 182.306942,444.989138 179.159801,442.6032 C177.941581,441.678077 176.195258,440.907291 175.852438,439.414173 C174.850831,435.046086 177.532525,429.882985 175.341341,425.975215 C171.86212,419.772136 166.08341,414.83067 160.003949,411.154405 C157.948819,409.912533 155.237587,412.982219 152.908559,412.402559 C150.016519,411.684713 147.085094,409.989702 145.406798,407.521212 C143.888723,405.287816 145.636836,401.753326 144.137558,399.510958 C142.232804,396.661112 138.016923,396.042868 135.921514,393.328516 C133.929936,390.747863 134.337202,386.78805 132.332197,384.220857 C130.619887,382.031429 127.042207,381.904011 125.301254,379.737914 C123.805556,377.8769 124.881456,376.109207 124.914575,374.989368 C124.948588,373.86953 125.695989,372.515495 125.01572,371.629853 C124.349772,370.762158 122.676846,371.610112 121.807712,370.948798 C118.760821,368.625671 116.9411,364.746616 113.580032,362.911624 C110.850003,361.421198 107.372573,360.617212 104.367751,361.425685 C103.119993,361.761277 105.999502,365.306535 104.7052,365.302048 C99.7258065,365.287692 94.1413311,364.539338 90.2861723,361.381717 C87.4773754,359.081023 88.9784437,354.071362 87.1515621,350.928995 C85.6683956,348.377055 83.2122647,346.401187 80.6907921,344.87756 C78.5792714,343.602488 75.256692,344.576065 73.602563,342.742868 C71.5178951,340.432304 70.9154986,336.959729 70.733795,333.851459 C70.5386651,330.521555 73.8630346,327.052569 72.5123417,324.008008 C71.3639394,321.420176 66.2296949,322.923165 64.8002339,320.482491 C62.1910423,316.02916 63.1756429,310.355491 62.020975,305.362878 C61.7139586,304.032173 61.6665188,303.341247 60.9558162,302.936562 C59.7429673,302.245636 57.2134389,303.928983 56.7766343,302.599175 C55.3597045,298.284028 58.7547863,292.834687 56.3657873,288.977166 C54.4198585,285.833005 48.6518893,287.680559 45.9710905,285.13849 C42.8346901,282.165713 39.1361723,277.784166 40.0975005,273.565929 C40.9549981,269.799934 47.8865861,270.795047 49.9828903,267.555771 C51.7641222,264.801937 49.2507055,260.80354 50.3534581,257.716806 C50.7795217,256.524286 53.2213311,257.526577 53.9400895,256.485702 C54.699127,255.383809 53.3511193,253.643035 53.974103,252.459488 C56.9628133,246.784025 61.6808402,243.639863 61.3630828,242.396197 C61.0444302,241.15253 61.4087324,239.456621 60.4035448,238.666094 C57.5804264,236.447953 52.427385,237.158619 50.694488,234.010868 C49.5577218,231.944372 53.8398393,230.339988 54.5881357,228.105695 C54.8378662,227.360931 53.9114466,226.643983 53.3511193,226.093934 C52.2304649,224.992042 51.1778373,223.370609 49.6141126,223.210889 C48.0870866,223.05386 46.8939297,225.917165 45.4931116,225.287256 C44.2954793,224.747974 46.4526497,222.18437 45.4528325,221.334621 C43.1452868,219.375801 39.5264321,219.704215 36.9852676,218.06035 C35.2702724,216.952176 34.8182512,214.394853 33.073718,213.332442 C32.4390982,212.947498 31.6961723,215.087574 31.1913407,214.540217 C30.2470192,213.518185 31.5717546,211.180702 30.4000799,210.438629 C28.1569808,209.019091 24.5381261,210.832547 22.5528133,209.066648 C21.4715428,208.104735 25.3052194,206.346015 24.4700991,205.166057 C22.060513,201.765266 16.9343244,201.033064 14.4764033,197.669062 C13.1266054,195.821508 13.5186554,193.056907 13.9769423,190.813641 C14.3851039,188.819826 16.8412348,187.521424 16.9683378,185.491717 C17.1115525,183.215251 16.1018893,180.837389 14.7144976,179.032008 C13.5517738,177.520944 10.9193099,177.669 9.7816487,176.139092 C8.74423773,174.743781 10.0644976,172.154155 8.75139846,171.01637 C7.28165833,169.741298 4.70916554,171.098922 2.96731761,170.233919 C1.75983927,169.633621 -0.051825794,168.155757 0.576528393,166.96234 C1.87978152,164.483979 6.8663359,164.728944 7.31656689,161.966138 C7.88136959,158.508816 0.956942252,155.273129 2.9583667,152.401749 C5.02871319,149.430767 11.0168749,150.352301 13.8032945,152.658378 C16.4733523,154.868444 13.4640549,160.219979 15.6543436,162.910104 C17.1768941,164.780091 20.5862974,162.874212 22.8311867,163.740112 C23.7298585,164.086473 24.6437469,165.344496 24.2973465,166.246289 C23.7585014,167.646087 20.1960375,167.669417 20.7805322,169.051269 C21.9486266,171.809589 26.6496468,171.856249 27.8329577,174.606493 C28.5597719,176.297915 25.3929384,177.677075 25.2855274,179.519245 C25.1924379,181.11017 26.0051809,182.921831 27.287847,183.862208 C28.8086073,184.976663 32.1007536,186.785633 32.8213022,185.041269 C34.7430635,180.387838 31.7794158,174.804798 33.0486554,169.934219 C33.3511963,168.770412 35.6900703,172.1389 36.4276256,171.190447 C37.4149115,169.918964 35.2613215,167.914382 35.7974812,166.397037 C36.6281261,164.044299 38.7647093,162.382488 40.2487709,160.377008 C41.7319374,158.371528 39.3832175,160.745801 40.2487709,160.377008 C41.1125342,160.008215 42.5294639,160.158065 42.8409557,159.272424 C43.4675197,157.486784 41.5323321,155.131355 42.6332945,153.594269 C43.5113792,152.368548 45.9254408,154.163161 47.1400799,153.275725 C49.4521011,151.587892 50.0258547,148.08391 52.388001,146.469656 C53.2275967,145.897175 54.5442762,148.657289 55.1242955,147.821 C57.1480972,144.898473 55.4456333,139.539759 58.4728325,137.686821 C65.1126208,133.621126 74.4672214,135.404074 75.9333811,135.07566 C77.4013311,134.747245 78.9167209,133.590618 80.3309654,134.094006 C82.2598874,134.780446 82.9419471,138.958304 84.8637084,138.253919 C87.4227748,137.316234 86.6529962,132.807269 88.7126015,131.021629 C91.0595313,128.985641 94.2147286,127.37049 97.3153253,127.448555 C98.7071925,127.48355 97.8810231,132.114548 99.0025727,131.285437 C100.754267,129.98883 98.6158932,124.272091 100.683554,124.953146 C107.824594,127.304089 119.697982,142.721607 117.551552,137.395197 C117.330465,136.84784 116.583064,135.998091 116.88829,135.754023 C118.477077,134.486129 121.036143,135.094503 122.71444,133.951335 C124.598607,132.667289 126.428174,130.905877 127.16752,128.746958 C128.645316,124.434503 126.257212,118.737505 129.134931,115.210193 C130.754151,113.225352 133.994382,117.606899 136.528386,117.271306 C139.024796,116.9402 140.521389,113.767325 143.007953,113.379688 C143.939743,113.233427 142.773439,115.79434 143.647943,116.147878 C146.024411,117.109791 149.664748,118.709688 151.311716,116.745485 C155.569666,111.667628 155.145393,103.873624 158.656836,98.2519997 C159.419454,97.031663 161.734161,97.353796 162.968492,98.0886899 C164.100782,98.762567 163.297885,101.236441 164.517895,101.738932 C165.896336,102.306927 168.003381,101.7497 168.818809,100.499752 C169.861591,98.9043414 167.935354,96.3075367 169.067645,94.776732 C170.225893,93.2109323 173.334546,94.2796242 174.542919,92.7533061 C175.975961,90.9425418 173.734652,85.7893111 176.028771,85.9813347 C179.09983,86.2388616 179.320022,91.323897 181.651735,93.3473229 C183.399849,94.864668 185.739618,97.0514037 187.934382,96.3138178 C191.479839,95.1221949 194.097087,91.7258902 196.015268,88.5099441 C196.600657,87.5282909 194.021899,86.5654811 194.392467,85.4842269 C195.10675,83.3952976 198.368463,82.6792471 198.756933,80.508663 C199.135556,78.3910199 195.070051,76.2303061 196.363458,74.5164508 C198.033699,72.3018987 201.854844,73.6613178 204.512371,72.8761747 C208.141071,71.8029963 211.388463,69.0949256 215.166644,68.9576377 C217.381995,68.8768801 218.717472,72.3889374 220.933718,72.2857471 C222.475065,72.2139626 222.161783,68.7081865 223.69418,68.5664121 C228.310167,68.1392943 232.812476,70.3448734 237.428463,70.7692993 C238.568809,70.8733869 239.972313,70.9299172 240.808328,70.1456714 C241.638973,69.3659121 240.681225,67.4483684 241.630917,66.817562 C242.486625,66.2486697 244.127327,68.5323145 244.603516,67.6215485 C246.476047,64.0430906 245.128039,59.1716141 247.38009,55.8228667 C248.231321,54.5594593 250.434141,57.5187758 251.819743,56.889764 C254.739531,55.5644424 255.916577,51.2367337 259.038655,50.5224778 C261.186875,50.0298566 262.576952,53.3821933 264.70906,53.9313448 C265.552236,54.1484929 266.145681,52.924567 266.935152,52.5611579 C274.69828,48.9782135 283.221341,46.8174997 290.351639,42.0967707 C292.013824,40.9966731 289.72418,36.946232 291.585075,36.2337707 C298.102236,33.7374643 305.962034,36.445535 312.362833,33.6647825 C314.652476,32.670567 315.863535,28.2701764 314.214777,26.3930114 C311.414036,23.2048818 306.008578,24.0528364 302.226817,22.1317034 C301.382746,21.7036882 300.455431,20.478865 300.873439,19.6291158 C301.399753,18.557732 303.47547,19.1912303 304.1629,18.2140636 C304.689214,17.4666074 304.680263,15.6612269 303.782486,15.4889441 C302.036163,15.1542488 300.484074,17.2799677 298.707318,17.1669071 C297.274276,17.0762791 295.023121,16.370099 295.017751,14.9299222 C295.006115,11.8611343 298.128193,9.50211582 298.674199,6.48626902 C298.868434,5.41398788 296.703208,4.65845589 297.071986,3.63462929 C297.630523,2.08408384 299.207674,0.377407071 300.848376,0.450986195 C302.780879,0.537127609 303.609733,3.39863771 305.447356,4.01329259 C307.383439,4.66114781 309.69904,3.2425064 311.578732,4.0429037 C313.299993,4.77690034 313.469166,8.11488013 315.337221,8.22883805 C317.600908,8.36792054 318.862987,4.83253333 321.121302,4.62974209 C323.06186,4.45656195 324.532496,7.95695421 326.346846,7.25077407 C327.933843,6.63432458 325.667472,1.78887003 327.315335,2.21778249 C329.011533,2.65925724 326.272553,6.0483835 327.269685,7.4930468 C328.163882,8.78965455 330.567202,7.78915791 331.817645,8.74209731 C332.506865,9.26612424 331.452448,11.0454828 332.277722,11.3083936 C333.509368,11.7023111 334.876172,9.34957374 335.952072,10.0638296 C338.23545,11.5793801 340.594016,14.0990165 340.62624,16.8456714 C340.67905,21.3375872 333.613198,25.8869306 336.179425,29.5712707 C338.409098,32.7710653 345.595787,23.3349912 347.511283,26.731296 C350.157173,31.4242084 341.329782,37.4011663 343.402813,42.3794222 C345.021139,46.2656562 351.794295,43.9416327 355.504449,45.9130148 C356.761158,46.5806108 355.990484,49.2940653 357.325065,49.7839946 C360.324517,50.8849896 364.359589,52.0362337 366.909705,50.104333 C370.14546,47.6537892 367.907731,40.331769 371.698444,38.8978734 C378.91109,36.1709593 387.918396,42.9949744 394.815075,39.5493178 C398.220898,37.8462303 392.584507,32.0334795 393.020417,28.2450519 C393.411572,24.8532337 396.710879,22.2707859 397.199599,18.8933246 C397.426057,17.3239357 396.375219,15.4458734 394.992303,14.6813684 C394.171504,14.2282286 393.7347,16.6159609 392.809175,16.4652135 C391.558732,16.2606276 390.11137,15.1336108 390.025441,13.8684088 C389.909974,12.1635266 391.112082,10.4846663 392.326721,9.28945421 C393.669358,7.96772189 395.45238,6.69444411 397.332967,6.66842222 C401.053862,6.61637845 405.004796,7.22923872 408.237866,9.07589529 C409.262746,9.66093906 407.015171,11.6197589 407.692756,12.5888498 C408.405248,13.6072926 410.08265,13.3363061 411.314295,13.4771832 C411.969502,13.5516596 413.02213,13.837003 413.281706,13.2295266 C413.888578,11.8090906 412.575479,9.89423872 413.403439,8.59493906 C414.135624,7.44638687 416.430638,5.96044747 417.199522,7.0856697 C418.544844,9.05256532 415.138126,13.195429 417.274709,14.2515586 C420.07366,15.6334104 423.149194,11.1495704 426.24084,11.5542556 C427.619281,11.7346141 426.333035,14.6786764 427.398193,15.5786747 C428.34341,16.3763801 430.192669,14.8276293 431.111033,15.6594323 C432.584353,16.9928296 433.687106,19.1409811 433.526885,21.1285148 C433.379194,22.9697875 430.558761,23.8159475 430.309926,25.6491444 C429.914295,28.5528279 430.572188,31.7023734 431.728646,34.3305838 C432.885104,36.9587943 435.220397,39.476636 437.018636,40.8961747 C438.81598,42.3166108 440.846047,41.6750367 442.085749,42.5113263 C443.32545,43.3476158 443.604719,43.0443263 444.028097,45.6186983 C444.451475,48.1921731 443.602034,53.7231697 444.575893,57.6013279 C444.810407,58.5345266 446.487808,59.1159811 447.285335,58.5811865 C449.867674,56.8502825 450.396673,51.779604 453.496374,51.6189862 C458.307491,51.3686377 462.038232,56.266136 466.674806,57.5762034 C469.520301,58.3810872 472.766798,56.8305418 475.538001,57.8507791 C480.657029,59.7342253 484.300051,65.3082926 489.700138,66.0548515 C494.80932,66.7610316 500.175393,59.2200687 504.598935,61.8716091 C509.818213,65.0005165 505.983641,75.7744744 511.185017,78.9347875 C516.116076,81.9308936 522.946519,74.0803599 528.282159,76.2688902 C532.129262,77.8472522 532.926788,83.6976899 532.959012,87.8665754 C532.975123,89.8882067 528.246355,89.8523145 528.403891,91.8694593 C528.552476,93.766365 531.57162,94.4608801 533.470109,94.4824155 C535.064267,94.5003616 536.71571,93.3410418 537.544565,91.9789306 C538.666115,90.1358633 537.873959,87.5596966 538.852294,85.6394609 C539.836894,83.7048684 541.078386,81.0515333 543.234661,80.8173364 C546.626163,80.4494407 549.998867,82.3669845 552.927606,84.1158347 C554.182525,84.8641882 553.713497,87.5471343 555.125951,87.9177219 C556.718319,88.3358667 558.727799,87.2537152 559.623785,85.8718633 C561.029079,83.7057657 558.93188,79.1797522 561.357577,78.318338 C565.992361,76.6708835 571.740638,77.5942118 576.007539,80.040269 C581.738809,83.3244104 585.320965,89.4431428 589.57981,94.4976697 C590.166095,95.1930822 591.004796,96.440338 590.390763,97.1097286 C589.065133,98.5543919 586.084478,97.840136 585.002313,99.4804121 C584.183304,100.722284 586.49085,102.472032 585.937683,103.854781 C585.491928,104.966543 583.021475,104.182298 582.658068,105.325466 C582.33494,106.339422 585.02827,106.79974 584.675604,107.805621 C583.84496,110.180791 582.052091,112.482382 579.776769,113.553766 C577.565893,114.594641 574.545855,112.322661 572.439705,113.568123 C570.776625,114.552468 571.958145,117.784565 570.492881,119.050665 C569.644334,119.782867 568.309753,117.553958 567.289348,118.016968 C564.86007,119.117963 562.548944,120.935905 561.223314,123.25634 C560.593169,124.360027 562.99291,125.981459 562.177481,126.955934 C561.511533,127.751845 560.666567,125.079666 559.631841,125.155937 C558.752861,125.220543 558.011726,126.374479 558.009936,127.260121 C558.00725,129.463905 558.119137,132.059813 559.607674,133.683937 C560.495604,134.653028 562.545364,132.402584 563.529069,133.274766 C566.393362,135.815937 568.253362,145.785011 569.283612,144.4229 C569.766962,143.783121 570.820484,139.840357 572.88904,139.330687 C575.27983,138.741156 578.540648,138.349033 580.232371,140.140954 C582.898848,142.965675 581.476548,148.266064 584.064257,151.167953 C585.552794,152.836942 589.075874,150.406139 590.724632,151.914511 C597.41186,158.026065 603.510118,165.059153 607.925604,172.978779 C610.648473,177.862818 609.182313,184.314451 611.60085,189.360005 C612.962284,192.201774 615.968001,194.056506 618.739204,195.537959 C621.810263,197.179133 625.462236,199.672747 628.749012,198.526887 C631.803959,197.461784 631.638367,192.610946 633.862669,190.258208 C635.166817,188.878151 637.864623,189.271171 638.963795,187.721523 C640.890927,185.006274 640.664469,181.19003 642.337395,178.313266 C643.336317,176.595821 644.857972,174.885555 646.757356,174.324739 C647.831466,174.00799 648.490253,175.866311 649.568838,176.171395 C650.375316,176.399311 651.517452,176.460328 652.058983,175.824138 C653.222602,174.458437 652.538752,171.707296 654.106952,170.844985 C656.43598,169.564528 659.703959,171.551165 662.057154,170.322752 C663.508992,169.564528 662.280927,165.352572 663.867029,165.745592 C666.158463,166.31269 665.867558,170.224048 667.697125,171.718064 C668.362178,172.260934 670.0906,171.717166 670.129089,170.856649 C670.373449,165.505114 670.921244,159.62686 668.461533,154.872033 C667.004324,152.054491 661.675845,153.494668 659.81137,150.929269 C656.599782,146.509138 657.31675,140.054813 654.355787,135.464193 C652.951389,133.287328 648.451764,134.238473 647.490436,131.831897 C646.525527,129.412759 648.483987,126.5674 649.938511,124.411173 C650.697549,123.285951 652.357943,122.271097 653.638819,122.715264 C657.180696,123.942779 659.442592,127.802094 663.011321,128.952441 C664.217905,129.340974 664.85879,126.517151 666.106548,126.733402 C668.959204,127.226023 670.986586,130.048052 673.777481,130.817941 C676.296269,131.512456 679.201735,130.016646 681.615797,131.014451 C683.69778,131.87407 684.059397,135.355619 686.227308,135.963993 C688.849926,136.700681 691.745547,133.583439 694.284026,134.572271 C695.653516,135.106168 693.09982,137.816931 693.992226,138.991505 C696.729416,142.593293 700.04573,146.345828 704.330532,147.782415 C707.568078,148.868156 712.072178,143.324597 714.38957,145.834363 C717.498222,149.199262 714.173853,155.105333 715.22469,159.571227 C715.525441,160.849889 715.761745,156.782399 716.769618,155.944314 C717.683506,155.184296 719.101331,155.30274 720.285537,155.361963 C721.78571,155.437336 723.617067,155.291973 724.683121,156.349897 C725.866432,157.521779 724.459348,161.135232 726.123323,161.14241 C729.423526,161.154973 731.637982,157.281301 734.813766,156.39207 C739.035017,155.211215 743.517635,154.815503 747.891947,155.041624 C749.361687,155.117895 750.340022,157.807123 751.707722,157.271431 C755.25855,155.881503 758.503256,153.251498 760.605826,150.065163 C761.650397,148.482314 758.328713,144.502761 760.217356,144.381624 C763.68136,144.158195 767.983169,146.283914 769.290898,149.507936 C770.544921,152.59467 765.544045,155.731653 766.159868,159.007719 C766.594883,161.321872 770.837616,161.046399 771.862496,163.163144 C772.777279,165.052872 772.621533,167.880284 771.214449,169.438905 C769.973853,170.810887 767.216076,168.9409 765.696211,169.994338 C764.375056,170.909591 765.283574,173.628429 763.928405,174.491638 C759.499493,177.315461 751.287029,175.547767 749.331254,180.432703 C747.729936,184.430203 754.450282,187.41285 757.569676,190.376653 C758.525633,191.285624 760.004324,192.155114 761.269984,191.786321 C762.439868,191.445345 762.050503,188.807264 763.262457,188.712149 C764.813651,188.589219 766.214469,190.072466 767.139098,191.326003 C769.964007,195.156604 772.206211,199.409836 774.311466,203.683707 C775.072294,205.229766 774.369647,207.562762 775.684536,208.674525 C777.43981,210.160464 780.504603,209.098054 782.344016,210.474522 C783.299974,211.188777 782.100551,213.097348 782.848848,214.028752 C784.354392,215.903225 786.29674,217.838715 788.649936,218.31339 C791.070263,218.802422 793.811928,218.02356 795.868848,216.65786 C797.812987,215.366636 798.019753,212.350789 799.830523,210.881899 C801.750494,209.325072 804.16545,208.047308 806.634113,207.926171 C808.691033,207.825673 810.67187,211.463353 812.354642,210.27532 C814.066057,209.067545 813.610455,205.551899 812.225749,203.978023 C810.926076,202.499262 808.02419,204.469747 806.344103,203.440537 C805.466018,202.90305 805.678155,201.16766 806.294873,200.346624 C807.336759,198.96208 809.006105,197.425892 810.721995,197.625991 C813.484247,197.947227 816.324372,199.491491 818.001774,201.711427 C819.963814,204.306437 818.872698,208.483399 820.868752,211.049695 C822.452168,213.085683 825.283343,214.546498 827.850465,214.367037 C829.298723,214.265641 828.512833,211.188777 829.751639,210.436835 C831.044151,209.653486 833.189685,209.417495 834.282592,210.460165 C835.759493,211.868936 834.263795,215.229348 835.962679,216.361749 C838.340041,217.945495 842.105691,215.669926 844.479474,217.254569 C845.917885,218.215584 844.080263,220.989158 845.046962,222.425745 C846.471947,224.541594 848.661341,226.388251 851.110311,227.095328 C852.009878,227.355547 851.042284,224.922052 851.727924,224.156649 C852.493227,223.302414 854.713054,223.974496 854.907289,222.845685 C855.11316,221.645986 851.206086,220.297335 852.415354,220.173506 C856.953468,219.708702 861.710879,220.208501 866.018059,221.716873 C870.310917,223.219862 873.250397,227.587052 877.577269,228.987747 C879.109666,229.48306 881.130782,228.269005 881.922043,226.863823 C882.534286,225.778979 879.809628,224.065124 880.789753,223.299722 C882.065258,222.303712 884.929551,222.519963 885.593708,223.998724 C886.78776,226.657442 883.915412,230.03939 885.02443,232.736693 C885.912361,234.895612 890.563256,234.352742 890.812091,236.674074 C891.117318,239.524816 885.71186,241.126508 886.221167,243.950331 C887.682852,252.049419 890.981264,260.178118 896.209493,266.527458 C898.516143,269.327951 903.662919,267.144804 906.807375,268.942109 C908.120474,269.692257 907.132294,272.135623 908.084671,273.31558 C908.8088,274.21199 910.173814,274.504511 911.326692,274.531431 C914.300186,274.602318 918.545604,271.135126 920.201524,273.609 C924.407558,279.887453 923.038068,288.520437 925.495094,295.671072 C926.169993,297.636173 929.235681,298.427597 929.442448,300.495889 C929.659955,302.643143 926.861899,304.158693 926.562043,306.298769 C926.456423,307.040841 929.12111,307.166464 928.455162,307.503852 C926.785816,308.350011 924.549878,307.327082 922.875162,308.168756 C919.714594,309.75968 917.902034,314.019193 914.409387,314.584496 C911.137828,315.114804 908.425701,311.128969 905.114757,311.052698 C902.254045,310.987195 899.974247,314.19686 897.11264,314.182503 C895.537279,314.176222 895.172977,311.190884 893.609252,310.997065 C891.555017,310.74223 889.465874,311.880912 887.731187,313.012415 C886.613218,313.740131 885.557905,314.987387 885.454074,316.323476 C885.324286,317.991569 887.786682,319.545703 887.099252,321.06933 C885.685008,324.20721 881.94084,325.711096 879.951947,328.521459 C878.932438,329.962533 879.173218,332.043387 878.258434,333.556245 C877.424209,334.936303 876.364421,336.473389 874.834709,336.982161 C870.790686,338.325429 869.11239,335.552752 868.486721,336.805392 C867.922813,337.935101 870.779945,340.65035 870.386105,342.6657 C869.755065,345.899592 868.457183,349.628798 865.649281,351.339064 C857.61315,356.229384 847.657048,357.149123 839.346124,361.556692 C838.27828,362.122892 840.124854,364.123885 839.548415,365.186296 C838.4206,367.268047 835.128453,367.981405 834.60751,370.291969 C833.255027,376.284181 835.284199,382.6739 834.231572,388.728027 C833.838627,390.988341 831.678771,392.541579 830.40058,394.450149 C829.12239,396.359618 832.625778,400.863198 832.037703,403.782136" id="Fill-1" fill="#EEF2F6"></path>
                    <path d="M868.485557,336.807545 L868.485557,336.807545 C866.664046,336.33646 863.092631,337.281323 863.018339,335.397877 L862.778454,329.322215 C862.687155,327.015241 858.323584,327.606566 856.762545,325.910657 C854.574046,323.533692 854.873902,318.783352 851.905779,317.513663 C848.159821,315.911074 843.690629,319.600798 839.73522,318.625426 C837.117078,317.980263 836.351775,314.068007 833.849994,313.058537 C832.593286,312.552456 831.506645,314.879172 830.156847,314.761625 C829.30293,314.688943 829.586674,312.521051 828.737232,312.613473 C822.547675,313.278377 816.732266,317.567502 810.548079,316.860424 C808.134912,316.584951 809.652092,311.439796 807.569215,310.190746 C805.32343,308.844786 802.33472,310.307396 799.715682,310.367515 C798.954855,308.344089 799.514287,304.856259 797.433199,304.299929 C795.0442,303.662842 793.47779,307.790451 791.015394,308.044389 C789.890264,308.161039 789.075731,306.258749 789.251168,305.1425 C789.491053,303.626052 792.581804,302.922564 792.049224,301.485976 C790.760293,298.00712 787.618522,295.442618 784.769446,293.073729 C783.361467,291.904539 780.856106,292.511118 779.62267,291.157082 C777.240832,288.543229 777.382256,283.922101 774.526019,281.837658 C773.308695,280.948428 773.115355,285.451111 771.613392,285.310234 C769.417732,285.105648 767.086914,283.222202 766.510475,281.08751 C765.705788,278.104864 769.520668,274.631391 768.007963,271.941266 C766.26343,268.83838 762.115577,267.207975 758.5737,266.968394 C756.218714,266.809571 755.016606,271.15702 752.668782,270.899493 C749.506423,270.552236 747.980293,265.772285 744.813459,265.455535 C743.228252,265.296712 744.693517,269.70787 743.115471,269.94117 C741.071082,270.24446 739.988021,266.902891 737.966905,266.470389 C735.419474,265.923929 732.395856,268.52881 730.172449,267.163109 C725.789186,264.470293 724.497569,258.09852 720.072237,255.478386 C718.530889,254.565825 717.441563,258.816365 715.665702,258.571401 C711.916164,258.052758 709.194191,254.354958 705.51805,253.462138 C703.894354,253.067323 701.505355,256.403508 700.71678,254.927439 C699.35087,252.368322 703.576597,248.451579 701.670947,246.270227 C700.252227,244.647 698.32599,250.492054 696.275336,249.837918 C693.437001,248.931638 691.124085,245.752481 690.750832,242.788678 C690.408012,240.078813 693.957049,238.172037 694.464566,235.494475 C694.639109,234.572941 692.178502,234.329771 692.522218,233.460281 C693.512189,230.961283 698.008233,229.963478 697.714643,227.2913 C697.359292,224.059202 691.619965,223.37366 691.059638,220.171173 C690.469773,216.799096 693.065538,213.555333 694.79396,210.603195 C696.466885,207.74348 700.272814,206.155247 701.138368,202.958145 C701.873238,200.238409 698.777116,197.557258 699.084133,194.756764 C699.247935,193.255571 702.024508,193.11918 702.378964,191.652981 C702.8283,189.793763 700.317569,187.729061 701.198339,186.033152 C703.26779,182.046419 706.784604,178.851111 710.400774,176.200468 C711.777424,175.190998 714.223709,176.714625 715.482208,175.561586 C717.473786,173.735567 716.635981,169.481438 719.049147,168.269177 C721.089061,167.243556 723.913074,172.132978 725.524239,170.511545 C727.725269,168.295199 725.923449,164.264498 726.12216,161.143667" id="Stroke-5" stroke-linejoin="bevel"></path>
                    <path d="M314.566011,193.331393 C312.984384,193.784533 310.632979,192.039272 309.628686,193.34575 C308.250245,195.139465 310.813787,198.41912 309.339572,200.138359 C308.095395,201.588407 305.40654,201.010541 303.610987,200.35461 C302.325635,199.885319 302.409774,196.849731 301.069822,197.121615 C297.161853,197.91304 293.713961,200.452417 290.631266,202.985513 C289.677098,203.769758 293.278946,202.011038 294.319937,202.670558 C296.49501,204.048821 299.521314,205.947521 299.374519,208.52279 C299.245626,210.775029 294.770168,210.281511 293.764981,212.302245 C293.261044,213.314407 296.282873,212.404538 297.015953,213.264157 C298.468686,214.968142 298.321891,217.712105 299.813114,219.381992 C300.567676,220.226358 302.978157,218.988972 303.130322,220.111503 C303.368417,221.868428 299.73166,223.18388 300.542613,224.75955 C301.518263,226.657353 305.409225,225.065531 306.591641,226.842198 C307.424076,228.094838 304.450582,229.428235 304.642132,230.924045 C304.749543,231.764821 307.209254,230.443986 307.155549,231.289248 C307.072305,232.568807 303.464192,233.179873 304.439841,234.011676 C306.973845,236.175082 310.769033,238.077371 313.948397,237.085848 C315.9355,236.465809 312.833114,232.030423 314.548109,230.854952 C316.887878,229.252363 320.43781,231.935309 323.052372,230.84239 C325.071699,229.998024 325.232815,226.833225 327.053431,225.618272 C328.475731,224.668922 330.670496,225.704413 332.115173,224.793647 C332.696088,224.427546 330.836983,223.048386 331.485924,222.821368 C333.574172,222.090063 335.953325,223.111198 338.124817,222.684977 C338.78808,222.554868 338.909812,221.031242 339.547117,221.241211 C342.435577,222.196843 344.527406,225.021563 347.471362,225.775301 C348.280525,225.981681 346.808994,223.819173 347.431978,223.261945 C348.021843,222.734329 349.662546,224.510996 349.763691,223.724955 C350.209447,220.241612 347.452565,216.514201 348.721805,213.241725 C349.664336,210.810024 353.695828,211.156385 355.404557,209.190386 C356.332767,208.121694 356.794634,206.074939 355.913864,204.970354 C354.445914,203.130876 351.202998,203.571454 349.570351,201.877339 C348.782671,201.058996 350.605972,199.060694 349.642854,198.457705 C347.344259,197.015733 343.765683,198.610247 341.645212,196.912543 C340.35091,195.875257 342.836578,192.897097 341.493046,191.928006 C339.026174,190.150442 335.232777,191.68663 332.514384,190.325417 C331.498455,189.816644 332.791862,186.828614 331.672998,187.015253 C325.679466,188.017545 320.407377,191.65343 314.566011,193.331393 Z" id="Stroke-7" stroke-linejoin="bevel"></path>
                    <path d="M179.155504,205.264043 C179.94408,203.886677 180.082819,201.799543 181.517651,201.135536 C183.086746,200.409615 185.301202,202.844905 186.667112,201.782494 C188.127901,200.644709 186.471982,197.697955 187.704523,196.32059 C188.391953,195.551598 190.285966,198.356578 190.610885,197.378514 C191.508661,194.680314 188.884253,191.374637 190.194667,188.853206 C191.599065,186.155006 194.838401,184.650223 197.726861,183.71523 C200.521337,182.809847 203.975495,184.993891 206.539037,183.558201 C210.274253,181.465682 211.61868,176.458713 215.099691,173.971379 C215.993887,173.333395 214.280682,176.964794 215.337785,177.269878 C218.751664,178.256915 222.750933,178.566486 225.998324,177.127206 C229.612704,175.524617 230.651905,169.849154 234.459624,168.793024 C236.440461,168.24477 236.379595,172.704383 238.150981,173.753334 C239.127526,174.331199 240.746746,173.826913 241.461924,172.943066 C242.722213,171.387137 241.856659,168.51127 243.411433,167.25863 C246.404619,164.845773 250.996438,165.140987 254.043329,162.800812 C254.904407,162.1386 252.393676,160.081974 253.365745,159.604607 C255.009133,158.796134 257.714099,161.937603 258.79716,160.457945 C260.091462,158.691149 256.693695,156.072809 257.454523,154.018874 C258.135687,152.178499 260.447708,151.136726 262.375735,150.802031 C264.030759,150.513996 265.542569,151.968529 267.185062,152.327452 C271.238036,153.213093 275.299961,154.191157 279.430808,154.527647 C281.236207,154.673908 283.217044,154.617378 284.814782,153.763142 C285.551443,153.370122 284.591905,151.220176 285.417179,151.327853 C288.518671,151.733435 290.973907,155.442002 294.066448,154.977198 C296.24152,154.650578 295.631962,150.131743 297.730952,149.479401 C301.601327,148.276113 306.418709,152.167731 309.877343,150.054575 C312.476688,148.466342 311.681847,144.094666 311.525206,141.046516 C311.389152,138.397667 309.124571,136.136455 309.031481,133.486709 C309.000153,132.623501 310.384859,131.893093 311.22177,132.097679 C313.232145,132.587608 314.732319,136.323095 316.540403,135.313625 C318.5105,134.21263 315.711549,129.979139 317.493676,128.591903 C319.270432,127.209154 323.25896,131.399575 324.202386,129.352819 C325.621106,126.271469 321.231577,122.845553 321.691654,119.48514 C321.900211,117.957028 324.456592,118.123029 325.837718,117.441974 C325.12254,115.886044 324.98022,113.895819 323.689499,112.772391 C322.688786,111.902901 320.431366,113.305391 319.759152,112.160428 C314.791395,103.70511 311.199393,94.4888761 307.588594,85.3686539 C307.066756,84.0523054 306.842983,82.3860074 307.471337,81.1190108 C308.207102,79.6384552 310.698141,79.4895024 311.27458,77.9416488 C312.00229,75.9864182 310.126178,73.5825343 310.988151,71.683834 C311.886823,69.7052734 314.007295,68.3682869 316.003348,67.5239215 C316.666611,67.2430646 317.516948,69.5177364 317.73177,68.8295024 C318.425466,66.6095663 316.878748,63.990329 317.781,61.846664 C318.411144,60.3517515 321.491154,60.7268256 321.816967,59.1385933 C322.2851,56.859435 318.753964,54.6080933 319.702761,52.484169 C320.47612,50.753265 323.390538,51.25127 325.276496,51.3948391 C325.814446,51.4343205 324.116457,52.5299316 324.550577,52.8511673 C326.386409,54.2096892 328.605341,55.1572448 330.857391,55.5287296 C332.449758,55.7907431 334.759989,56.0437835 335.623753,54.6780832 C337.11587,52.3163727 335.123397,48.6912549 336.653108,46.3573609 C337.516871,45.0374232 340.00433,46.7243593 341.360394,45.9248593 C342.533859,45.233036 342.722723,43.5613542 343.402097,42.380499 L343.402097,42.380499" id="Stroke-9" stroke-linejoin="bevel"></path>
                    <path d="M117.550657,137.396991 C118.75545,138.454018 119.593256,140.267474 121.165932,140.571661 C123.256865,140.974552 125.31289,139.072262 127.428886,139.306459 C131.064748,139.70935 135.269887,139.942649 137.951581,142.436264 C139.387308,143.771456 136.458569,146.397872 137.063651,148.266064 C137.428848,149.395772 139.131312,149.77982 140.310147,149.708035 C144.623593,149.446022 148.794719,146.560284 153.049984,147.298767 C155.124806,147.659485 156.571273,150.432161 156.600811,152.545318 C156.663468,156.981601 153.554815,161.013198 153.302399,165.4432 C153.254064,166.306409 155.420186,165.240409 155.832823,165.997735 C156.63751,167.474702 156.78341,169.399424 156.353766,171.028035 C156.129993,171.87599 153.862727,171.597825 154.127674,172.435909 C154.73007,174.348069 157.532602,174.970799 158.191389,176.864116 C158.511832,177.783855 156.177433,178.323136 156.496086,179.242875 C156.83443,180.216453 158.79289,179.471688 159.393497,180.305286 C161.061947,182.618542 162.116365,185.375067 162.89778,188.119927 C163.137664,188.964293 163.023987,190.13438 162.355354,190.705067 C161.729685,191.238964 159.888482,189.860702 159.886692,190.684429 C159.882217,192.282532 163.379339,193.592599 162.341033,194.805757 C161.302727,196.018915 159.495537,192.854116 157.905855,192.993198 C156.607972,193.106259 154.022053,194.451321 154.856278,195.457202 C156.231139,197.113629 159.433776,195.598976 161.146981,196.900968 C162.976548,198.29269 163.457212,200.885905 164.610985,202.878823" id="Stroke-11" stroke-linejoin="bevel"></path>
                    <path d="M227.212874,328.302427 C229.905309,327.340514 232.439313,325.257866 235.289284,325.417587 C236.682046,325.495652 236.253297,328.83094 237.646955,328.892854 C239.207994,328.96105 239.51322,325.795353 241.068889,325.680497 C242.84117,325.549491 244.596445,326.917883 245.720679,328.295248 C246.138687,328.806713 243.903644,329.478795 244.460391,329.836821 C246.036647,330.854366 248.178601,331.617974 249.963413,331.033827 C251.405405,330.561844 251.045578,327.782886 252.450872,327.217583 C254.591036,326.357066 257.578851,328.693652 259.373509,327.241811 C261.210237,325.755871 259.365453,322.054482 260.973038,320.322681 C262.586887,318.585496 265.675848,317.069945 267.756936,318.199654 C269.618726,319.210918 267.648629,322.65478 268.681565,324.51041 C269.225781,325.486679 270.745646,325.569231 271.861825,325.571026 C277.291449,325.582691 283.065684,326.532939 288.123846,324.553481 C290.255059,323.72078 289.074433,319.771735 290.723192,318.187092 C292.063143,316.89856 294.388591,316.229169 296.134914,316.854592 C298.212422,317.598459 298.762903,320.550597 300.625588,321.737733 C301.917205,322.560563 304.034991,321.540326 305.14401,322.59825 C305.823384,323.244311 303.742296,324.628854 304.381392,325.316191 C305.29886,326.300536 307.098889,326.533836 308.352912,326.044804 C310.197696,325.326061 310.869014,322.64491 312.754077,322.048201 C314.000044,321.654284 315.530651,324.469134 316.403365,323.494659 C317.43809,322.338928 314.031372,318.728168 315.56914,318.907629 C318.840699,319.289881 320.657734,323.437231 323.820092,324.365046 C324.752778,324.639622 324.030439,322.039228 324.92553,321.656976 C326.023808,321.189479 327.263509,322.129856 328.422653,322.408021 C331.262778,323.087282 334.010708,324.721277 336.925126,324.528356 C338.456628,324.42696 339.392893,320.547008 340.496541,321.613008 C341.689698,322.764252 337.484558,325.191465 338.738581,326.277206 C340.82862,328.086176 344.382133,326.261055 346.969842,327.216686 C348.135251,327.647393 348.049322,330.426351 349.265752,330.166132 C350.389091,329.925654 348.718851,327.689566 349.318562,326.708811 C350.33091,325.051486 351.99399,323.782694 353.714356,322.889875 C356.033538,321.686587 360.024751,322.880902 361.19374,320.541624 C362.572181,317.783304 359.148456,314.524287 359.433095,311.454602 C359.516339,310.550117 361.48733,311.570354 362.097782,310.899169 C363.535299,309.321705 363.046579,304.665582 365.099024,305.234474 C369.776772,306.530184 371.709274,312.744928 376.114914,314.779122 C377.598976,315.46287 379.077667,311.222199 380.329005,312.271151 C382.870169,314.400459 381.805011,319.106831 384.120612,321.479309 C385.070304,322.451989 386.679679,320.555083 387.958764,320.095662" id="Stroke-13" stroke-linejoin="bevel"></path>
                    <path d="M61.3622772,242.397543 C63.3422194,243.328947 65.1413532,245.515682 67.302999,245.192652 C70.1762425,244.762842 71.697898,240.19645 74.5917286,240.411804 C76.9198614,240.584984 76.6925082,245.001526 78.7825467,246.04599 C79.9810741,246.645391 76.9995245,243.026554 77.9662233,242.101431 C79.3276574,240.800337 82.114077,242.649686 83.5739711,241.465241 C84.4037209,240.793159 81.4749817,238.870231 82.4577921,238.456573 C87.0075419,236.543516 92.0952416,235.543019 97.0218248,235.802341 C99.2380712,235.919888 100.355145,239.229154 102.554385,239.515394 C104.434077,239.760359 105.868013,237.093564 107.761132,237.207522 C109.769717,237.327761 111.037167,240.365144 113.037696,240.151585 C114.977359,239.94341 116.630593,238.005228 117.352037,236.189977 C118.297253,233.808526 116.150824,230.572839 117.662633,228.509034 C118.758225,227.014122 121.54912,229.017807 123.20683,228.196772 C123.905001,227.851309 122.363654,226.302558 123.004539,225.857494 C126.140939,223.677039 130.316541,223.314527 133.425193,221.099975 C135.031883,219.955012 134.942373,217.115935 136.647523,216.134282 C137.424462,215.687423 137.11118,218.255514 137.980314,218.480738 C140.336194,219.090906 143.007147,217.515236 145.28426,218.373061 C148.873577,219.725302 151.415636,226.587901 154.822354,224.825591 C158.181632,223.086612 152.797657,216.671768 154.786551,213.449541 C156.312681,210.976564 160.678042,212.667987 163.203095,211.24127 C164.13041,210.717243 164.614654,209.118243 164.124144,208.172482 C163.649746,207.259024 161.53733,208.266699 161.160497,207.307479 C160.610015,205.906783 161.113057,204.061921 162.036791,202.877477 C162.563105,202.200908 163.753577,202.878374 164.611074,202.878374 C165.703086,202.624437 166.932046,201.535107 167.886214,202.118356 C168.945107,202.768006 167.884423,205.623235 169.12681,205.64477 C170.629669,205.669894 170.624298,201.690341 172.043018,202.189243 C173.995213,202.875682 173.045521,206.869593 174.9458,207.692423 C176.430756,208.333997 177.752807,206.073682 179.155415,205.264312 C180.167763,207.255435 181.886339,209.02582 182.191565,211.240373 C182.29271,211.982445 180.369159,210.434591 179.949361,211.056425 C178.699813,212.912952 175.858793,216.799186 177.98553,217.486522 C183.196753,219.172561 188.84478,215.494502 194.315578,215.70178 C195.427282,215.743056 197.145858,217.247839 196.553307,218.194497 C195.684173,219.585322 192.742903,218.260001 191.848706,219.635571 C191.274058,220.519418 193.418697,221.098181 194.371074,221.547731 C198.115242,223.312733 201.770795,225.694184 205.873894,226.251411 C208.237831,226.572647 210.553432,222.984319 212.688225,224.044935 C215.830891,225.607145 215.778976,230.819598 218.767686,232.662665 C220.66528,233.832753 225.693904,229.669251 225.398524,231.879317 L224.685136,237.223674 C224.263548,240.387576 230.699255,239.371825 233.802537,240.087876 C234.793403,240.316689 236.520035,239.071228 236.851218,240.031346 C237.284443,241.28578 234.702999,242.273714 235.008225,243.569425 L237.187773,252.800913 C237.451825,253.920751 234.103288,251.592241 233.741671,252.684263 C231.33119,259.978467 229.456868,267.70607 229.723605,275.388807 C229.781786,277.05331 234.650189,274.919516 234.568735,276.585814 C234.474751,278.531174 230.810246,278.058293 229.521315,279.516416 C228.389919,280.79777 229.317234,283.705043 227.727551,284.325979 C226.425193,284.833854 226.10117,281.349613 224.703933,281.404349 C222.179775,281.502155 219.015627,282.442532 217.866329,284.700155 L214.571498,291.16794 C214.170497,291.953083 215.060218,293.25328 215.9204,293.445304 C217.954048,293.898443 221.275732,290.965149 222.147551,292.86026 C222.971931,294.653078 216.982874,292.98678 216.60425,294.924962 C216.193403,297.033632 221.490554,297.801726 220.786117,299.833228 C220.138966,301.698728 213.110708,299.021165 214.865983,299.927445 L225.617821,305.477285 C230.362701,307.926034 222.657754,316.026916 223.196599,321.353327 C223.331757,322.687622 226.516493,320.177856 227.213769,321.321024 C228.378283,323.233184 227.258524,325.806659 227.280901,328.051719 L227.280901,328.052617 C226.455627,329.977339 224.694087,331.735162 224.803288,333.827681 C224.852518,334.777928 227.357879,333.414022 227.61119,334.33107 C228.208216,336.498962 226.212162,338.860672 226.791286,341.03664 C227.240622,342.723576 230.35912,343.074423 230.409245,344.819684 C230.451315,346.254477 227.768726,346.217687 226.972094,347.414694 C226.232749,348.525559 225.804895,350.01778 226.080583,351.327847 C226.891536,355.176394 229.844443,358.48566 230.130872,362.407787 C230.292884,364.635798 228.929659,366.940081 227.326551,368.495113 C225.750295,370.025021 222.365059,369.140277 221.244404,371.032696 C220.163134,372.860509 223.073076,375.481541 222.075944,377.360501 C221.367927,378.693898 218.41323,376.658807 217.58527,377.923112 C216.758206,379.188314 217.755338,381.249426 218.8563,382.283123 C219.740651,383.113132 222.950449,381.401071 222.485001,382.520012 C221.410891,385.104255 216.820862,385.505351 216.364366,388.271746 C215.919505,390.963665 220.333201,392.692775 220.352893,395.424176 C220.362739,396.939726 217.110872,396.35558 216.427022,397.710512 C215.580266,399.387578 217.539621,401.900933 216.348254,403.357261 C215.423625,404.487868 213.262874,402.466236 211.975732,403.15447 C210.081719,404.169324 209.780073,407.438211 207.704356,407.996336 C205.762903,408.519465 203.33273,404.259952 202.066175,405.826649 C200.457696,407.817772 203.68092,410.875792 203.33273,413.415169 C203.208312,414.316064 200.737859,413.672696 200.860487,414.577181 C201.27939,417.671093 204.516936,420.026522 204.646724,423.147354 C204.722807,424.969783 202.984539,426.651336 201.399332,427.549539 C200.673413,427.960506 199.900054,425.601487 199.301238,426.181147 C197.417965,428.006268 195.99477,430.54744 195.618832,433.146937 C195.109525,436.669761 196.376079,440.229376 196.753808,443.772839" id="Stroke-15" stroke-linejoin="bevel"></path>
                    <path d="M588.969269,309.412512 C588.225448,311.618988 585.948335,313.842514 586.738701,316.032839 C587.683022,318.649384 592.783253,318.512096 593.24154,321.256059 C593.698037,323.983871 591.09153,326.731423 588.78846,328.25146 C587.536227,329.077879 584.162628,325.594536 584.441001,327.074194 C584.903763,329.528327 589.213628,330.037997 589.593147,332.508281 C589.985197,335.060221 586.539095,336.970586 586.360972,339.545855 C586.120192,343.030993 587.736728,346.403968 588.391039,349.839754 C588.863648,352.318115 591.318884,355.319605 589.747103,357.288295 C586.669779,361.144918 580.655659,361.356682 576.771858,364.397653 C576.075476,364.944113 577.745717,366.206623 577.348296,366.99715 C576.06026,369.556268 572.186304,370.905817 572.05204,373.771813 C571.945525,376.045588 576.845255,376.408997 576.790654,378.683669 C576.750375,380.356248 572.902377,378.457547 571.906141,379.799918 C570.132964,382.191239 568.739307,385.562419 569.560106,388.428416 C570.09179,390.280456 573.586227,389.111266 574.962878,390.454534 C575.874081,391.345559 576.300144,393.236184 575.51873,394.242961 C573.858335,396.383935 569.850115,396.161403 568.647113,398.594 C567.953417,399.998285 571.195438,400.778044 571.528412,402.308849 C571.717276,403.185517 569.033792,404.548525 569.928884,404.481227 C571.325226,404.378037 572.078893,401.835071 573.438537,402.16528 C574.735525,402.482029 575.404158,404.441746 575.213503,405.765273 C574.872474,408.11801 573.656044,410.435753 571.992964,412.135251 C571.119355,413.028071 569.093763,411.849908 568.311453,412.82528 C567.144254,414.278019 568.648008,417.316298 567.05564,418.280903 C563.989952,420.138327 559.504649,418.160663 556.439856,420.024369 C555.294139,420.719781 558.701752,422.328652 558.2918,423.609108 C557.812926,425.104918 555.849095,425.63702 554.42769,426.302822 C553.045669,426.947985 551.503426,427.77261 550.003253,427.491753 C547.369894,426.997337 545.381001,423.899835 542.705573,424.097243 C541.241203,424.205817 541.99666,427.110397 540.963725,428.161143 C540.316574,428.819766 539.123417,428.89514 538.230115,428.650175 C536.489163,428.172808 534.679288,427.418174 533.444957,426.096441 C532.580298,425.170421 533.570269,422.954074 532.420972,422.427355 C531.086391,421.817187 529.245188,422.655271 528.195245,423.683584 C526.951963,424.89764 527.8023,427.82914 526.204562,428.517374 C524.696333,429.167921 522.998345,425.455764 521.711203,426.477796 C520.035592,427.809399 522.51052,431.618465 520.755245,432.850466 C518.624033,434.345379 515.296978,431.507199 512.952733,432.634216 C510.929827,433.605998 511.113321,436.952951 509.34462,438.33929 C508.083436,439.326327 505.776785,438.075482 504.611376,439.172887 C502.659182,441.012365 503.395842,445.389426 500.87974,446.319036 C499.064495,446.989323 498.845197,442.596111 497.011155,441.978764 C495.084023,441.330012 492.551809,441.679064 490.99077,442.984645 C489.47359,444.254334 491.031049,448.309261 489.076169,448.618832 C486.905573,448.9625 486.43744,444.580056 484.303542,444.04885 C482.877661,443.694414 481.859942,445.690024 480.637247,446.511956 C479.38949,446.64386 477.459673,445.786036 476.89129,446.908566 C476.251299,448.17646 478.871232,449.539468 478.425476,450.889914 C477.809654,452.75362 475.619365,453.636569 474.214071,455.01214 L474.215861,455.01214" id="Stroke-17" stroke-linejoin="bevel"></path>
                    <path d="M415.118703,112.802092 C413.674025,114.04217 410.857172,114.61824 410.78467,116.523222 C410.688895,119.000685 414.245093,120.396893 414.728443,122.826799 C415.085584,124.625001 412.631244,126.30117 413.081474,128.079631 C413.650753,130.329178 416.626037,131.331469 417.437885,133.503848 C417.912283,134.771742 417.402976,136.39138 416.608135,137.486991 C416.109569,138.174328 414.415161,137.269843 414.122466,138.071138 C413.72415,139.161365 415.8303,140.437335 415.175988,141.395658 C414.043698,143.05388 410.450801,142.346803 409.884208,144.279601 C409.46262,145.716188 412.855911,145.517883 413.585411,146.825259 C414.072341,147.698338 412.107615,149.20671 412.94184,149.760348 C415.358587,151.365629 418.844073,150.524853 421.350329,151.981181 C422.027018,152.374202 420.115998,153.654658 420.645892,154.236112 C421.771917,155.469011 424.500156,154.735015 425.235921,156.232619 C425.925141,157.635109 423.406354,159.205395 423.829732,160.71287 C424.186874,161.987942 425.803409,162.858329 427.121879,162.928319 C428.79928,163.01805 430.167875,160.957835 431.83722,161.141782 C433.995286,161.379569 435.486508,164.310171 437.646364,164.095715 C440.017461,163.858826 441.130955,159.770698 443.500262,159.982462 C445.589405,160.169102 446.953525,162.902297 447.369742,164.966999 C448.050012,168.349845 445.744256,171.944454 446.582062,175.289612 C447.070782,177.244843 450.804208,177.417126 450.989492,179.425297 C451.234747,182.077735 449.175141,184.510333 447.627528,186.679122 C446.965161,187.606937 444.774872,187.202252 444.630762,188.338242 C444.504554,189.33156 447.453881,188.88201 447.222947,189.858279 C446.882812,191.289483 444.324641,191.138735 443.649742,192.447008 C443.33825,193.050895 444.968212,192.777217 445.619838,192.962062 C449.142023,193.966148 453.143977,193.959866 456.173861,196.015595 C457.245286,196.743311 455.956354,198.605222 455.845363,199.901829 L455.844468,199.901829 C454.181388,200.905915 451.356479,201.037819 450.856123,202.915882 C450.502562,204.24569 454.15543,203.442601 454.54569,204.764333 C454.833014,205.736116 451.890849,204.291452 451.544449,205.246186 C450.97338,206.826343 453.474266,208.756449 452.58723,210.184063 C451.698404,211.615267 448.263043,209.862828 447.69466,211.450163 C447.212206,212.79702 451.940079,212.528725 451.287557,213.803797 C450.462283,215.414462 445.971609,213.022244 445.961763,214.8357 C445.949232,217.218048 449.11159,218.596311 451.254439,219.623727 C453.700724,220.796506 456.829068,219.946757 459.234179,221.196705 C459.97621,221.583444 458.386527,223.305375 459.116922,223.716341 C459.773919,224.084237 460.191927,221.079158 460.336932,221.815846 C460.617095,223.232693 458.60851,225.030895 459.58953,226.092409 C461.897971,228.592304 466.010021,228.647937 468.64159,230.80237 C469.426585,231.445739 469.312909,232.853612 469.039906,233.835265 C468.802706,234.687707 467.112774,234.921904 467.249723,235.797675 C467.453804,237.104153 470.271551,237.57793 469.81774,238.819803 L467.837798,244.235944 C467.493188,245.177218 465.316325,244.278117 464.997673,245.230159 C464.201041,247.608021 464.985141,250.252383 464.979771,252.764841 L464.980666,252.765739 C468.544025,255.009902 472.46363,256.771314 475.669848,259.50092 C476.91134,260.558845 476.380551,263.504702 477.980079,263.827732 C481.232841,264.486355 484.44801,261.818663 487.764323,261.955951 C490.0298,262.049271 492.233515,263.176287 494.075613,264.497122 C495.817461,265.744378 496.265902,268.520644 498.203775,269.432308 C500.01365,270.283851 502.728462,267.920346 504.203573,269.273484 C505.416422,270.383452 502.297028,272.874375 503.34518,274.144961 C504.321725,275.328508 506.503063,273.233297 507.928943,273.790525 C510.280348,274.709366 511.647153,277.43987 514.015565,278.310257 C514.768337,278.586627 515.83081,275.882146 515.795007,276.683441 C515.709973,278.592909 513.022909,280.355218 513.848183,282.079841 C514.977788,284.440654 518.233236,284.933276 520.422629,286.36089 C521.480628,287.199872 522.270993,288.626589 523.594833,288.881424 C525.335786,289.218811 529.163197,289.739249 528.84365,287.992193 L528.331657,285.189008 C528.173226,284.321313 530.438703,285.718419 530.965016,285.014033 C532.607509,282.819222 531.719578,278.700585 534.140801,277.421924 C535.691099,276.602683 535.575632,280.955516 537.134882,281.755016 C539.316219,282.87306 542.320146,281.440959 544.429877,282.69001 C546.590628,283.967774 546.558404,289.538252 548.933082,288.735163 L554.00825,287.018616 C554.928404,286.70725 554.505921,289.201762 555.398327,289.585809 C559.320618,291.270951 564.104882,290.722696 567.762225,292.928276 C570.058135,294.311922 569.900599,298.214308 572.141908,299.687685 C575.283679,301.751489 579.696479,301.021082 582.949242,302.901836 C585.503833,304.378803 586.964622,307.24121 588.970522,309.412691 C589.779684,310.033627 590.610329,311.927841 591.395324,311.278191 C592.711109,310.189759 591.783794,307.756264 592.705738,306.321471 C593.173871,305.596447 594.341965,305.140616 595.143967,305.454673 C596.022052,305.797444 595.706085,307.911498 596.645931,307.858557 C598.74134,307.741907 600.192283,305.203427 602.284112,305.059858 C604.741138,304.88937 607.446104,308.452574 609.425151,306.980991 C611.650348,305.325461 609.481542,301.221181 610.756152,298.757178 C611.267249,297.767449 612.911532,298.104836 614.020551,298.094069 C619.688269,298.038436 625.441917,297.56735 631.020127,298.559771 C636.200021,299.483996 640.958327,302.03773 645.92698,303.777607" id="Stroke-19" stroke-linejoin="bevel"></path>
                    <path d="M466.674269,57.5778185 C466.893566,59.1113152 466.530159,60.8547815 467.32679,62.180103 C468.391949,63.9504886 471.5373,64.2950542 471.934721,66.3220694 C472.705395,70.2486822 470.093518,74.2596418 470.490043,78.2436822 C470.720082,80.5524515 473.547676,82.0931266 473.731169,84.4072798 C473.840371,85.7891316 470.825703,86.4163488 471.24192,87.7398758 C471.926665,89.9176384 476.071833,90.1329919 476.248167,92.4094582 C476.463884,95.1902108 472.471776,96.9372663 472.165654,99.7135323 C472.043027,100.835165 474.716665,100.017719 475.302055,100.980529 C475.889235,101.947825 474.485731,103.364672 475.003989,104.372347 C476.437926,107.161175 480.950082,108.611223 480.841776,111.749103 C480.767483,113.909817 476.830871,113.864054 474.673701,113.742021 C473.534249,113.678312 473.44295,111.322882 472.306184,111.266352 C469.717579,111.138037 467.250707,114.053386 464.788311,113.248502 C462.256097,112.420288 461.776328,108.714413 459.64243,107.119002 C458.919196,106.578824 460.785462,109.140633 460.154423,109.787591 C458.739283,111.236741 455.48115,110.442625 454.603961,112.271335 C453.47167,114.630354 456.629552,117.912701 455.203672,120.109307 C453.969341,122.011596 450.575154,122.619073 448.562988,121.573711 C446.753114,120.632436 448.235385,117.112303 446.750428,115.7143 C445.992286,115.000941 446.297512,118.666438 445.272632,118.478901 C443.457387,118.146898 442.89885,115.454081 441.215183,114.701241 C438.180823,113.345411 434.737406,111.472733 431.529398,112.338633 C428.681218,113.106728 428.543373,118.84231 425.593152,118.926657 C421.5545,119.042409 418.611439,114.843015 415.117897,112.801643 C413.170178,112.195064 410.805346,112.331455 409.272055,110.984598 C407.390573,109.33176 407.504249,106.039542 405.586963,104.42798 C404.326675,103.368261 401.907243,104.886504 400.697079,103.772946 C398.407435,101.66966 398.337618,97.7807343 396.05424,95.6720643 C395.006088,94.7038707 393.047628,94.8896131 391.775703,95.5374684 C390.914625,95.9753539 391.771227,98.6923976 390.887772,98.303864 C388.610659,97.30247 387.866838,94.1798438 385.742786,92.883236 C384.836059,92.329598 382.99217,92.2443539 382.564317,93.2233152 C381.709504,95.1776485 384.16653,97.9951906 382.794355,99.6255963 C380.886915,101.891295 376.634336,100.749921 374.499543,102.804753 C373.636675,103.634761 376.551092,104.850611 376.176049,105.991985 C375.588869,107.777625 374.028725,109.966155 372.150823,109.94462 C368.459466,109.901549 365.217445,104.270952 361.866222,105.821497 C359.189899,107.061574 363.128301,112.009322 361.89397,114.69496 C361.35781,115.865047 359.068167,113.194664 358.089832,114.032748 C356.910101,115.044012 358.293017,117.442512 357.298571,118.638622 C356.362305,119.762049 354.177387,118.978701 353.124759,119.997143 C352.570698,120.532835 354.293749,122.16683 353.530236,122.28348 C350.942526,122.678295 348.363768,120.84779 345.759052,121.123263 C343.609042,121.350281 341.570919,124.979886 339.803114,123.725452 C337.667425,122.209004 340.560361,117.568135 338.493595,115.963751 C337.042652,114.839426 335.934528,119.24879 334.098696,119.296347 C332.660284,119.333137 332.557348,116.005925 331.125202,116.153083 C329.459437,116.326263 329.439745,119.551182 327.808888,119.946894 C326.779533,120.196345 326.495789,118.27611 325.837897,117.442512" id="Stroke-21" stroke-linejoin="bevel"></path>
                    <path d="M455.843215,199.902099 C456.557498,200.964509 456.831396,202.545563 457.987854,203.090228 C458.771954,203.459919 459.681367,202.567099 460.372377,202.046661 C464.937344,198.601004 468.509654,193.622748 473.702079,191.232324 C475.001752,190.633821 474.727854,194.536206 476.137623,194.782966 C478.915987,195.269306 481.629904,192.861833 484.438701,193.112181 C486.559172,193.301513 487.995794,196.123541 490.121636,196.033811 C492.644899,195.927031 495.184273,194.470703 496.876891,192.59623 C497.800626,191.572403 496.213628,189.602816 496.971771,188.452469 C497.998441,186.892053 499.817267,185.742604 501.642358,185.360351 C502.979625,185.081289 504.84052,185.475206 505.535111,186.65337 C506.514341,188.315181 504.833359,190.782774 505.817064,192.444585 C506.626227,193.810286 508.689413,195.06472 510.142146,194.430324 C514.410837,192.565722 516.639615,187.04639 521.112387,185.752474 C524.452868,184.786972 528.658903,185.979493 531.22692,188.331333 C533.641877,190.54409 531.81052,195.456843 534.178037,197.719849 C535.891242,199.358331 539.253205,196.725634 541.280587,197.948663 C542.779865,198.85225 541.535688,201.841178 542.87922,202.9664 C544.141299,204.02253 546.35307,202.618245 547.794167,203.407875 C549.536015,204.363506 550.061434,206.861607 551.78717,207.850439 C553.2041,208.662501 555.263705,207.603679 556.643936,208.474067 C558.183494,209.445849 558.008951,212.798186 559.822406,212.923809 C562.2123,213.090708 563.561203,209.457514 565.935881,209.121922 C566.898999,208.986429 565.774764,211.793203 566.736987,211.943951 C568.383956,212.201477 569.673782,209.923216 571.337757,209.971671 C573.739288,210.042558 576.083532,213.465782 578.174466,212.279543 C579.73282,211.396594 575.007632,209.171274 575.681636,207.511257 C576.531078,205.419636 580.441732,206.062107 581.507786,204.074573 C582.101232,202.967297 578.126131,202.007179 579.075823,201.188836 C584.28436,196.698715 591.667969,195.270203 596.893513,190.804309 C598.365938,189.545388 596.002897,185.264339 597.927344,185.07411 C602.679384,184.606614 607.041165,187.931134 611.598075,189.36144" id="Stroke-23" stroke-linejoin="bevel"></path>
                    <path d="M474.213534,455.010076 L480.617913,446.474 C480.356547,445.274302 480.839001,443.577495 479.834708,442.877596 C477.438549,441.207709 473.816114,441.938116 471.517519,440.134531 C470.597365,439.411302 472.814506,437.347497 471.884506,436.637728 C470.468472,435.557371 466.280339,438.107515 466.554237,436.345206 C467.004468,433.444214 471.349242,432.734445 472.879848,430.23096 C473.357827,429.450303 471.405632,428.483007 471.851388,427.68261 C472.401869,426.692881 474.533977,427.453797 475.00032,426.422792 C475.999242,424.210931 474.135661,421.029083 475.695806,419.173453 C476.677721,418.006058 478.663929,420.792194 480.117557,420.334568 C481.41365,419.928088 482.344545,418.381132 482.511032,417.030686 C482.672148,415.718824 481.961446,414.251728 480.97416,413.375059 C479.684333,412.228302 477.150329,412.846546 476.188106,411.413547 C475.532899,410.439073 477.89236,409.208866 477.445709,408.123125 C477.014275,407.077763 475.404901,406.587834 474.306624,406.848053 C472.002658,407.394512 470.476527,410.209362 468.111696,410.332293 C465.06928,410.489322 462.42339,407.486935 459.378289,407.620633 C458.112629,407.676266 458.425016,411.381244 457.293621,410.807866 C452.565748,408.414749 447.777904,405.100997 445.217942,400.452053 C443.481465,397.298918 448.599598,391.704212 445.644901,389.653867 C442.219386,387.276005 437.578337,392.057751 433.415267,392.258748 C432.719781,392.291948 434.475055,390.622958 433.904882,390.221862 C431.178433,388.299832 428.095738,386.122967 424.763313,386.162448 C423.000878,386.183984 423.136037,389.613489 421.541879,390.367226 C420.309338,390.950475 418.46903,390.574504 417.528289,389.586569 C416.194603,388.183182 417.160406,385.233736 415.587731,384.105822 C413.691032,382.744608 410.924304,383.703829 408.643611,383.21031 C407.495209,382.962654 411.303823,383.47681 412.191754,383.090968 C413.060887,382.713202 413.577355,380.184593 412.548,379.295362 C411.069309,378.017598 408.444006,379.58609 406.72185,378.663659 C404.742803,377.603042 404.379396,373.863967 402.140772,373.718603 C399.542321,373.550807 398.113756,378.444716 395.56006,377.937738 C392.045036,377.239633 389.861013,373.507736 387.493496,370.810433 C386.233207,369.373845 384.625623,367.625893 384.840445,365.725398 C385.060637,363.776448 389.092129,363.088214 388.583717,361.194 C387.940146,358.797295 382.501571,359.428101 382.483669,356.946152 C382.425488,348.982558 387.942832,341.749371 388.383217,333.798339 C388.529116,331.164744 383.712629,329.730849 384.136903,327.127763 C384.460031,325.143819 388.86209,326.87562 389.800146,325.100748 C390.67107,323.455088 388.605199,321.571642 388.007278,319.807537 L388.000117,319.898165 C388.297288,317.902556 387.352071,315.208842 388.891628,313.917618 C390.591407,312.491798 394.004391,315.184615 395.532312,313.578436 C396.750531,312.298877 392.394121,309.035374 394.067047,308.478147 C397.594603,307.306265 401.350406,310.742948 405.050714,310.408253 C408.080599,310.134574 410.372928,306.603674 413.409973,306.737372 C416.039752,306.853125 417.402976,311.290305 420.025594,311.071362 C421.692254,310.93228 419.484959,307.04784 420.871455,306.114642 C423.76081,304.169281 428.891474,306.426904 431.022687,303.669482 C432.815555,301.34815 431.416527,297.180162 429.457172,295.003297 C427.999963,293.384556 424.630839,296.053145 422.939116,294.683856 C421.322581,293.375583 420.911734,290.581371 421.529347,288.59294 C422.353727,285.934221 425.565315,284.627743 426.829184,282.152972 C427.877336,280.103524 427.050271,277.338923 428.278337,275.392665 C428.966662,274.302438 430.671811,273.769438 431.915988,274.089776 C432.886268,274.33833 432.423505,276.897448 433.409896,276.711706 C435.350454,276.346502 436.13903,273.635739 437.982918,272.934943 C440.907182,271.825872 444.566316,273.064155 447.247115,271.452593 C448.895873,270.461967 447.637374,266.887098 449.378327,266.077728 C451.155084,265.253103 453.036566,268.090386 454.980705,267.857086 C456.101359,267.72249 457.136085,266.285005 457.035834,265.16068 C456.858606,263.191093 453.203053,261.575044 454.269107,259.913233 C456.580233,256.310547 461.392244,255.180839 464.952023,252.817334" id="Stroke-25" stroke-linejoin="bevel"></path>
                    <path d="M768.999277,457.206054 L769.000172,457.206054 C766.815254,453.359302 765.762627,448.585631 762.445418,445.666694 C760.092222,443.595711 755.591703,445.574271 753.315485,443.418044 C751.985379,442.158226 755.406419,439.521042 754.363637,438.013568 C753.340548,436.533909 750.609624,438.08266 749.027102,437.227527 C748.004908,436.677478 748.452453,434.090544 747.29689,434.195529 C744.106784,434.485359 741.705254,438.697315 738.544686,438.175083 C735.730519,437.708483 735.397545,433.018263 732.819681,431.791645 C731.021443,430.935615 728.35049,433.993635 726.899547,432.625243 C725.504994,431.311586 728.187583,428.750674 727.644263,426.913887 C727.311289,425.789562 725.819171,425.185675 724.656448,425.05736 C721.763512,424.738817 718.657545,426.657258 715.940047,425.614588 C713.943993,424.847391 714.247429,421.217786 712.309556,420.314199 C710.958863,419.68429 708.901048,423.28518 708.159912,421.988573 C706.980182,419.926562 709.563416,417.287584 709.232232,414.932155 C708.942222,412.87194 708.441866,409.617409 706.37868,409.381418 C703.039989,408.999165 700.44691,412.719397 697.189672,413.552995 C695.626842,413.952296 693.675543,413.93794 692.384821,412.969746 C691.73946,412.485201 693.647795,411.721593 693.671067,410.914914 C693.707766,409.655096 691.775264,408.29119 692.553098,407.305948 C693.424022,406.201364 695.941019,408.142238 696.758238,406.999069 C697.924542,405.367766 695.835398,402.560094 697.074205,400.985322 C698.211866,399.537069 701.346476,401.2258 702.4546,399.757807 C704.176756,397.474162 706.051077,393.655226 704.327131,391.372478 C702.792049,389.338285 699.056833,393.222724 696.733175,392.183643 C695.546284,391.653335 699.208998,390.245461 698.952107,388.968594 C698.124147,384.870596 694.085495,381.712975 693.775793,377.544987 C693.586034,374.979588 696.333964,373.085374 697.613945,370.856465" id="Stroke-27" stroke-linejoin="bevel"></path>
                    <path d="M649.567496,176.172562 C648.09507,182.075941 647.275167,188.184803 645.150219,193.884493 C644.76891,194.911011 642.341423,194.481202 642.329786,195.578607 C642.310094,197.416291 645.221827,198.52267 645.081297,200.354072 C644.951509,202.061646 641.764984,202.491456 641.677265,204.200824 C641.578805,206.122855 644.486957,207.244488 644.625696,209.165621 C644.778756,211.30121 643.107621,210.799616 638.112115,214.770196 C636.750681,215.852348 637.748708,218.797308 636.232423,219.652441 C634.511163,220.622429 630.097467,217.18754 630.322135,219.157127 C631.352385,228.281836 637.605494,236.200565 639.121779,245.258873 C639.394782,246.888382 636.159026,246.94222 635.200383,248.289077 C634.638266,249.080501 635.000778,250.225464 634.899632,251.194555 C636.092789,254.705715 636.718458,258.467223 638.476418,261.729829 C640.534233,265.547868 644.90765,268.047764 646.224329,272.180757 C646.747958,273.826417 642.140922,274.931001 643.135369,276.341567 C644.234541,277.900188 647.188343,274.912158 648.829045,275.876762 C650.395455,276.798296 650.229863,279.241661 650.929825,280.925905 C650.238814,283.615132 649.547804,286.303462 648.856793,288.99269 C647.678853,289.959089 645.438439,290.370952 645.322972,291.893681 C645.139478,294.289489 647.554435,296.198957 648.124608,298.534646 C648.269613,299.127765 646.909969,296.855786 646.67277,297.419294 C645.849286,299.383498 646.175994,301.657272 645.927159,303.77671 L645.926264,303.77671 C645.443809,305.626956 646.288776,308.715484 644.481586,309.331934 C642.210739,310.106309 639.636456,304.935132 637.845378,306.535927 C635.502924,308.631138 634.740306,313.84359 637.072019,315.95226 C640.404445,318.96721 646.010402,316.970703 650.401721,317.896723 C651.442712,318.116563 647.930373,317.308988 647.209825,318.095925 C646.320104,319.067708 647.316341,320.890138 646.62891,322.01536 C646.18763,322.736794 644.290932,322.080863 644.253338,322.928818 C644.085061,326.688531 644.667765,330.59002 646.08738,334.073363 C646.821355,335.876052 650.184214,336.070767 650.403511,338.008052 C650.557467,339.370163 647.578603,338.784222 646.736321,339.863681 C645.956697,340.863281 645.203925,342.64892 646.030094,343.609936 C648.408352,346.378126 651.541172,349.160673 655.150181,349.653294 C657.241115,349.939535 658.942683,347.373239 659.946081,345.51402 C660.665734,344.180622 659.257756,342.358193 659.844936,340.961984 C660.262943,339.966872 662.600027,340.32041 662.586601,339.241848 C662.559748,336.930387 661.188468,334.719424 659.752741,332.908659 C658.336706,331.12302 652.389719,330.039971 654.295369,328.793612 C656.406889,327.414452 658.517515,326.033498 660.628141,324.654338 C662.247361,323.596414 664.871769,324.358227 666.35046,325.604585 C667.72353,326.760316 666.851711,329.307769 667.891808,330.772173 C668.944435,332.254523 671.513347,332.340664 672.308189,333.976454 C673.141519,335.693898 671.286889,338.052917 672.230316,339.712037 C672.95713,340.988904 675.444589,340.03417 676.392491,341.154008 C677.84791,342.875042 676.705773,346.672442 678.807448,347.480915 C680.377438,348.082111 679.488612,343.676336 680.98968,342.921702 C681.924156,342.451513 682.954406,344.36457 682.913232,345.411727 C682.79866,348.364762 678.739421,351.638136 680.560037,353.965749 C683.655263,357.92287 690.779295,356.491666 694.34892,360.026156 C697.024348,362.675005 696.525782,367.244986 697.613319,370.855747 C698.439488,371.365417 699.837621,373.32334 700.090037,372.386552 L701.748641,366.219365 C702.52379,363.336319 707.602539,365.088759 710.529488,364.523456 C711.890922,364.745988 713.551317,366.071309 714.61379,365.192846 C716.742318,363.429639 716.643858,359.887971 718.545927,357.885183 C719.936004,356.418984 723.643473,357.275015 724.017621,355.289276 C724.583319,352.277915 720.359382,349.789685 720.644021,346.738843 C720.893752,344.071151 722.762703,340.061986 725.426495,340.280929 C727.741201,340.47026 724.3497,346.028176 726.351124,347.207237 C729.323723,348.956984 733.434878,345.788595 736.69122,346.920099 C738.6461,347.596668 738.179757,352.233947 740.236678,352.029361 C742.930903,351.761067 744.76584,348.560375 745.721798,346.025484 C746.256167,344.613124 742.65432,342.20924 744.100787,341.79289 C749.702269,340.177739 755.850653,342.4892 761.585503,341.451914 C762.952308,341.205154 764.324483,339.546035 764.157101,338.16508 C763.832183,335.499183 759.489199,333.622018 760.332375,331.073668 C760.949093,329.218038 764.129353,333.660602 765.910585,332.864691 C767.452828,332.173765 766.307111,329.355326 767.2756,327.968988 C767.711509,327.344462 768.937784,327.196407 769.541971,327.662109 C771.274868,328.995506 771.49327,332.215939 773.589575,332.837772 C776.167438,333.60138 778.856293,331.743956 781.490547,331.197496 C781.385821,330.135085 780.709132,328.973074 781.172789,328.015648 C781.759969,326.806976 784.034397,326.771084 784.283232,325.452043 C784.549074,324.057629 781.580056,322.808579 782.382953,321.638491 C783.848218,319.502902 787.527938,320.006291 789.310065,318.129126 C790.278554,317.110683 788.325465,314.223151 789.69585,313.927937 C792.313097,313.362634 794.825619,317.285658 797.349777,316.390146 C799.377159,315.670506 798.926033,312.375597 799.715503,310.366528" id="Stroke-29" stroke-linejoin="bevel"></path>
                </g>
            </g>
        </g>
    </g>
</svg>