<?xml version="1.0" encoding="UTF-8" standalone="no"?>
<svg xmlns="http://www.w3.org/2000/svg" height="535px" width="930px" version="1.1" xmlns:xlink="http://www.w3.org/1999/xlink" viewBox="0 0 930 535"><!-- Generator: sketchtool 53.2 (72643) - https://sketchapp.com -->
 <title>7C3F4829-603C-4E9E-8E06-777CBB8EAF0E</title>
 <desc>Created with sketchtool.</desc>
 <g id="Landing-page" fill-rule="evenodd" fill="none">
  <g id="Landing-page-desktop" stroke="#fff" transform="translate(-220 -2114)">
   <g id="Group-4" transform="translate(220 2115)">
    <g id="Group-31">
     <path id="Fill-1" fill="#EEF2F6" d="m832.04 403.78c-0.86 4.25-3.17 8.21-5.86 11.61-1.58 2-4.03 3.45-6.51 4.04-1.57 0.37-3.03-1.63-4.62-1.41-8.93 1.26-9.34 2.39-9.53 3.39-1.23 6.22 0.6 13.99-3.68 18.65-3.31 3.6-10.47-1.36-14.6 1.24-4.93 3.1-5.92 10.21-10.08 14.3-4.39 4.32-5.87 0.23-8.16 1.6-5.39 3.24-9.92 9.03-16.17 9.72-4.28 0.47-6.73-6.86-11.03-6.74-3.43 0.1-4.42 5.43-7.34 7.24-1.33 0.82-3.35 1.03-4.69 0.22-2.58-1.56-3.39-5.33-6.06-6.72-5.53-2.87-11.61-6.25-17.81-5.66-3.29 0.32-3.32 5.96-5.97 7.95-1.52 1.14-4.42-0.66-5.65 0.79-2.53 2.97-2.63 8.2-2.43 8.69 0.21 0.48 0.99 1.09 0.62 1.46-1.92 1.89-4.86 2.56-6.69 4.53-0.51 0.54 0.81 1.57 0.41 2.2-1.89 2.97-5.62 4.73-6.91 8.01-0.66 1.68 2.21 3.39 1.75 5.14-0.34 1.3-3.14 0.61-3.58 1.88-1.44 4.2-0.43 8.95-1.62 13.23-0.38 1.38-1.52 2.86-2.93 3.16-1.34 0.29-3.37-0.4-3.74-1.73-0.92-3.32 0.92-6.94 0.37-10.35-0.56-3.42-0.42-8.49-3.65-9.72-4.52-1.73-9.42 3.54-14.22 2.91-4.02-0.53-6.55-5.2-10.49-6.16-2.03-0.49-4.38 3.61-5.89 2.16-2.94-2.81-0.84-8.91-3.92-11.56-2.26-1.96-6.14 1.46-8.95 0.45-3.15-1.14-4.48-5.54-7.69-6.47-1.44-0.42-1.51 3.21-3 3.37-6.18 0.67-6.87-4.45-7.71-2.23-1.14 3.04-1.67 6.4-3.43 9.13-2.11 3.25-4.96 6.02-7.96 8.47-0.67 0.55-1.88 0.64-2.61 0.16-1.27-0.85-1.2-3.5-2.71-3.7-1.12-0.16-0.15 3.11-1.28 3.15-10.84 0.35-21.82-0.06-32.48-2.05-5.29-0.99-10.02-4.06-14.68-6.77-2.53-1.47-5.19-3.16-6.71-5.66-0.63-1.02 1.9-2.45 1.18-3.4-0.66-0.87-2.25 1.35-3.17 0.78-1.39-0.86-1.02-3.47-2.46-4.26-1.05-0.58-2.49 1.68-3.47 0.99-1.51-1.05-0.81-3.96-2.31-5.02-1.41-1.01-3.8 0.72-5.18-0.33-0.98-0.73 1.03-3.26-0.12-3.66-2.67-0.93-5.91-0.55-8.46 0.68-1.88 0.91-1.65 4.46-3.63 5.14-2.88 1-6.35 0.57-9.11-0.74-4.16-1.97-6.68-6.57-10.78-8.67-3.85-1.97-9.22-1.8-10.42-2.2-1.21-0.4-2.76-0.27-3.61-1.2-1.1-1.21-0.63-3.35-1.67-4.6-1.21-1.45-2.93-2.58-4.75-3.1-2-0.57-4.31 0.73-6.25-0.04-3.88-1.54-6.64-5.42-10.63-6.68-1.93-0.6-3.91 1.88-5.89 1.48-1.7-0.34-2.61-4.59-3.92-3.45-2.25 1.97 0.09 6.74-2.14 8.74-1.63 1.47-4.34-1.38-6.49-0.98-2.76 0.52-5.49 5.47-7.62 3.63-2.79-2.42 1.76-8.6-0.99-11.07-3.09-2.8-8.5 0.25-12.45-1.06-0.98-0.33 0.81-2.51-0.04-3.1-1.73-1.22-4.11-1.28-6.23-1.29-1.25-0.01-2.93 0.13-3.55 1.22-1.58 2.82-2.43 6.16-2.42 9.4 0 4.9 2.53 9.6 2.46 14.51-0.02 2.2-2.56 3.81-2.74 6-0.19 2.33 2.04 4.51 1.68 6.83-0.55 3.54-4.19 6.28-4.29 9.87-0.06 1.99 3.79 2.55 3.87 4.54 0.07 1.66-1.88 3.59-3.54 3.5-4.11-0.23-5.81-1.79-7.56-2.45-4.05-1.55-9.18-4.01-12.9-1.77-2.72 1.63 1.56 6.77-0.01 9.53-1.95 3.42-6.76 4.2-9.45 7.06-1.36 1.44-1.54 3.66-2.34 5.49s-0.09 14.71-0.24 15.66c-0.26 1.67-1.39 3.38-2.87 4.2-1.53 0.83-3.83 1.27-5.22 0.22-1.69-1.28-0.75-4.51-2.31-5.93-0.84-0.76-2.38 1.52-3.3 0.86-1.38-1-0.35-4.81-2.04-4.7-2.83 0.19-3.92 4.79-6.72 5.26-2.81 0.47-5.77-1.12-8.07-2.79-2.23-1.62-2.65-5.1-4.92-6.65-1.02-0.69-3.18-0.29-3.59 0.87-0.51 1.4 2.04 2.61 1.81 4.08-0.44 2.79-1.36 6.01-3.66 7.65-1.54 1.09-3.94-2.04-5.56-1.08-1.35 0.81 0.64 3.67-0.55 4.71-1.02 0.9-2.82-1.3-4.03-0.66-1.85 0.96-2.08 3.94-3.95 4.85-0.79 0.39-0.2-1.97-0.91-2.49-2.29-1.64-4.85-3.15-7.62-3.66-9.42-1.72-19.18-1.11-28.59-2.95-0.84-0.16 0.94-1.93 0.35-2.56-0.94-1-3.14-0.12-3.92-1.24-0.62-0.87 1.51-2.23 0.88-3.09-1.19-1.59-5.54-0.85-5.26-2.82 0.3-2.2 4.49-1.19 6.04-2.77 1.01-1.03 1.55-2.98 0.87-4.26-0.56-1.04-2.64 0.18-3.5-0.64-1.77-1.71-1.79-4.89-3.75-6.37-1.91-1.43-5.07-0.22-6.96-1.67-3.47-2.65-3.84-4.5-5.86-6.28-2.01-1.77-3.61-4.19-6.05-5.32-2.49-1.15-6.37 0.83-8.14-1.27-2.64-3.13-1.08-8.31-2.99-11.93-0.62-1.18-3.12 0.04-3.85-1.08-2.05-3.14-0.78-8.36-3.77-10.6-2.49-1.86-6.99 2.91-9.3 0.82-3.75-3.39-2.65-9.98-5.47-14.18-0.63-0.93-1.88 2.56-2.79 1.9-2.18-1.58-2.04-5.29-4.17-6.94-0.97-0.75-1.96 0.72-4.02 0.6-2.05-0.12-4.49-1.55-6.18-0.36-1.66 1.18 0.39 6.06-1.65 5.92-3.94-0.28-6.61-4.34-9.76-6.73-1.22-0.92-2.96-1.69-3.31-3.19-1-4.36 1.68-9.53-0.51-13.43-3.48-6.21-9.26-11.15-15.34-14.83-2.05-1.24-4.76 1.83-7.09 1.25-2.89-0.72-5.82-2.41-7.5-4.88-1.52-2.23 0.23-5.77-1.27-8.01-1.91-2.85-6.12-3.47-8.22-6.18-1.99-2.58-1.58-6.54-3.59-9.11-1.71-2.19-5.29-2.32-7.03-4.48-1.49-1.86-0.42-3.63-0.39-4.75 0.04-1.12 0.79-2.47 0.11-3.36-0.67-0.87-2.34-0.02-3.21-0.68-3.05-2.32-4.87-6.2-8.23-8.04-2.73-1.49-6.21-2.29-9.21-1.48-1.25 0.33 1.63 3.88 0.34 3.87-4.984-0.01-10.569-0.76-14.424-3.92-2.809-2.3-1.308-7.31-3.134-10.45-1.484-2.55-3.94-4.53-6.461-6.05-2.112-1.28-5.434-0.3-7.088-2.14-2.085-2.31-2.688-5.78-2.869-8.89-0.195-3.33 3.129-6.8 1.778-9.84-1.148-2.59-6.282-1.09-7.712-3.53-2.609-4.45-1.624-10.12-2.779-15.12-0.307-1.33-0.354-2.02-1.065-2.42-1.213-0.69-3.743 0.99-4.179-0.34-1.417-4.32 1.978-9.77-0.411-13.62-1.946-3.15-7.714-1.3-10.395-3.84-3.136-2.97-6.835-7.36-5.873-11.57 0.857-3.77 7.789-2.77 9.885-6.01 1.781-2.76-0.732-6.76 0.37-9.84 0.427-1.2 2.868-0.19 3.587-1.23 0.759-1.11-0.589-2.85 0.034-4.03 2.989-5.68 7.707-8.82 7.389-10.06-0.319-1.25 0.046-2.94-0.959-3.73-2.824-2.22-7.977-1.51-9.71-4.66-1.136-2.07 3.146-3.67 3.894-5.9 0.25-0.75-0.677-1.47-1.237-2.02-1.121-1.1-2.173-2.72-3.737-2.88-1.527-0.16-2.72 2.71-4.121 2.08-1.198-0.54 0.96-3.11-0.04-3.96-2.308-1.95-5.927-1.63-8.468-3.27-1.715-1.11-2.167-3.67-3.911-4.73-0.635-0.38-1.378 1.76-1.883 1.21-0.944-1.02 0.381-3.36-0.791-4.1-2.243-1.42-5.862 0.39-7.847-1.37-1.081-0.97 2.752-2.72 1.917-3.9-2.409-3.4-7.536-4.14-9.994-7.5-1.349-1.85-0.957-4.61-0.499-6.86 0.408-1.99 2.864-3.29 2.991-5.32 0.144-2.27-0.866-4.65-2.254-6.46-1.162-1.51-3.795-1.36-4.9324-2.89-1.0374-1.4 0.2824-3.99-1.0302-5.12-1.4697-1.28-4.0422 0.08-5.7841-0.79-1.2075-0.6-3.0191-2.07-2.3908-3.27 1.3033-2.48 6.2898-2.23 6.7401-4.99 0.5648-3.46-6.3597-6.7-4.3582-9.57 2.0703-2.97 8.0586-2.05 10.845 0.26 2.67 2.21-0.339 7.56 1.851 10.25 1.523 1.87 4.932-0.04 7.177 0.83 0.899 0.35 1.813 1.6 1.466 2.51-0.538 1.4-4.101 1.42-3.516 2.8 1.168 2.76 5.869 2.81 7.052 5.56 0.727 1.69-2.44 3.07-2.547 4.91-0.094 1.59 0.719 3.4 2.002 4.34 1.521 1.12 4.813 2.93 5.533 1.18 1.922-4.65-1.042-10.24 0.228-15.11 0.302-1.16 2.641 2.21 3.379 1.26 0.987-1.27-1.167-3.28-0.631-4.79 0.831-2.36 2.968-4.02 4.452-6.02 1.483-2.01-0.866 0.37 0 0 0.864-0.37 2.28-0.22 2.592-1.11 0.627-1.78-1.309-4.14-0.208-5.68 0.878-1.22 3.292 0.57 4.507-0.31 2.312-1.69 2.886-5.2 5.248-6.81 0.84-0.57 2.156 2.19 2.736 1.35 2.024-2.92 0.322-8.28 3.349-10.13 6.64-4.07 15.994-2.29 17.46-2.61 1.468-0.33 2.984-1.49 4.398-0.99 1.929 0.69 2.611 4.87 4.533 4.16 2.559-0.93 1.789-5.44 3.849-7.23 2.347-2.03 5.502-3.65 8.602-3.57 1.392 0.03 0.566 4.66 1.688 3.84 1.747-1.3-0.387-7.02 1.677-6.34 7.14 2.35 19.02 17.77 16.87 12.45-0.22-0.55-0.97-1.4-0.66-1.65 1.59-1.26 4.15-0.66 5.82-1.8 1.89-1.28 3.72-3.04 4.46-5.2 1.48-4.32-0.91-10.01 1.96-13.54 1.62-1.98 4.86 2.4 7.4 2.06 2.49-0.33 3.99-3.5 6.48-3.89 0.93-0.15-0.24 2.41 0.64 2.77 2.37 0.96 6.01 2.56 7.66 0.6 4.26-5.08 3.84-12.88 7.35-18.498 0.76-1.22 3.07-0.898 4.31-0.163 1.13 0.674 0.33 3.151 1.55 3.651 1.38 0.57 3.48 0.01 4.3-1.24 1.04-1.596-0.88-4.192 0.25-5.723 1.16-1.566 4.26-0.497 5.47-2.024 1.44-1.81-0.81-6.964 1.49-6.772 3.07 0.258 3.29 5.343 5.62 7.366 1.75 1.518 4.09 3.704 6.28 2.967 3.55-1.192 6.17-4.588 8.09-7.804 0.58-0.982-2-1.945-1.63-3.026 0.72-2.089 3.98-2.805 4.37-4.975 0.38-2.118-3.69-4.279-2.4-5.993 1.67-2.214 5.49-0.855 8.15-1.64 3.63-1.073 6.88-3.781 10.66-3.918 2.21-0.081 3.55 3.431 5.76 3.328 1.55-0.072 1.23-3.578 2.76-3.72 4.62-0.427 9.12 1.779 13.74 2.203 1.14 0.104 2.54 0.161 3.38-0.623 0.83-0.78-0.13-2.698 0.82-3.328 0.86-0.569 2.5 1.714 2.97 0.804 1.88-3.579 0.53-8.45 2.78-11.799 0.85-1.264 3.05 1.696 4.44 1.067 2.92-1.326 4.1-5.653 7.22-6.368 2.15-0.492 3.54 2.86 5.67 3.409 0.84 0.217 1.44-1.006 2.23-1.37 7.76-3.583 16.28-5.744 23.41-10.464 1.66-1.1-0.63-5.151 1.24-5.863 6.51-2.497 14.37 0.212 20.77-2.569 2.29-0.994 3.5-5.395 1.85-7.272-2.8-3.188-8.2-2.34-11.98-4.261-0.85-0.428-1.77-1.653-1.36-2.503 0.53-1.071 2.61-0.438 3.29-1.415 0.53-0.747 0.52-2.553-0.38-2.725-1.74-0.335-3.3 1.791-5.07 1.678-1.44-0.091-3.69-0.797-3.69-2.237-0.01-3.069 3.11-5.4279 3.65-8.4437 0.2-1.0723-1.97-1.8278-1.6-2.8517 0.56-1.5505 2.14-3.2572 3.78-3.1836 1.93 0.08613 2.76 2.9476 4.6 3.5623 1.93 0.6478 4.25-0.7708 6.13 0.0296 1.72 0.734 1.89 4.072 3.76 4.1859 2.26 0.1391 3.52-3.3963 5.78-3.5991 1.94-0.1731 3.41 3.3273 5.23 2.6211 1.58-0.6165-0.68-5.4619 0.97-5.033 1.69 0.4415-1.05 3.8306-0.05 5.2752 0.89 1.2967 3.3 0.2962 4.55 1.2491 0.69 0.524-0.37 2.3029 0.46 2.5659 1.23 0.394 2.6-1.9584 3.67-1.244 2.29 1.515 4.64 4.035 4.68 6.782 0.05 4.492-7.02 9.041-4.45 12.725 2.23 3.2 9.42-6.236 11.33-2.84 2.65 4.693-6.18 10.67-4.11 15.648 1.62 3.887 8.39 1.563 12.1 3.534 1.26 0.668 0.49 3.381 1.83 3.871 2.99 1.101 7.03 2.252 9.58 0.32 3.24-2.45 1-9.772 4.79-11.206 7.21-2.727 16.22 4.097 23.12 0.651 3.4-1.703-2.24-7.516-1.8-11.304 0.39-3.392 3.69-5.974 4.18-9.352 0.23-1.569-0.82-3.447-2.21-4.212-0.82-0.453-1.26 1.935-2.18 1.784-1.25-0.204-2.7-1.331-2.78-2.597-0.12-1.704 1.08-3.383 2.3-4.5785 1.34-1.3218 3.12-2.5951 5-2.6211 3.72-0.052 7.67 0.5608 10.91 2.4075 1.02 0.585-1.22 2.5441-0.55 3.5131 0.72 1.018 2.39 0.747 3.62 0.888 0.66 0.075 1.71 0.36 1.97-0.247 0.61-1.421-0.7-3.3358 0.12-4.6351 0.74-1.1485 3.03-2.6345 3.8-1.5092 1.34 1.9669-2.06 6.1093 0.07 7.1663 2.8 1.381 5.88-3.102 8.97-2.698 1.38 0.181 0.09 3.125 1.16 4.025 0.94 0.797 2.79-0.751 3.71 0.08 1.47 1.334 2.58 3.482 2.42 5.47-0.15 1.841-2.97 2.687-3.22 4.52-0.4 2.904 0.26 6.053 1.42 8.682 1.16 2.628 3.49 5.146 5.29 6.565 1.8 1.421 3.83 0.779 5.07 1.615 1.24 0.837 1.51 0.533 1.94 3.108 0.42 2.573-0.43 8.104 0.55 11.982 0.23 0.934 1.91 1.515 2.71 0.98 2.58-1.731 3.11-6.801 6.21-6.962 4.81-0.25 8.54 4.647 13.17 5.957 2.85 0.805 6.1-0.745 8.87 0.275 5.12 1.883 8.76 7.457 14.16 8.204 5.11 0.706 10.48-6.835 14.9-4.183 5.22 3.129 1.38 13.902 6.59 17.063 4.93 2.996 11.76-4.855 17.09-2.666 3.85 1.578 4.65 7.429 4.68 11.598 0.02 2.021-4.71 1.985-4.56 4.002 0.15 1.897 3.17 2.592 5.07 2.613 1.59 0.018 3.25-1.141 4.07-2.503 1.13-1.843 0.33-4.419 1.31-6.34 0.99-1.934 2.23-4.587 4.38-4.822 3.4-0.368 6.77 1.55 9.7 3.299 1.25 0.748 0.78 3.431 2.2 3.802 1.59 0.418 3.6-0.664 4.49-2.046 1.41-2.166-0.69-6.692 1.74-7.554 4.63-1.647 10.38-0.724 14.65 1.722 5.73 3.284 9.31 9.403 13.57 14.458 0.59 0.695 1.42 1.942 0.81 2.612-1.32 1.444-4.31 0.73-5.39 2.37-0.82 1.24 1.49 2.99 0.94 4.37-0.45 1.12-2.92 0.33-3.28 1.48-0.33 1.01 2.37 1.47 2.02 2.48-0.84 2.37-2.63 4.67-4.9 5.74-2.21 1.04-5.23-1.23-7.34 0.02-1.66 0.98-0.48 4.21-1.95 5.48-0.85 0.73-2.18-1.5-3.2-1.03-2.43 1.1-4.74 2.92-6.07 5.24-0.63 1.1 1.77 2.72 0.96 3.7-0.67 0.79-1.51-1.88-2.55-1.8-0.88 0.06-1.62 1.21-1.62 2.1 0 2.2 0.11 4.8 1.6 6.42 0.89 0.97 2.94-1.28 3.92-0.41 2.86 2.55 4.72 12.52 5.75 11.15 0.49-0.64 1.54-4.58 3.61-5.09 2.39-0.59 5.65-0.98 7.34 0.81 2.67 2.83 1.25 8.13 3.83 11.03 1.49 1.67 5.02-0.76 6.66 0.74 6.69 6.12 12.79 13.15 17.21 21.07 2.72 4.88 1.25 11.33 3.67 16.38 1.36 2.84 4.37 4.7 7.14 6.18 3.07 1.64 6.72 4.13 10.01 2.99 3.05-1.07 2.89-5.92 5.11-8.27 1.31-1.38 4-0.99 5.1-2.54 1.93-2.71 1.7-6.53 3.38-9.41 1-1.71 2.52-3.42 4.42-3.99 1.07-0.31 1.73 1.55 2.81 1.85 0.81 0.23 1.95 0.29 2.49-0.35 1.16-1.36 0.48-4.11 2.05-4.98 2.33-1.28 5.59 0.71 7.95-0.52 1.45-0.76 0.22-4.97 1.81-4.57 2.29 0.56 2 4.47 3.83 5.97 0.66 0.54 2.39 0 2.43-0.86 0.24-5.35 0.79-11.23-1.67-15.99-1.46-2.82-6.78-1.38-8.65-3.94-3.21-4.42-2.49-10.88-5.45-15.47-1.41-2.17-5.91-1.22-6.87-3.63-0.96-2.42 0.99-5.26 2.45-7.42 0.76-1.12 2.42-2.14 3.7-1.69 3.54 1.22 5.8 5.08 9.37 6.23 1.21 0.39 1.85-2.43 3.1-2.22 2.85 0.5 4.88 3.32 7.67 4.09 2.52 0.69 5.42-0.8 7.84 0.19 2.08 0.86 2.44 4.35 4.61 4.95 2.62 0.74 5.52-2.38 8.05-1.39 1.37 0.54-1.18 3.25-0.29 4.42 2.74 3.6 6.06 7.36 10.34 8.79 3.24 1.09 7.74-4.46 10.06-1.95 3.11 3.37-0.22 9.28 0.83 13.74 0.31 1.28 0.54-2.79 1.55-3.63 0.91-0.76 2.33-0.64 3.52-0.58 1.5 0.08 3.33-0.07 4.39 0.99 1.19 1.17-0.22 4.79 1.44 4.79 3.3 0.01 5.52-3.86 8.69-4.75 4.23-1.18 8.71-1.57 13.08-1.35 1.47 0.08 2.45 2.77 3.82 2.23 3.55-1.39 6.79-4.02 8.9-7.2 1.04-1.59-2.28-5.57-0.39-5.69 3.46-0.22 7.76 1.9 9.07 5.13 1.25 3.08-3.75 6.22-3.13 9.5 0.43 2.31 4.68 2.04 5.7 4.15 0.92 1.89 0.76 4.72-0.65 6.28-1.24 1.37-3.99-0.5-5.51 0.55-1.32 0.92-0.42 3.64-1.77 4.5-4.43 2.83-12.64 1.06-14.6 5.94-1.6 4 5.12 6.98 8.24 9.95 0.96 0.91 2.43 1.78 3.7 1.41 1.17-0.34 0.78-2.98 1.99-3.08 1.55-0.12 2.95 1.36 3.88 2.62 2.82 3.83 5.07 8.08 7.17 12.35 0.76 1.55 0.06 3.88 1.37 4.99 1.76 1.49 4.82 0.43 6.66 1.8 0.96 0.72-0.24 2.63 0.51 3.56 1.5 1.87 3.45 3.81 5.8 4.28 2.42 0.49 5.16-0.29 7.22-1.65 1.94-1.29 2.15-4.31 3.96-5.78 1.92-1.55 4.34-2.83 6.8-2.95 2.06-0.1 4.04 3.53 5.72 2.35 1.72-1.21 1.26-4.73-0.12-6.3-1.3-1.48-4.21 0.49-5.89-0.54-0.87-0.54-0.66-2.27-0.05-3.09 1.05-1.39 2.72-2.92 4.43-2.72 2.76 0.32 5.6 1.86 7.28 4.08 1.96 2.6 0.87 6.77 2.87 9.34 1.58 2.04 4.41 3.5 6.98 3.32 1.45-0.1 0.66-3.18 1.9-3.93 1.29-0.79 3.44-1.02 4.53 0.02 1.48 1.41-0.02 4.77 1.68 5.9 2.38 1.59 6.15-0.69 8.52 0.89 1.44 0.97-0.4 3.74 0.57 5.18 1.42 2.11 3.61 3.96 6.06 4.67 0.9 0.26-0.07-2.18 0.62-2.94 0.76-0.86 2.98-0.19 3.18-1.31 0.2-1.2-3.7-2.55-2.49-2.68 4.53-0.46 9.29 0.04 13.6 1.55 4.29 1.5 7.23 5.87 11.56 7.27 1.53 0.49 3.55-0.72 4.34-2.13 0.61-1.08-2.11-2.79-1.13-3.56 1.28-1 4.14-0.78 4.8 0.7 1.2 2.66-1.67 6.04-0.57 8.74 0.89 2.16 5.54 1.61 5.79 3.93 0.31 2.85-5.1 4.46-4.59 7.28 1.46 8.1 4.76 16.23 9.99 22.58 2.31 2.8 7.45 0.61 10.6 2.41 1.31 0.75 0.32 3.2 1.27 4.38 0.73 0.89 2.09 1.18 3.25 1.21 2.97 0.07 7.22-3.39 8.87-0.92 4.21 6.28 2.84 14.91 5.3 22.06 0.67 1.97 3.74 2.76 3.94 4.83 0.22 2.14-2.58 3.66-2.88 5.8-0.1 0.74 2.56 0.87 1.9 1.2-1.67 0.85-3.91-0.17-5.58 0.67-3.17 1.59-4.98 5.85-8.47 6.41-3.27 0.53-5.98-3.45-9.3-3.53-2.86-0.06-5.14 3.15-8 3.13-1.57 0-1.94-2.99-3.5-3.18-2.05-0.26-4.14 0.88-5.88 2.01-1.12 0.73-2.17 1.98-2.28 3.31-0.13 1.67 2.34 3.23 1.65 4.75-1.41 3.14-5.16 4.64-7.15 7.45-1.02 1.44-0.78 3.52-1.69 5.04-0.84 1.38-1.9 2.91-3.43 3.42-4.04 1.35-5.72-1.43-6.34-0.17-0.57 1.13 2.29 3.84 1.9 5.86-0.63 3.23-1.93 6.96-4.74 8.67-8.04 4.89-17.99 5.81-26.3 10.22-1.07 0.56 0.77 2.56 0.2 3.63-1.13 2.08-4.42 2.79-4.94 5.1-1.35 5.99 0.67 12.38-0.38 18.44-0.39 2.26-2.55 3.81-3.83 5.72s2.23 6.41 1.64 9.33"/>
     <path id="Stroke-5" stroke-linejoin="bevel" d="m868.49 336.81c-1.83-0.47-5.4 0.47-5.47-1.41l-0.24-6.08c-0.09-2.3-4.46-1.71-6.02-3.41-2.19-2.38-1.89-7.13-4.85-8.4-3.75-1.6-8.22 2.09-12.17 1.12-2.62-0.65-3.39-4.56-5.89-5.57-1.26-0.51-2.34 1.82-3.69 1.7-0.86-0.07-0.57-2.24-1.42-2.15-6.19 0.67-12.01 4.96-18.19 4.25-2.42-0.28-0.9-5.42-2.98-6.67-2.25-1.35-5.24 0.12-7.85 0.18-0.77-2.03-0.21-5.51-2.29-6.07-2.39-0.64-3.95 3.49-6.41 3.74-1.13 0.12-1.94-1.78-1.77-2.9 0.24-1.51 3.33-2.22 2.8-3.65-1.29-3.48-4.43-6.05-7.28-8.42-1.41-1.17-3.91-0.56-5.15-1.91-2.38-2.62-2.24-7.24-5.09-9.32-1.22-0.89-1.41 3.61-2.92 3.47-2.19-0.2-4.52-2.09-5.1-4.22-0.8-2.99 3.01-6.46 1.5-9.15-1.75-3.1-5.89-4.73-9.44-4.97-2.35-0.16-3.55 4.19-5.9 3.93-3.16-0.35-4.69-5.13-7.86-5.44-1.58-0.16-0.12 4.25-1.69 4.48-2.05 0.3-3.13-3.04-5.15-3.47-2.55-0.55-5.57 2.06-7.8 0.69-4.38-2.69-5.67-9.06-10.1-11.68-1.54-0.91-2.63 3.34-4.4 3.09-3.75-0.52-6.48-4.22-10.15-5.11-1.63-0.39-4.01 2.94-4.8 1.47-1.37-2.56 2.86-6.48 0.95-8.66-1.42-1.62-3.34 4.22-5.39 3.57-2.84-0.91-5.16-4.09-5.53-7.05-0.34-2.71 3.21-4.62 3.71-7.3 0.18-0.92-2.28-1.16-1.94-2.03 0.99-2.5 5.49-3.5 5.19-6.17-0.35-3.23-6.09-3.92-6.65-7.12-0.59-3.37 2.01-6.61 3.73-9.57 1.68-2.86 5.48-4.44 6.35-7.64 0.73-2.72-2.36-5.4-2.06-8.2 0.17-1.5 2.94-1.64 3.3-3.11 0.45-1.86-2.06-3.92-1.18-5.62 2.07-3.98 5.58-7.18 9.2-9.83 1.38-1.01 3.82 0.51 5.08-0.64 1.99-1.82 1.16-6.08 3.57-7.29 2.04-1.03 4.86 3.86 6.47 2.24 2.21-2.21 0.4-6.25 0.6-9.37"/>
     <path id="Stroke-7" stroke-linejoin="bevel" d="m314.57 193.33c-1.59 0.45-3.94-1.29-4.94 0.02-1.38 1.79 1.18 5.07-0.29 6.79-1.24 1.45-3.93 0.87-5.73 0.21-1.28-0.46-1.2-3.5-2.54-3.23-3.91 0.79-7.36 3.33-10.44 5.87-0.95 0.78 2.65-0.98 3.69-0.32 2.18 1.38 5.2 3.28 5.05 5.85-0.12 2.26-4.6 1.76-5.61 3.78-0.5 1.01 2.52 0.1 3.26 0.96 1.45 1.71 1.3 4.45 2.79 6.12 0.76 0.85 3.17-0.39 3.32 0.73 0.24 1.76-3.4 3.07-2.59 4.65 0.98 1.9 4.87 0.31 6.05 2.08 0.83 1.25-2.14 2.59-1.95 4.08 0.11 0.84 2.57-0.48 2.52 0.37-0.09 1.28-3.7 1.89-2.72 2.72 2.53 2.17 6.33 4.07 9.51 3.08 1.99-0.62-1.12-5.06 0.6-6.24 2.34-1.6 5.89 1.09 8.5-0.01 2.02-0.84 2.18-4.01 4-5.22 1.43-0.95 3.62 0.08 5.07-0.83 0.58-0.36-1.28-1.74-0.63-1.97 2.08-0.73 4.46 0.29 6.63-0.14 0.67-0.13 0.79-1.65 1.43-1.44 2.89 0.96 4.98 3.78 7.92 4.54 0.81 0.2-0.66-1.96-0.04-2.52 0.59-0.53 2.23 1.25 2.33 0.46 0.45-3.48-2.31-7.21-1.04-10.48 0.94-2.43 4.98-2.08 6.68-4.05 0.93-1.07 1.39-3.12 0.51-4.22-1.46-1.84-4.71-1.4-6.34-3.09-0.79-0.82 1.04-2.82 0.07-3.42-2.3-1.44-5.87 0.15-7.99-1.55-1.3-1.03 1.19-4.01-0.16-4.98-2.46-1.78-6.26-0.24-8.98-1.6-1.01-0.51 0.28-3.5-0.84-3.31-5.99 1-11.26 4.63-17.1 6.31z"/>
     <path id="Stroke-9" stroke-linejoin="bevel" d="m179.16 205.26c0.78-1.37 0.92-3.46 2.36-4.12 1.57-0.73 3.78 1.7 5.15 0.64 1.46-1.14-0.2-4.08 1.03-5.46 0.69-0.77 2.59 2.04 2.91 1.06 0.9-2.7-1.73-6.01-0.42-8.53 1.41-2.69 4.65-4.2 7.54-5.13 2.79-0.91 6.25 1.27 8.81-0.16 3.73-2.09 5.08-7.1 8.56-9.59 0.89-0.64-0.82 2.99 0.24 3.3 3.41 0.99 7.41 1.3 10.66-0.14 3.61-1.61 4.65-7.28 8.46-8.34 1.98-0.55 1.92 3.91 3.69 4.96 0.98 0.58 2.6 0.08 3.31-0.81 1.26-1.55 0.4-4.43 1.95-5.68 2.99-2.41 7.59-2.12 10.63-4.46 0.86-0.66-1.65-2.72-0.67-3.2 1.64-0.8 4.34 2.34 5.43 0.86 1.29-1.77-2.11-4.39-1.35-6.44 0.69-1.84 3-2.88 4.93-3.22 1.65-0.29 3.16 1.17 4.81 1.53 4.05 0.88 8.11 1.86 12.24 2.2 1.81 0.14 3.79 0.09 5.38-0.77 0.74-0.39-0.22-2.54 0.61-2.43 3.1 0.4 5.55 4.11 8.65 3.65 2.17-0.33 1.56-4.85 3.66-5.5 3.87-1.2 8.69 2.69 12.15 0.57 2.6-1.58 1.8-5.96 1.65-9-0.14-2.65-2.41-4.91-2.5-7.56-0.03-0.87 1.35-1.6 2.19-1.39 2.01 0.49 3.51 4.22 5.32 3.21 1.97-1.1-0.83-5.33 0.95-6.72 1.78-1.38 5.77 2.81 6.71 0.76 1.42-3.08-2.97-6.5-2.51-9.86 0.21-1.53 2.77-1.37 4.15-2.05-0.72-1.55-0.86-3.54-2.15-4.67-1-0.87-3.26 0.54-3.93-0.61-4.97-8.45-8.56-17.671-12.17-26.791-0.52-1.317-0.75-2.983-0.12-4.25 0.74-1.481 3.23-1.629 3.8-3.177 0.73-1.956-1.14-4.359-0.28-6.258 0.9-1.979 3.02-3.316 5.01-4.16 0.67-0.281 1.52 1.994 1.73 1.306 0.7-2.22-0.85-4.84 0.05-6.983 0.63-1.495 3.71-1.12 4.04-2.708 0.47-2.28-3.07-4.531-2.12-6.655 0.78-1.731 3.69-1.233 5.58-1.089 0.53 0.039-1.16 1.135-0.73 1.456 1.84 1.359 4.06 2.306 6.31 2.678 1.59 0.262 3.9 0.515 4.76-0.851 1.5-2.362-0.5-5.987 1.03-8.321 0.87-1.32 3.35 0.367 4.71-0.432 1.17-0.692 1.36-2.364 2.04-3.545"/>
     <path id="Stroke-11" stroke-linejoin="bevel" d="m117.55 137.4c1.21 1.05 2.04 2.87 3.62 3.17 2.09 0.4 4.14-1.5 6.26-1.26 3.63 0.4 7.84 0.63 10.52 3.13 1.44 1.33-1.49 3.96-0.89 5.83 0.37 1.13 2.07 1.51 3.25 1.44 4.31-0.26 8.48-3.15 12.74-2.41 2.07 0.36 3.52 3.13 3.55 5.25 0.06 4.43-3.05 8.46-3.3 12.89-0.05 0.87 2.12-0.2 2.53 0.56 0.81 1.47 0.95 3.4 0.52 5.03-0.22 0.85-2.49 0.57-2.22 1.41 0.6 1.91 3.4 2.53 4.06 4.42 0.32 0.92-2.01 1.46-1.69 2.38 0.33 0.98 2.29 0.23 2.89 1.07 1.67 2.31 2.73 5.07 3.51 7.81 0.24 0.84 0.12 2.01-0.54 2.59-0.63 0.53-2.47-0.85-2.47-0.03-0.01 1.6 3.49 2.91 2.45 4.13-1.04 1.21-2.84-1.96-4.43-1.82-1.3 0.12-3.89 1.46-3.05 2.47 1.37 1.65 4.57 0.14 6.29 1.44 1.83 1.39 2.31 3.99 3.46 5.98"/>
     <path id="Stroke-13" stroke-linejoin="bevel" d="m227.21 328.3c2.7-0.96 5.23-3.04 8.08-2.88 1.39 0.08 0.96 3.41 2.36 3.47 1.56 0.07 1.86-3.09 3.42-3.21 1.77-0.13 3.53 1.24 4.65 2.62 0.42 0.51-1.82 1.18-1.26 1.54 1.58 1.01 3.72 1.78 5.5 1.19 1.45-0.47 1.09-3.25 2.49-3.81 2.14-0.86 5.13 1.47 6.92 0.02 1.84-1.48 0-5.19 1.6-6.92 1.62-1.73 4.71-3.25 6.79-2.12 1.86 1.01-0.11 4.45 0.92 6.31 0.55 0.98 2.07 1.06 3.18 1.06 5.43 0.01 11.21 0.96 16.26-1.02 2.14-0.83 0.95-4.78 2.6-6.36 1.34-1.29 3.67-1.96 5.41-1.34 2.08 0.75 2.63 3.7 4.5 4.89 1.29 0.82 3.4-0.2 4.51 0.86 0.68 0.64-1.4 2.03-0.76 2.72 0.92 0.98 2.72 1.21 3.97 0.72 1.85-0.71 2.52-3.4 4.4-3.99 1.25-0.4 2.78 2.42 3.65 1.44 1.04-1.15-2.37-4.76-0.83-4.58 3.27 0.38 5.09 4.53 8.25 5.46 0.93 0.27 0.21-2.33 1.11-2.71 1.09-0.47 2.33 0.47 3.49 0.75 2.84 0.68 5.59 2.31 8.51 2.12 1.53-0.1 2.46-3.98 3.57-2.92 1.19 1.15-3.02 3.58-1.76 4.67 2.09 1.81 5.64-0.02 8.23 0.94 1.17 0.43 1.08 3.21 2.3 2.95 1.12-0.24-0.55-2.48 0.05-3.46 1.01-1.66 2.67-2.93 4.39-3.82 2.32-1.2 6.31-0.01 7.48-2.35 1.38-2.76-2.04-6.02-1.76-9.09 0.09-0.9 2.06 0.12 2.67-0.55 1.44-1.58 0.95-6.23 3-5.67 4.68 1.3 6.61 7.51 11.01 9.55 1.49 0.68 2.97-3.56 4.22-2.51 2.54 2.13 1.48 6.84 3.79 9.21 0.95 0.97 2.56-0.92 3.84-1.38"/>
     <path id="Stroke-15" stroke-linejoin="bevel" d="m61.362 242.4c1.98 0.93 3.779 3.12 5.941 2.79 2.873-0.43 4.395-4.99 7.289-4.78 2.328 0.17 2.101 4.59 4.191 5.64 1.198 0.6-1.783-3.02-0.817-3.95 1.362-1.3 4.148 0.55 5.608-0.63 0.83-0.68-2.099-2.6-1.116-3.01 4.55-1.92 9.637-2.92 14.564-2.66 2.216 0.12 3.338 3.43 5.528 3.72 1.88 0.24 3.32-2.43 5.21-2.31 2.01 0.12 3.28 3.16 5.28 2.94 1.94-0.21 3.59-2.14 4.31-3.96 0.95-2.38-1.2-5.62 0.31-7.68 1.1-1.5 3.89 0.51 5.55-0.31 0.7-0.35-0.85-1.9-0.21-2.34 3.14-2.18 7.32-2.55 10.43-4.76 1.6-1.14 1.51-3.98 3.22-4.97 0.77-0.44 0.46 2.13 1.33 2.35 2.36 0.61 5.03-0.96 7.3-0.11 3.59 1.36 6.14 8.22 9.54 6.46 3.36-1.74-2.02-8.16-0.03-11.38 1.52-2.47 5.89-0.78 8.41-2.21 0.93-0.52 1.41-2.12 0.92-3.07-0.47-0.91-2.58 0.1-2.96-0.86-0.55-1.4-0.05-3.25 0.88-4.43 0.52-0.68 1.71 0 2.57 0 1.09-0.26 2.32-1.34 3.28-0.76 1.06 0.65-0.01 3.5 1.24 3.52 1.5 0.03 1.49-3.95 2.91-3.45 1.96 0.69 1.01 4.68 2.91 5.5 1.48 0.64 2.8-1.62 4.21-2.43 1.01 2 2.73 3.77 3.03 5.98 0.1 0.74-1.82-0.81-2.24-0.18-1.25 1.85-4.09 5.74-1.96 6.43 5.21 1.68 10.85-2 16.33-1.79 1.11 0.04 2.83 1.55 2.23 2.49-0.87 1.4-3.81 0.07-4.7 1.45-0.58 0.88 1.57 1.46 2.52 1.91 3.75 1.76 7.4 4.14 11.5 4.7 2.37 0.32 4.68-3.27 6.82-2.21 3.14 1.57 3.09 6.78 6.08 8.62 1.9 1.17 6.92-2.99 6.63-0.78l-0.71 5.34c-0.43 3.17 6.01 2.15 9.11 2.87 0.99 0.23 2.72-1.02 3.05-0.06 0.43 1.26-2.15 2.24-1.84 3.54l2.18 9.23c0.26 1.12-3.09-1.21-3.45-0.12-2.41 7.3-4.28 15.03-4.02 22.71 0.06 1.66 4.93-0.47 4.85 1.2-0.1 1.94-3.76 1.47-5.05 2.93-1.13 1.28-0.2 4.19-1.79 4.81-1.3 0.5-1.63-2.98-3.03-2.93-2.52 0.1-5.68 1.04-6.83 3.3l-3.3 6.47c-0.4 0.78 0.49 2.08 1.35 2.28 2.03 0.45 5.36-2.48 6.23-0.59 0.82 1.79-5.17 0.13-5.55 2.06-0.41 2.11 4.89 2.88 4.19 4.91-0.65 1.87-7.68-0.81-5.92 0.1l10.75 5.55c4.74 2.45-2.96 10.55-2.42 15.87 0.13 1.34 3.32-1.17 4.01-0.03 1.17 1.91 0.05 4.49 0.07 6.73-0.82 1.93-2.59 3.69-2.48 5.78 0.05 0.95 2.56-0.42 2.81 0.5 0.6 2.17-1.4 4.53-0.82 6.71 0.45 1.68 3.57 2.03 3.62 3.78 0.04 1.43-2.64 1.4-3.44 2.59-0.74 1.12-1.17 2.61-0.89 3.92 0.81 3.85 3.76 7.16 4.05 11.08 0.16 2.23-1.2 4.53-2.8 6.09-1.58 1.53-4.96 0.64-6.09 2.53-1.08 1.83 1.83 4.45 0.84 6.33-0.71 1.33-3.67-0.7-4.49 0.56-0.83 1.27 0.17 3.33 1.27 4.36 0.88 0.83 4.09-0.88 3.63 0.24-1.08 2.58-5.67 2.99-6.13 5.75-0.44 2.69 3.97 4.42 3.99 7.15 0.01 1.52-3.24 0.94-3.92 2.29-0.85 1.68 1.11 4.19-0.08 5.65-0.93 1.13-3.09-0.89-4.37-0.21-1.9 1.02-2.2 4.29-4.28 4.85-1.94 0.52-4.37-3.74-5.63-2.17-1.61 1.99 1.61 5.05 1.26 7.59-0.12 0.9-2.59 0.25-2.47 1.16 0.42 3.09 3.66 5.45 3.79 8.57 0.07 1.82-1.67 3.5-3.25 4.4-0.73 0.41-1.5-1.95-2.1-1.37-1.88 1.83-3.31 4.37-3.68 6.97-0.51 3.52 0.76 7.08 1.13 10.62"/>
     <path id="Stroke-17" stroke-linejoin="bevel" d="m588.97 309.41c-0.74 2.21-3.02 4.43-2.23 6.62 0.94 2.62 6.04 2.48 6.5 5.23 0.46 2.72-2.15 5.47-4.45 6.99-1.25 0.83-4.63-2.66-4.35-1.18 0.46 2.46 4.77 2.97 5.15 5.44 0.4 2.55-3.05 4.46-3.23 7.04-0.24 3.48 1.38 6.85 2.03 10.29 0.47 2.48 2.93 5.48 1.36 7.45-3.08 3.85-9.09 4.07-12.98 7.11-0.69 0.54 0.98 1.81 0.58 2.6-1.29 2.56-5.16 3.91-5.3 6.77-0.1 2.28 4.8 2.64 4.74 4.91-0.04 1.68-3.89-0.22-4.88 1.12-1.78 2.39-3.17 5.76-2.35 8.63 0.53 1.85 4.03 0.68 5.4 2.02 0.91 0.9 1.34 2.79 0.56 3.79-1.66 2.14-5.67 1.92-6.87 4.35-0.7 1.41 2.55 2.19 2.88 3.72 0.19 0.88-2.5 2.24-1.6 2.17 1.4-0.1 2.15-2.64 3.51-2.31 1.3 0.31 1.96 2.27 1.77 3.6-0.34 2.35-1.55 4.67-3.22 6.37-0.87 0.89-2.9-0.29-3.68 0.69-1.17 1.45 0.34 4.49-1.25 5.45-3.07 1.86-7.56-0.12-10.62 1.74-1.15 0.7 2.26 2.31 1.85 3.59-0.48 1.49-2.44 2.03-3.86 2.69-1.38 0.65-2.93 1.47-4.43 1.19-2.63-0.49-4.62-3.59-7.29-3.39-1.47 0.11-0.71 3.01-1.75 4.06-0.64 0.66-1.84 0.74-2.73 0.49-1.74-0.48-3.55-1.23-4.79-2.55-0.86-0.93 0.13-3.15-1.02-3.67-1.33-0.61-3.17 0.23-4.22 1.25-1.25 1.22-0.4 4.15-2 4.84-1.5 0.65-3.2-3.06-4.49-2.04-1.67 1.33 0.8 5.14-0.95 6.37-2.14 1.5-5.46-1.34-7.81-0.22-2.02 0.98-1.84 4.32-3.61 5.71-1.26 0.99-3.56-0.26-4.73 0.83-1.95 1.84-1.21 6.22-3.73 7.15-1.82 0.67-2.03-3.72-3.87-4.34-1.93-0.65-4.46-0.3-6.02 1-1.52 1.27 0.04 5.33-1.91 5.64-2.17 0.34-2.64-4.04-4.78-4.57-1.42-0.36-2.44 1.64-3.66 2.46-1.25 0.13-3.18-0.72-3.75 0.4-0.64 1.27 1.98 2.63 1.54 3.98-0.62 1.86-2.81 2.75-4.22 4.12h0.01"/>
     <path id="Stroke-19" stroke-linejoin="bevel" d="m415.12 112.8c-1.45 1.24-4.26 1.82-4.34 3.72-0.09 2.48 3.47 3.88 3.95 6.31 0.36 1.8-2.1 3.47-1.65 5.25 0.57 2.25 3.55 3.25 4.36 5.42 0.47 1.27-0.04 2.89-0.83 3.99-0.5 0.68-2.19-0.22-2.49 0.58-0.4 1.09 1.71 2.37 1.06 3.33-1.14 1.65-4.73 0.95-5.3 2.88-0.42 1.44 2.98 1.24 3.71 2.55 0.48 0.87-1.48 2.38-0.65 2.93 2.42 1.61 5.9 0.76 8.41 2.22 0.68 0.39-1.23 1.67-0.7 2.26 1.12 1.23 3.85 0.5 4.59 1.99 0.69 1.41-1.83 2.98-1.41 4.48 0.36 1.28 1.97 2.15 3.29 2.22 1.68 0.09 3.05-1.97 4.72-1.79 2.16 0.24 3.65 3.17 5.81 2.96 2.37-0.24 3.48-4.33 5.85-4.12 2.09 0.19 3.45 2.92 3.87 4.99 0.68 3.38-1.63 6.97-0.79 10.32 0.49 1.95 4.22 2.13 4.41 4.14 0.24 2.65-1.81 5.08-3.36 7.25-0.66 0.93-2.86 0.52-3 1.66-0.13 0.99 2.82 0.54 2.59 1.52-0.34 1.43-2.9 1.28-3.57 2.59-0.31 0.6 1.32 0.33 1.97 0.51 3.52 1.01 7.52 1 10.55 3.06 1.08 0.72-0.21 2.59-0.32 3.88h-0.01c-1.66 1.01-4.48 1.14-4.98 3.02-0.36 1.33 3.3 0.52 3.69 1.84 0.28 0.98-2.66-0.47-3.01 0.49-0.57 1.58 1.93 3.51 1.05 4.93-0.89 1.44-4.33-0.32-4.9 1.27-0.48 1.35 4.25 1.08 3.6 2.35-0.83 1.61-5.32-0.78-5.33 1.04-0.01 2.38 3.15 3.76 5.29 4.78 2.45 1.18 5.58 0.33 7.98 1.58 0.75 0.38-0.84 2.11-0.11 2.52 0.65 0.36 1.07-2.64 1.22-1.9 0.28 1.41-1.73 3.21-0.75 4.27 2.31 2.5 6.42 2.56 9.05 4.71 0.79 0.65 0.67 2.05 0.4 3.04-0.24 0.85-1.93 1.08-1.79 1.96 0.2 1.3 3.02 1.78 2.57 3.02l-1.98 5.42c-0.35 0.94-2.52 0.04-2.84 0.99-0.8 2.38-0.01 5.02-0.02 7.53v0.01c3.56 2.24 7.48 4 10.69 6.73 1.24 1.06 0.71 4 2.31 4.33 3.25 0.66 6.47-2.01 9.78-1.87 2.27 0.09 4.47 1.22 6.32 2.54 1.74 1.24 2.19 4.02 4.12 4.93 1.81 0.85 4.53-1.51 6-0.16 1.22 1.11-1.9 3.6-0.85 4.87 0.97 1.19 3.15-0.91 4.58-0.35 2.35 0.92 3.72 3.65 6.09 4.52 0.75 0.28 1.81-2.43 1.78-1.63-0.09 1.91-2.78 3.68-1.95 5.4 1.13 2.36 4.38 2.85 6.57 4.28 1.06 0.84 1.85 2.27 3.17 2.52 1.75 0.34 5.57 0.86 5.25-0.89l-0.51-2.8c-0.16-0.87 2.11 0.53 2.64-0.18 1.64-2.19 0.75-6.31 3.17-7.59 1.55-0.82 1.44 3.54 2.99 4.34 2.19 1.11 5.19-0.32 7.3 0.93 2.16 1.28 2.13 6.85 4.5 6.05l5.08-1.72c0.92-0.31 0.5 2.18 1.39 2.57 3.92 1.68 8.7 1.13 12.36 3.34 2.3 1.38 2.14 5.28 4.38 6.76 3.14 2.06 7.56 1.33 10.81 3.21 2.55 1.48 4.01 4.34 6.02 6.51 0.81 0.62 1.64 2.52 2.43 1.87 1.31-1.09 0.38-3.52 1.31-4.96 0.46-0.72 1.63-1.18 2.43-0.87 0.88 0.35 0.57 2.46 1.51 2.41 2.09-0.12 3.54-2.66 5.63-2.8 2.46-0.17 5.17 3.39 7.15 1.92 2.22-1.65 0.05-5.76 1.33-8.22 0.51-0.99 2.15-0.66 3.26-0.67 5.67-0.05 11.42-0.52 17 0.47 5.18 0.92 9.94 3.48 14.91 5.22"/>
     <path id="Stroke-21" stroke-linejoin="bevel" d="m466.67 57.578c0.22 1.533-0.14 3.277 0.66 4.602 1.06 1.77 4.21 2.115 4.6 4.142 0.78 3.927-1.84 7.938-1.44 11.922 0.23 2.308 3.06 3.849 3.24 6.163 0.11 1.382-2.9 2.009-2.49 3.333 0.69 2.178 4.83 2.393 5.01 4.669 0.21 2.781-3.78 4.528-4.08 7.305-0.13 1.126 2.55 0.306 3.13 1.266 0.59 0.97-0.81 2.38-0.3 3.39 1.44 2.79 5.95 4.24 5.84 7.38-0.07 2.16-4.01 2.11-6.17 1.99-1.14-0.06-1.23-2.42-2.36-2.47-2.59-0.13-5.06 2.78-7.52 1.98-2.53-0.83-3.01-4.54-5.15-6.13-0.72-0.54 1.15 2.02 0.51 2.67-1.41 1.45-4.67 0.65-5.55 2.48-1.13 2.36 2.03 5.64 0.6 7.84-1.23 1.9-4.62 2.51-6.64 1.46-1.81-0.94-0.32-4.46-1.81-5.86-0.76-0.71-0.45 2.96-1.48 2.77-1.81-0.33-2.37-3.03-4.05-3.78-3.04-1.35-6.48-3.23-9.69-2.36-2.85 0.77-2.99 6.5-5.94 6.59-4.04 0.11-6.98-4.09-10.47-6.13-1.95-0.6-4.31-0.47-5.85-1.82-1.88-1.65-1.77-4.94-3.68-6.55-1.26-1.06-3.68 0.46-4.89-0.66-2.29-2.1-2.36-5.989-4.65-8.098-1.04-0.968-3-0.782-4.27-0.135-0.87 0.438-0.01 3.155-0.89 2.767-2.28-1.002-3.02-4.124-5.15-5.421-0.9-0.553-2.75-0.639-3.18 0.34-0.85 1.955 1.61 4.772 0.23 6.403-1.9 2.264-6.16 1.124-8.29 3.174-0.86 0.83 2.05 2.05 1.68 3.19-0.59 1.79-2.15 3.98-4.03 3.95-3.69-0.04-6.93-5.67-10.28-4.12-2.68 1.24 1.26 6.19 0.02 8.87-0.53 1.18-2.82-1.5-3.8-0.66-1.18 1.01 0.2 3.41-0.79 4.61-0.94 1.12-3.12 0.34-4.18 1.36-0.55 0.53 1.17 2.17 0.41 2.28-2.59 0.4-5.17-1.43-7.77-1.16-2.15 0.23-4.19 3.86-5.96 2.61-2.13-1.52 0.76-6.16-1.31-7.77-1.45-1.12-2.56 3.29-4.39 3.34-1.44 0.03-1.54-3.29-2.97-3.15-1.67 0.18-1.69 3.4-3.32 3.8-1.03 0.25-1.31-1.67-1.97-2.51"/>
     <path id="Stroke-23" stroke-linejoin="bevel" d="m455.84 199.9c0.72 1.06 0.99 2.65 2.15 3.19 0.78 0.37 1.69-0.52 2.38-1.04 4.57-3.45 8.14-8.43 13.33-10.82 1.3-0.6 1.03 3.31 2.44 3.55 2.78 0.49 5.49-1.92 8.3-1.67 2.12 0.19 3.56 3.01 5.68 2.92 2.52-0.1 5.06-1.56 6.76-3.43 0.92-1.03-0.67-3 0.09-4.15 1.03-1.56 2.85-2.71 4.67-3.09 1.34-0.28 3.2 0.12 3.9 1.29 0.97 1.67-0.71 4.13 0.28 5.79 0.81 1.37 2.87 2.62 4.32 1.99 4.27-1.86 6.5-7.38 10.97-8.68 3.34-0.96 7.55 0.23 10.12 2.58 2.41 2.21 0.58 7.13 2.95 9.39 1.71 1.64 5.07-0.99 7.1 0.23 1.5 0.9 0.26 3.89 1.6 5.02 1.26 1.05 3.47-0.35 4.91 0.44 1.75 0.95 2.27 3.45 4 4.44 1.41 0.81 3.47-0.25 4.85 0.62 1.54 0.98 1.37 4.33 3.18 4.45 2.39 0.17 3.74-3.46 6.12-3.8 0.96-0.13-0.17 2.67 0.8 2.82 1.64 0.26 2.93-2.02 4.6-1.97 2.4 0.07 4.74 3.5 6.83 2.31 1.56-0.88-3.16-3.11-2.49-4.77 0.85-2.09 4.76-1.45 5.83-3.44 0.59-1.1-3.38-2.06-2.43-2.88 5.2-4.49 12.59-5.92 17.81-10.39 1.48-1.25-0.89-5.54 1.04-5.73 4.75-0.46 9.11 2.86 13.67 4.29"/>
     <path id="Stroke-25" stroke-linejoin="bevel" d="m474.21 455.01l6.41-8.54c-0.26-1.2 0.22-2.89-0.79-3.59-2.39-1.67-6.01-0.94-8.31-2.75-0.92-0.72 1.29-2.78 0.36-3.49-1.41-1.08-5.6 1.47-5.33-0.29 0.45-2.91 4.8-3.62 6.33-6.12 0.48-0.78-1.47-1.75-1.03-2.55 0.55-0.99 2.68-0.23 3.15-1.26 1-2.21-0.86-5.39 0.7-7.25 0.98-1.16 2.96 1.62 4.42 1.16 1.29-0.4 2.22-1.95 2.39-3.3 0.16-1.31-0.55-2.78-1.54-3.65-1.29-1.15-3.82-0.53-4.78-1.97-0.66-0.97 1.7-2.2 1.26-3.29-0.44-1.04-2.05-1.53-3.14-1.27-2.31 0.54-3.83 3.36-6.2 3.48-3.04 0.16-5.69-2.84-8.73-2.71-1.27 0.06-0.95 3.76-2.09 3.19-4.72-2.4-9.51-5.71-12.07-10.36-1.74-3.15 3.38-8.75 0.42-10.8-3.42-2.37-8.06 2.41-12.22 2.61-0.7 0.03 1.06-1.64 0.48-2.04-2.72-1.92-5.8-4.1-9.14-4.06-1.76 0.02-1.62 3.45-3.22 4.21-1.23 0.58-3.07 0.2-4.01-0.78-1.34-1.41-0.37-4.36-1.94-5.48-1.9-1.37-4.67-0.41-6.95-0.9-1.14-0.25 2.66 0.27 3.55-0.12 0.87-0.38 1.39-2.91 0.36-3.79-1.48-1.28-4.11 0.29-5.83-0.64-1.98-1.06-2.34-4.8-4.58-4.94-2.6-0.17-4.03 4.72-6.58 4.22-3.51-0.7-5.7-4.43-8.07-7.13-1.26-1.44-2.86-3.18-2.65-5.08 0.22-1.95 4.25-2.64 3.74-4.54-0.64-2.39-6.08-1.76-6.1-4.24-0.05-7.97 5.46-15.2 5.9-23.15 0.15-2.64-4.67-4.07-4.24-6.67 0.32-1.99 4.72-0.25 5.66-2.03 0.87-1.64-1.19-3.53-1.79-5.29l-0.01 0.09c0.3-2-0.65-4.69 0.89-5.98 1.7-1.43 5.11 1.26 6.64-0.34 1.22-1.28-3.14-4.54-1.46-5.1 3.52-1.17 7.28 2.26 10.98 1.93 3.03-0.28 5.32-3.81 8.36-3.67 2.63 0.11 3.99 4.55 6.62 4.33 1.66-0.14-0.55-4.02 0.84-4.96 2.89-1.94 8.02 0.32 10.15-2.44 1.8-2.32 0.4-6.49-1.56-8.67-1.46-1.62-4.83 1.05-6.52-0.32-1.62-1.3-2.03-4.1-1.41-6.09 0.82-2.66 4.04-3.96 5.3-6.44 1.05-2.05 0.22-4.81 1.45-6.76 0.69-1.09 2.39-1.62 3.64-1.3 0.97 0.25 0.5 2.81 1.49 2.62 1.94-0.36 2.73-3.07 4.57-3.78 2.93-1.1 6.59 0.13 9.27-1.48 1.65-0.99 0.39-4.56 2.13-5.37 1.78-0.83 3.66 2.01 5.6 1.78 1.12-0.14 2.16-1.57 2.06-2.7-0.18-1.97-3.84-3.58-2.77-5.25 2.31-3.6 7.12-4.73 10.68-7.09"/>
     <path id="Stroke-27" stroke-linejoin="bevel" d="m769 457.21c-2.18-3.85-3.24-8.62-6.55-11.54-2.36-2.07-6.86-0.1-9.13-2.25-1.33-1.26 2.09-3.9 1.04-5.41-1.02-1.48-3.75 0.07-5.33-0.78-1.03-0.55-0.58-3.14-1.73-3.03-3.19 0.29-5.59 4.5-8.76 3.98-2.81-0.47-3.14-5.16-5.72-6.39-1.8-0.85-4.47 2.2-5.92 0.84-1.4-1.32 1.29-3.88 0.74-5.72-0.33-1.12-1.82-1.72-2.98-1.85-2.9-0.32-6 1.6-8.72 0.55-2-0.76-1.69-4.39-3.63-5.3-1.35-0.63-3.41 2.98-4.15 1.68-1.18-2.06 1.4-4.7 1.07-7.06-0.29-2.06-0.79-5.31-2.85-5.55-3.34-0.38-5.93 3.34-9.19 4.17-1.56 0.4-3.51 0.39-4.81-0.58-0.64-0.48 1.27-1.25 1.29-2.06 0.04-1.25-1.89-2.62-1.12-3.6 0.87-1.11 3.39 0.83 4.21-0.31 1.16-1.63-0.92-4.44 0.31-6.01 1.14-1.45 4.28 0.24 5.38-1.23 1.73-2.29 3.6-6.1 1.88-8.39-1.54-2.03-5.27 1.85-7.6 0.81-1.18-0.53 2.48-1.93 2.22-3.21-0.83-4.1-4.86-7.26-5.17-11.43-0.19-2.56 2.55-4.45 3.83-6.68"/>
     <path id="Stroke-29" stroke-linejoin="bevel" d="m649.57 176.17c-1.47 5.91-2.29 12.01-4.42 17.71-0.38 1.03-2.81 0.6-2.82 1.7-0.02 1.84 2.89 2.94 2.75 4.77-0.13 1.71-3.32 2.14-3.4 3.85-0.1 1.92 2.81 3.04 2.95 4.97 0.15 2.13-1.52 1.63-6.52 5.6-1.36 1.08-0.36 4.03-1.88 4.88-1.72 0.97-6.13-2.46-5.91-0.49 1.03 9.12 7.29 17.04 8.8 26.1 0.27 1.63-2.96 1.68-3.92 3.03-0.56 0.79-0.2 1.94-0.3 2.9 1.19 3.52 1.82 7.28 3.58 10.54 2.05 3.82 6.43 6.32 7.74 10.45 0.53 1.65-4.08 2.75-3.08 4.16 1.09 1.56 4.05-1.43 5.69-0.46 1.57 0.92 1.4 3.36 2.1 5.05-0.69 2.69-1.38 5.37-2.07 8.06-1.18 0.97-3.42 1.38-3.54 2.9-0.18 2.4 2.23 4.31 2.8 6.64 0.15 0.6-1.21-1.67-1.45-1.11-0.82 1.96-0.49 4.24-0.74 6.36-0.49 1.85 0.36 4.94-1.45 5.55-2.27 0.78-4.84-4.39-6.63-2.79-2.35 2.09-3.11 7.3-0.78 9.41 3.33 3.02 8.94 1.02 13.33 1.95 1.04 0.22-2.47-0.59-3.19 0.2-0.89 0.97 0.11 2.79-0.58 3.92-0.44 0.72-2.34 0.06-2.38 0.91-0.16 3.76 0.42 7.66 1.84 11.14 0.73 1.81 4.09 2 4.31 3.94 0.16 1.36-2.82 0.77-3.66 1.85-0.78 1-1.54 2.79-0.71 3.75 2.38 2.77 5.51 5.55 9.12 6.04 2.09 0.29 3.79-2.28 4.8-4.14 0.72-1.33-0.69-3.15-0.11-4.55 0.42-0.99 2.76-0.64 2.75-1.72-0.03-2.31-1.4-4.52-2.84-6.33-1.41-1.79-7.36-2.87-5.45-4.12l6.33-4.14c1.62-1.05 4.24-0.29 5.72 0.95 1.37 1.16 0.5 3.71 1.54 5.17 1.05 1.48 3.62 1.57 4.42 3.21 0.83 1.71-1.02 4.07-0.08 5.73 0.73 1.28 3.21 0.32 4.16 1.44 1.46 1.73 0.32 5.52 2.42 6.33 1.57 0.6 0.68-3.8 2.18-4.56 0.93-0.47 1.96 1.44 1.92 2.49-0.11 2.95-4.17 6.23-2.35 8.56 3.1 3.95 10.22 2.52 13.79 6.06 2.67 2.65 2.18 7.21 3.26 10.83 0.83 0.51 2.23 2.46 2.48 1.53l1.66-6.17c0.77-2.88 5.85-1.13 8.78-1.7 1.36 0.23 3.02 1.55 4.08 0.67 2.13-1.76 2.03-5.3 3.94-7.3 1.39-1.47 5.09-0.61 5.47-2.6 0.56-3.01-3.66-5.5-3.38-8.55 0.25-2.67 2.12-6.68 4.79-6.46 2.31 0.19-1.08 5.75 0.92 6.93 2.97 1.75 7.08-1.42 10.34-0.29 1.96 0.68 1.49 5.31 3.55 5.11 2.69-0.27 4.53-3.47 5.48-6 0.54-1.42-3.07-3.82-1.62-4.24 5.6-1.61 11.75 0.7 17.49-0.34 1.36-0.24 2.73-1.9 2.57-3.28-0.33-2.67-4.67-4.55-3.83-7.1 0.62-1.85 3.8 2.59 5.58 1.79 1.54-0.69 0.4-3.5 1.37-4.89 0.43-0.63 1.66-0.77 2.26-0.31 1.73 1.34 1.95 4.56 4.05 5.18 2.58 0.76 5.27-1.1 7.9-1.64-0.1-1.06-0.78-2.23-0.32-3.18 0.59-1.21 2.86-1.25 3.11-2.57 0.27-1.39-2.7-2.64-1.9-3.81 1.47-2.14 5.15-1.63 6.93-3.51 0.97-1.02-0.98-3.91 0.39-4.2 2.61-0.57 5.13 3.36 7.65 2.46 2.03-0.72 1.58-4.01 2.37-6.02"/>
    </g>
   </g>
  </g>
 </g>
</svg>
