<?xml version="1.0" standalone="no"?>
<!DOCTYPE svg PUBLIC "-//W3C//DTD SVG 20010904//EN"
 "http://www.w3.org/TR/2001/REC-SVG-20010904/DTD/svg10.dtd">
<svg version="1.0" xmlns="http://www.w3.org/2000/svg"
 width="260.000000pt" height="260.000000pt" viewBox="0 0 260.000000 260.000000"
 preserveAspectRatio="xMidYMid meet">
<metadata>
Created by potrace 1.11, written by Peter Selinger 2001-2013
</metadata>
<g transform="translate(0.000000,260.000000) scale(0.100000,-0.100000)"
fill="#000000" stroke="none">
<path d="M465 2573 c8 -16 32 -56 53 -90 20 -35 71 -120 113 -190 41 -71 113
-191 159 -268 46 -77 88 -149 94 -160 6 -11 19 -31 27 -45 9 -14 82 -136 163
-272 l146 -247 -17 -30 c-16 -27 -278 -468 -306 -516 -62 -103 -96 -160 -167
-280 -46 -77 -91 -153 -100 -170 -9 -16 -42 -70 -71 -120 -30 -49 -67 -111
-82 -137 l-28 -48 463 0 463 0 41 68 c61 99 236 394 248 417 6 11 84 142 172
290 89 149 195 328 237 398 l75 128 -60 102 c-34 56 -111 185 -171 287 -61
102 -166 280 -234 395 -69 116 -149 250 -179 299 -30 49 -54 91 -54 93 0 2
-17 30 -37 63 l-38 60 -463 0 -463 0 16 -27z"/>
</g>
</svg>
