<?xml version="1.0" encoding="utf-8"?>
<!-- Generator: Adobe Illustrator 22.1.0, SVG Export Plug-In . SVG Version: 6.00 Build 0)  -->
<svg version="1.1" id="Vrstva_1" xmlns="http://www.w3.org/2000/svg" xmlns:xlink="http://www.w3.org/1999/xlink" x="0px" y="0px"
	 viewBox="0 0 666 359" style="enable-background:new 0 0 666 359;" xml:space="preserve">
<style type="text/css">
	.st0{clip-path:url(#SVGID_2_);}
	.st1{fill:#F2FAFE;}
	.st2{fill:#FFFFFF;}
	.st3{fill:none;stroke:#5F8391;stroke-width:2.0343;stroke-linecap:round;stroke-linejoin:round;stroke-miterlimit:10;}
	.st4{fill:none;stroke:#5F8391;stroke-width:3.3905;stroke-linecap:round;stroke-linejoin:round;stroke-miterlimit:10;}
	.st5{fill:#DFF2FD;}
	.st6{fill:none;stroke:#5F8391;stroke-width:1.2923;stroke-linecap:round;stroke-linejoin:round;stroke-miterlimit:10;}
	.st7{fill:#5F8391;}
	.st8{fill:none;stroke:#5F8391;stroke-width:2.309;stroke-linecap:round;stroke-linejoin:round;stroke-miterlimit:10;}
	.st9{fill:none;stroke:#5F8391;stroke-width:1.6067;stroke-linecap:round;stroke-linejoin:round;stroke-miterlimit:10;}
	.st10{fill:none;stroke:#5F8391;stroke-width:3.7601;stroke-linecap:round;stroke-linejoin:round;stroke-miterlimit:10;}
	.st11{fill:none;stroke:#5F8391;stroke-width:1.3562;stroke-linecap:round;stroke-linejoin:round;stroke-miterlimit:10;}
	.st12{fill:none;stroke:#5F8391;stroke-width:1.5414;stroke-linecap:round;stroke-linejoin:round;stroke-miterlimit:10;}
	.st13{fill:#DBE1E8;}
	.st14{fill:none;stroke:#5F8391;stroke-width:1.3217;stroke-miterlimit:10;}
	.st15{fill:none;stroke:#5F8391;stroke-width:1.2433;stroke-miterlimit:10;}
	.st16{fill:none;stroke:#5F8391;stroke-width:1.3714;stroke-miterlimit:10;}
	.st17{fill:none;stroke:#5F8391;stroke-width:1.1656;stroke-miterlimit:10;}
	.st18{fill:#EF797E;}
	.st19{fill:#FFFFFF;stroke:#5F8391;stroke-width:1.6361;stroke-linecap:round;stroke-linejoin:round;stroke-miterlimit:10;}
	.st20{fill:#DFF2FD;stroke:#5F8391;stroke-width:1.6361;stroke-linecap:round;stroke-linejoin:round;stroke-miterlimit:10;}
	
		.st21{fill:none;stroke:#5F8391;stroke-width:2.0343;stroke-linecap:round;stroke-linejoin:round;stroke-miterlimit:10;stroke-dasharray:9.6709;}
	.st22{fill:none;stroke:#5F8391;stroke-width:0.8777;stroke-linecap:round;stroke-linejoin:round;stroke-miterlimit:10;}
	.st23{fill:#CEE8F4;}
	.st24{fill:none;stroke:#5F8391;stroke-width:0.6781;stroke-linecap:round;stroke-linejoin:round;stroke-miterlimit:10;}
	.st25{fill:none;stroke:#5F8391;stroke-width:1.8943;stroke-linecap:round;stroke-linejoin:round;stroke-miterlimit:10;}
	.st26{fill:none;stroke:#5F8391;stroke-width:0.7746;stroke-linecap:round;stroke-linejoin:round;stroke-miterlimit:10;}
	.st27{fill:none;stroke:#5F8391;stroke-width:1.6361;stroke-linecap:round;stroke-linejoin:round;stroke-miterlimit:10;}
</style>
<g id="XMLID_27_">
	<g>
		<defs>
			<rect id="SVGID_1_" y="1" width="666" height="359"/>
		</defs>
		<clipPath id="SVGID_2_">
			<use xlink:href="#SVGID_1_"  style="overflow:visible;"/>
		</clipPath>
		<g id="XMLID_26_" class="st0">
			<ellipse id="XMLID_24_" class="st1" cx="333.4" cy="182.8" rx="333.3" ry="149.6"/>
			<path id="XMLID_271_" class="st2" d="M586.9,219.3l-0.5-3.6l-7.9-4l-3.4-5.2v-3.3l-6.2-5.3l-12.1-5.1l-8-0.6l-2.9,2.7l-4.7,4.4
				l-9,1.2l-4.1,0.1c-59.8-15.3-131.1-24.2-207.7-24.2c-57.9,0-112.9,5.1-162.1,14.2l-7.5,2.6l-2.2-1.8l-10.1,6.4l-11.6-2.8
				l-11.2,2.3l-9.8-6.5l-10.2,5.6L84.1,202l-5.6,2.3l-11.6,14l-12.9,9l-2.9,1.1l-20.5,7.2c-56.4,26.2-91.7,54-91.7,91
				c0,82.9,170.8,150,381.4,150s381.4-67.2,381.4-150C701.7,284.5,657.7,246.5,586.9,219.3L586.9,219.3z"/>
			<path id="XMLID_268_" class="st3" d="M114.6,191.3c0,0,16.3,9.1,28.5,3.9"/>
			<path id="XMLID_274_" class="st3" d="M28.3,237.4"/>
			<path id="XMLID_229_" class="st3" d="M46.1,230.7"/>
			<path id="XMLID_269_" class="st3" d="M46.1,230.7"/>
			<path id="XMLID_14_" class="st3" d="M141.1,195.9"/>
			<path id="XMLID_251_" class="st3" d="M527.4,200.3c-59.7-15.2-130.8-24-207.2-24c-58.4,0-115-0.5-163.1,14.4
				c-4.4,1.3-9.8,3.2-16,5.3"/>
			<path id="XMLID_243_" class="st4" d="M527.4,200.3"/>
			<path id="XMLID_230_" class="st4" d="M591.4,220.7"/>
			<path id="XMLID_35_" class="st3" d="M638.9,241.6c-9.4-5-19.9-9.8-31.8-14.5"/>
			<path id="XMLID_31_" class="st3" d="M638.9,241.6"/>
			<path id="XMLID_28_" class="st3" d="M701.7,326.2"/>
			<path id="XMLID_29_" class="st3" d="M-61.1,326.2c0,82.9,170.8,150,381.4,150s381.4-67.2,381.4-150"/>
			<path id="XMLID_2_" class="st4" d="M29.1,214.4"/>
			<path id="XMLID_1_" class="st4" d="M157.2,175.7"/>
			<path id="XMLID_253_" class="st5" d="M80.6,203.1c0,0-1.6,13.1,10,13.3s13.3-1.2,13.3-1.2s-9.4,9.2-26.3,6.4s-8.6-6-8.6-6
				S80.8,205.8,80.6,203.1z"/>
			<g id="XMLID_172_">
				
					<ellipse id="XMLID_170_" transform="matrix(0.9948 -0.102 0.102 0.9948 -30.564 36.259)" class="st6" cx="339.3" cy="317.1" rx="3.7" ry="2"/>
				
					<ellipse id="XMLID_141_" transform="matrix(0.9924 -0.123 0.123 0.9924 -34.6909 46.0488)" class="st5" cx="355.5" cy="303.9" rx="21" ry="8.3"/>
				<path id="XMLID_119_" class="st7" d="M376,301.2c-0.5-4.1-8.3-6.5-18.2-6c7.3,0.4,12.6,2.7,13,6c0.6,4.5-8.3,9.4-19.8,10.8
					c-1.2,0.2-2.5,0.3-3.7,0.3c2.7,0.2,5.7,0.1,8.8-0.3C367.7,310.6,376.6,305.8,376,301.2L376,301.2z"/>
				
					<ellipse id="XMLID_116_" transform="matrix(0.9948 -0.102 0.102 0.9948 -29.1415 37.7959)" class="st6" cx="355.1" cy="303.9" rx="21.6" ry="8.3"/>
				
					<ellipse id="XMLID_106_" transform="matrix(0.9948 -0.102 0.102 0.9948 -30.1762 34.8902)" class="st5" cx="326.2" cy="312.6" rx="5.9" ry="3.3"/>
				<path id="XMLID_101_" class="st7" d="M331.8,312.3c-0.2-1.6-3-2.6-6.2-2.3c0,0,0,0-0.1,0c2.2,0.2,3.9,1.1,4,2.3
					c0.2,1.6-2.3,3.1-5.5,3.4c0.7,0.1,1.4,0.1,2.2,0C329.5,315.4,332,313.9,331.8,312.3z"/>
				
					<ellipse id="XMLID_61_" transform="matrix(0.9948 -0.102 0.102 0.9948 -30.1762 34.8902)" class="st6" cx="326.2" cy="312.6" rx="5.9" ry="3.3"/>
				
					<ellipse id="XMLID_54_" transform="matrix(0.9948 -0.102 0.102 0.9948 -30.564 36.259)" class="st5" cx="339.3" cy="317.1" rx="3.7" ry="2"/>
				<path id="XMLID_40_" class="st7" d="M339.7,317.7c-1.8,0.2-3.4-0.3-4.1-1.1c-0.2,0.3-0.3,0.6-0.3,0.9c0.1,1.1,2.1,1.9,4.3,1.7
					c2.3-0.2,4-1.3,3.9-2.4c0-0.2-0.1-0.4-0.3-0.6C342.7,316.9,341.4,317.6,339.7,317.7z"/>
				<path id="XMLID_9_" class="st7" d="M386.4,301.5c-0.5-6.4-8.3-10.3-18.2-9.5c7.3,0.7,12.6,4.2,13,9.5
					c0.6,7.2-8.3,14.9-19.8,17.1c-1.2,0.2-2.5,0.4-3.7,0.5c2.7,0.2,5.7,0.1,8.8-0.5C378.1,316.3,387,308.7,386.4,301.5L386.4,301.5z
					"/>
			</g>
			
				<ellipse id="XMLID_36_" transform="matrix(0.9501 -0.312 0.312 0.9501 -56.6849 40.0551)" class="st5" cx="96.8" cy="197.2" rx="18.7" ry="4.6"/>
			<path id="XMLID_34_" class="st7" d="M89.3,199.5c-0.6-2,4-5.4,11.1-8.3c-1.6,0.4-3.3,0.9-5,1.4c-9.8,3.2-17.1,7.8-16.3,10.2
				s9.4,1.8,19.2-1.4c1.8-0.6,3.6-1.3,5.2-1.9C96,201.5,90,201.6,89.3,199.5z"/>
			
				<ellipse id="XMLID_32_" transform="matrix(0.9501 -0.312 0.312 0.9501 -56.6566 46.3001)" class="st8" cx="116.4" cy="200.2" rx="10.8" ry="4.3"/>
			
				<ellipse id="XMLID_16_" transform="matrix(0.9501 -0.312 0.312 0.9501 -56.6849 40.0551)" class="st9" cx="96.8" cy="197.2" rx="18.7" ry="4.6"/>
			
				<ellipse id="XMLID_12_" transform="matrix(0.9501 -0.312 0.312 0.9501 -56.6566 46.3001)" class="st5" cx="116.4" cy="200.2" rx="10.8" ry="4.3"/>
			<path id="XMLID_11_" class="st7" d="M119.3,202.7c-5.7,1.9-10.9,1.5-11.6-0.7c-0.3-0.8,0.1-1.8,1-2.8c-2,1.5-3,3.1-2.6,4.3
				c0.7,2.3,5.9,2.6,11.6,0.7c3.6-1.2,6.5-2.9,8-4.6C124.1,200.8,121.9,201.9,119.3,202.7z"/>
			<path id="XMLID_10_" class="st7" d="M114.6,209c-7,0.9-12.7-1.1-12.6-4.5c0-1.2,0.9-2.5,2.2-3.6c-2.8,1.4-4.6,3.3-4.6,5.1
				c-0.1,3.3,5.5,5.3,12.6,4.5c4.4-0.5,8.4-2.1,10.7-4C120.7,207.7,117.8,208.6,114.6,209z"/>
			<g id="XMLID_228_">
				
					<ellipse id="XMLID_227_" transform="matrix(0.3932 -0.9195 0.9195 0.3932 156.7511 637.6567)" class="st10" cx="561.5" cy="200.1" rx="3.7" ry="14.9"/>
				
					<ellipse id="XMLID_226_" transform="matrix(0.3932 -0.9195 0.9195 0.3932 156.7511 637.6567)" class="st5" cx="561.5" cy="200.1" rx="3.7" ry="14.9"/>
				<path id="XMLID_225_" class="st7" d="M563.4,196.7c4.5,2.5,7.2,5.1,6.6,6.5c-0.8,1.9-7.6,0.8-15.1-2.5c-0.2-0.1-0.4-0.2-0.6-0.3
					c1.7,0.9,3.5,1.9,5.6,2.8c7.6,3.2,14.3,4.3,15.1,2.5C575.8,203.8,570.6,199.9,563.4,196.7z"/>
				<path id="XMLID_224_" class="st3" d="M606.3,227c0,0-15.8-7.8-24.4-12.3c-8.6-4.5-6.9-9.1-6.9-9.1"/>
			</g>
			<ellipse id="XMLID_241_" class="st5" cx="416.2" cy="244" rx="150.5" ry="29.8"/>
			<ellipse id="XMLID_244_" class="st2" cx="333.5" cy="226.2" rx="92.9" ry="25.9"/>
			
				<ellipse id="XMLID_293_" transform="matrix(0.9629 -0.27 0.27 0.9629 -64.8513 42.8523)" class="st5" cx="123.4" cy="257.2" rx="30.5" ry="11.2"/>
			
				<ellipse id="XMLID_467_" transform="matrix(0.9629 -0.27 0.27 0.9629 -53.7408 65.1976)" class="st5" cx="210.2" cy="228" rx="30.5" ry="11.2"/>
			<path id="XMLID_1105_" class="st11" d="M140.4,257.8c0-2.5,0.3-5.1,1.1-7.8c2.8-9.6,9.8-16,15.7-14.3s8.4,10.9,5.6,20.4
				c-0.6,2.2-1.5,4.3-2.5,6.1"/>
			
				<ellipse id="XMLID_472_" transform="matrix(0.9629 -0.27 0.27 0.9629 -76.7019 55.1067)" class="st5" cx="162" cy="306.4" rx="30.5" ry="11.2"/>
			<g id="XMLID_875_">
				<path id="XMLID_1104_" class="st5" d="M121.8,265l-3.5,30.2c0,0,0.2,1.2,1.4,1.5s35.9,7.8,35.9,7.8s1.2,0,1.7-1.6
					c0.6-1.6,9-28.3,9-28.3L121.8,265z"/>
				<path id="XMLID_1102_" class="st2" d="M121.8,265l5.4-10.9l38.6,8.4l0.5,12.1L121.8,265z"/>
				<path id="XMLID_1101_" class="st5" d="M127.2,254.1l2.1-2.5c0,0,1.3-0.4,2.2-0.2s32.1,6.9,32.1,6.9s1.6,0.9,1.8,2.1s0.5,2,0.5,2
					L127.2,254.1L127.2,254.1z"/>
				<path id="XMLID_933_" class="st5" d="M132.9,267.1"/>
				<path id="XMLID_915_" class="st5" d="M142.1,278.3"/>
				<path id="XMLID_895_" class="st5" d="M155,271.9"/>
				<path id="XMLID_867_" class="st11" d="M121.8,265l-3.4,30c0,0-0.4,1.9,1.7,2.3s35.4,7.7,35.4,7.7s1,0.3,2.1-2.4
					c1.1-2.7,8.7-28,8.7-28l-0.5-12.1l-0.5-2c0,0-0.3-1.6-2.4-2.1s-31.4-6.8-31.4-6.8s-1.7-0.4-2.8,0.8c-1.1,1.3-1.7,2-1.7,2
					L121.8,265L121.8,265z"/>
				<path id="XMLID_30_" class="st7" d="M149.6,278c-1.9-1.4-4.9-2.2-7.5-2.7s-5.6-1-7.9-0.4c-2.7,0.7-4.1,2.6-4.6,5.3l-0.4,2l1,0.2
					l-1.4,2.1l0.5,0.4c0.3,0.2,0.5,0.4,0.7,0.6l-0.4,2.2l-1.3-0.3l-0.1,0.7c-0.5,2.5,1.2,5,3.7,5.5l13.1,2.6c2.5,0.5,5-1.2,5.5-3.7
					l0.1-0.7l-1.3-0.3l0.4-2.2c0.2-0.1,0.5-0.2,0.7-0.3l0.7-0.2l-0.5-2.5l1,0.2l0.4-2C152.4,282,151.8,279.7,149.6,278L149.6,278z
					 M130.9,280.6c0.5-2.4,1.6-3.8,3.7-4.3s4.9-0.1,7.3,0.4c2.5,0.5,5.2,1.2,6.9,2.4c1.7,1.3,2.2,3,1.8,5.4l-0.1,0.7l-19.7-3.9
					L130.9,280.6z M145.1,294.9l-13.1-2.6c-1.6-0.3-2.7-1.7-2.7-3.3l19.5,3.9C148.2,294.3,146.6,295.2,145.1,294.9z M130.7,288
					l0.3-1.4c0.9,0.4,1.9,0.3,2.7-0.4c0.2-0.2,0.5-0.3,0.8-0.3c0.3,0.1,0.6,0.3,0.7,0.6c0.6,1.5,2.6,1.9,3.7,0.7
					c0.2-0.2,0.5-0.3,0.8-0.3c0.3,0.1,0.6,0.3,0.7,0.6c0.6,1.5,2.6,1.9,3.7,0.7c0.2-0.2,0.5-0.3,0.9-0.3c0.3,0.1,0.6,0.3,0.7,0.6
					c0.4,0.9,1.4,1.4,2.4,1.3l-0.3,1.4L130.7,288L130.7,288z M149.4,288c-0.4,0.2-0.8,0.4-1.2,0.5c-0.5,0.2-1.1-0.1-1.3-0.5
					c-0.3-0.7-0.9-1.2-1.7-1.4c-0.8-0.1-1.5,0.1-2.1,0.6c-0.5,0.5-1.3,0.3-1.5-0.3c-0.3-0.7-0.9-1.2-1.7-1.4s-1.5,0.1-2,0.6
					s-1.3,0.3-1.5-0.3c-0.3-0.7-0.9-1.2-1.7-1.4s-1.5,0.1-2,0.6c-0.4,0.4-1.1,0.3-1.4-0.1c-0.3-0.3-0.5-0.6-0.9-0.9l1.1-1.5L149,286
					L149.4,288L149.4,288z"/>
				<path id="XMLID_18_" class="st7" d="M136.1,286.5l-1.1-0.2l0.2-1.1l1.1,0.2L136.1,286.5z"/>
				<path id="XMLID_17_" class="st7" d="M140.5,287.3l-1.1-0.2l0.2-1.1l1.1,0.2L140.5,287.3z"/>
				<path id="XMLID_15_" class="st7" d="M144.9,288.3l-1.1-0.2l0.2-1.1l1.1,0.2L144.9,288.3z"/>
				<path id="XMLID_13_" class="st7" d="M143.2,285.6l-1.1-0.2l0.2-1.1l1.1,0.2L143.2,285.6z"/>
				<path id="XMLID_4_" class="st7" d="M138.8,284.8l-1.1-0.2l0.2-1.1l1.1,0.2L138.8,284.8z"/>
			</g>
			
				<ellipse id="XMLID_470_" transform="matrix(0.9629 -0.27 0.27 0.9629 -65.5915 77.452)" class="st5" cx="248.8" cy="277.2" rx="30.5" ry="11.2"/>
			<path id="XMLID_1106_" class="st11" d="M135.7,259.1c0-2.5,0.3-5.1,1.1-7.8c2.8-9.6,9.8-16,15.7-14.3s8.4,10.9,5.6,20.4
				c-0.6,2.2-1.5,4.3-2.5,6.1"/>
			<path id="XMLID_1103_" class="st11" d="M135.7,259.1"/>
			<path id="XMLID_1099_" class="st11" d="M142.4,271.7"/>
			<path id="XMLID_941_" class="st11" d="M142.4,271.7"/>
			<path id="XMLID_894_" class="st11" d="M155.6,263.5"/>
			<path id="XMLID_247_" class="st5" d="M45.7,224.5"/>
			<path id="XMLID_272_" class="st3" d="M527.4,200.3c0,0,9.6,3.5,19.2-5.9"/>
			<path id="XMLID_790_" class="st5" d="M204.2,253.8c0,0-8.9,6-6,16c2.8,10,10.7,24.6,16.7,25.6c6,1.1,14.9-2.8,16-6.8
				c1.1-3.9-4.3-21.4-4.3-21.4L204.2,253.8L204.2,253.8z"/>
			<path id="XMLID_789_" class="st12" d="M204.1,253.8c0,0-8.9,6-6,16c2.8,10,10.7,24.6,16.7,25.6s14.9-2.8,16-6.8
				c1.1-3.9-4.3-21.4-4.3-21.4L204.1,253.8L204.1,253.8z"/>
			<path id="XMLID_788_" class="st5" d="M196.9,216.6c-14.2,9.5-33.6,5.6-43-8.6L118,154.1c-9.5-14.2-5.6-33.6,8.6-43
				c14.2-9.5,33.6-5.6,43,8.6l35.9,53.9C215,187.8,211.1,207.2,196.9,216.6z"/>
			<path id="XMLID_787_" class="st5" d="M229.3,206.4l12.8,17.2c0,0,7.2,13.6,5.7,20.8s-6.9,18.5-16.7,21.1S210,247,210,246.3
				s0.3-29.8,0.3-29.8S226.4,214.7,229.3,206.4z"/>
			<path id="XMLID_786_" class="st2" d="M218.5,218.4c0,0-2.4,0.8-1,3.7c1.4,3,2.2,5.9,2.7,7.8c0.5,1.9,2.8,2.4,6.4,0.9
				s8.2-1.4,10.3-1.4s4.2,0.8,5.3,0.9c1,0.1,2.6-0.3,1.5-3.6c-1-3.3-5.5-9.4-5.5-9.4l-3.3-4L218.5,218.4z"/>
			<path id="XMLID_785_" class="st12" d="M229.3,205.7l12.8,17.2c0,0,7.2,13.6,5.7,20.8s-6.9,18.5-16.7,21.1
				c-9.8,2.6-21.1-18.5-21.1-19.3s0.3-29.8,0.3-29.8S226.4,213.9,229.3,205.7L229.3,205.7z"/>
			<path id="XMLID_784_" class="st5" d="M183.2,281.2c0,0-9.6,6.6-6.6,17.3c3.1,10.8,11.6,26.6,18.1,27.7c6.6,1.2,16.2-3.1,17.3-7.3
				s-4.6-23.1-4.6-23.1L183.2,281.2z"/>
			<path id="XMLID_783_" class="st5" d="M255.2,167.5c0,0,6.2-9.2,11.6-8.5s15.4,1.5,15.4,1.5s7.3,1.2,7.3,4.6s-1.5,8.1-1.5,8.1
				s0.8,6.6-0.4,7.7c-1.2,1.2-1.2,5.8-3.9,6.6s-7.7,1.2-9.2,0.4s-5.8,0.8-8.1,0.8s-10.8-2.3-11.2-5.8
				C254.8,179.5,255.2,167.5,255.2,167.5L255.2,167.5z"/>
			<path id="XMLID_782_" class="st12" d="M276.8,174.2c0,0,6.7,0.6,9.1-0.6c2.4-1.2,3.2-2.1,3.1-4.7"/>
			<path id="XMLID_781_" class="st2" d="M255.4,170c0,0,1.5,4.8,6.9,5.8s6.7,0.2,6.7,0.2s2.7,1.5,5.4,0.6c2.7-1,3.5-1.5,3.5-3.9
				s-1-11.6-1-11.6s-12.3-2.5-13.5-1.9C262.3,159.8,255.4,168.1,255.4,170L255.4,170z"/>
			<path id="XMLID_780_" class="st12" d="M255.2,167.5c0,0,6.2-9.2,11.6-8.5s15.4,1.5,15.4,1.5s7.3,1.2,7.3,4.6s-1.5,8.1-1.5,8.1
				s0.8,6.6-0.4,7.7c-1.2,1.2-1.2,5.8-3.9,6.6s-7.7,1.2-9.2,0.4s-5.8,0.8-8.1,0.8s-10.8-2.3-11.2-5.8S255.2,167.5,255.2,167.5
				L255.2,167.5z"/>
			<path id="XMLID_779_" class="st5" d="M213.6,139.8c0,0,12.7,0,17.3,5.8s9.2,17,15.4,17s9.2,0.4,9.2,0.4s4.6,6.6,4.2,12.7
				c-0.4,6.2-1.2,11.2-6.9,13.1c-5.8,1.9-11.6,2.3-11.6,2.3s-13.1,1.9-15.4-3.5C223.6,182.2,213.6,139.8,213.6,139.8L213.6,139.8z"
				/>
			<path id="XMLID_777_" class="st12" d="M183.1,281.2c0,0-9.6,6.6-6.6,17.3c3.1,10.8,11.6,26.6,18.1,27.7
				c6.6,1.2,16.2-3.1,17.3-7.3c1.2-4.2-4.6-23.1-4.6-23.1L183.1,281.2z"/>
			<path id="XMLID_776_" class="st12" d="M213.6,139.8c0,0,12.7,0,17.3,5.8s9.2,17,15.4,17s9.2,0.4,9.2,0.4s4.6,6.6,4.2,12.7
				c-0.4,6.2-1.2,11.2-6.9,13.1c-5.8,1.9-11.6,2.3-11.6,2.3s-13.1,1.9-15.4-3.5C223.6,182.2,213.6,139.8,213.6,139.8L213.6,139.8z"
				/>
			<path id="XMLID_775_" class="st12" d="M196.9,216.6c-14.2,9.5-33.6,5.6-43-8.6L118,154.1c-9.5-14.2-5.6-33.6,8.6-43
				c14.2-9.5,33.6-5.6,43,8.6l35.9,53.9C215,187.8,211.1,207.2,196.9,216.6z"/>
			<g id="XMLID_768_">
				<path id="XMLID_774_" class="st2" d="M163.5,218.5c0,0-3.9,22.9,5.4,31.3c9.2,8.5,19.5,15.2,19.5,15.2l-7.5,9
					c0,0-2.6,6.2,0.8,11.3c3.3,5.1,13.6,15.2,21.3,11c7.7-4.1,18.2-14.1,19.3-16.2c1-2.1,7.7-12.3,4.9-19
					c-2.8-6.7-13.6-20.3-13.6-20.3s-1.5-4.9,0-6.2s0.3-9.8-1-12.3c-1.3-2.6-3.6-5.7-3.6-5.7S171.4,228.8,163.5,218.5L163.5,218.5z"
					/>
				<path id="XMLID_773_" class="st5" d="M213.9,276.8c0,0,0.5,3.6-2.6,8.5s-6.2,9.6-6.2,9.6l12.7-9.2l6.4-8.2L213.9,276.8
					L213.9,276.8z"/>
				<path id="XMLID_772_" class="st5" d="M193.6,265.3c0,0-12.6,10.5-7.5,18.2s16.2,12.6,18.2,11.8c2.1-0.8-3.9,2.6-3.9,2.6
					l-4.5-0.5l-6.9-3.1l-6.6-6.9l-2.6-5.7l-0.3-4.2l0.6-3.7l7-8.6L193.6,265.3L193.6,265.3z"/>
				<path id="XMLID_771_" class="st5" d="M175,222.8c0,0-7.5,25.9,10,32.4c17.5,6.5,17.5,6.4,17.5,6.4s-5.7,8-14.7,3.3
					c-9-4.6-19.5-15.2-19.5-15.2s-6.4-9.5-5.6-18s0.2-13.4,0.2-13.4L175,222.8z"/>
				<path id="XMLID_770_" class="st12" d="M163.5,218.5c0,0-3.9,22.9,5.4,31.3c9.2,8.5,19.5,15.2,19.5,15.2l-7.5,9
					c0,0-2.6,6.2,0.8,11.3s13.6,15.2,21.3,11s18.2-14.1,19.3-16.2c1-2.1,7.7-12.3,4.9-19s-13.6-20.3-13.6-20.3s-1.5-4.9,0-6.2
					s0.3-9.8-1-12.3c-1.3-2.6-3.6-5.7-3.6-5.7S171.5,228.8,163.5,218.5L163.5,218.5z"/>
			</g>
			<path id="XMLID_767_" class="st2" d="M162.7,150.6l-2.3,43.2c0,0-1.9,24.3,8.5,27.4c10.4,3.1,44.7-2.3,52.8-7.7
				s12.7-12.7,8.1-21.2s-8.1-25.4-8.5-35.5c-0.4-10-6.2-17.3-6.2-17.3L162.7,150.6L162.7,150.6z"/>
			<path id="XMLID_766_" class="st5" d="M173.4,184.7c0,0-4.6,23.7,5.6,26.8c10.2,3.1,9.8,1.2,12.5,3.1c2.7,1.9,2.1,6.4-2.1,7.1
				c-4.2,0.8-15.6,1.2-15.6,1.2s-9.4-1.2-10.6-5c-1.2-3.9-5.6-18.5-1.9-21.8S173.4,184.7,173.4,184.7L173.4,184.7z"/>
			<path id="XMLID_765_" class="st12" d="M183.1,162l7.2,11.8l-10.1,8.4l-2.9-3.5l-5.6-16.4L183.1,162z"/>
			<g id="XMLID_760_">
				<path id="XMLID_764_" class="st5" d="M136.8,217.2c0,0-6.9,17.5-2.5,24.4s10,10.3,17.4,10.3s13.6-1.8,13.1-5.4
					c-0.5-3.6-6.9-12.6-4.1-13.4s7.5,1,8.2-1.3c0.8-2.3-0.5-8-6.4-12.1s-4.6-2.6-4.6-2.6S150.1,224.4,136.8,217.2L136.8,217.2z"/>
				<path id="XMLID_763_" class="st12" d="M136,217.2c0,0-6.1,17.5-1.8,24.4c4.4,6.9,9.2,10.3,16.7,10.3s13.6-1.8,13.1-5.4
					c-0.5-3.6-6.9-12.6-4.1-13.4s7.5,1,8.2-1.3c0.8-2.3-0.5-8-6.4-12.1s-4.6-2.6-4.6-2.6S149.4,224.4,136,217.2L136,217.2z"/>
				<path id="XMLID_762_" class="st12" d="M145.3,250.4c0,0-6.7-10.8-4.4-14.6"/>
				<path id="XMLID_761_" class="st12" d="M155.8,251.7c0,0-5.7-6.4-5.7-14.4"/>
			</g>
			<path id="XMLID_759_" class="st12" d="M162.7,151.3l-2.3,43.2c0,0-1.9,24.3,8.5,27.4c10.4,3.1,44.7-2.3,52.8-7.7
				s12.7-12.7,8.1-21.2s-8.1-25.4-8.5-35.5c-0.4-10-6.2-18.1-6.2-18.1L162.7,151.3L162.7,151.3z"/>
			<path id="XMLID_756_" class="st5" d="M177.4,161.9l9.2,14.7l-6.4,5.6l-4.1-5.4l-1.4-15.8L177.4,161.9z"/>
			<path id="XMLID_755_" class="st2" d="M162.2,150.4c0,0-6.7,0-12.3,4.6s-15.7,20.8-15.7,20.8s-4.4,14.9-1.8,27
				c2.6,12.1,5.1,18.2,10.8,18c5.7-0.3,15.4-2.1,15.9-6.2s0-16.4,4.9-20.8s13.6-11.3,14.6-15.4C179.7,174.3,179.2,149.4,162.2,150.4
				L162.2,150.4z"/>
			<path id="XMLID_753_" class="st5" d="M166.9,156.9c0,0-17,6.2-22.4,16.2s0,41.9,0,41.9l-9.8-1.3l-3.1-10.8l-0.7-12.3l2.8-15.7
				l7.5-11.3l6.7-8l5.4-2.8l6.4-3.3L166.9,156.9L166.9,156.9z"/>
			<path id="XMLID_752_" class="st12" d="M161.4,150.4c0,0-6.7,0-12.3,4.6c-5.7,4.6-15.7,20.8-15.7,20.8s-4.4,14.9-1.8,27
				c2.6,12.1,5.1,18.2,10.8,18c5.7-0.3,15.4-2.1,15.9-6.2s0-16.4,4.9-20.8c4.9-4.4,13.6-11.3,14.6-15.4
				C178.9,174.3,178.4,149.4,161.4,150.4L161.4,150.4z"/>
			
				<ellipse id="XMLID_747_" transform="matrix(0.168 -0.9858 0.9858 0.168 -68.8621 291.0352)" class="st5" cx="138" cy="186.3" rx="10.8" ry="6.4"/>
			<path id="XMLID_746_" class="st12" d="M177.8,288.1c0,0,7.6,18.8,10.8,24.7c1.6,3,6.2,9.2,10.8,8.5c3.9-0.7,10.4-4.1,12.2-5.1
				c0.1-0.1,0.3,0.1,0.2,0.2c-0.9,1.9,1.5,3.6-2.3,6.1c-2.8,1.8-8.5,4-11.9,4.4c-3.5,0.4-6.1-2.5-8-3.7
				C187.6,322,171.2,298.9,177.8,288.1z"/>
			<path id="XMLID_745_" class="st5" d="M213.6,151.3c0,0,1.9,8,1.2,11.9s-1.7,8.6-1.7,8.6l5.3,1.7l2.9-12.2l-0.1-7.8l-2.7-7.1
				L213.6,151.3L213.6,151.3z"/>
			<path id="XMLID_744_" class="st12" d="M113.4,146.6c0,0,22.6,0.3,30.3-19.5"/>
			<path id="XMLID_743_" class="st12" d="M206.4,148.6c0,0,1.2,12.1,0.6,16.3s-0.3,5.3-0.3,5.3l11.7,3.3c0,0,3.4-13,2.8-18.5
				s-6.1-15.7-6.1-15.7l-5.9,1.9L206.4,148.6z"/>
			<g id="XMLID_724_">
				<path id="XMLID_742_" class="st7" d="M145.5,124.6c3.5,16.4,13.7,29.3,26.3,35.5c7.6,3.7,16,5,24.4,3.2
					c22.3-4.8,35.9-29.9,30.2-56.1s-28.3-43.5-50.6-38.7S139.9,98.4,145.5,124.6L145.5,124.6z"/>
				<path id="XMLID_741_" class="st2" d="M138.7,120c3.5,16.4,14.6,29.1,28.5,35c8.4,3.6,17.7,4.7,27.2,2.6
					c25.1-5.4,40.9-31,35.3-57.2c-5.6-26.2-30.6-43.1-55.7-37.7S133,93.8,138.7,120z"/>
				
					<ellipse id="XMLID_740_" transform="matrix(0.9777 -0.2099 0.2099 0.9777 -19.1263 41.7462)" class="st13" cx="187.1" cy="111" rx="43.5" ry="42.9"/>
				
					<ellipse id="XMLID_739_" transform="matrix(0.9777 -0.2099 0.2099 0.9777 -19.1072 42.0085)" class="st2" cx="188.3" cy="111" rx="40.3" ry="38.4"/>
				<path id="XMLID_738_" class="st5" d="M185.2,80.1c-13.3,2.9-23,13.1-25.7,25.3L165,131c0.1,0.1,0.1,0.2,0.2,0.3
					c7.5,9.9,20.5,15.1,33.6,12.3c12.6-2.7,22-12.1,25.2-23.5l-5.9-28.5C210.6,82.2,198,77.3,185.2,80.1L185.2,80.1z"/>
				
					<ellipse id="XMLID_736_" transform="matrix(0.9777 -0.2099 0.2099 0.9777 -19.04 41.8554)" class="st14" cx="187.6" cy="110.6" rx="43.2" ry="42.9"/>
				<path id="XMLID_733_" class="st7" d="M152.2,129.4c1.1-0.2,1.9-1.4,1.6-2.5l-3.1-14.6c-0.2-1.1-1.4-1.9-2.5-1.6
					c-1.1,0.2-1.9,1.4-1.6,2.5l3.1,14.6C149.9,129,151.1,129.7,152.2,129.4z"/>
				<path id="XMLID_730_" class="st7" d="M231.2,112.3c1.1-0.2,1.9-1.4,1.6-2.5l-3.1-14.6c-0.2-1.1-1.4-1.9-2.5-1.6
					c-1.1,0.2-1.9,1.4-1.6,2.5l3.1,14.6C228.9,111.8,230.1,112.6,231.2,112.3z"/>
				<circle id="XMLID_729_" class="st2" cx="203.3" cy="86.5" r="2.7"/>
				
					<ellipse id="XMLID_728_" transform="matrix(0.9338 -0.3579 0.3579 0.9338 -20.9602 81.953)" class="st2" cx="210.9" cy="97.6" rx="4.1" ry="6.7"/>
				<path id="XMLID_727_" class="st15" d="M185.4,79.5c-13.3,2.9-23,13.1-25.7,25.3l5.5,25.6c0.1,0.1,0.1,0.2,0.2,0.3
					c7.5,9.9,20.5,15.1,33.6,12.3c12.6-2.7,22-12.1,25.2-23.5L218.5,91C210.9,81.6,198.3,76.8,185.4,79.5z"/>
				
					<ellipse id="XMLID_726_" transform="matrix(0.9777 -0.2099 0.2099 0.9777 -19.2136 42.0298)" class="st14" cx="188.4" cy="111.5" rx="40.5" ry="38.4"/>
				<path id="XMLID_725_" class="st16" d="M139.1,119.9c3.5,16.4,14.6,29.1,28.5,35c8.4,3.6,17.7,4.7,27.2,2.6
					c25.1-5.4,40.9-31,35.3-57.2s-30.6-43.1-55.7-37.7S133.5,93.7,139.1,119.9z"/>
			</g>
			<path id="XMLID_721_" class="st5" d="M223.8,198.4l-9.8,6.5l-15.9,3.5l-11.9-1.9l-5.4-24.8l9.8-8l16.2-3.4l11.6,3.3L223.8,198.4z
				"/>
			<path id="XMLID_720_" class="st2" d="M218.8,197l-7.2,5.2l-11.9,2.5l-9-1.7l-4.3-20.3l7.2-6.3l12-2.6l8.9,2.9L218.8,197z"/>
			<path id="XMLID_717_" class="st17" d="M223.5,198.5l-9.8,6.5l-16,3.4l-11.9-1.8l-5.3-24.8l9.8-8l16.1-3.5l11.7,3.4L223.5,198.5z"
				/>
			<path id="XMLID_716_" class="st16" d="M136.4,182.5"/>
			<path id="XMLID_715_" class="st5" d="M204.6,220.4l5.1,8.2c0,0,1.7,3.6,1.7,5.8s0.3,5.4,1.5,5.5s3.5,0.1,4.2-2.8
				c0.8-3,1.9-5.5-0.6-10.8c-2.6-5.3-4.9-8.2-4.9-8.2L204.6,220.4z"/>
			<path id="XMLID_714_" class="st12" d="M203.2,220.1l5.7,8.6c0,0,1.7,3.6,1.7,5.8s0.3,5.4,1.5,5.5s3.5,0.1,4.2-2.8
				s1.9-5.5-0.6-10.8c-2.6-5.3-4.9-8.2-4.9-8.2L203.2,220.1L203.2,220.1z"/>
			<path id="XMLID_160_" class="st12" d="M275.6,160.1c0,0,1.9,0.1,2.2,2.2c0.3,2.1,0.5,10.5,0.5,10.5s0.3,2.8-2.3,3
				c-2.6,0.1-4.9,0.5-4.9,0.5s-1.5-0.3-1.8-3.3c-0.3-3.1-0.5-6.8-0.5-6.8"/>
			<path id="XMLID_712_" class="st12" d="M260.2,173.8c0,0,7.1,4.8,9.4,1"/>
			<path id="XMLID_711_" class="st12" d="M278.1,164.8h3.7"/>
			<path id="XMLID_710_" class="st12" d="M272.1,177.3c0,0-1.3,2.6,1.6,3.9c2.9,1.3,11.6,3,13.1,1.3s1.9-3.7,1.9-5.1
				s-0.8-4.9-0.8-4.9"/>
			<path id="XMLID_709_" class="st12" d="M272.1,180.6c0,0-1.9,6.2,3.5,7.5s9.4,0.9,10.8-4.8"/>
			<path id="XMLID_708_" class="st12" d="M269.3,170.4c0,0,4.6,3.5,8.6-0.8"/>
			<path id="XMLID_707_" class="st12" d="M250.1,162.6c0,0,7.7,11,2.3,26.5"/>
			
				<ellipse id="XMLID_704_" transform="matrix(0.168 -0.9858 0.9858 0.168 -82.2445 438.5525)" class="st5" cx="218.7" cy="268" rx="10.8" ry="9"/>
			
				<ellipse id="XMLID_703_" transform="matrix(0.168 -0.9858 0.9858 0.168 -82.2631 438.5446)" class="st12" cx="218.7" cy="268" rx="10.8" ry="9"/>
			
				<ellipse id="XMLID_702_" transform="matrix(0.168 -0.9858 0.9858 0.168 -69.492 290.2836)" class="st12" cx="137.2" cy="186.3" rx="10.8" ry="6.4"/>
			<path id="XMLID_701_" class="st12" d="M181.1,259.7c0,0,7.4-17.6,36.4-14"/>
			<path id="XMLID_700_" class="st12" d="M177,256.4c0,0,5-15.1,36-15.7"/>
			<path id="XMLID_699_" class="st12" d="M215.9,238.9c0,0,12.6-12.2,29.5-6.2"/>
			<path id="XMLID_698_" class="st12" d="M216.8,244.8c0,0,12.6-15.7,31-7.2"/>
			<path id="XMLID_697_" class="st12" d="M133.7,211.6c0,0,11,7.5,24.3-1.3"/>
			<path id="XMLID_694_" class="st12" d="M224,175c0,0,9.6-0.2,15.2,16.4"/>
			<path id="XMLID_693_" class="st12" d="M139.6,247.9l3.9-0.2c0,0,5.6,3.5,9.2-1.2c0,0,5,3.9,9.2-3.9"/>
			<path id="XMLID_692_" class="st12" d="M276,175.7c0,0-2.8,4.5,0.2,6.4c0,0-3.8,4.4-0.6,5.8"/>
			<ellipse id="XMLID_691_" class="st2" cx="200.8" cy="312.7" rx="8.3" ry="4"/>
			<ellipse id="XMLID_690_" class="st2" cx="235.4" cy="244.1" rx="8.8" ry="5.7"/>
			
				<ellipse id="XMLID_689_" transform="matrix(0.5482 -0.8363 0.8363 0.5482 -22.4468 256.2309)" class="st2" cx="225.9" cy="148.9" rx="2.3" ry="4.1"/>
			<ellipse id="XMLID_688_" class="st2" cx="119.6" cy="133" rx="4.6" ry="9.1"/>
			<ellipse id="XMLID_687_" class="st2" cx="133.5" cy="187.2" rx="1.2" ry="3.3"/>
			<g id="XMLID_706_">
				<circle id="XMLID_134_" class="st18" cx="188.8" cy="42.8" r="3.6"/>
				<path id="XMLID_705_" class="st18" d="M187.7,36.9c-3.8-2.9-8.2-14.5-5.4-18.3c2.2-2.9,12.7-3,14.7,0c2.8,4.1-3.1,15.5-7.2,18.3
					C189.5,37.2,188.2,37.3,187.7,36.9z"/>
			</g>
			<path id="XMLID_718_" class="st12" d="M198.3,45.1l8.1-10.9"/>
			<path id="XMLID_719_" class="st12" d="M201.5,47.3l15.3-10.4"/>
			<path id="XMLID_723_" class="st12" d="M180.2,43.7l-8.1-10.9"/>
			<path id="XMLID_722_" class="st12" d="M177,46l-15.3-10.4"/>
			<g id="XMLID_196_">
				<path id="XMLID_198_" class="st7" d="M469.3,97.3c0,1.8-1.6,3.4-3.4,3.4c-1.7,0-3.3-1.5-3.3-3.2c-0.1-1.8,1.4-3.4,3.3-3.5
					C467.8,94,469.3,95.5,469.3,97.3z M465.9,95.8c-0.9,0.2-1.5,0.7-1.4,1.7c0.1,0.9,0.7,1.5,1.6,1.4s1.5-0.7,1.4-1.6
					C467.4,96.3,466.8,95.9,465.9,95.8z"/>
				<path id="XMLID_197_" class="st2" d="M465.9,95.8c0.9,0.1,1.5,0.6,1.6,1.5c0.1,1-0.5,1.5-1.4,1.6s-1.6-0.5-1.6-1.4
					C464.4,96.5,465,96,465.9,95.8z"/>
			</g>
			<g id="XMLID_841_">
				<path id="XMLID_845_" class="st7" d="M590,183.3c0,1.8-1.6,3.4-3.4,3.4c-1.7,0-3.3-1.5-3.3-3.2c-0.1-1.8,1.4-3.4,3.3-3.5
					C588.4,179.9,590,181.4,590,183.3z M586.5,181.7c-0.9,0.2-1.5,0.7-1.4,1.7c0.1,0.9,0.7,1.5,1.6,1.4c0.9-0.1,1.5-0.7,1.4-1.6
					C588,182.3,587.4,181.8,586.5,181.7L586.5,181.7z"/>
				<path id="XMLID_842_" class="st2" d="M586.5,181.7c0.9,0.1,1.5,0.6,1.6,1.5c0.1,1-0.5,1.5-1.4,1.6s-1.6-0.5-1.6-1.4
					C585,182.4,585.6,181.9,586.5,181.7L586.5,181.7z"/>
			</g>
			<g id="XMLID_846_">
				<path id="XMLID_850_" class="st7" d="M592,88.3c0,1.8-1.6,3.4-3.4,3.4c-1.7,0-3.3-1.5-3.3-3.2c-0.1-1.8,1.4-3.4,3.3-3.5
					C590.5,85,592,86.5,592,88.3z M588.6,86.8c-0.9,0.2-1.5,0.7-1.4,1.7c0.1,0.9,0.7,1.5,1.6,1.4c0.9-0.1,1.5-0.7,1.4-1.6
					C590.1,87.3,589.5,86.8,588.6,86.8z"/>
				<path id="XMLID_847_" class="st2" d="M588.6,86.8c0.9,0.1,1.5,0.6,1.6,1.5c0.1,1-0.5,1.5-1.4,1.6s-1.6-0.5-1.6-1.4
					C587.1,87.5,587.7,87,588.6,86.8z"/>
			</g>
			<g id="XMLID_851_">
				<path id="XMLID_855_" class="st7" d="M257.7,129c0,1.8-1.6,3.4-3.4,3.4c-1.7,0-3.3-1.5-3.3-3.2c-0.1-1.8,1.4-3.4,3.3-3.5
					C256.2,125.6,257.7,127.1,257.7,129z M254.3,127.4c-0.9,0.2-1.5,0.7-1.4,1.7c0.1,0.9,0.7,1.5,1.6,1.4c0.9-0.1,1.5-0.7,1.4-1.6
					C255.8,128,255.2,127.5,254.3,127.4z"/>
				<path id="XMLID_852_" class="st2" d="M254.3,127.4c0.9,0.1,1.5,0.6,1.6,1.5c0.1,1-0.5,1.5-1.4,1.6s-1.6-0.5-1.6-1.4
					C252.8,128.2,253.4,127.7,254.3,127.4z"/>
			</g>
			<g id="XMLID_856_">
				<path id="XMLID_861_" class="st7" d="M237.3,61.2c0,1.8-1.6,3.4-3.4,3.4c-1.7,0-3.3-1.5-3.3-3.2c-0.1-1.8,1.4-3.4,3.3-3.5
					C235.8,57.8,237.3,59.3,237.3,61.2z M233.9,59.6c-0.9,0.2-1.5,0.7-1.4,1.7c0.1,0.9,0.7,1.5,1.6,1.4c0.9-0.1,1.5-0.7,1.4-1.6
					C235.4,60.2,234.8,59.7,233.9,59.6z"/>
				<path id="XMLID_858_" class="st2" d="M233.9,59.6c0.9,0.1,1.5,0.6,1.6,1.5c0.1,1-0.5,1.5-1.4,1.6s-1.6-0.5-1.6-1.4
					C232.4,60.4,233,59.9,233.9,59.6z"/>
			</g>
			<g id="XMLID_880_">
				<path id="XMLID_885_" class="st7" d="M74.5,82.9c0,1.8-1.6,3.4-3.4,3.4c-1.7,0-3.3-1.5-3.3-3.2c-0.1-1.8,1.4-3.4,3.3-3.5
					S74.5,81,74.5,82.9z M71.1,81.3c-0.9,0.2-1.5,0.7-1.4,1.7c0.1,0.9,0.7,1.5,1.6,1.4s1.5-0.7,1.4-1.6S72,81.4,71.1,81.3z"/>
				<path id="XMLID_882_" class="st2" d="M71.1,81.3c0.9,0.1,1.5,0.6,1.6,1.5c0.1,1-0.5,1.5-1.4,1.6s-1.6-0.5-1.6-1.4
					C69.6,82,70.2,81.5,71.1,81.3z"/>
			</g>
			<path id="XMLID_2460_" class="st5" d="M513.1,58.4l-7.8,8.3l6.2,7.9l13.8-5.1l-3.7-3l-3.9-4L513.1,58.4z"/>
			<path id="XMLID_2459_" class="st2" d="M572.7,63.8l-1.1-6.1l-3-6.4l-0.4,0.1l-6.3,20.1h1.6l9.2-7.1V63.8z"/>
			<path id="XMLID_2426_" class="st2" d="M536.9,30.3c-5.2-0.2-10,0.5-14.6,2.1c-0.6,0.2-0.8,0.1-0.8-0.5c-0.1-1.6-0.3-3.2-0.5-4.8
				c-0.1-0.7,0.2-0.8,0.8-1c3.1-0.8,6.2-1.7,9.3-2.5c0.4-0.1,0.8-0.3,1.2,0.2C533.8,25.9,535.3,28,536.9,30.3z"/>
			<path id="XMLID_2458_" class="st5" d="M561.9,68.8c0,0,4.8,0,6.6-1.2c1.8-1.1-1.4,1.6-1.4,1.6l-4.8,2.1l-0.5-0.2L561.9,68.8
				L561.9,68.8z"/>
			<path id="XMLID_145_" class="st5" d="M521.1,32.4l-0.6-3.9l14.9-2.2l2.5,3.7l-4.2,0.3l-5,0.4l-4,1.3L521.1,32.4z"/>
			<path id="XMLID_115_" class="st5" d="M515.2,46.1l57.5,17.7l-5.6,5.4l-13,5.6l-10,1.4l-12.8-2.7l-7.5-4.1l-9-8.8l-3.2-4.8
				L515.2,46.1z"/>
			<path id="XMLID_2436_" class="st7" d="M511.2,42.3c0.4-0.9,1-3.4,1.5-4.1c0.6-0.8,1.8-0.9,2.8-1.1c1.3-0.2,2.1-0.7,2.2-2
				c0.1-0.7,0.5-1.2,1.2-1.3c1.1-0.3,1.3-0.9,1.2-2c-0.4-3.1-0.6-6.2-1-9.3c-0.1-0.9,0.1-1.2,0.9-1.4c2.9-0.7,5.9-1.5,8.8-2.3
				c0.8-0.2,1.2,0,1.7,0.6c2.4,3.4,4.9,6.8,7.3,10.2c0.5,0.6,1,1,1.8,1.1c17.2,2.2,30.7,15.1,33.6,32.1c0.2,1.1,0,1.8-0.8,2.6
				c-12.2,12-30.6,14.8-45.8,6.7c-1.1-0.6-2-0.7-3.1-0.3c-3.6,1.3-7.3,2.4-11,3.7c-0.9,0.3-1.4,0.2-2-0.5c-1.8-2.3-3.7-4.6-5.7-6.9
				c-0.6-0.6-0.6-1,0-1.7c2.2-2.4,4.3-4.8,6.4-7.2c0.5-0.6,0.7-1,0.2-1.6c-0.6-0.8-0.7-1.6-0.3-2.4c0.4-0.8,0.2-1.5-0.4-2.2
				c-0.9-1.1-2.4-1.9-1.9-3.7C509.1,48.9,510.8,43.3,511.2,42.3L511.2,42.3z M510.5,61.9c-0.2,0.2-0.5,0.6-0.5,0.6
				c-1.1,1.1-1,1.7,0,2.8c1.5,1.6,2.7,3.3,4.1,4.9c2.2,2.7,2.2,2.7,5.4,1.4l0.1-0.1c1.4-0.3,2.8-0.8,4.2-1.4
				c-1.8-1.2-3.3-2.4-4.8-3.8s-2.9-2.9-4.2-4.5C512.7,59.3,512.9,59,510.5,61.9z M563.5,67.9c-0.3,0.9-0.6,1.8-1,3
				c1.8-1,5-2.1,9.3-6.8c0.5-0.5,0.3-1,0.2-1.5c-0.4-2.3-1-4.6-1.9-6.7c-0.5-1.2-0.8-2.4-1.7-3.6C566.8,57.7,565.1,62.8,563.5,67.9
				L563.5,67.9z M514.5,49.7c-0.3,0.8-0.5,1.7-0.9,2.5c-0.3,0.7,0,0.9,0.6,1.1c3.1,1,6.1,2,9.2,2.9c3.9,1.1,8-1,9.2-4.7
				c0.2-0.7,0.3-1.4,0.4-2.1c0.6-3.5-1.3-6.9-4.8-8.2c-3-1.1-6.1-2-9.2-3c-0.8-0.3-1,0-1.2,0.7C516.8,42.5,515.7,46.1,514.5,49.7z
				 M561.6,68.9c1.8-5.7,3.7-11.3,5.6-17c0.4-1,0.2-1.8-0.4-2.7c-7.9-11.9-19-17.8-33.3-17.6c-4.7,0.1-9.2,1.2-13.5,3.1
				c-0.8,0.3-1.2,0.9-1.2,1.6c-0.1,0.9,0.8,0.7,1.3,0.9c2.8,1,5.7,1.8,8.5,2.8c4.4,1.5,6.8,5.9,5.9,10.5c-0.8,4.3-4.9,7.5-9.5,7.3
				c-1.1,0-2.1-0.5-3.1-0.6c-2.5-0.8-5.1-1.8-7.6-2.6c-0.4-0.1-1-0.5-1.3,0.1c-0.3,0.5-0.6,1.1-0.3,1.8c0.2,0.3,0.3,0.6,0.5,0.9
				c9.4,15.2,28,21.7,44.8,15.7C560.1,72.2,561.4,71.1,561.6,68.9z M536.9,30.3c-1.6-2.3-3.2-4.4-4.6-6.5c-0.4-0.5-0.7-0.3-1.2-0.2
				c-3.1,0.8-6.2,1.7-9.3,2.5c-0.5,0.1-0.9,0.3-0.8,1c0.2,1.6,0.3,3.2,0.5,4.8c0,0.6,0.3,0.7,0.8,0.5
				C527,30.8,531.8,30.1,536.9,30.3z M514.5,45.2c0,0,1.9-5.8,1.9-6c0-0.1,0.2-0.8-0.2-0.9c-0.9-0.2-2.6,0.8-2.9,1.7
				c-0.9,2.7-1.6,5.4-2.6,8.1c-0.6,1.4-0.1,2.4,0.8,3.4c0.6,0.6,0.8,0.5,1-0.2C513.2,49.2,513.9,47.2,514.5,45.2L514.5,45.2z
				 M514.7,73.2c-2-2.5-3.8-4.9-5.8-7.2c-0.3-0.3-0.9-1.2-1.3-0.5c-0.7,0.6-1.7,1.2-0.9,2.4c1.2,1.4,2.4,2.9,3.6,4.4
				C512,74.3,512,74.3,514.7,73.2L514.7,73.2z M531.1,22.3c-0.3-0.4-0.5-0.6-0.6-0.9c-0.6-1.3-1.5-1.5-2.8-1c-1.7,0.6-3.6,1-5.4,1.4
				c-1.9,0.5-2,0.7-1.6,2.6c0.1,0.5,0.3,0.6,0.8,0.5C524.6,24,527.8,23.1,531.1,22.3z"/>
			<path id="XMLID_2433_" class="st2" d="M521.9,57.2c1.1,0.2,2,0.6,3.1,0.6c4.6,0.2,8.7-3,9.5-7.3c0.9-4.6-1.6-9-5.9-10.5
				c-2.8-1-5.7-1.8-8.5-2.8c-0.5-0.2-1.3,0-1.3-0.9c0.1-0.8,0.4-1.3,1.2-1.6c4.3-1.8,8.8-3,13.5-3.1c14.3-0.2,25.4,5.7,33.3,17.6
				c0.6,0.9,0.7,1.7,0.4,2.7c-1.9,5.6-3.7,11.3-5.6,17c-0.5-0.2-1-0.1-1.4,0c-6.6,0.7-13.1-0.1-19.4-1.8c-4.3-1.2-8.4-3-12.3-5.2
				C526.1,60.5,523.7,59.2,521.9,57.2z M557.7,59.1c1.6-4.9-1-10-5.9-11.6c-4.8-1.6-10,1.1-11.6,5.9s1.1,10.1,5.9,11.7
				C550.9,66.6,556.2,63.9,557.7,59.1z"/>
			<path id="XMLID_2427_" class="st2" d="M514.5,49.7c1.1-3.6,2.3-7.2,3.4-10.7c0.2-0.7,0.4-1,1.2-0.7c3,1,6.1,1.9,9.2,3
				c3.5,1.3,5.4,4.7,4.8,8.2c-0.1,0.7-0.2,1.3-0.4,2.1c-0.8-0.2-1.3,0.3-1.9,0.6c-2.2,1.3-4.5,1.4-6.9,0.6
				C520.8,51.7,517.7,50.7,514.5,49.7L514.5,49.7z M524.5,51.4c1.6,0.5,3.2-0.3,3.7-1.9c0.5-1.5-0.4-3.1-1.9-3.6s-3.3,0.4-3.7,1.9
				S523,50.9,524.5,51.4z"/>
			<path id="XMLID_2423_" class="st5" d="M514.5,49.7c3.1,1,6.3,2,9.4,3.1c2.4,0.8,4.6,0.7,6.9-0.6c0.6-0.3,1.1-0.8,1.9-0.6
				c-1.2,3.6-5.3,5.8-9.2,4.7c-3.1-0.9-6.1-1.9-9.2-2.9c-0.6-0.2-0.9-0.5-0.6-1.1C514,51.4,514.2,50.5,514.5,49.7L514.5,49.7z"/>
			<path id="XMLID_2398_" class="st5" d="M512.6,51.2c-0.2,0.7-0.5,0.9-1,0.2c-0.9-1-1.3-1.9-0.8-3.4c1-2.6,1.8-5.4,2.6-8.1
				c0.3-0.9,2-1.8,2.9-1.7c0.3,0.1,0.3,0.6,0.2,0.9c-0.6,2-1.3,4-1.9,6C514.5,45.2,513.2,49.2,512.6,51.2z"/>
			<path id="XMLID_2397_" class="st2" d="M531.1,22.3c-3.3,0.9-6.4,1.7-9.6,2.6c-0.5,0.1-0.7,0-0.8-0.5c-0.4-1.9-0.3-2.1,1.6-2.6
				c1.8-0.5,3.6-0.9,5.4-1.4c1.3-0.4,2.2-0.3,2.8,1C530.6,21.6,530.8,21.8,531.1,22.3z"/>
			<circle id="XMLID_2396_" class="st5" cx="549" cy="56.3" r="8.5"/>
			<path id="XMLID_2387_" class="st7" d="M524.5,51.4c-1.5-0.5-2.3-2.1-1.9-3.6c0.5-1.6,2.2-2.4,3.7-1.9s2.3,2.1,1.9,3.6
				C527.7,51.1,526.1,51.9,524.5,51.4z M523.9,48.1c-0.3,1,0.1,1.8,1,2.1s1.7-0.1,2-1c0.3-1,0-1.7-1-2.1
				C525,46.9,524.3,47.3,523.9,48.1z"/>
			<path id="XMLID_2385_" class="st18" d="M523.9,48.1c0.4-0.8,1.1-1.2,2-0.9c1,0.3,1.3,1.1,1,2.1c-0.3,0.9-1.1,1.3-2,1
				C524,49.9,523.6,49.1,523.9,48.1z"/>
			<path id="XMLID_2382_" class="st7" d="M550.2,62.1c-1,0.1-2.1,0.3-3.1-0.3c0.1-0.7,0.4-1,1.3-0.9c2,0.2,3.5-0.6,4.5-2.3
				c0.3-0.5,0.5-1.1,1.2-0.6c0.8,0.5,0.1,0.9-0.1,1.3C553.3,60.8,551.9,61.7,550.2,62.1L550.2,62.1z"/>
			<path id="XMLID_2381_" class="st19" d="M488,50c-9.2-3-27.1-21.4-26.8-22.2c0.3-0.8,25.4-5.1,34.6-2.1
				c10.5,3.4,17.3,11.6,15.1,18.3S498.5,53.4,488,50L488,50z"/>
			<path id="XMLID_47_" class="st5" d="M461.2,27.8L510.9,44l-2,3.3l-3.9,2.2l-4,1.5l-4.6,0.2l-5.1-0.7l-4.6-1.2l-4.9-2.3l-5.1-3.9
				l-7.4-6.5L461.2,27.8z"/>
			<path id="XMLID_2380_" class="st20" d="M497,46c-3.6-1.2-10.2-9.4-10.1-9.8c0.1-0.4,10.3-3.1,13.9-1.9c4.1,1.3,6.6,5,5.5,8.3
				C505.3,45.7,501.1,47.3,497,46z"/>
			<circle id="XMLID_7_" class="st11" cx="549.7" cy="56.3" r="8.5"/>
			<path id="XMLID_212_" class="st21" d="M454.3,25.6c0,0-43.8-22-56.9-0.3s11,65.1,23.5,46.8s-17-67.4-54-39.7"/>
			<path id="XMLID_184_" class="st3" d="M79.1,202.9c0,0-13.2,22.7-32.8,28.2c0,0-12.5,3.9-23.6,5.4"/>
			
				<ellipse id="XMLID_218_" transform="matrix(0.9629 -0.27 0.27 0.9629 -60.6717 146.347)" class="st5" cx="501.7" cy="293.7" rx="30.5" ry="11.2"/>
			<g id="XMLID_3_">
				<g id="XMLID_131_">
					<g id="XMLID_493_">
						<path id="XMLID_488_" class="st2" d="M392.7,239.9l0.6-2.8l4.2,0.9l-0.6,2.9L392.7,239.9z"/>
						<path id="XMLID_487_" class="st5" d="M398.4,236.8l1.2-5.4l-0.1-2.6l-4.2-0.9l-1.2,2.3l-1.2,5.4c-0.1,0.7,0.3,1.4,0.9,1.5
							l3.1,0.7C397.6,238,398.3,237.5,398.4,236.8L398.4,236.8z"/>
						<path id="XMLID_486_" class="st2" d="M398.4,236.9l0.9-4.3l2.7,0.6l-0.9,4.3L398.4,236.9z"/>
						<path id="XMLID_484_" class="st18" d="M398.9,228.7l1.7-7.8c1.4-6.7,7.9-11,14.3-9.6s10.5,8,9,14.6s-7.9,11-14.3,9.6l-7.7-1.7
							l-0.7,3.1l7.7,1.7c3.9,0.9,8,0.1,11.3-2.2c3.4-2.3,5.8-5.8,6.6-9.8s0.2-8.2-2-11.7c-2.1-3.5-5.5-5.9-9.4-6.7
							c-3.9-0.9-8-0.1-11.3,2.2c-3.4,2.3-5.8,5.8-6.6,9.8l-1.7,7.8L398.9,228.7L398.9,228.7z"/>
						<path id="XMLID_498_" class="st7" d="M397.6,240.9l0.6-2.6c0.2-0.1,0.4-0.3,0.6-0.5l2.2,0.5c0.3,0.1,0.7-0.1,0.8-0.5l7,1.5
							c4.1,0.9,8.3,0.1,11.9-2.3c3.6-2.4,6-6,7-10.3c0.3-1.2,0.4-2.3,0.4-3.5c0-0.4-0.3-0.7-0.7-0.7c-0.4,0-0.7,0.3-0.7,0.7
							c0,1.1-0.1,2.1-0.4,3.2c-0.8,3.9-3.1,7.2-6.3,9.4c-3.2,2.2-7.1,2.9-10.8,2.1l-7-1.5l0.4-1.7l7,1.5c6.8,1.5,13.6-3.1,15.1-10.1
							s-2.8-14-9.6-15.5s-13.6,3.1-15.1,10.1l-1.5,7.1l-1.6-0.4l0.2-0.9c0.1-0.4-0.2-0.8-0.5-0.9s-0.8,0.2-0.8,0.6l-0.2,0.9
							c-0.3,0-0.5,0.1-0.7,0.4l-1.2,2.3c0,0.1-0.1,0.1-0.1,0.2l-1.2,5.4c-0.1,0.6,0,1.2,0.3,1.6l-0.6,2.6c-0.1,0.4,0.2,0.8,0.5,0.9
							l4.2,0.9C397.1,241.6,397.5,241.3,397.6,240.9L397.6,240.9z M400.6,236.7l-1.4-0.3l0.6-2.9l1.4,0.3L400.6,236.7z M401.3,221
							c1.4-6.3,7.4-10.3,13.4-9c6.1,1.3,9.9,7.5,8.5,13.8s-7.4,10.3-13.4,9l-7-1.5c0-0.4-0.2-0.7-0.5-0.8l-2.1-0.4l0.1-0.5v-0.1
							c0,0,0,0,0-0.1l-0.1-2.6c0-0.3-0.2-0.5-0.4-0.6L401.3,221L401.3,221z M393.6,235.8l1.2-5.3l0.9-1.8h0.1l3,0.7h0.1v1.1
							l-1.8-0.4c-0.4-0.1-0.8,0.2-0.8,0.6c-0.1,0.4,0.2,0.8,0.5,0.9l2.1,0.4l-1,4.7c-0.1,0.3-0.3,0.5-0.6,0.4l-3.1-0.7
							C393.7,236.4,393.5,236.1,393.6,235.8L393.6,235.8z M393.5,239.3l0.3-1.4l2.8,0.6l-0.3,1.4L393.5,239.3z"/>
						<path id="XMLID_475_" class="st7" d="M426.4,220.6c0,0.1,0,0.2,0,0.3c0.1,0.4,0.4,0.7,0.8,0.6c0.4-0.1,0.6-0.4,0.6-0.8
							c-0.1-0.4-0.4-0.7-0.8-0.6C426.7,220.1,426.5,220.3,426.4,220.6z"/>
						<path id="XMLID_474_" class="st7" d="M397.4,224.2c0-0.2,0-0.4-0.1-0.5c-0.1-0.2-0.3-0.3-0.4-0.3c-0.2,0-0.4,0-0.5,0.1
							c-0.2,0.1-0.3,0.3-0.3,0.5s0,0.4,0.1,0.5c0.1,0.2,0.3,0.3,0.4,0.3c0.2,0,0.4,0,0.5-0.1C397.3,224.5,397.4,224.4,397.4,224.2z"
							/>
						<path id="XMLID_473_" class="st7" d="M398.1,221.3l0.2-0.9c0.8-3.9,3.1-7.2,6.3-9.4c3.2-2.2,7.1-2.9,10.8-2.1s6.9,3.1,9,6.4
							c0.6,1,1.1,2,1.4,3.1c0.1,0.4,0.5,0.6,0.9,0.4c0.4-0.1,0.6-0.6,0.4-0.9c-0.4-1.2-0.9-2.3-1.6-3.4c-2.2-3.6-5.7-6.1-9.8-7
							c-4.1-0.9-8.3-0.1-11.9,2.3c-3.6,2.4-6,6-7,10.3l-0.2,0.9c-0.1,0.4,0.2,0.8,0.5,0.9C397.6,221.9,398,221.7,398.1,221.3
							L398.1,221.3z"/>
					</g>
					<path id="XMLID_254_" class="st7" d="M404.8,249.1c0,0,12.1-12.4,29.3-7.3c17.2,5.1,13.7,6,13.7,6S426.6,242.3,404.8,249.1z"/>
					<path id="XMLID_259_" class="st7" d="M458.4,245.6c-0.3-2.3-4.6-3.8-9.7-3.4h-0.1c3.5,0.3,6.1,1.6,6.3,3.4
						c0.3,2.3-3.6,4.5-8.6,4.9c1.1,0.1,2.2,0.1,3.4,0C454.8,250,458.7,247.8,458.4,245.6L458.4,245.6z"/>
					<path id="XMLID_492_" class="st7" d="M411.8,207.3"/>
					<g id="XMLID_122_">
						<path id="XMLID_139_" class="st7" d="M419.1,208.9l-24.7-97.4c-0.4-1.8-2.3-2.8-4-2.4c-1.8,0.4-2.8,2.3-2.4,4l23.9,94.1
							C415.3,206.5,419.1,208.9,419.1,208.9L419.1,208.9z"/>
						<path id="XMLID_192_" class="st7" d="M427.2,241l-6.4-25.3c-0.1-0.3-2.4-2.1-3.5-2.9c-1.1-0.8-4.4-1.1-4.4-1.1l-1.2-4.4
							l1.2,4.6l7.8,30.7c0.4,1.8,2.3,2.8,4,2.4C426.6,244.5,427.7,242.7,427.2,241z"/>
					</g>
					<path id="XMLID_266_" class="st7" d="M413,211.9"/>
					<g id="XMLID_371_">
						<g id="XMLID_438_">
							<path id="XMLID_461_" class="st5" d="M455.8,176.2c0,0-3.1,1.2-4.3,1.4s-3.3,1-4.9,1.5s-2.3,0.4-4.9,1.3
								c-2.6,0.8-6.2,1.9-7.5,2.3c-1.3,0.4-4.2,0.7-6.6,1.2s0.1-0.1-5,1.1c-5.1,1.2-10,2.7-11.8,3.2s-2.7,0.4-5.5,1.1
								c-2.8,0.6-4.8,1.1-6.9,1.7c-2.1,0.6-3,1-5.6,1.4s-6.1,1-9.3,1.8c-3.2,0.9-10.8,1.5-13.2,2.2c-2.4,0.7-8.9,0.8-9.4,0.7
								s0.5-2.5,0.5-2.5l96.5-23.2l0.7,1.9L455.8,176.2L455.8,176.2z"/>
							<path id="XMLID_460_" class="st2" d="M356.3,174.4c0,0,6.4-2.6,8.6-2.6c2.3,0,8.6-1.3,12.1-2.2s11.8-3.2,12.3-3.3
								s13.5-3.1,13.8-3.2c0.3-0.1,12.8-2.9,17.1-3.9s13.4-3.4,13.9-3.5s7.7-1.8,8.5-2c0.9-0.2,6.6-2.4,8.8-2.8
								c2.2-0.4,3.4,0.2,3.4,0.2l1.7,10.6c0,0,1.9,9.9,1.6,10.3c-0.2,0.4-1.4,0.7-2.8,1.2c-1.3,0.5-1.5,1-3.2,1.4s-3.4,0.7-4.4,0.9
								s-2.9,0.8-3.9,1.2c-1,0.5-9.2,2.6-10.3,2.8c-1.1,0.2-13.4,3.4-13.4,3.4l-12.1,3.2c0,0-12.9,3-13.5,3.1
								c-0.5,0.1-12,2.2-12,2.2s-10,2.7-10.6,2.8s-4.6,0.1-6.3,0.5c-1.7,0.4-4.1,0.7-4.1,0.7s-2.5-7-2.9-8.2
								c-0.4-1.3-1.1-5.2-1.2-6.1C357.5,180.3,356.3,174.4,356.3,174.4L356.3,174.4z"/>
							<path id="XMLID_459_" class="st11" d="M354.3,177.7l2-3.6l2.5,12.1c0,0,2.6,8.1,2.6,8.4c0.1,0.3-1,2.4-1,2.4s-2.5-4-2.7-5.8
								s-0.1-4-0.7-5.4C356.5,184.5,354.3,177.7,354.3,177.7L354.3,177.7z"/>
							<path id="XMLID_458_" class="st11" d="M356.3,174.1c0,0,6.4-2.6,8.6-2.6c2.3,0,8.6-1.3,12.1-2.2c3.5-0.8,11.8-3.2,12.3-3.3
								s13.5-3.1,13.8-3.2c0.3-0.1,12.8-2.9,17.1-3.9c4.3-1,13.4-3.4,13.9-3.5s7.7-1.8,8.5-2c0.9-0.2,6.6-2.4,8.8-2.8
								s3.4,0.2,3.4,0.2l1.7,10.6c0,0,1.9,9.9,1.6,10.3c-0.2,0.4-1.4,0.7-2.8,1.2c-1.3,0.5-1.5,1-3.2,1.4s-3.4,0.7-4.4,0.9
								s-2.9,0.8-3.9,1.2s-9.2,2.6-10.3,2.8c-1.1,0.2-13.4,3.4-13.4,3.4l-12.1,3.2c0,0-12.9,3-13.5,3.1c-0.5,0.1-12,2.2-12,2.2
								s-10,2.7-10.6,2.8s-4.6,0.1-6.3,0.5c-1.7,0.4-4.1,0.7-4.1,0.7s-2.5-7-2.9-8.2c-0.4-1.3-1.1-5.2-1.2-6.1
								S356.3,174.1,356.3,174.1L356.3,174.1z"/>
							<path id="XMLID_454_" class="st11" d="M379.8,175c0,0,4.6-2.4,6.2-2"/>
							<path id="XMLID_453_" class="st11" d="M382.7,169.8l6.4-1.4"/>
							<path id="XMLID_452_" class="st11" d="M358.7,184.3c0,0,2.9-0.6,5.1-1.3"/>
							<path id="XMLID_451_" class="st11" d="M363.6,192.1c0.3-0.1,2.2-0.3,2.2-0.3"/>
							<path id="XMLID_449_" class="st11" d="M377.1,190.7c0,0,2.8,0.1,3.3,0"/>
							<path id="XMLID_443_" class="st11" d="M430.5,164.1c0,0,2.6-0.6,3.4-0.8"/>
							<path id="XMLID_442_" class="st11" d="M451.1,157.8l4.4-0.7"/>
							<path id="XMLID_441_" class="st11" d="M452.4,164.3l4.3-0.8"/>
							<path id="XMLID_439_" class="st11" d="M448.5,172.2l4.5-1.1"/>
						</g>
						<g id="XMLID_372_">
							<g id="XMLID_415_">
								<path id="XMLID_437_" class="st5" d="M355.2,170.3l-0.7,1.2l3,0.2c0,0,3-1.5,4.7-1.3c1.6,0.2,3.5,0,5.7-0.5s7.8-1.8,7.8-1.8
									l7.1-1.6l46.8-11c0,0,6.1-1.1,7.4-1.7s3.1-1.1,3.1-1.1l9.2-1.9c0,0,4-0.6,4.2-1.8s-0.1-2.8-0.1-2.8l-6.6,2.9l-15.5,3.4
									l-31.2,7.8l-28.1,6.4l-7.8,1.7C364,168.3,356.1,171.6,355.2,170.3L355.2,170.3z"/>
								<path id="XMLID_436_" class="st11" d="M350.3,150.9l-1.7,2.3l2.4,11.7l3.1,6.7l1.2-1.8l-3.4-12.3L350.3,150.9z"/>
								<g id="XMLID_433_">
									<path id="XMLID_435_" class="st2" d="M350.7,151l0.9,5.8c0,0,1,2.7,1.1,3.5s2.4,10.5,2.4,10.5s3.5-0.8,4.3-0.7
										s9.7-2.3,9.7-2.3l13.8-3.2l16.1-3.3l16.2-4.8l11.3-2.6l12.8-3.4L453,148l-0.8-5.7c0,0-2.2-6.7-2.1-7.7s-1.5-6-1.5-6
										l-9.9,2.8c0,0-8.3,2.2-10.1,2.7c-1.8,0.5-29.7,6.8-29.7,6.8l-18.4,3.6c0,0-9.9,2.6-11.7,2.8S351.7,149.8,350.7,151
										L350.7,151z"/>
									<path id="XMLID_434_" class="st2" d="M350.6,150.7l0.9,5.8c0,0,1,2.7,1.1,3.5s2.4,10.5,2.4,10.5s3.5-0.8,4.3-0.7
										s9.7-2.3,9.7-2.3l13.8-3.2l16.1-3.3l16.2-4.8l11.3-2.6l12.8-3.4l13.7-2.5l-0.8-5.7c0,0-2.2-6.7-2.1-7.7s-1.5-6-1.5-6
										l-9.9,2.8c0,0-8.3,2.2-10.1,2.7c-1.8,0.5-29.7,6.8-29.7,6.8l-18.4,3.6c0,0-9.9,2.6-11.7,2.8S351.6,149.5,350.6,150.7
										L350.6,150.7z"/>
								</g>
								<g id="XMLID_416_">
									<path id="XMLID_420_" class="st22" d="M410.4,157.1c0,0-0.6-3.1,4.2-5.8"/>
									<path id="XMLID_419_" class="st11" d="M421.2,154.7c0,0-2.6-2.8,5-3.5"/>
									<path id="XMLID_418_" class="st11" d="M419.3,150c0,0,3.5-1.7,6-1.8"/>
									<path id="XMLID_417_" class="st22" d="M429.6,150c0,0,2,0.4,2.5,1.9"/>
								</g>
								<g id="XMLID_255_">
									<path id="XMLID_257_" class="st11" d="M350.7,151l0.9,5.8c0,0,1,2.7,1.1,3.5c0.2,0.7,2.4,10.5,2.4,10.5s3.5-0.8,4.3-0.7
										s9.7-2.3,9.7-2.3l13.8-3.2l16.1-3.3l16.2-4.8l11.3-2.6l12.8-3.4L453,148l-0.8-5.7c0,0-2.2-6.7-2.1-7.7s-1.5-6-1.5-6
										l-9.9,2.8c0,0-8.3,2.2-10.1,2.7c-1.8,0.5-29.7,6.8-29.7,6.8l-18.4,3.6c0,0-9.9,2.6-11.7,2.8S351.7,149.8,350.7,151
										L350.7,151z"/>
									<path id="XMLID_256_" class="st11" d="M350.6,150.7l0.9,5.8c0,0,1,2.7,1.1,3.5s2.4,10.5,2.4,10.5s3.5-0.8,4.3-0.7
										s9.7-2.3,9.7-2.3l13.8-3.2l16.1-3.3l16.2-4.8l11.3-2.6l12.8-3.4l13.7-2.5l-0.8-5.7c0,0-2.2-6.7-2.1-7.7s-1.5-6-1.5-6
										l-9.9,2.8c0,0-8.3,2.2-10.1,2.7c-1.8,0.5-29.7,6.8-29.7,6.8l-18.4,3.6c0,0-9.9,2.6-11.7,2.8S351.6,149.5,350.6,150.7
										L350.6,150.7z"/>
								</g>
								<g id="XMLID_427_">
									<path id="XMLID_432_" class="st23" d="M367.5,160.8c-0.4-0.6-2.8,0-2.5,1.2s2.2,8.6,2.4,9.2s0.1,2.7,0.7,3.1
										c0.7,0.4,3-0.5,3.1-1.8C371.2,171.1,369.1,163.1,367.5,160.8z"/>
									<path id="XMLID_431_" class="st22" d="M368,160.8c-0.4-0.6-2.8,0-2.5,1.2s2.2,8.6,2.4,9.2s0.1,2.7,0.7,3.1
										c0.7,0.4,3-0.5,3.1-1.8S369.5,163.1,368,160.8z"/>
									<path id="XMLID_430_" class="st22" d="M368.2,161.5c0,0,0.7,2.5-1.8,4.4"/>
									<path id="XMLID_429_" class="st22" d="M370,166.2c0,0,0.7,2.5-1.8,4.4"/>
									<path id="XMLID_428_" class="st22" d="M371.2,171.1c0,0,0.3,1.4-2.9,2.6"/>
								</g>
								<g id="XMLID_421_">
									<path id="XMLID_426_" class="st23" d="M434.5,145.5c-0.4-0.6-2.8,0-2.5,1.2s2.2,8.6,2.4,9.2s0.1,2.7,0.7,3.1
										c0.7,0.4,3-0.5,3.1-1.8C438.1,155.8,436,147.7,434.5,145.5z"/>
									<path id="XMLID_425_" class="st22" d="M434.9,145.5c-0.4-0.6-2.8,0-2.5,1.2s2.2,8.6,2.4,9.2s0.1,2.7,0.7,3.1
										c0.7,0.4,3-0.5,3.1-1.8C438.6,155.8,436.5,147.7,434.9,145.5z"/>
									<path id="XMLID_424_" class="st22" d="M435.2,146.1c0,0,0.7,2.5-1.8,4.4"/>
									<path id="XMLID_423_" class="st22" d="M437,150.8c0,0,0.7,2.5-1.8,4.4"/>
									<path id="XMLID_422_" class="st22" d="M438.2,155.7c0,0,0.3,1.4-2.9,2.6"/>
								</g>
							</g>
							<path id="XMLID_414_" class="st22" d="M399.7,147.7l8.6-2.6"/>
							<path id="XMLID_413_" class="st22" d="M408.6,139.9c0,0,3.8-0.8,5.2-1.1"/>
							<path id="XMLID_412_" class="st11" d="M354.5,151.3l3.1-0.6"/>
							<path id="XMLID_411_" class="st11" d="M352.1,158.3l4.8-0.7"/>
							<path id="XMLID_410_" class="st11" d="M355.4,164l2.8-0.6"/>
							<path id="XMLID_409_" class="st11" d="M379.8,160.1l8.6-1.9"/>
							<path id="XMLID_408_" class="st11" d="M376.8,147.3l3.9-0.9"/>
							<path id="XMLID_407_" class="st11" d="M447.1,141.4l4.8-1"/>
							<path id="XMLID_406_" class="st11" d="M444.6,133.9l3.1-0.7"/>
							<g id="XMLID_373_">
								<path id="XMLID_405_" class="st2" d="M344.4,126.5l14.5-3.8l17-2.8l18.8-4.4l22.9-5.3l12.8-2.9l5.8-1.2l4.4-0.9h3.8l2.5,9.4
									l1.3,6.9l-0.3,3.1l-20.7,6.2l-12,1.7l-24.1,5.6l-13.6,3.5l-9,1.8l-7.4,1.4l-7,1.4l-5.2,0.1l-2.7-12L344.4,126.5z"/>
								<path id="XMLID_404_" class="st11" d="M344.4,126.4l-1.9,3l2.3,10.6l2.4,7.5l0.8,0.7l1.4-2l-1.5-4.5l-0.9-5.1l-1.4-5.2
									L344.4,126.4z"/>
								<path id="XMLID_403_" class="st5" d="M349.1,145.9l-0.7,2.2l4.8-1c0,0,4.7,0.5,8-0.3s10.6-2.6,10.6-2.6l39-8.2l17.6-4.2
									l14.8-3.8l3.6-0.8l1.7-2.9l-6.7,1.7l-10.2,3.2c0,0-10.1,1.9-12.5,2.1c-2.3,0.2-16,3.4-16,3.4l-34.6,7.3
									C368.5,141.9,349.7,146.1,349.1,145.9L349.1,145.9z"/>
								<path id="XMLID_402_" class="st11" d="M344.5,126.2l14.4-3.8l17.1-2.7l18.8-4.4l22.8-5.3l12.9-2.9l5.8-1.3l4.4-0.9h3.8
									l2.4,9.5l1.3,6.9l-0.3,3.1l-20.6,6.2l-12,1.6l-24.2,5.7l-13.6,3.5l-8.9,1.7l-7.5,1.4l-7,1.4L349,146l-2.7-12L344.5,126.2z"
									/>
								<g id="XMLID_396_">
									<path id="XMLID_401_" class="st23" d="M362.7,137.2c-0.4-0.6-2.8,0-2.5,1.2s2.2,8.6,2.4,9.2s0.1,2.7,0.7,3.1
										c0.7,0.4,3-0.5,3.1-1.8S364.2,139.4,362.7,137.2z"/>
									<path id="XMLID_400_" class="st22" d="M363.1,137.2c-0.4-0.6-2.8,0-2.5,1.2s2.2,8.6,2.4,9.2s0.1,2.7,0.7,3.1
										c0.7,0.4,3-0.5,3.1-1.8C366.8,147.5,364.7,139.4,363.1,137.2z"/>
									<path id="XMLID_399_" class="st22" d="M363.4,137.8c0,0,0.7,2.5-1.8,4.4"/>
									<path id="XMLID_398_" class="st22" d="M365.2,142.6c0,0,0.7,2.5-1.8,4.4"/>
									<path id="XMLID_397_" class="st22" d="M366.4,147.4c0,0,0.3,1.4-2.9,2.6"/>
								</g>
								<g id="XMLID_390_">
									<path id="XMLID_395_" class="st23" d="M429,121.6c-0.4-0.6-2.8,0-2.5,1.2s2.2,8.6,2.4,9.2c0.1,0.6,0.1,2.7,0.7,3.1
										c0.7,0.4,3-0.5,3.1-1.8C432.7,131.9,430.6,123.8,429,121.6z"/>
									<path id="XMLID_394_" class="st22" d="M429.5,121.6c-0.4-0.6-2.8,0-2.5,1.2s2.2,8.6,2.4,9.2c0.1,0.6,0.1,2.7,0.7,3.1
										c0.7,0.4,3-0.5,3.1-1.8C433.1,131.9,431,123.8,429.5,121.6z"/>
									<path id="XMLID_393_" class="st22" d="M429.7,122.2c0,0,0.7,2.5-1.8,4.4"/>
									<path id="XMLID_392_" class="st22" d="M431.5,127c0,0,0.7,2.5-1.8,4.4"/>
									<path id="XMLID_391_" class="st22" d="M432.7,131.8c0,0,0.3,1.4-2.9,2.6"/>
								</g>
								<path id="XMLID_380_" class="st11" d="M351.6,134.1l5.8-1.4"/>
								<path id="XMLID_379_" class="st11" d="M353.2,140.9l5.2-1"/>
								<path id="XMLID_378_" class="st11" d="M362.1,124.6l2.5-0.8"/>
								<path id="XMLID_377_" class="st11" d="M437.3,111.9l5.8-0.8"/>
								<path id="XMLID_376_" class="st11" d="M440.3,123.9l5.7-1.4"/>
								<path id="XMLID_375_" class="st11" d="M427.2,119.1l2.6-0.6"/>
								<path id="XMLID_374_" class="st11" d="M372.6,136l3.9-1"/>
							</g>
						</g>
					</g>
					<path id="XMLID_465_" class="st2" d="M413,165.3l-14.4,3.7c-6.4,1.6-13-2.3-14.6-8.7l-3.7-14.4c-1.6-6.4,2.3-13,8.7-14.6
						l14.4-3.7c6.4-1.6,13,2.3,14.6,8.7l3.7,14.4C423.3,157.1,419.4,163.6,413,165.3z"/>
					<path id="XMLID_497_" class="st5" d="M383.3,134.1l6.1,26.4c0,0,4.7,5.8,18.5,1.9c13.7-3.9,14.4-4.7,14.4-4.7l-1,3.6l-2.4,2.5
						l-9,2.5l-17,4.1l-5.3-2.2l-2.5-3.1l-5.9-25.4C379.2,139.7,379.4,132.9,383.3,134.1L383.3,134.1z"/>
					<g id="XMLID_33_">
						<path id="XMLID_37_" class="st12" d="M389.1,138.2c1.8-0.8,4.3-1.7,7.9-2.6c3.7-0.9,6.5-0.9,8.6,0.1c2,0.9,3.7,2.8,4.4,5.4
							s0.4,5-0.8,6.9c-1.5,2.4-4.3,4-7.8,4.9c-0.8,0.2-1.5,0.3-2.1,0.4l2.4,9.4l-5.9,1.5L389.1,138.2L389.1,138.2z M398.1,148.6
							c0.5,0,1.2-0.1,2-0.3c3.2-0.8,4.7-2.9,4-5.6c-0.6-2.4-2.7-3.4-5.6-2.7c-1.2,0.3-2,0.6-2.4,0.9L398.1,148.6L398.1,148.6z"/>
					</g>
					<path id="XMLID_285_" class="st24" d="M363.8,162.4c0,0,1.9-3.6,6.4-1.5"/>
					<path id="XMLID_264_" class="st24" d="M431,147.5c0,0,1.9-3.6,6.4-1.5"/>
					<path id="XMLID_463_" class="st24" d="M432,121.6c-4.6-2-6.4,1.5-6.4,1.5"/>
					<path id="XMLID_464_" class="st24" d="M359.1,138.7c0,0,1.9-3.6,6.4-1.5"/>
					<path id="XMLID_466_" class="st24" d="M433.5,158c0,0,2.9,2.7,6.6-0.7"/>
					<path id="XMLID_468_" class="st24" d="M366.3,173.6c0,0,2.9,2.7,6.6-0.7"/>
					<path id="XMLID_240_" class="st25" d="M413,165.9l-14.4,3.7c-6.4,1.6-13-2.3-14.6-8.7l-3.7-14.4c-1.6-6.4,2.3-13,8.7-14.6
						l14.4-3.7c6.4-1.6,13,2.3,14.6,8.7l3.7,14.4C423.3,157.7,419.4,164.3,413,165.9z"/>
				</g>
				<g id="XMLID_199_">
					<path id="XMLID_840_" class="st7" d="M439.4,194.8c0,1.8-1.6,3.4-3.4,3.4c-1.7,0-3.3-1.5-3.3-3.2c-0.1-1.8,1.4-3.4,3.3-3.5
						C437.8,191.4,439.4,192.9,439.4,194.8z M435.9,193.2c-0.9,0.2-1.5,0.7-1.4,1.7c0.1,0.9,0.7,1.5,1.6,1.4s1.5-0.7,1.4-1.6
						C437.5,193.8,436.9,193.3,435.9,193.2L435.9,193.2z"/>
					<path id="XMLID_216_" class="st2" d="M435.9,193.2c0.9,0.1,1.5,0.6,1.6,1.5c0.1,1-0.5,1.5-1.4,1.6s-1.6-0.5-1.6-1.4
						S435.1,193.5,435.9,193.2L435.9,193.2z"/>
				</g>
				<path id="XMLID_149_" class="st11" d="M360.9,197.1c0,0,17.8-2,22.6-2.9c4.9-0.9,57.1-13.4,57.1-13.4l15.2-4.6l2.4-4.1"/>
				<path id="XMLID_151_" class="st11" d="M349,146l-0.7,2.1l14.2-1.8"/>
				<path id="XMLID_152_" class="st11" d="M366.5,145.1l12.9-2.3"/>
				<path id="XMLID_158_" class="st11" d="M417.9,134.1l11-2.1"/>
				<path id="XMLID_150_" class="st11" d="M432.8,130l14.1-3.5l1-2.1"/>
			</g>
			
				<ellipse id="XMLID_154_" transform="matrix(0.102 -0.9948 0.9948 0.102 83.5669 518.4841)" class="st26" cx="329" cy="213" rx="1.2" ry="2.2"/>
			
				<ellipse id="XMLID_153_" transform="matrix(0.123 -0.9924 0.9924 0.123 76.8376 496.4492)" class="st5" cx="319.3" cy="204.7" rx="5" ry="12.6"/>
			<path id="XMLID_146_" class="st7" d="M307,203.3c0.3-2.4,5-3.9,10.9-3.6c-4.4,0.3-7.5,1.6-7.8,3.6c-0.3,2.7,5,5.6,11.9,6.5
				c0.7,0.1,1.5,0.2,2.2,0.2c-1.6,0.1-3.4,0-5.3-0.2C311.9,209,306.6,206.1,307,203.3L307,203.3z"/>
			
				<ellipse id="XMLID_125_" transform="matrix(0.102 -0.9948 0.9948 0.102 82.9809 502.0343)" class="st26" cx="319.6" cy="205.1" rx="5" ry="13"/>
			<path id="XMLID_52_" class="st7" d="M333.5,209.9c0.1-1,1.8-1.6,3.7-1.4c-1.3,0.1-2.3,0.7-2.4,1.4c-0.1,0.9,1.4,1.9,3.3,2
				c-0.4,0-0.8,0-1.3,0C334.8,211.8,333.4,210.9,333.5,209.9L333.5,209.9z"/>
			
				<ellipse id="XMLID_46_" transform="matrix(0.102 -0.9948 0.9948 0.102 83.5669 518.4841)" class="st5" cx="329" cy="213" rx="1.2" ry="2.2"/>
			<path id="XMLID_8_" class="st7" d="M328.7,213.2c1.1,0.1,2.1-0.2,2.4-0.6c0.1,0.2,0.2,0.3,0.2,0.5c-0.1,0.7-1.2,1.1-2.6,1
				s-2.4-0.8-2.3-1.4c0-0.1,0.1-0.2,0.2-0.4C326.9,212.8,327.7,213.1,328.7,213.2L328.7,213.2z"/>
			<path id="XMLID_5_" class="st27" d="M488,50c-9.2-3-27.1-21.4-26.8-22.2c0.3-0.8,25.4-5.1,34.6-2.1c10.5,3.4,17.3,11.6,15.1,18.3
				S498.5,53.4,488,50L488,50z"/>
		</g>
	</g>
</g>
</svg>
