<?xml version="1.0" encoding="utf-8"?>
<!-- Generator: Adobe Illustrator 22.1.0, SVG Export Plug-In . SVG Version: 6.00 Build 0)  -->
<svg version="1.1" id="Vrstva_1" xmlns="http://www.w3.org/2000/svg" xmlns:xlink="http://www.w3.org/1999/xlink" x="0px" y="0px"
	 viewBox="0 0 230 68" style="enable-background:new 0 0 230 68;" xml:space="preserve">
<style type="text/css">
	.st0{fill:url(#SVGID_1_);}
	.st1{fill:#585A5B;}
</style>
<linearGradient id="SVGID_1_" gradientUnits="userSpaceOnUse" x1="187.5973" y1="60.2009" x2="212.817" y2="23.1633">
	<stop  offset="0" style="stop-color:#9FBE13"/>
	<stop  offset="1" style="stop-color:#006E2B"/>
</linearGradient>
<path class="st0" d="M192.8,66.8c2.2-0.2,4.5-0.4,6.4-0.8c16.5-3.3,29.1-16.6,30.4-33.2c0.6-8.2-1.9-18.2-10.1-25.1
	c-5.2-4.4-11.5-6.8-20.2-7.2c6.1,1.2,10.4,3.8,13.3,7.1c6.8,7.7,6.1,19.1,3.6,26.2C212.3,44.8,200.7,60,180.7,67
	C181.9,67,187.4,67.1,192.8,66.8"/>
<path class="st1" d="M66.8,0.8l13,0l-9.7,66.4l-19.1,0l5.1-34.9L38.8,53.7h-2.4L24.9,32.3l-5.1,34.9l-18.9,0L9.9,7.7
	c0.8-4,4.3-6.9,8.5-6.9l11.1,0l12,22.3C45.5,18.2,55,6.7,56,5.5C58.9,2.1,62,0.8,66.8,0.8 M208.3,10.6c-4.1-6.4-11-9.9-19.7-9.9
	c-2.8,0-17.9,0-17.9,0c-4.2,0-7.7,3-8.5,6.9l-8.8,59.6c13.3-1.1,29.9-7.7,42.4-18.1c-3.1,1.3-6.7,1.7-11.7,1.7c-4.8,0-9.1,0-9.1,0
	l5-33.9h9.3c6.7,0,10.5,1.4,13.5,4.9c2.7,3.2,4,7.4,3.5,12.5c-0.2,2.1-0.7,3.9-1.2,5.4c2.2-2.9,3.8-5.8,5-9.2
	C212.6,23,211.7,16,208.3,10.6 M140.9,0.7c-4.2,0-7.7,3-8.5,6.9c0,0-2.4,16.2-3.9,26.2L107.8,0.7l-9.1,0c-4.2,0-7.7,3-8.5,6.9
	l-8.7,59.5l18.4,0l5.2-35l21.7,35h15.5l9.7-66.4L140.9,0.7z"/>
<g>
	<g>
		<g>
			<defs>
				<path id="SVGID_2_" d="M219.4,7.7c-5.2-4.4-11.5-6.8-20.2-7.2c6.1,1.2,10.4,3.8,13.3,7.1c7.7,8.4,9.6,20.1,6.9,31
					c-1.4,5.7-4.5,11.4-8.2,15.9c-2.9,3.5-4.8,5.7-8.9,8.5c-3.1,2.1-6.4,3.3-9.6,3.8c2.2-0.2,4.5-0.4,6.4-0.8
					c16.5-3.3,29.1-16.6,30.4-33.2C230.2,24.7,227.6,14.7,219.4,7.7"/>
			</defs>
			<linearGradient id="SVGID_3_" gradientUnits="userSpaceOnUse" x1="211.0329" y1="55.4316" x2="212.7386" y2="2.7993">
				<stop  offset="0" style="stop-color:#9FBE13"/>
				<stop  offset="1" style="stop-color:#006E2B"/>
			</linearGradient>
			<use xlink:href="#SVGID_2_"  style="overflow:visible;fill:url(#SVGID_3_);"/>
			<clipPath id="SVGID_4_">
				<use xlink:href="#SVGID_2_"  style="overflow:visible;"/>
			</clipPath>
		</g>
	</g>
</g>
</svg>
