<?xml version="1.0" encoding="UTF-8"?>
<svg width="146px" height="81px" viewBox="0 0 146 81" version="1.1" xmlns="http://www.w3.org/2000/svg" xmlns:xlink="http://www.w3.org/1999/xlink">
    <!-- Generator: Sketch 53.2 (72643) - https://sketchapp.com -->
    <title>Group 9</title>
    <desc>Created with Sketch.</desc>
    <g id="Landing-page" stroke="none" stroke-width="1" fill="none" fill-rule="evenodd">
        <g id="Landing-page-desktop" transform="translate(-128.000000, -2674.000000)">
            <g id="Group-9" transform="translate(128.000000, 2674.000000)">
                <polygon id="Fill-1" fill="#2B4762" points="0 81 146 81 146 0 0 0"></polygon>
                <g id="Group-8" transform="translate(12.000000, 15.000000)" fill="#FFFFFF">
                    <path d="M22.851023,0.919555556 L15.5219586,0.925851852 C13.5667868,0.925851852 11.9832561,2.48992593 11.9832561,4.41733333 L11.9832561,45.0191852 C11.9832561,45.6621481 11.4542807,46.1851111 10.8075874,46.1851111 C10.1522163,46.1851111 9.6262592,45.686963 9.6262592,45.0414074 L9.6262592,5.00066667 C9.6262592,2.42659259 7.51450767,0.337333333 4.90811503,0.337333333 C2.30247699,0.337333333 0.193366564,2.42659259 0.193366564,5.00066667 L0.193366564,47.5506667 C0.193366564,48.5158519 0.984565951,49.301037 1.96139724,49.301037 C2.93822853,49.301037 3.72716411,48.5158519 3.72716411,47.5506667 L3.72716411,5.00066667 C3.72716411,4.354 4.25689417,3.83511111 4.90811503,3.83511111 C5.56046779,3.83511111 6.08793405,4.354 6.08793405,5.00066667 L6.08793405,45.0191852 C6.08793405,47.5936296 8.20119479,49.6780741 10.8075874,49.6780741 C13.4086979,49.6780741 15.524977,47.5973333 15.524977,45.0254815 L15.524977,5.58288889 C15.524977,4.93955556 16.0411242,4.41733333 16.6915905,4.41733333 L22.851023,4.41437037 C29.843158,4.41437037 35.508704,10.0151111 35.508704,16.9225185 C35.508704,23.8254815 29.843158,29.4291852 22.851023,29.4291852 L21.0260199,29.4291852 C20.3706488,29.4291852 19.8446917,28.9062222 19.8446917,28.2632593 C19.8446917,27.6206667 20.3706488,27.0999259 21.0260199,27.0999259 L22.8800752,27.0999259 C28.5569402,27.0843704 33.1509525,22.5321481 33.1509525,16.9225185 C33.1509525,11.3025185 28.540339,6.74622222 22.851023,6.74622222 L18.0751518,6.74622222 C17.0983206,6.74622222 16.3082531,7.52955556 16.3082531,8.49585185 C16.3082531,9.45659259 17.0983206,10.2388148 18.0751518,10.2388148 L22.851023,10.2388148 C26.5870537,10.2388148 29.6145138,13.2343704 29.6145138,16.9225185 C29.6145138,20.6065926 26.59875,23.5925185 22.8702653,23.6017778 L21.0260199,23.6017778 C18.4173635,23.6017778 16.3082531,25.6888148 16.3082531,28.2632593 C16.3082531,30.8354815 18.4173635,32.9228889 21.0260199,32.9228889 L22.851023,32.9228889 C31.7975752,32.9228889 39.0462745,25.7606667 39.0462745,16.9225185 C39.0462745,8.08733333 31.7975752,0.919555556 22.851023,0.919555556" id="Fill-2"></path>
                    <path d="M117.970206,39.779 L104.032344,39.7827037 C103.061549,39.791963 102.280537,40.5712222 102.280537,41.5293704 C102.280537,42.4871481 103.061549,43.2630741 104.032344,43.2727037 L117.970206,43.2727037 C118.618408,43.2727037 119.148515,43.7956667 119.148515,44.4408519 C119.148515,45.0845556 118.618408,45.6034444 117.970206,45.6034444 L91.0271687,45.6034444 C90.3759479,45.6034444 89.8526319,45.0904815 89.8526319,44.4482593 L89.8526319,5.00159259 C89.8526319,4.35640741 90.3759479,3.83640741 91.0271687,3.83640741 C91.6802761,3.83640741 92.2084969,4.35640741 92.2084969,5.00159259 L92.2084969,40.1627037 C92.2084969,42.7352963 94.3194939,44.821963 96.9262638,44.821963 C99.5285061,44.821963 101.64139,42.7408519 101.64139,40.166037 L101.64139,29.4293704 L116.212362,29.4293704 C118.814227,29.4293704 120.930129,27.3427037 120.930129,24.7675185 C120.930129,22.2230741 118.858371,20.1512222 116.288954,20.1112222 L101.64139,20.1086296 L101.64139,10.2408519 L117.379353,10.2408519 C117.479337,10.2408519 122.096742,10.3330741 122.096742,5.58011111 C122.096742,3.00937037 119.986123,0.924185185 117.379353,0.924185185 L97.8272577,0.926777778 C96.8568405,0.933814815 96.070546,1.71566667 96.070546,2.67122222 C96.070546,3.64048148 96.8647638,4.4227037 97.8400859,4.4227037 C97.8646104,4.4227037 117.379353,4.41640741 117.379353,4.41640741 C118.033969,4.41640741 118.563322,4.93825926 118.563322,5.58011111 C118.563322,6.2227037 118.033969,6.74492593 117.379353,6.74492593 L99.8748681,6.74825926 C98.9044509,6.74825926 98.1170245,7.52492593 98.1045736,8.47974074 L98.1045736,21.861963 C98.1045736,22.8271481 98.8980368,23.609 99.8748681,23.609 C99.8963742,23.609 116.212362,23.6071481 116.212362,23.6071481 C116.862074,23.6071481 117.390294,24.1256667 117.390294,24.7675185 C117.390294,25.4130741 116.862074,25.9327037 116.212362,25.9327037 L99.8748681,25.9327037 C98.8980368,25.936037 98.1109877,26.7182593 98.1109877,27.6823333 L98.1045736,40.1627037 C98.1045736,40.8056667 97.5763528,41.3278889 96.9262638,41.3278889 C96.2784387,41.3278889 95.7483313,40.811963 95.7483313,40.166037 L95.7483313,5.00159259 C95.7483313,2.42455556 93.6324294,0.33862963 91.0271687,0.33862963 C88.4234172,0.33862963 86.3135521,2.42455556 86.3135521,5.00159259 L86.3135521,44.4386296 C86.3135521,47.0134444 88.4234172,49.1001111 91.0271687,49.1001111 L117.970206,49.1001111 C120.578862,49.1001111 122.68835,47.0134444 122.68835,44.4408519 C122.68835,41.8664074 120.578862,39.779 117.970206,39.779" id="Fill-4"></path>
                    <path d="M81.6844887,42.4746667 L72.8658414,28.9246667 C77.6337893,26.4346667 80.8906482,21.4839259 80.8906482,15.7783704 C80.8906482,7.57725926 74.1573414,0.919481481 65.8491819,0.919481481 L57.4108537,0.925777778 C55.4564365,0.925777778 53.6755776,2.48985185 53.6755776,4.42096296 L53.6755776,45.0191111 C53.6755776,45.6620741 53.1458475,46.1854074 52.4991543,46.1854074 C51.8468015,46.1854074 51.3178261,45.6620741 51.3178261,45.0191111 L51.3178261,5.00059259 C51.3178261,2.42651852 49.2060745,0.337259259 46.6004365,0.337259259 C43.9951758,0.337259259 41.8860653,2.42651852 41.8860653,5.00059259 L41.8860653,47.5542963 C41.8860653,48.5161481 42.6761328,49.3013333 43.6525868,49.3013333 C44.63055,49.3013333 45.422504,48.5161481 45.422504,47.5542963 L45.422504,5.00059259 C45.422504,4.3542963 45.9480837,3.83503704 46.6004365,3.83503704 C47.252412,3.83503704 47.7798782,4.3542963 47.7798782,5.00059259 L47.7798782,45.0191111 C47.7798782,47.5935556 49.8935163,49.678 52.4991543,49.678 C55.1002647,49.678 57.2139028,47.6013333 57.2139028,45.0257778 L57.2172985,5.58318519 C57.2172985,4.93985185 57.7394825,4.41762963 58.3869304,4.41762963 L65.8491819,4.41762963 C72.1980193,4.41762963 77.3504365,9.50466667 77.3504365,15.7783704 C77.3504365,20.9831852 73.8287126,25.3657778 69.0053015,26.7131852 C68.5133015,26.8587407 68.1544887,27.3083704 68.1544887,27.8339259 C68.1544887,28.075037 68.2265531,28.298 68.3495531,28.4798519 L78.7302248,44.3976296 C79.0826236,44.9365185 78.932458,45.6539259 78.3929181,46.0057778 C77.8424365,46.3646667 77.1104733,46.2094815 76.7584518,45.6720741 L63.0658353,24.8228148 L65.8491819,24.8168889 C70.9004825,24.8168889 74.9949488,20.7746667 74.9949488,15.7783704 C74.9949488,10.790963 70.9004825,6.74651852 65.8491819,6.74651852 L59.7678506,6.74651852 C58.7838506,6.74651852 58.0009518,7.52948148 58.0009518,8.49577778 C58.0009518,9.45688889 58.786869,10.2387407 59.7648322,10.2417037 L65.8491819,10.2387407 C68.9411604,10.2387407 71.4543598,12.7239259 71.4543598,15.7783704 C71.4543598,18.8402222 68.9411604,21.3220741 65.8491819,21.3220741 L65.8491819,21.3254074 C65.8491819,21.3254074 59.789734,21.3220741 59.7712463,21.3220741 C58.7895101,21.3220741 58.0009518,22.1042963 58.0009518,23.0702222 C58.0009518,23.4905926 58.1488537,23.8735556 58.3982494,24.1754074 L73.7981512,47.5883704 C75.2281206,49.7394815 78.1506911,50.3394815 80.3299794,48.9298519 C82.5088905,47.5176296 83.1140807,44.6272593 81.6844887,42.4746667" id="Fill-6"></path>
                </g>
            </g>
        </g>
    </g>
</svg>