<?xml version="1.0" encoding="utf-8"?>
<!-- Generator: Adobe Illustrator 22.1.0, SVG Export Plug-In . SVG Version: 6.00 Build 0)  -->
<svg version="1.1" id="Vrstva_1" xmlns="http://www.w3.org/2000/svg" xmlns:xlink="http://www.w3.org/1999/xlink" x="0px" y="0px"
	 viewBox="0 0 369.2 143.7" style="enable-background:new 0 0 369.2 143.7;" xml:space="preserve">
<style type="text/css">
	.st0{fill:#8BA6AB;}
	.st1{fill:#FFFFFF;}
	.st2{fill:#CB4C2C;}
</style>
<g>
	<g>
		<path class="st0" d="M134.1,1.7l8.6-1.7l0.3,7.7c6-4.9,13-7.7,19.4-7.7c9.2,0,16.8,5.9,16.8,19.2v35.9h-9V19.9
			c0-9.2-4.5-12.6-10.6-12.6c-5.1,0-11.4,2.8-16.5,6.8v41h-9"/>
		<path class="st0" d="M223.7,23.8v-5.1c0-7.8-3.7-11.7-10.9-11.7c-5,0-10.9,1.4-18.4,4.4l-1.4-7c6.6-2.7,13.5-4.1,20.6-4.3
			c12.4,0,19,6.3,19,19.2v35.9h-8.5l-0.4-6.8c-4.6,4-11.5,8.1-18.7,8.1c-9.3,0-15.6-5.2-15.6-13.9C189.4,29.9,203.6,25.4,223.7,23.8
			"/>
		<path class="st1" d="M207,49.2c6.4,0,13.9-4.8,16.6-7.4V29.4c-17.1,1.9-25,5.6-25.1,12.8C198.5,46.8,201.4,49.2,207,49.2z"/>
		<path class="st0" d="M293.5,55.1h-9v-41c-5.1-4.1-11.4-6.8-16.5-6.8c-6.1,0-10.6,3.4-10.6,12.6v35.2h-9V19.2
			C248.5,5.9,256,0,265.2,0c6.4,0,13.5,2.8,19.3,7.7l0.3-7.7l8.6,1.7"/>
		<path class="st0" d="M331.5,0c15.4,0,26.6,11.4,26.6,28.2s-11.2,28.2-26.6,28.2S304.9,45,304.9,28.2S316.1,0,331.5,0"/>
		<path class="st1" d="M331.5,49.4c10,0,17.2-8.5,17.2-21.2S341.6,7,331.5,7s-17.3,8.5-17.3,21.2S321.5,49.4,331.5,49.4z"/>
		<path class="st2" d="M145,92.3c8.6,0,13.7,6.3,12.2,17.6H132v1.2c0,15.7,12.9,18.2,24.1,12.7l0.6,1.9c-3.3,1.8-7.1,2.7-10.9,2.8
			c-9,0-16.1-5.8-16.1-17.4C129.6,97.9,137.4,92.3,145,92.3"/>
		<path class="st1" d="M132.1,108.2l22.9-0.3c0.7-7.8-2.6-13.8-10-13.8C139.1,94.1,133.1,98.4,132.1,108.2z"/>
		<path class="st2" d="M167,93.1l2.2-0.5l0.1,5c3.7-3.3,8.4-5.2,13.4-5.4c6,0,10.3,3.7,10.3,12.5v22.8h-2.3v-22.8
			c0-7.4-3.4-10.5-8.5-10.5c-4.1,0-8.8,2-12.9,5.3v28.1H167"/>
		<path class="st2" d="M217.4,92.3c8.6,0,13.7,6.3,12.3,17.6h-25.3v1.2c0,15.7,12.9,18.2,24.1,12.7l0.6,1.9
			c-3.3,1.8-7.1,2.7-10.9,2.8c-9,0-16.1-5.8-16.1-17.4C202.1,97.9,209.9,92.3,217.4,92.3"/>
		<path class="st1" d="M204.6,108.2l22.9-0.3c0.7-7.8-2.6-13.8-10-13.8C211.5,94.1,205.5,98.4,204.6,108.2L204.6,108.2z"/>
		<path class="st2" d="M239.4,93.1l2.2-0.5l0.1,7.9c2.8-5,6.9-8.2,13.1-8.2l0.4,2.2c-6.3,0.1-10.4,2.9-13.5,8.7v24.4h-2.3"/>
		<path class="st2" d="M274.2,92.3c1.8,0,3.5,0.3,5.2,0.8h12v1.6L283,95c2.9,2.1,4.5,5.5,4.5,9.1c0,7-5.6,11.8-13.2,11.8
			c-1.5,0-2.9-0.2-4.3-0.6c-4.6,3.1-5.1,8.2,1.1,8.2h7.7c8.8,0,12.9,1.9,12.9,8.3c0,5.6-5.8,11.7-18.4,11.7
			c-10.2,0-14.5-4.2-14.5-9.4c0-3.1,2-6.3,7.2-9.7c-3.2-2.2-2.2-6.9,2.1-9.8c-4.3-1.8-7.1-6-7-10.7
			C261.2,97.2,266.7,92.3,274.2,92.3"/>
		<path class="st1" d="M267.9,125.4c-4.9,3.3-6.7,6.2-6.7,8.9c0,4.1,3.4,7.5,11.9,7.5c11.4,0,16.2-5.1,16.2-9.8
			c0-5.1-3.5-6.2-10.7-6.2H271C269.9,125.9,268.9,125.7,267.9,125.4L267.9,125.4z"/>
		<path class="st1" d="M274.3,114.1c6.3,0,10.9-4,10.9-9.9s-4.6-10-10.9-10s-10.9,4.1-10.9,10S267.9,114.1,274.3,114.1L274.3,114.1z
			"/>
		<path class="st2" d="M300.6,79c1-0.1,1.9,0.7,1.9,1.7c0.1,1-0.7,1.9-1.7,1.9c-0.1,0-0.2,0-0.3,0c-1,0.1-1.9-0.7-1.9-1.7
			c-0.1-1,0.7-1.9,1.7-1.9C300.4,79,300.5,79,300.6,79"/>
		<polygon class="st2" points="299.5,93.1 301.8,92.6 301.8,127.6 299.5,127.6 		"/>
		<path class="st2" d="M326.6,92.3c8.6,0,13.7,6.3,12.2,17.6h-25.3v1.2c0,15.7,12.9,18.2,24.1,12.7l0.6,1.9
			c-3.3,1.8-7.1,2.7-10.9,2.8c-9,0-16.1-5.8-16.1-17.4C311.2,97.9,319,92.3,326.6,92.3"/>
		<path class="st1" d="M313.7,108.2l22.9-0.3c0.7-7.8-2.6-13.8-10-13.8C320.7,94.1,314.7,98.4,313.7,108.2L313.7,108.2z"/>
		<path class="st2" d="M347.2,124.1c3,1.4,6.2,2.2,9.5,2.4c6.2,0,10.2-3.3,10.2-8.1s-4.9-6.3-10-7.9c-5.2-1.7-10.4-3.6-10.4-9.5
			c0-4.9,4-8.6,11.1-8.6c3.3,0,6.6,0.7,9.7,2.1l-0.4,2c-3-1.3-6.2-2.1-9.5-2.2c-5.2,0-8.6,2.6-8.6,6.7c0,4.5,4.2,6.1,9,7.6
			c5.5,1.8,11.4,3.5,11.4,9.9c0,6.6-5.8,10.1-12.9,10.1c-3.3,0-6.6-0.8-9.5-2.3"/>
		<path class="st0" d="M47.8,94.2c0.3,0.1,0.6,0.1,0.9,0.1"/>
		<path class="st0" d="M92,64.7c-0.1-0.4-0.3-0.7-0.7-0.9L84,59.4l4.7-7.7c1.7-2.8,0.8-6.5-2-8.3s-6.5-0.8-8.3,2l0,0l-4.7,7.7
			l-10-6.1l4.7-7.7c1.7-2.8,0.8-6.5-2-8.3c-2.8-1.7-6.5-0.8-8.3,2l0,0l-4.7,7.7L46,36.3c-0.7-0.4-1.7-0.2-2.1,0.5l0,0
			c0,0-0.1,0.1-0.1,0.2c-0.3,0.5-1.1,1.9-2.3,3.9c-6,9.9-7,24.2,2.8,32.5l-4,9.8c-0.3,0.8-0.4,1.7-0.4,2.6c0,4.5,3.4,8.3,7.9,8.8H48
			c0.3,0,0.5,0.1,0.8,0.1c3.5,0,6.7-2.1,8.1-5.4l2.9-6.6c2.3,0.9,4.7,1.3,7.2,1.3c10.1,0,18.2-7.3,22.3-14.2c1.5-2.6,2.5-4,2.5-4.1
			C92,65.5,92.1,65.1,92,64.7 M43,84.6c1.1-2.8,4.1-10.1,4.5-10.8c0.4-0.7,0.2-1.5-0.4-2c-9.8-7.4-8.4-20.4-3-29.3
			c0.6-1,1.2-2,1.6-2.6l0.1-0.2l7.4,4.5c0.7,0.4,1.7,0.2,2.1-0.5l5.5-9c0.9-1.4,2.7-1.8,4.1-1c1.4,0.9,1.8,2.7,1,4.1l-5.5,9
			c-0.4,0.7-0.2,1.7,0.5,2.1l0,0l12.6,7.7c0.7,0.4,1.6,0.2,2.1-0.5l5.5-9c0.4-0.7,1.1-1.2,1.8-1.3c0.8-0.2,1.6-0.1,2.2,0.4
			c0.7,0.4,1.2,1.1,1.3,1.8c0.2,0.8,0.1,1.6-0.3,2.2l-5.5,9c-0.2,0.3-0.3,0.8-0.2,1.2c0.1,0.4,0.3,0.7,0.7,0.9l7.3,4.4
			c-0.4,0.7-1,1.6-1.7,2.8C83.2,74.2,75.8,81,67,81c-2.5,0-5-0.6-7.2-1.6c-0.7-0.3-1.5,0-1.9,0.6l-3.7,8c-1.3,3-4.7,4.3-7.7,3.1
			c-2.2-0.9-3.5-3-3.5-5.4C42.9,85.3,42.9,85,43,84.6z"/>
		<path class="st0" d="M2.8,79.4l-1-0.1H1.6c-0.8,0-1.4,0.6-1.5,1.4c-1.9,26.7,20,50.2,48.9,52.3c1.2,0.1,2.4,0.1,3.7,0.2
			c0.8,0,1.5-0.7,1.5-1.5C55.2,104.6,32.6,81.6,2.8,79.4 M51.3,130.2l-2-0.1c-26.5-2-47.1-23.3-46.2-47.6
			C30.2,84.7,51.2,105.6,51.3,130.2L51.3,130.2z M106.1,87.4c-0.3-0.3-0.6-0.5-1-0.5h-0.7c-1.2-0.1-2.3-0.1-3.5-0.1
			c-22.2,0-40.8,15.8-42.3,36c-0.2,3-0.1,6.1,0.5,9.1c0.1,0.7,0.8,1.3,1.5,1.3h0.2c24.7-2.7,43.9-21.4,45.7-44.5
			C106.5,88.2,106.4,87.8,106.1,87.4 M103.3,89.9c-2.3,20.6-19.2,37-41.4,40c-0.3-2.3-0.4-4.6-0.2-6.9c1.4-18.6,18.6-33.2,39.2-33.2
			C101.7,89.8,102.5,89.8,103.3,89.9L103.3,89.9z"/>
	</g>
</g>
</svg>
