<?xml version="1.0" encoding="utf-8"?>
<!-- Generator: Adobe Illustrator 23.1.1, SVG Export Plug-In . SVG Version: 6.00 Build 0)  -->
<svg version="1.1" xmlns="http://www.w3.org/2000/svg" xmlns:xlink="http://www.w3.org/1999/xlink" x="0px" y="0px"
	 viewBox="0 0 170.29 49.77" style="enable-background:new 0 0 170.29 49.77;" xml:space="preserve">
<style type="text/css">
	.st0{fill:none;}
	.st1{fill:#6F62A2;}
</style>
<g id="BoundingBox">
	<rect x="-580.64" y="-17.96" class="st0" width="155.34" height="85.04"/>
</g>
<g id="pxe">
	<polygon class="st1" points="18.49,24.56 10.08,38.73 0,38.73 8.42,24.56 0,10.39 10.08,10.39 	"/>
	<path class="st1" d="M29.08,10.37h5.1l0.73,2.97c2.13-2.3,4.65-3.7,7.57-3.7c5.72,0,9.58,3.14,9.58,14.52
		c0,11.27-3.08,15.3-9.58,15.3c-3.03,0-5.44-1.4-7.01-2.86v13.17h-6.39V10.37z M45.22,24.49c0-8.01-1.07-9.64-4.43-9.64
		c-2.3,0-3.81,1.06-5.32,2.52v14.69c1.23,1.18,2.97,2.13,4.93,2.13C43.99,34.19,45.22,32.68,45.22,24.49z"/>
	<path class="st1" d="M55.27,30.49c0-6.5,3.81-9.36,12.67-9.36h2.02v-1.63c0-2.97-0.39-4.6-3.59-4.6c-2.8,0-5.49,1.23-7.85,2.58
		l-2.35-4.54c3.03-1.96,6.33-3.31,10.87-3.31c6.33,0,9.3,2.47,9.3,8.86v20.23h-4.99l-0.78-2.47c-1.57,1.68-3.75,3.2-6.84,3.2
		C58.08,39.46,55.27,36.21,55.27,30.49z M69.96,32.45v-7.17h-1.01c-6.11,0-7.17,1.57-7.17,5.16c0,3.25,0.95,4.37,3.36,4.37
		C67.27,34.81,68.84,33.57,69.96,32.45z"/>
	<path class="st1" d="M80.48,10.37h5.1l0.73,3.59c1.91-2.47,4.43-4.09,7.4-4.09c0.62,0,1.29,0.11,1.68,0.22l-1.01,6.56
		c-0.62-0.34-1.4-0.5-2.3-0.5c-2.19,0-3.59,0.67-5.21,2.07v20.51h-6.39V10.37z"/>
	<path class="st1" d="M96.14,24.49c0-10.65,4.15-14.85,11.55-14.85c3.48,0,6,0.95,8.41,3.25l-3.31,4.26
		c-1.46-1.51-2.75-2.3-4.82-2.3c-3.64,0-4.99,1.51-4.99,9.53c0,7.96,1.4,9.86,5.27,9.86c2.24,0,3.48-1.01,4.93-2.35l3.14,4.2
		c-2.07,2.07-4.65,3.36-8.46,3.36C100.06,39.46,96.14,34.69,96.14,24.49z"/>
	<path class="st1" d="M117.74,24.44L128.28,0h6.89L124.3,24.94h10.76V10.87l6.61-1.12v15.19h3.92v5.55h-3.92v8.24h-6.61v-8.24
		h-17.32V24.44z"/>
	<path d="M148.93,31.72V10.37h6.39v19.84c0,3.03,1.12,3.92,3.2,3.92c1.96,0,3.75-1.12,5.44-2.58V10.37h6.33v28.36h-5.1l-0.67-3.14
		c-2.24,2.24-4.43,3.87-8.01,3.87C152.19,39.46,148.93,36.99,148.93,31.72z"/>
</g>
</svg>
