<?xml version="1.0" encoding="utf-8"?>
<!-- Generator: Adobe Illustrator 22.1.0, SVG Export Plug-In . SVG Version: 6.00 Build 0)  -->
<svg version="1.1" id="Vrstva_1" xmlns="http://www.w3.org/2000/svg" xmlns:xlink="http://www.w3.org/1999/xlink" x="0px" y="0px"
	 viewBox="0 0 100.8 40.1" style="enable-background:new 0 0 100.8 40.1;" xml:space="preserve">
<style type="text/css">
	.st0{fill:#745BA3;}
</style>
<path class="st0" d="M45.2,14.8c0-8-1.1-9.6-4.4-9.6c-2.3,0-3.8,1.1-5.3,2.5v14.7c1.2,1.2,3,2.1,4.9,2.1C44,24.5,45.2,23,45.2,14.8
	 M29.1,0.7h5.1l0.7,3C37,1.4,39.5,0,42.5,0C48.2,0,52,3.1,52,14.5c0,11.3-3.1,15.3-9.6,15.3c-3,0-5.4-1.4-7-2.9v13.2h-6.4V0.7z"/>
<path d="M84.9,12.2h9.3c-0.1-5.5-1.1-7.4-4.6-7.4C86.8,4.8,85.3,6.2,84.9,12.2 M78.1,14.8C78.1,4.1,82.5,0,89.6,0
	c7.6,0,11.2,4.3,11.2,14.6v2.1H84.9c0.2,6.5,1.8,8,5.8,8c2.9,0,4.7-1.2,6.5-2.5l3,4.4c-2.5,2.1-5.4,3.3-9.5,3.3
	C82.3,29.8,78.1,25.5,78.1,14.8z"/>
<polyline class="st0" points="53.3,29.1 61.4,14.1 54.5,0.7 61.5,0.7 65.2,8.8 68.9,0.7 75.8,0.7 68.7,13.8 76.6,29.1 69.7,29.1 
	64.9,19 60.2,29.1 53.3,29.1 "/>
<polyline class="st0" points="18.5,14.9 10.1,29.1 0,29.1 8.4,14.9 0,0.7 10.1,0.7 18.5,14.9 "/>
</svg>
