<?xml version="1.0" encoding="utf-8"?>
<!-- Generator: Adobe Illustrator 22.1.0, SVG Export Plug-In . SVG Version: 6.00 Build 0)  -->
<svg version="1.1" id="Vrstva_1" xmlns="http://www.w3.org/2000/svg" xmlns:xlink="http://www.w3.org/1999/xlink" x="0px" y="0px"
	 viewBox="0 0 220 220.2" style="enable-background:new 0 0 220 220.2;" xml:space="preserve">
<style type="text/css">
	.st0{fill:#618494;}
	.st1{fill:#E9F6FE;}
	.st2{fill:#FFFFFF;}
	.st3{fill:#E4E8F0;}
	.st4{fill:none;stroke:#618494;stroke-width:1.0891;stroke-miterlimit:10;}
	.st5{fill:#EE757D;}
</style>
<g id="XMLID_6511_">
	<g id="XMLID_6513_">
		<g>
			<g id="XMLID_6515_">
				<path id="XMLID_52_" class="st0" d="M106.9,254c-16.4,0-32.6-11.1-40.1-28.9c-5-11.8-5.1-25.1-0.6-36.1
					c3.8-9.4,10.8-16.5,19.7-20.1c20-8.3,43.9,3.6,53.3,26.4c5,11.8,5.1,25.1,0.6,36.1c-3.8,9.4-10.8,16.5-19.7,20.1
					C115.9,253.1,111.4,254,106.9,254z M99.3,167.7c-4.3,0-8.6,0.9-12.7,2.6c-8.4,3.4-15.1,10.3-18.8,19.2
					c-4.4,10.7-4.3,23.4,0.6,34.9c9.1,22,32.1,33.4,51.3,25.5c8.4-3.4,15.1-10.3,18.8-19.2c4.4-10.7,4.3-23.4-0.6-34.9
					C130.8,178.4,115,167.7,99.3,167.7z"/>
				<g id="XMLID_6516_">
					<path id="XMLID_6618_" class="st1" d="M138.7,195.4c9.3,22.4,0.9,47.2-18.7,55.2c-19.5,8-43.1-3.6-52.3-25.9
						s-0.9-47.2,18.7-55.2C105.9,161.5,129.4,173,138.7,195.4z"/>
					<path id="XMLID_6617_" class="st2" d="M131.8,196.4c8,19.4,0.7,40.6-16.1,47.6c-16.8,7-37.1-3-45.2-22.4
						c-8-19.4-0.7-40.6,16.1-47.6S123.8,177,131.8,196.4z"/>
					<g id="XMLID_6517_">
						<ellipse id="XMLID_6616_" class="st2" cx="155.2" cy="205.5" rx="18.8" ry="18.8"/>
						<path id="XMLID_6615_" class="st1" d="M159.9,222.4c-10.4,0-18.8-8.4-18.8-18.8c0-6.8,3.7-12.8,9.1-16.1
							c-8,2.1-13.8,9.6-13.8,18.1c0,10.4,8.4,18.8,18.8,18.8c3.6,0,6.8-1,9.7-2.7C163.3,222.1,161.6,222.4,159.9,222.4z"/>
						<g id="XMLID_6538_">
							<path id="XMLID_71_" class="st0" d="M155.2,224.9c-10.8,0-19.5-8.7-19.5-19.5c0-10.7,8.7-19.5,19.5-19.5s19.5,8.7,19.5,19.5
								C174.7,216.2,165.9,224.9,155.2,224.9z M155.2,187.3c-10,0-18.2,8.1-18.2,18.1c0,10,8.1,18.1,18.2,18.1
								c10,0,18.2-8.1,18.2-18.1C173.3,195.4,165.2,187.3,155.2,187.3z"/>
							<g id="XMLID_6566_">
								<path id="XMLID_6613_" class="st2" d="M50.1,198.5c4,18.4,25.9,8.6,49,3.6c23.1-5,38.6-3.1,34.8-21.5
									c-4-18.4-25.9-29.4-49-24.4C61.8,161.2,46.1,180.2,50.1,198.5L50.1,198.5z"/>
								<path id="XMLID_6612_" class="st2" d="M83.9,178c3.1,14.8,20.8,23.5,39.5,19.5c18.5-4,31.1-19.2,27.9-34.1
									c-3.1-14.8-20.8-23.5-39.5-19.5C93.2,148.1,80.6,163.2,83.9,178z"/>
								<path id="XMLID_6611_" class="st1" d="M28,189.6c3.1,14.8,20.8,23.5,39.5,19.5c18.5-4,31.1-19.2,27.9-34.1
									c-3.1-14.8-20.8-23.5-39.5-19.5S24.9,174.7,28,189.6z"/>
								<path id="XMLID_6610_" class="st2" d="M36.2,183.4C39.3,198.3,57,207,75.7,203s31.1-19.2,27.9-34.1
									c-3.1-14.8-21-23.4-39.6-19.4S32.9,168.7,36.2,183.4z"/>
								<path id="XMLID_70_" class="st0" d="M114.4,199.4c-15.4,0-28.5-8.4-31.2-21.1c-1.4-6.3,0-12.8,3.8-18.8
									c5.1-8,14.1-13.8,24.7-16.1l0.3,1.6c-10.1,2.1-18.8,7.8-23.7,15.5c-3.6,5.6-4.8,11.7-3.6,17.7c3.1,14.4,20.4,22.8,38.5,19
									l0.3,1.6C120.4,199.1,117.4,199.4,114.4,199.4z"/>
								<path id="XMLID_69_" class="st0" d="M139,192.1l-0.3-1.6c6.7-1.4,10.7-3.6,12.7-6.6c2.7-4.3,1.4-10.4-0.3-18.1l-0.4-2
									c-3.1-14.4-20.4-23-38.5-19l-0.3-1.6c19-4.1,37.1,5,40.3,20.2l0.4,2c1.7,8.1,3.1,14.5,0.1,19.4
									C150.4,188.3,146.1,190.6,139,192.1L139,192.1z"/>
								<path id="XMLID_67_" class="st0" d="M60,209.5c-15.4,0-28.5-8.4-31.2-21.1c-1.4-6.3,0-12.8,3.8-18.8
									c5.1-8,14.1-13.8,24.7-16.1c19-4.1,37.1,5,40.3,20.2c1.4,6.3,0,12.8-3.8,18.8c-5.1,8-14.1,13.8-24.7,16.1
									C66,209.2,62.8,209.5,60,209.5z M30.2,188c3.1,14.4,20.4,23,38.5,19c10.1-2.1,18.8-7.8,23.7-15.5c3.6-5.6,4.8-11.7,3.6-17.7
									c-3.1-14.4-20.4-23-38.5-19c-10.1,2.1-18.8,7.8-23.7,15.5C30.2,176,28.9,182.1,30.2,188z"/>
								<g id="XMLID_6585_">
									<path id="XMLID_6606_" class="st2" d="M47.9,173.3l22.4,10l40.8-8.7l15.8-18.2l-3.6-16.1l-6.7-4.8l-70.4,15.1l-1.9,6.7
										L47.9,173.3z"/>
									<path id="XMLID_6605_" class="st0" d="M30.3,119.8c4,18.5,15.5,33.1,29.8,40.2c8.6,4.3,18.1,5.7,27.7,3.7
										c25.4-5.4,40.6-33.9,34.2-63.4C115.6,70.5,89.9,51,64.5,56.4C39.3,61.8,23.9,90.2,30.3,119.8z"/>
									<path id="XMLID_6604_" class="st2" d="M22.5,114.7c4,18.5,16.5,32.9,32.4,39.6c9.4,4,20.1,5.3,30.8,3
										c28.5-6.1,46.3-35.1,39.9-64.7C119.3,63,90.9,43.9,62.5,50C34,56,16.2,85.1,22.5,114.7z"/>
									<path id="XMLID_6603_" class="st3" d="M23.2,115.4c5.7,26.2,33.4,42.5,61.7,36.4s46.9-32.4,41.3-58.5S93,50.8,64.5,56.8
										C36,63,17.6,89.2,23.2,115.4z"/>
									<path id="XMLID_6602_" class="st2" d="M26.8,115.7c5,23.4,30.8,37.8,57.5,32.1c26.7-5.7,44.2-29.4,39.2-52.9
										S92.8,57.3,66,63S21.8,92.3,26.8,115.7z"/>
									<path id="XMLID_6601_" class="st1" d="M68,71.1c-18.2,3.8-32.2,16.1-36.4,30.2l6.3,28.9c0.1,0.1,0.1,0.3,0.3,0.3
										c9.7,11,27.2,16.3,45.3,12.3c17.4-3.7,30.8-15,35.6-28.1l-6.6-32.2C102.7,72.2,85.6,67.2,68,71.1z"/>
									<path id="XMLID_58_" class="st0" d="M72.7,154.5c-24.2,0-45.6-15.4-50.6-38.2c-2.6-12.1-0.1-24.8,6.7-35.6
										C36.5,68.7,49.3,60,64,56.8c28.8-6.1,57,10.4,62.7,36.9c2.6,12.1,0.1,24.8-6.7,35.6c-7.7,12-20.5,20.7-35.2,23.8
										C80.6,154.1,76.7,154.5,72.7,154.5z M76.1,57c-3.8,0-7.8,0.4-11.8,1.3C50,61.3,37.6,69.8,30,81.4
										c-6.7,10.4-9.1,22.7-6.6,34.4c4.7,22.1,25.5,37.1,49,37.1c3.8,0,7.8-0.4,11.8-1.3c14.3-3,26.7-11.5,34.2-23.1
										c6.7-10.4,9.1-22.7,6.6-34.4C120.4,71.9,99.6,57,76.1,57L76.1,57z"/>
									<path id="XMLID_6597_" class="st0" d="M26.5,127.1c1.3-0.3,2.1-1.6,1.9-2.9l-3.6-16.5c-0.3-1.3-1.6-2.1-2.9-1.9
										c-1.3,0.3-2.1,1.6-1.9,2.9l3.6,16.5C23.9,126.5,25.2,127.4,26.5,127.1z"/>
									<path id="XMLID_6594_" class="st0" d="M127.4,106c1.3-0.3,2.1-1.6,1.9-2.9l-3.6-16.5c-0.3-1.3-1.6-2.1-2.9-1.9
										c-1.3,0.3-2.1,1.6-1.9,2.9l3.6,16.5C124.8,105.4,126.1,106.3,127.4,106z"/>
									<circle id="XMLID_6593_" class="st2" cx="55.3" cy="86.8" r="3.1"/>
									<path id="XMLID_6592_" class="st2" d="M86.6,78.8c0.6,2.6-4.7,5.8-11.8,7.3c-7.1,1.6-13.3,0.7-13.8-1.9
										c-0.6-2.6,4.7-5.8,11.8-7.3S86.1,76.2,86.6,78.8z"/>
									<path id="XMLID_6589_" class="st1" d="M97.5,169.6l-17,3.7l-2-8.8l17-3.7L97.5,169.6z"/>
									<path id="XMLID_56_" class="st0" d="M72.1,144.2c-13.5,0-26.2-5-34.2-13.8c-0.1-0.1-0.1-0.3-0.3-0.4l-0.1-0.3l-6.3-29.1
										v-0.1c4.4-14.8,19-26.9,37.1-30.8c17.5-3.7,34.8,0.7,45.3,11.7l0.1,0.1v0.3l6.7,32.5l-0.1,0.1c-5.3,14-19.1,24.9-36.2,28.5
										C79.9,143.8,75.9,144.2,72.1,144.2z M38.9,129.3l0.1,0.1c9.8,11,27.4,15.8,44.6,12.1c16.5-3.6,29.9-14,35.1-27.4l-6.6-31.8
										C102,71.9,85.4,67.7,68.4,71.2C51,74.9,37,86.5,32.6,100.7C32.6,100.7,38.9,129.3,38.9,129.3z"/>
									<path id="XMLID_55_" class="st0" d="M72.7,150.4c-22.5,0-42.2-13.7-46.5-33.9c-2.3-10.5-0.1-21.5,6-31.1
										C39.4,73.9,51.8,65.8,66,62.7c27.1-5.8,53.3,8.8,58.5,32.6c2.3,10.5,0.1,21.5-6,31.1c-7.3,11.4-19.7,19.5-33.8,22.7
										C80.6,149.9,76.7,150.4,72.7,150.4L72.7,150.4z M77.8,63c-3.8,0-7.7,0.4-11.5,1.3c-13.7,3-25.7,11-32.8,22
										c-6,9.3-8,19.8-5.8,29.9c5,23,30.4,37.1,56.6,31.5c13.7-3,25.7-11,32.8-22c6-9.3,8-19.8,5.8-29.9
										C118.6,76.1,99.6,63,77.8,63L77.8,63z"/>
									<path id="XMLID_148_" class="st0" d="M75.4,159.1c-7,0-13.8-1.4-20.4-4.1c-16.7-7-28.8-22.1-32.8-40.2
										c-3.3-15-0.6-30.1,7.6-42.6c7.7-12,19.4-20.1,32.9-23c28.8-6.1,57.6,13.3,64,43.2c3.3,15,0.6,30.1-7.6,42.6
										c-7.7,12-19.4,20.1-32.9,23C82.6,158.6,79.1,159.1,75.4,159.1L75.4,159.1z M73.7,49.4c-3.4,0-7,0.4-10.5,1.1
										C50,53.4,38.6,61.4,31.2,72.9c-7.8,12.3-10.5,26.9-7.4,41.5c3.8,17.5,15.7,32.2,31.8,39.1c9.7,4.1,20.1,5.1,30.4,3
										c13.3-2.9,24.5-10.7,32.1-22.4c7.8-12.3,10.5-26.9,7.4-41.5C119.9,67.1,97.9,49.4,73.7,49.4z"/>
								</g>
								<path id="XMLID_6584_" class="st1" d="M64.7,160.2l9,14.5l-15.5,10l-14.7-24.2c0,0-0.7-2.3-0.6-3c0.1-1.4,2.9-5,2.9-5
									L64.7,160.2L64.7,160.2z"/>
								<path id="XMLID_6583_" class="st1" d="M137.8,190.7c0,0-12.1-5.1-9.7-12.5c2.4-7.4-1.3-3.4-1.3-3.4s-8.3,12.7,0.7,19.8
									C136.5,201.8,137.8,190.7,137.8,190.7z"/>
								<path id="XMLID_6580_" class="st1" d="M99.7,236.7l11.7-2.7c8.4-2,13.7-10.5,11.8-19c-2-8.4-10.5-13.7-19-11.7l-11.7,2.7
									c-8.4,2-13.7,10.5-11.8,19C82.8,233.5,91.3,238.7,99.7,236.7z"/>
								<path id="XMLID_6579_" class="st2" d="M93,231.5l11.7-2.7c8.4-2,13.7-10.5,11.8-19c-2-8.4-10.5-13.7-19-11.7l-11.7,2.7
									c-8.4,2-13.7,10.5-11.8,19C76.1,228.1,84.6,233.3,93,231.5z"/>
								<path id="XMLID_16_" class="st0" d="M96.2,238c-7.6,0-14.4-5.1-16.3-12.8c-1-4.3-0.3-8.7,2-12.5c2.3-3.8,6-6.4,10.3-7.4
									l12-2.7c9-2.1,17.8,3.4,20,12.4c1,4.3,0.3,8.7-2,12.5c-2.3,3.8-6,6.4-10.3,7.4l-11.8,2.7C98.8,237.9,97.5,238,96.2,238z
									 M107.9,203.8c-1.1,0-2.3,0.1-3.4,0.4L92.6,207c-3.8,0.9-7.1,3.3-9.3,6.7c-2.1,3.4-2.7,7.4-1.9,11.3c1.9,8,10,13,18,11.1
									l11.8-2.7c3.8-0.9,7.1-3.3,9.3-6.7c2.1-3.4,2.7-7.4,1.9-11.3C120.8,208.4,114.7,203.8,107.9,203.8z"/>
								<path id="XMLID_6577_" class="st1" d="M104.5,151.8l-2.1,16.8l18.4,2.7l3.4-28.1c0,0-0.3-2.3-0.7-3
									c-0.7-1.3-4.6-3.4-4.6-3.4S104.5,151.8,104.5,151.8z"/>
								<path id="XMLID_45_" class="st0" d="M57.3,185.4L42,160.3c-0.1-0.4-0.7-2.4-0.6-3.3c0.1-1.6,2.4-4.7,3-5.4l0.4-0.4l20,8.1
									l9.6,15.4L57.3,185.4L57.3,185.4z M43.4,159.8l14.3,23.4l14.3-9.1l-8.4-13.5l-18.4-7.4c-1,1.4-2.3,3.4-2.3,4.1
									C42.9,157.5,43.2,158.8,43.4,159.8z"/>
								<path id="XMLID_6573_" class="st1" d="M125.1,203.4l-15.7,8.4l-25.1,5.3l-18.2-1l-6-28.1l15.8-10l25.2-5.6l17.8,2.9
									L125.1,203.4z"/>
								<path id="XMLID_6572_" class="st2" d="M121.3,201.4l-14.1,7.1l-22.5,4.8l-16.4-0.6l-4.8-23.1l14.3-8.4l22.8-4.8l15.8,2
									L121.3,201.4z"/>
								<path id="XMLID_43_" class="st0" d="M121.7,172l-19.8-2.9l2.3-18l0.1-0.1l14.7-15.4l0.6,0.3c0.7,0.4,4.1,2.4,4.8,3.7
									c0.4,0.7,0.7,2.9,0.9,3.3v0.1L121.7,172z M103.6,167.9l16.8,2.4l3.4-27.2c-0.1-1-0.4-2.3-0.6-2.6c-0.4-0.7-2.3-2-3.8-2.9
									l-13.7,14.4C105.7,152.1,103.6,167.9,103.6,167.9z"/>
								<path id="XMLID_39_" class="st0" d="M83.9,218.1l-19-1.3l-6.3-29.2l16.5-10.4l25.5-5.4l18.5,2.9l6.3,29.1l-16.4,8.7
									L83.9,218.1z M66.2,215.4l17.5,1l24.8-5.3l15.1-8.1l-5.8-26.9l-17.1-2.7l-25.1,5.4l-15.3,9.7L66.2,215.4L66.2,215.4z"/>
								<path id="XMLID_6567_" class="st4" d="M32.2,185.4"/>
							</g>
							<g id="XMLID_6539_">
								<path id="XMLID_6565_" class="st2" d="M180.7,182.7c-3-1.4-4.3-5.1-2.9-8.1l5.1-10.4c1.4-3,5.1-4.3,8.1-2.7
									c3,1.4,4.3,5.1,2.9,8.1l-5.1,10.4C187.4,183,183.7,184.3,180.7,182.7z"/>
								<path id="XMLID_6564_" class="st2" d="M169.5,125.7l2,0.9c1.6,0.7,2.3,2.6,1.6,4.1l-6.8,19.4c0,0.1,0,0.3,0,0.4
									c-0.4,2.1-0.3,3.6,0.3,4.3c0.4,0.4,1.3,0.4,1.9,0.3l12.5-21.1c0.7-1.6,2.7-2.1,4.1-1.4l2,1c1.6,0.7,2.1,2.7,1.4,4.1
									l-7.3,18.1l-1.3-0.6c-2.6-1.3-5.7-0.1-7,2.3l-6.7,13.4c-1,2-0.6,4.4,1,6c0.4,0.4,1-0.1,1.6,0.1l1.9-0.1
									c0.1,0,0.3,1.1,0.6,1.1c1.9,0.7,3.8,0.9,5.3-0.3c0.1,1.9,1.1,3.7,2.9,4.6l1.6,1c1.4,0.1,0.3,0.1,0.4,0.1l0.3,0.1
									c1.6,0.9,3.4,0.7,5-0.1l-7.3,12.1l0.3,6.1c-19.2-0.7-30.5-4.8-34.6-6.4c-4.3-1.7-8.8-4.7-8.8-4.7l7.3-11.4l-6.4-25.7
									c-0.4-1.3,0.6-2.7,2.1-3.4l2-0.7c1.6-0.6,3.3,0,3.8,1.3l3.7,7.7l16.8-31.1C166,125.8,167.9,125.1,169.5,125.7L169.5,125.7z"
									/>
								<path id="XMLID_6563_" class="st1" d="M170.3,125.8c0,0-3,0.9-3.6,2.3c-0.6,1.4-11.5,33.4-11.5,33.4l-6.6-3.1l17-31.9
									l2.4-1.7L170.3,125.8L170.3,125.8z"/>
								<path id="XMLID_35_" class="st0" d="M180.2,202h-0.9c-13.4-0.6-25.5-2.9-34.9-6.6c-4.3-1.7-8.8-4.6-9-4.7l-0.7-0.4l7.6-11.7
									l-6.4-25.5c-0.3-0.6-0.1-1.4,0.1-2.1c0.4-1,1.3-1.7,2.4-2.1l2-0.7c2-0.7,4.1,0,4.7,1.7l3,6.3l16.1-29.7
									c0.9-1.9,3.1-2.9,5.1-2l2,0.9c1,0.4,1.7,1.1,2,2.1c0.4,1,0.3,2-0.1,3l-6.8,19.1c0,0.1,0,0.3,0,0.4c-0.4,2.4-0.1,3.3,0.1,3.6
									c0,0,0.3,0.1,0.7,0l12.4-20.8c0.9-1.9,3.3-2.7,5.3-1.7l2,1c1,0.4,1.6,1.3,2,2.3c0.3,1,0.3,2-0.1,3l-7.3,18.2l-1.7,1.4
									l-0.4-0.1c-2.3-1.1-4.7-0.3-5.8,1.7l-6.8,12.4c-0.9,1.7-0.4,3.7,0.9,5c0.4,0.4,0.9,0.7,1.3,0.9l2,1c0,0,0.1,0,0.3,0.1
									c1.6,0.7,3.4,0.4,4.6-0.7l1.1-1l0.1,1.6c0.1,1.6,1,3,2.4,3.7l1.6,0.7c0.1,0.1,0.3,0.1,0.3,0.1l0.3,0.1
									c1.3,0.7,2.9,0.6,4.1-0.1l2.6-1.6l-8.7,14.5L180.2,202L180.2,202z M137,189.8c1.4,0.9,4.8,2.9,8.1,4.1
									c9.1,3.6,20.7,5.8,33.5,6.4l-0.3-5.6l0.1-0.1l6.1-10.3c-1.1,0.1-2.4,0-3.6-0.6l-0.3-0.1c-0.1,0-0.3-0.1-0.4-0.3l-1.6-0.7
									c-1.6-0.7-2.7-2.1-3.1-3.7c-1.6,0.9-3.4,1-5,0.3c-0.1,0-0.4-0.1-0.6-0.3l-1.7-0.9c-0.6-0.3-1.3-0.6-1.9-1.3
									c-1.7-1.7-2.3-4.6-1.1-6.8l6.8-12.4c1.3-2.7,4.6-3.8,7.4-2.6l0.7-0.4l7.1-17.8c0.3-0.6,0.3-1.3,0.1-1.9
									c-0.1-0.6-0.6-1.1-1.1-1.4l-2-1c-1.1-0.6-2.6-0.1-3.1,1.1l-12.7,21.4h-0.3c-1.1,0.3-2,0.1-2.6-0.6c-0.7-0.9-1-2.6-0.6-4.8
									v-0.4l6.8-19.4c0.3-0.6,0.3-1.3,0-1.9c-0.3-0.6-0.7-1-1.3-1.3l-2-0.9c-1.1-0.6-2.6,0-3.1,1.1l-17.3,32.6l-4.3-9.1
									c-0.3-0.9-1.6-1.3-2.9-0.9l-2,0.7c-0.7,0.3-1.3,0.7-1.6,1.3c-0.1,0.3-0.3,0.6-0.1,1l6.6,26.2L137,189.8L137,189.8z"/>
								<path id="XMLID_6561_" class="st2" d="M169.2,177.2c-3-1.4-4.3-5.1-2.7-8.1l5.4-11.1c1.4-3,5.1-4.3,8.1-2.7
									c3,1.4,4.3,5.1,2.7,8.1l-5.4,11.1C175.9,177.4,172.2,178.7,169.2,177.2z"/>
								<path id="XMLID_6560_" class="st1" d="M176,156.1l-6.3,12.7c-1.3,2.6-0.1,5.7,2.4,7l1.6,0.9c0.9,0.4,1.9,0.6,2.9,0.4
									c-1.6,1.7-4,2.1-6.1,1.1l-1.6-0.9c-2.6-1.3-3.6-4.4-2.4-7l6.3-12.7c0.9-1.6,2.4-2.7,4.1-2.9
									C176.5,155.2,176.2,155.5,176,156.1z"/>
								<path id="XMLID_6559_" class="st1" d="M186.6,161.6l-6.3,12.7c-1.3,2.6-0.1,5.7,2.4,7l1.6,0.9c0.9,0.4,1.9,0.6,2.9,0.4
									c-1.6,1.7-4,2.1-6.1,1.1l-1.6-0.9c-2.6-1.3-3.6-4.4-2.4-7l6.3-12.7c0.9-1.6,2.4-2.7,4.1-2.9
									C187.1,160.8,186.9,161.2,186.6,161.6L186.6,161.6z"/>
								<path id="XMLID_31_" class="st0" d="M171.9,179.4c-1,0-2-0.3-3-0.7c-1.6-0.9-2.9-2.1-3.4-4c-0.6-1.7-0.4-3.6,0.3-5.3
									l5.4-11.1c1.7-3.4,5.8-4.7,9.1-3.1c1.7,0.9,2.9,2.1,3.4,4c0.6,1.7,0.4,3.6-0.3,5.3l-5.4,11.1
									C176.9,178,174.5,179.4,171.9,179.4L171.9,179.4z M177.3,156.2c-2,0-3.8,1.1-4.7,3l-5.4,11.1c-0.6,1.3-0.7,2.7-0.3,4
									c0.4,1.3,1.4,2.4,2.7,3c2.6,1.3,5.8,0.1,7.1-2.4l5.4-11.1c0.6-1.3,0.7-2.7,0.3-4c-0.4-1.3-1.4-2.4-2.7-3
									C178.9,156.5,178.2,156.2,177.3,156.2L177.3,156.2z"/>
								<path id="XMLID_19_" class="st0" d="M182.9,184.3c-1,0-2-0.3-3-0.7c-1.7-0.9-2.9-2.3-3.4-4c-0.6-1.7-0.4-3.6,0.3-5.3
									l5.1-10.4c1.7-3.4,5.8-4.8,9.3-3.1c1.7,0.9,2.9,2.3,3.4,4c0.6,1.7,0.4,3.6-0.3,5.3l-5.1,10.4
									C187.9,183,185.4,184.3,182.9,184.3L182.9,184.3z M188,161.8c-2,0-3.8,1.1-4.8,3l-5.1,10.4c-0.6,1.3-0.7,2.7-0.3,4
									c0.4,1.4,1.4,2.4,2.7,3.1c2.7,1.3,5.8,0.3,7.1-2.4l5.1-10.4c0.6-1.3,0.7-2.7,0.3-4c-0.4-1.4-1.4-2.4-2.7-3.1
									C189.7,161.9,188.9,161.8,188,161.8L188,161.8z"/>
								<path id="XMLID_18_" class="st0" d="M150.4,180l-0.1-1.6c2.6-0.3,4.8-1.6,6.4-3.6c1.6-2,2.3-4.6,2-7.1
									c-0.6-5.3-5-8.7-10.3-8.1l-0.1-1.6c6.1-0.7,11.4,3.4,12,9.6c0.3,3-0.4,5.8-2.4,8.3C156.1,178.2,153.4,179.7,150.4,180
									L150.4,180z"/>
								<path id="XMLID_6540_" class="st4" d="M150.2,179"/>
							</g>
						</g>
						<g id="XMLID_6518_">
							<g id="XMLID_263_">
								<path id="XMLID_272_" class="st5" d="M79.2,187.8c1.9-0.9,3.4-1.6,5-2.3c-0.1,1.9-0.3,3.4-0.6,5.3c-0.4-0.4-0.9-0.7-1.3-1
									c-3.7,7.4,2.3,16.5,10.5,16.4c6.7-0.1,12-6,11.4-12.5c-0.7-7-6.8-11.7-13.7-10.4c-0.7,0.1-1.6,0.4-2.3,0.7
									c-0.6,0.1-1.1,0.1-1.3-0.4c-0.3-0.6,0.1-1,0.7-1.3c4.7-2,9.1-1.1,13,1.7c4.7,3.6,6.6,9,4.7,14.7c-1.7,5.4-6.7,9.1-12.5,9.1
									c-5.6,0.1-10.7-3.4-12.7-8.8c-1-2.9-1.1-5.8-0.1-8.7C80.6,189.3,81.1,188.3,79.2,187.8L79.2,187.8z"/>
								<path id="XMLID_269_" class="st5" d="M102.2,192.4c0.6,2.7-0.4,4.3-2.9,4.4c-0.1,0-0.3,0-0.6,0c-1.3-0.1-2-0.9-2.4-2.1
									c-0.6-1.6-1-3,0.3-4.4c0.9-1,2.1-1.3,3.3-0.9C101.5,189.8,101.7,191.3,102.2,192.4z M97.9,193.4c0.1,0.4,0.3,0.9,0.6,1.3
									c0.3,0.4,0.7,0.7,1.3,0.6c0.6-0.1,0.7-0.6,0.7-1c0-1-0.1-1.9-0.6-2.7c-0.3-0.4-0.7-0.7-1.1-0.6c-0.6,0.1-0.9,0.4-0.9,1
									C97.8,192.4,97.9,193,97.9,193.4z"/>
								<path id="XMLID_265_" class="st5" d="M92.2,190.8c0.6-0.1,1-0.1,1.6,0c0.4,0.1,0.6,0.4,0.6,0.9c0,0.6-0.3,0.4-0.6,0.6
									c-0.6,0.1-1.1,0.3-1.7,0.4c-0.4,0.1-0.7,0.6-0.6,1c0.1,0.6,0.6,0.1,0.9,0c1-0.1,2.1-0.4,3,0.6c0.6,0.7,0.7,1.7,0.3,2.6
									c-0.9,1.7-4,2-5.1,0.4c-0.9-1.1-1.1-2.6-0.9-4C89.8,191.8,90.6,191.1,92.2,190.8z M92.5,194.8c-1,0.1-1,0.3-0.9,0.7
									c0.1,0.7,0.4,1.3,1.4,1.1c0.6-0.1,0.9-0.4,0.7-1C93.6,194.7,93,194.8,92.5,194.8z"/>
								<path id="XMLID_264_" class="st5" d="M87.6,195.5c1.1,0.3,1.7,0.9,1.7,1.9c0,1-0.6,1.6-1.4,1.9c-0.9,0.3-1.7,0.6-2.7,0.4
									c-0.6,0-1-0.3-1-0.9s0.6-0.4,0.9-0.6c0.6-0.1,1.1-0.3,1.7-0.4c0.4-0.1,0.6-0.3,0.6-0.7c-0.1-0.4-0.4-0.7-0.9-0.6
									c-0.3,0-0.7,0.1-1,0.3c-0.6,0.1-0.9,0.1-1-0.6c-0.1-0.7,0.1-0.7,0.7-0.9c0.6-0.1,1.6,0,1.4-0.9c-0.3-1-1.1-0.3-1.7-0.3
									c-0.1,0-0.3,0.1-0.4,0.1c-0.4,0-0.9,0.6-1.1-0.1c-0.3-0.6,0-1,0.6-1.3c0.7-0.3,1.3-0.4,2-0.6c0.9-0.1,1.7,0.1,2.1,1
									C88.6,194,88.6,194.8,87.6,195.5L87.6,195.5z"/>
							</g>
						</g>
					</g>
				</g>
			</g>
		</g>
	</g>
</g>
</svg>
