<?xml version="1.0" encoding="utf-8"?>
<!-- Generator: Adobe Illustrator 22.1.0, SVG Export Plug-In . SVG Version: 6.00 Build 0)  -->
<svg version="1.1" id="Vrstva_2_1_" xmlns="http://www.w3.org/2000/svg" xmlns:xlink="http://www.w3.org/1999/xlink" x="0px"
	 y="0px" viewBox="0 0 39.8 33.7" style="enable-background:new 0 0 39.8 33.7;" xml:space="preserve">
<style type="text/css">
	.st0{fill:#94A6B6;}
</style>
<path class="st0" d="M12.5,10.6c-2.9,0-5.3-2.4-5.3-5.3S9.6,0,12.5,0s5.3,2.4,5.3,5.3S15.5,10.6,12.5,10.6z M12.5,1
	c-2.4,0-4.3,1.9-4.3,4.3s1.9,4.3,4.3,4.3s4.3-1.9,4.3-4.3S14.9,1,12.5,1z"/>
<path class="st0" d="M39.8,33.7H0l9.1-17l6.6,5.9L26.5,8l0.4,0.7c0,0,2.2,4.3,4.8,9.3l0,0c3.5,6.8,7.7,15,7.7,15L39.8,33.7z
	 M1.7,32.7h36.4c-1.1-2.2-4.5-8.7-7.3-14.3c-2-3.8-3.7-7.2-4.4-8.6L15.8,24l-6.4-5.7L1.7,32.7z"/>
</svg>
