<?xml version="1.0" encoding="UTF-8"?>
<svg width="68px" height="82px" viewBox="0 0 68 82" version="1.1" xmlns="http://www.w3.org/2000/svg" xmlns:xlink="http://www.w3.org/1999/xlink">
    <title>ilustrace/kalendar</title>
    <defs>
        <path d="M54,0 L54.0003147,38.6342206 C53.3279749,39.0607681 52.6681457,39.5391531 52.0309526,40.0618712 C52.0305483,40.0622754 52.0301439,40.0626796 52.0297396,40.0626796 C46.0470091,44.9507975 41.7047178,53.6126248 41.7047178,60.6580143 C41.7047178,60.9458122 41.7119961,61.2299722 41.7273613,61.5056438 C41.9052743,64.9584101 43.1862483,67.5012985 45.3349526,68.6690627 C47.5835309,69.8917996 50.6064352,69.5356901 53.8468787,67.6662164 C53.8983046,67.6365345 53.9496615,67.6065448 54.0009476,67.5762502 L54,83 L5.68434189e-14,83 L5.68434189e-14,0 L54,0 Z" id="path-1"></path>
    </defs>
    <g id="V4" stroke="none" stroke-width="1" fill="none" fill-rule="evenodd">
        <g id="HP_v4_3" transform="translate(-1077.000000, -776.000000)">
            <g id="Group-4" transform="translate(167.000000, 772.000000)">
                <g id="Group" transform="translate(910.000000, 4.000000)">
                    <g id="Group-3">
                        <mask id="mask-2" fill="white">
                            <use xlink:href="#path-1"></use>
                        </mask>
                        <g id="Combined-Shape"></g>
                        <g id="Group" mask="url(#mask-2)" stroke="#002549">
                            <g transform="translate(1.000000, 0.481434)">
                                <path d="M8.91388908,79.9241845 C4.51921738,77.7453854 2.01700841,76.4653966 1.40726216,76.0842182 C1.00818348,75.8347371 0.662121583,75.4874116 0.408545343,75.0526316 C0.140983052,74.5938711 0,74.0723052 0,73.5412207 L0,29.7848154 C0,27.2949509 1.32258437,24.9924906 3.47337468,23.7380879 L41.9923928,1.27268928 C42.4634964,0.997928081 43.0005342,0.93741596 43.4905322,1.06141353 C43.8254768,1.14617369 46.3337301,2.41760928 51.0152923,4.87572031" id="Path"></path>
                                <path d="M10.4733747,27.3343135 L48.9923928,4.86891486 C49.94654,4.31242875 51.1711503,4.63479681 51.7276364,5.58894406 C51.9060113,5.89478437 52,6.24249497 52,6.5965513 L52,54.9659474 C52,55.6773373 51.6221188,56.3351831 51.0076072,56.6935839 L11.5114109,79.7289009 C10.08019,80.5636301 8.24327451,80.080078 7.40854534,78.6488571 C7.14098305,78.1900967 7,77.6685308 7,77.1374463 L7,33.381041 C7,30.8911765 8.32258437,28.5887162 10.4733747,27.3343135 Z" id="Rectangle"></path>
                                <line x1="7.29175298" y1="39.1076787" x2="51.5404788" y2="13.3621102" id="Line" stroke-linecap="square"></line>
                                <line x1="18" y1="52.6286833" x2="43.9168741" y2="37.5185663" id="Line-Copy-3" stroke-linecap="square"></line>
                                <line x1="27.1273082" y1="57.3421198" x2="27" y2="37.5185663" id="Line-Copy-3" stroke-linecap="square"></line>
                                <line x1="35.1273082" y1="52.3421198" x2="35" y2="32.5185663" id="Line-Copy-4" stroke-linecap="square"></line>
                                <polygon id="Line-Copy-2" stroke-linecap="square" points="18 62.8775206 44 47.6480638 44 26.6365693 18 41.8660261"></polygon>
                                <path d="M20.4118422,25.5516644 L20.4118422,20.7120686 L20.4118422,20.1457696 C20.4118422,19.7290286 20.36979,19.3171381 20.2901335,18.9153528 C19.9533117,17.2152433 18.9290987,15.6974328 17.4451422,14.7495591 C17.3800422,14.7083296 17.3165596,14.6650791 17.2498422,14.6262749 L15.8479683,13.8041107 L14.9337378,13.2681275 C14.137577,12.8008602 13.1853378,12.7952012 12.3855378,13.2527675 C11.5857378,13.7107381 11.1077987,14.5349233 11.1077987,15.4569275 L11.1077987,16.5402118 L11.1077987,19.0454749" id="Fill-290" stroke-linecap="round" stroke-linejoin="bevel"></path>
                                <path d="M41.3040435,13.1566405 L41.3040435,8.31704475 L41.3040435,7.7507458 C41.3040435,7.33400475 41.2619913,6.92211422 41.1823348,6.52032896 C40.845513,4.82021949 39.8213,3.30240896 38.3373435,2.35453528 C38.2722435,2.3133058 38.2087609,2.27005528 38.1420435,2.23125107 L36.7401696,1.40908685 L35.8259391,0.873103697 C35.0297783,0.405836328 34.0775391,0.400177381 33.2777391,0.857743697 C32.4779391,1.31571422 32,2.13989949 32,3.0619037 L32,4.14518791 L32,6.65045107" id="Fill-290-Copy" stroke-linecap="round" stroke-linejoin="bevel"></path>
                            </g>
                        </g>
                    </g>
                    <g id="Group-2" transform="translate(41.704718, 36.517349)" stroke="#002549">
                        <path d="M12.9508565,1.71991579 C14.9301391,0.577616842 16.822487,8.17124146e-14 18.5086174,8.17124146e-14 C19.6399826,8.17124146e-14 20.6783478,0.260311579 21.586513,0.784572632 C23.8480304,2.08976842 25.0934217,4.91115789 25.0934217,8.72811789 C25.0934217,16.9695663 19.2833478,27.0271326 12.1421609,31.1488674 C8.90171739,33.0183411 5.87881304,33.3744505 3.63023478,32.1517137 C1.48153043,30.9839495 0.200556522,28.4410611 0.0226434783,24.9882947 C0.00727826087,24.7126232 -4.33431069e-13,24.4284632 -4.33431069e-13,24.1406653 C-4.33431069e-13,17.0952758 4.3422913,8.43344842 10.3250217,3.54533053 C10.3254261,3.54533053 10.3258304,3.54492632 10.3262348,3.54452211 C11.1693,2.85291789 12.0519913,2.23892211 12.9508565,1.71991579" id="Path"></path>
                        <polygon id="Fill-226" stroke-width="0.8" points="12.9390091 22.8063663 20.2657917 10.0211874 17.3989657 8.40879158 12.6883135 16.6259874 9.04513957 15.19104 6.44922652 20.2481179"></polygon>
                    </g>
                </g>
            </g>
        </g>
    </g>
</svg>