<?xml version="1.0" encoding="UTF-8"?>
<svg width="81px" height="81px" viewBox="0 0 81 81" version="1.1" xmlns="http://www.w3.org/2000/svg" xmlns:xlink="http://www.w3.org/1999/xlink">
    <title>ilustrace/komp</title>
    <g id="V4" stroke="none" stroke-width="1" fill="none" fill-rule="evenodd">
        <g id="HP_v4_3" transform="translate(-620.000000, -771.000000)" fill="#F3F4F5" stroke="#002549" stroke-width="0.8">
            <g id="Group-4" transform="translate(167.000000, 772.000000)">
                <g id="ilustrace/komp" transform="translate(454.000000, 0.000000)">
                    <path d="M25.0638144,66.0639245 L29.7582144,63.3519245 L34.4523744,66.0639245 L29.7582144,68.7735245 L25.0638144,66.0639245 Z M15.9819744,60.8199245 L20.6766144,58.1103245 L25.3707744,60.8199245 L20.6766144,63.5295245 L15.9819744,60.8199245 Z M30.1827744,52.6215245 L34.8774144,55.3311245 L30.1827744,58.0431245 L25.4886144,55.3311245 L30.1827744,52.6215245 Z M39.6891744,47.1327245 L44.3838144,49.8423245 L39.6891744,52.5543245 L34.9950144,49.8423245 L39.6891744,47.1327245 Z M49.1958144,41.6439245 L53.8899744,44.3535245 L49.1958144,47.0655245 L44.5011744,44.3535245 L49.1958144,41.6439245 Z M62.9715744,49.5975245 L58.2774144,52.3071245 L53.5827744,49.5975245 L58.2774144,46.8879245 L62.9715744,49.5975245 Z M48.7707744,57.7959245 L44.0766144,55.0863245 L48.7707744,52.3767245 L53.4654144,55.0863245 L48.7707744,57.7959245 Z M39.2646144,63.2847245 L34.5699744,60.5751245 L39.2646144,57.8631245 L43.9587744,60.5751245 L39.2646144,63.2847245 Z M78.2202896,54.2350386 C80.1703151,53.0074269 79.5656075,51.22855 77.833518,50.2323961 C77.833518,50.2323961 69.0763368,45.1839722 51.5619744,35.0871245 C50.6238144,34.5471245 49.2078144,34.4847245 48.3915744,34.9503245 L4.96381445,60.0231245 C4.95877445,60.0255245 4.95157445,60.0303245 4.94701445,60.0327245 L4.39741445,60.3495245 C3.58381445,60.8199245 3.68461445,61.6431245 4.62541445,62.1855245 L32.8491744,78.4815245 C33.7899744,79.0239245 35.2131744,79.0815245 36.0270144,78.6111245 C64.1558645,62.3604006 78.2202896,54.2350386 78.2202896,54.2350386 Z" id="Fill-36"></path>
                    <path d="M41.7820224,9.17197246 L42.2454624,13.5327725 L44.0476224,30.5319725 L8.48202245,51.0639725 L7.11426245,38.1639725 L6.21666245,29.7039725 L41.7820224,9.17197246 Z M48.3916224,34.9503725 L48.9484224,34.6287725 C49.7646624,34.1583725 50.3476224,33.0591725 50.2542624,32.1711725 L48.7638624,18.1095725 L47.5446624,6.62797246 L47.4750624,5.97085246 L46.9878624,1.37677246 L46.9446624,0.966372458 C46.9369824,0.896052458 46.9242624,0.830532458 46.9089024,0.767172458 C46.8882624,0.680772458 46.8618624,0.599652458 46.8275424,0.526692458 C46.6703424,0.190692458 46.3785024,0.00469245798 46.0235424,6.38768254e-05 C45.8601024,-0.00178754202 45.6829824,0.036612458 45.4996224,0.114612458 C45.4837824,0.121572458 45.4679424,0.126612458 45.4518624,0.133812458 C45.4019424,0.157092458 45.3513024,0.183252458 45.3004224,0.212772458 L42.1986624,2.00293246 L41.8897824,2.18125246 L38.5180224,4.12717246 L35.3092224,5.97997246 L32.5950624,7.54717246 L1.31322245,25.6071725 C1.07802245,25.7415725 0.864662448,25.9311725 0.679622448,26.1495725 C0.218822448,26.6943725 -0.0571775525,27.4335725 0.0100224475,28.0647725 L0.689222448,34.4775725 L3.31962245,59.2695725 C3.41322245,60.1503725 4.14042245,60.4887725 4.94706245,60.0327725 C4.95162245,60.0303725 4.95882245,60.0255725 4.96386245,60.0231725 L48.3916224,34.9503725 Z" id="Fill-76"></path>
                </g>
            </g>
        </g>
    </g>
</svg>