<svg xmlns="http://www.w3.org/2000/svg" viewBox="0 0 80 80" enable-background="new 0 0 80 80"><style type="text/css">.st0{fill:#D9D9D9;} .st1{fill:#FFFFFF;} .st2{fill:#F2F2F2;} .st3{fill:none;stroke:#676767;stroke-width:0.546;stroke-linecap:round;stroke-linejoin:round;stroke-miterlimit:10;} .st4{fill:#B3B2B2;}</style><g id="XMLID_2192_"><path id="XMLID_2318_" d="M2.6 44.1h11.9c1.3 0 2.3-1 2.3-2.3v-2.9c0-1.3-1-2.3-2.3-2.3H2.6c-1.3 0-2.3 1-2.3 2.3v2.9c0 1.2 1 2.3 2.3 2.3z" class="st0"/><g id="XMLID_2311_"><g id="XMLID_75_"><g id="XMLID_78_"><path id="XMLID_79_" d="M74.5 50.9c0-.1.1-.1.1-.2-1-.2-1.8-1.1-1.8-2.2v-.2c0-1.1.8-2.1 1.9-2.2H78c1.2 0 2.3-1 2.3-2.3v-2.4c0-1.2-1-2.3-2.3-2.3H66.2c-1.2 0-2.3 1-2.3 2.3v2.4c0 .4.1.7.3 1h-3.3c-1.2 0-2.3 1-2.3 2.3v2.4c0 1 .6 1.8 1.5 2.1-.3.4-.5.9-.5 1.4v2.4c0 1.2 1 2.3 2.3 2.3h11.9c1.2 0 2.3-1 2.3-2.3V53c0-.9-.7-1.8-1.6-2.1z" class="st0"/></g><g id="XMLID_76_"><path id="XMLID_77_" d="M60.1 39.5H72c1.2 0 2.3-1 2.3-2.3 0-1.2-1-2.3-2.3-2.3H60.1c-1.2 0-2.3 1-2.3 2.3.1 1.3 1.1 2.3 2.3 2.3z" class="st0"/></g></g></g><path id="XMLID_2310_" d="M61 62.5H16.6c-1.5 0-2.6-1.2-2.6-2.6 0 0 5.2-17.9 5.9-24 .2-1.4 1.2-2.6 2.6-2.6h44c1.5 0 2.8 1.2 2.6 2.6-.8 6.1-4 18-5.6 24-.3 1.4-1.1 2.6-2.5 2.6z" class="st1"/><path id="XMLID_2307_" d="M59.2 27.1l-11.8-.2h-6.3s-.7-.1-.9-.1c-.9-.3-1.7-1.4-2-2.5-.4-1.4-1.2-2.6-2.6-2.6H23.5c-1.5 0-2.4 1.2-2.6 2.6-.2 1-1 2.1-2 2.4-.3.1-1.3.1-1.3.1l-1.8.1c-1.5 0-2.6 1.1-2.6 2.6v27.3s0 .1 0 .1 4.9-16.8 5.6-22.5c.2-1.4 1.2-2.6 2.6-2.6H62v-2.2c-.2-1.7-1.4-2.5-2.8-2.5z" class="st0"/><g id="XMLID_2303_"><g id="XMLID_63_"><g id="XMLID_64_"><path id="XMLID_65_" d="M15.2 48.4l1.8-7.2h-5.7c-.8 0-1.4.6-1.4 1.4v4.7c0 .8.6 1.4 1.4 1.4h3.9v-.3z" class="st0"/></g></g></g><path id="XMLID_2302_" d="M26.4 33.5l-2.7 12.3s-1.7 9 3.3 11.4 13.4 5.3 13.4 5.3l-24.2.2-.9-.5-1-1.4-.3-1L20.3 35l1.2-1.4 1.4-.2 3.5.1z" class="st2"/><g id="XMLID_2298_"><g id="XMLID_62_"><g id="XMLID_66_"><path id="XMLID_67_" d="M18.5 35.1l.3-1.9 1.3-1.4 1.2-.2h.4c-.1-.7-.6-1.3-1.4-1.3H6.6c-.8 0-1.4.6-1.4 1.4v4.1c0 .8.6 1.4 1.4 1.4H18l.5-2.1z" class="st0"/></g></g></g><path id="XMLID_2297_" d="M61 62.5H16.6c-1.5 0-2.6-1.2-2.6-2.6 0 0 5.2-17.9 5.9-24 .2-1.4 1.2-2.6 2.6-2.6h44c1.5 0 2.8 1.2 2.6 2.6-.8 6.1-4 18-5.6 24-.3 1.4-1.1 2.6-2.5 2.6z" class="st3"/><path id="XMLID_2296_" d="M59.8 66.8l-1.3.9c-.9.6-2.1.4-2.7-.5L50.3 56c-.6-.9-1.9-1-1-1.6l1.3-.9c.9-.6.6.7 1.2 1.5l8.5 9.1c.6.9.4 2.1-.5 2.7z" class="st0"/><path id="XMLID_2295_" d="M59.2 27.1l-11.8-.2h-6.3s-.7-.1-.9-.1c-.9-.3-1.7-1.4-2-2.5-.4-1.4-1.2-2.6-2.6-2.6H23.5c-1.5 0-2.4 1.2-2.6 2.6-.2 1-1 2.1-2 2.4-.3.1-1.3.1-1.3.1l-1.8.1c-1.5 0-2.6 1.1-2.6 2.6v27.3s0 .1 0 .1 4.9-16.8 5.6-22.5c.2-1.4 1.2-2.6 2.6-2.6H62v-2.2c-.2-1.7-1.4-2.5-2.8-2.5z" class="st3"/><g id="XMLID_2283_"><g id="XMLID_33_"><path id="XMLID_35_" d="M39.5 16c0 .3-.2.6-.5.6l-2.9.4c-.3 0-.6-.2-.6-.5s.2-.6.5-.6l2.9-.4c.3 0 .5.2.6.5z" class="st4"/><path id="XMLID_34_" d="M37.7 18c-.3 0-.6-.2-.6-.5l-.3-2.6c0-.3.2-.6.5-.6s.6.2.6.5l.3 2.6c0 .3-.2.6-.5.6z" class="st4"/></g></g><g id="XMLID_2279_"><g id="XMLID_29_"><path id="XMLID_31_" d="M58.2 17.3c0 .2-.2.3-.4.3H56c-.2 0-.3-.2-.3-.4s.2-.3.4-.3l1.9.1c.1 0 .3.1.2.3z" class="st0"/><path id="XMLID_30_" d="M56.9 18.5c-.2 0-.3-.2-.3-.4l.1-1.7c0-.2.2-.3.4-.3s.3.2.3.4l-.1 1.7c0 .1-.2.3-.4.3z" class="st0"/></g></g><circle id="XMLID_2276_" cx="54" cy="19.3" r=".8" class="st2"/><circle id="XMLID_2275_" cx="42.6" cy="15.5" r=".5" class="st2"/><circle id="XMLID_2272_" cx="49.8" cy="22.9" r=".5" class="st0"/><circle id="XMLID_2269_" cx="17" cy="23.3" r=".4" class="st4"/><g id="XMLID_2258_"><g id="XMLID_25_"><path id="XMLID_27_" d="M20 20c-.1.1-.4.1-.5 0l-1.4-1.3c-.1-.1-.1-.4 0-.5.1-.1.4-.1.5 0l1.4 1.3c.2.1.2.4 0 .5z" class="st0"/><path id="XMLID_26_" d="M18.3 20c-.1-.1-.1-.4 0-.5l1.2-1.2c.1-.1.4-.1.5 0 .1.1.1.4 0 .5L18.8 20c-.2.1-.4.1-.5 0z" class="st0"/></g></g><path id="XMLID_2217_" d="M60.5 65.9c-.3.3-.8.3-1.1-.1l-8.9-9.9c-.3-.3-.3-.8.1-1.1.3-.3.8-.3 1.1.1l8.9 9.9c.2.3.2.8-.1 1.1z" class="st2"/><path id="XMLID_2216_" d="M59.8 66.8l-1.3.9c-.9.6-2.1.4-2.7-.5L50.3 56c-.6-.9-1.9-1-1-1.6l1.3-.9c.9-.6.6.7 1.2 1.5l8.5 9.1c.6.9.4 2.1-.5 2.7z" class="st3"/><circle id="XMLID_2215_" cx="45.1" cy="46.4" r="10.5" class="st1"/><path id="XMLID_2214_" d="M46.9 53.9c-5.8 0-9.3-3.5-9.3-9.3 0-2.4.8-5.9 2.2-7.6-2.5 1.9-5.3 6.1-5.3 9.5C34.5 52.3 39.2 57 45 57c3.4 0 7.6-2.7 9.3-5.3-1.8 1.3-5 2.2-7.4 2.2z" class="st2"/><circle id="XMLID_2213_" cx="45.1" cy="46.4" r="10.5" class="st3"/><ellipse id="XMLID_2212_" cx="47.7" cy="40.3" class="st2" rx="2.1" ry="2"/><ellipse id="XMLID_2193_" cx="50.2" cy="42.8" class="st2" rx=".9" ry=".8"/></g></svg>