<svg xmlns="http://www.w3.org/2000/svg" viewBox="0 0 80 80" enable-background="new 0 0 80 80"><style type="text/css">.st0{fill:#D9D9D9;} .st1{fill:#B2B2B2;} .st2{fill:#FFFFFF;stroke:#4D4D4D;stroke-width:0.8262;stroke-linecap:round;stroke-linejoin:round;stroke-miterlimit:10;} .st3{fill:none;} .st4{fill:none;stroke:#4D4D4D;stroke-width:0.9231;stroke-linecap:round;stroke-linejoin:round;stroke-miterlimit:10;} .st5{fill:none;stroke:#4D4D4D;stroke-width:0.8262;stroke-linecap:round;stroke-linejoin:round;stroke-miterlimit:10;} .st6{fill:#FFFFFF;} .st7{fill:none;stroke:#FC797D;stroke-width:2.7693;stroke-linecap:round;stroke-linejoin:round;stroke-miterlimit:10;}</style><g id="XMLID_1475_"><path id="XMLID_1656_" d="M72.2 42.7H64.6c-1.5 0-2.8-1.2-2.8-2.8s1.2-2.8 2.8-2.8h1.8c1.5 0 2.8-1.2 2.8-2.8v-4.8c0-1.5-1.2-2.8-2.8-2.8H49.1c-1.5 0-2.8 1.2-2.8 2.8v4.8c0 .5.2 1 .4 1.4h-1.3c-1.5 0-2.8 1.2-2.8 2.8v4.8c0 1.5 1.2 2.8 2.8 2.8h6.7v2.1h-6.7c-1.5 0-2.8 1.2-2.8 2.8v4.8c0 1.5 1.2 2.8 2.8 2.8h17.3c1.5 0 2.8-1.2 2.8-2.8V53h6.7c1.5 0 2.8-1.2 2.8-2.8v-4.8c0-1.5-1.2-2.7-2.8-2.7z" class="st0"/><path id="XMLID_1653_" d="M5.3 42.3h24c1.3 0 2.3-1 2.3-2.3v-5.8c0-1.3-1-2.3-2.3-2.3h-24C4 32 3 33 3 34.3v5.8c0 1.2 1 2.2 2.3 2.2z" class="st0"/><path id="XMLID_1650_" d="M13.7 52.7h24c1.3 0 2.3-1 2.3-2.3v-5.8c0-1.3-1-2.3-2.3-2.3h-24c-1.3 0-2.3 1-2.3 2.3v5.8c0 1.3 1 2.3 2.3 2.3z" class="st0"/><path id="XMLID_1649_" d="M27.2 14.5h32.4v45.9H27.2z" class="st1"/><path id="XMLID_1648_" d="M35.6 75.2h-.5c-.7 0-1.2-.5-1.2-1.2v-.5c0-.7.5-1.2 1.2-1.2h.5c.7 0 1.2.5 1.2 1.2v.5c0 .7-.5 1.2-1.2 1.2z" class="st2"/><path id="XMLID_1647_" d="M48.7 73.7h-.5c-.7 0-1.2-.5-1.2-1.2V70c0-.7.5-1.2 1.2-1.2h.5c.7 0 1.2.5 1.2 1.2v2.6c0 .6-.5 1.1-1.2 1.1z" class="st2"/><path id="XMLID_1646_" d="M57.2 62.2v-4.4c0-.1 0-.2 0-.3l-.1-26-11.8-11.6-23.4.1.1 42.5v9.4c0 .8.7 1.5 1.5 1.5s1.5-.7 1.5-1.5V61.7c0-.8.7-1.5 1.5-1.5s1.5.7 1.5 1.5v6.6c0 .8.7 1.5 1.5 1.5s1.5-.7 1.5-1.5v-9.9c0-.8.7-1.5 1.5-1.5s1.5.7 1.5 1.5V67.2c0 .8.7 1.5 1.5 1.5S37 68 37 67.2v-4.9c0-.8.7-1.5 1.5-1.5s1.5.7 1.5 1.5v12c0 .8.7 1.5 1.5 1.5s1.5-.7 1.5-1.5V61c0-1.1.9-2 2-2s2 .9 2 2v2.3c0 1 .8 1.7 1.7 1.7 1 0 1.7-.8 1.7-1.7v-5c0-1 .8-1.8 1.8-1.8s1.8.8 1.8 1.8v8.3c0 1 .8 1.8 1.8 1.8s1.8-.8 1.8-1.8V63l-.4-.8z" class="st2"/><path id="XMLID_1645_" d="M45.6 20.7l-.7 10.9 12.1-.1z" class="st0"/><path id="XMLID_1644_" d="M45.3 19.9l-23.4.1.2 43.8 35-.1-.1-32.2z" class="st3"/><path id="XMLID_1643_" d="M45.3 19.9v11.7l11.7-.1" class="st4"/><g id="XMLID_1640_"><g id="XMLID_99_"><path id="XMLID_103_" d="M22.2 14v.5c0 .2-.2.4-.4.4l-3.9-.1c-.2 0-.4-.2-.4-.4v-.5c0-.2.2-.4.4-.4l3.9.1c.2 0 .4.2.4.4z" class="st1"/><path id="XMLID_102_" d="M20 16.4h-.5c-.2 0-.4-.2-.4-.4l.1-3.5c0-.2.2-.4.4-.4h.5c.2 0 .4.2.4.4l-.1 3.5c0 .2-.2.4-.4.4z" class="st1"/></g></g><circle id="XMLID_1625_" cx="16.6" cy="20.7" r="1.4" class="st0"/><g id="XMLID_1622_"><g id="XMLID_104_"><path id="XMLID_108_" d="M56.2 7.4l.1.8c0 .3-.2.6-.5.6l-6 .7c-.3 0-.6-.2-.6-.5l-.1-.8c0-.3.2-.6.5-.6l6-.7c.3 0 .5.2.6.5z" class="st1"/><path id="XMLID_105_" d="M53.5 11.5l-.8.1c-.3 0-.6-.2-.6-.5l-.7-5.5c0-.3.2-.6.5-.6l.8-.1c.3 0 .6.2.6.5l.7 5.5c0 .3-.2.6-.5.6z" class="st1"/></g></g><circle id="XMLID_1617_" cx="61.9" cy="7" r=".9" class="st0"/><circle id="XMLID_1614_" cx="44.6" cy="9.3" r=".9" class="st0"/><path id="XMLID_1610_" d="M27.5 19.7l1.6-2" class="st5"/><path id="XMLID_1609_" d="M30.2 19.7l1.7-2" class="st5"/><path id="XMLID_1608_" d="M33 19.7l1.6-2" class="st5"/><path id="XMLID_1606_" d="M35.8 19.7l1.6-2" class="st5"/><path id="XMLID_1605_" d="M38.5 19.7l1.7-2" class="st5"/><path id="XMLID_1604_" d="M41.3 19.7l1.6-2" class="st5"/><path id="XMLID_1603_" d="M44.1 19.7l1.6-2" class="st5"/><path id="XMLID_1602_" d="M46.1 20.4l1.7-2.1" class="st5"/><path id="XMLID_1601_" d="M47.7 21.9l1.7-2.1" class="st5"/><path id="XMLID_1600_" d="M49.3 23.5l1.7-2.1" class="st5"/><path id="XMLID_1599_" d="M51 25l1.7-2.2" class="st5"/><path id="XMLID_1598_" d="M52.4 26.5l1.6-2.1" class="st5"/><path id="XMLID_1597_" d="M53.8 27.9l1.7-2.2" class="st5"/><path id="XMLID_1596_" d="M55.3 29.2l1.7-2.1" class="st5"/><path id="XMLID_1585_" d="M56.7 30.7l1.6-2.1" class="st5"/><g id="XMLID_1477_"><circle id="XMLID_1546_" cx="51.8" cy="51.3" r="11.3" class="st6"/><g id="XMLID_1484_"><path id="XMLID_1545_" d="M59.6 43.5l-15 15" class="st7"/><circle id="XMLID_1534_" cx="52.1" cy="51" r="10.6" class="st7"/></g></g></g></svg>