<?xml version="1.0" encoding="UTF-8"?>
<svg width="113px" height="101px" viewBox="0 0 113 101" version="1.1" xmlns="http://www.w3.org/2000/svg" xmlns:xlink="http://www.w3.org/1999/xlink">
    <!-- Generator: sketchtool 53.2 (72643) - https://sketchapp.com -->
    <title>DD5A6155-0AD5-402D-8657-9C618A505551</title>
    <desc>Created with sketchtool.</desc>
    <defs>
        <path d="M4,1.87341441e-13 L30.7385289,1.43973722e-12 C31.7963537,1.48839883e-12 32.8111082,0.419021319 33.5607428,1.1653733 L46.8222139,14.3687727 C47.5761593,15.1194165 48,16.1394916 48,17.2033994 L48,57 C48,59.209139 46.209139,61 44,61 L4,61 C1.790861,61 2.705415e-16,59.209139 0,57 L-1.87405647e-13,4 C-1.87676188e-13,1.790861 1.790861,4.05812251e-16 4,0 Z" id="path-1"></path>
        <filter x="-17.7%" y="-10.7%" width="135.4%" height="127.9%" filterUnits="objectBoundingBox" id="filter-2">
            <feOffset dx="0" dy="2" in="SourceAlpha" result="shadowOffsetOuter1"></feOffset>
            <feGaussianBlur stdDeviation="2.5" in="shadowOffsetOuter1" result="shadowBlurOuter1"></feGaussianBlur>
            <feColorMatrix values="0 0 0 0 0.170084227   0 0 0 0 0.299500553   0 0 0 0 0.428916879  0 0 0 0.161175272 0" type="matrix" in="shadowBlurOuter1"></feColorMatrix>
        </filter>
        <path d="M4,1.87341441e-13 L30.7385289,1.43973722e-12 C31.7963537,1.48839883e-12 32.8111082,0.419021319 33.5607428,1.1653733 L46.8222139,14.3687727 C47.5761593,15.1194165 48,16.1394916 48,17.2033994 L48,57 C48,59.209139 46.209139,61 44,61 L4,61 C1.790861,61 2.705415e-16,59.209139 0,57 L-1.87405647e-13,4 C-1.87676188e-13,1.790861 1.790861,4.05812251e-16 4,0 Z" id="path-3"></path>
        <filter x="-17.7%" y="-10.7%" width="135.4%" height="127.9%" filterUnits="objectBoundingBox" id="filter-4">
            <feOffset dx="0" dy="2" in="SourceAlpha" result="shadowOffsetOuter1"></feOffset>
            <feGaussianBlur stdDeviation="2.5" in="shadowOffsetOuter1" result="shadowBlurOuter1"></feGaussianBlur>
            <feColorMatrix values="0 0 0 0 0.170084227   0 0 0 0 0.299500553   0 0 0 0 0.428916879  0 0 0 0.161175272 0" type="matrix" in="shadowBlurOuter1"></feColorMatrix>
        </filter>
        <path d="M4,1.87341441e-13 L30.7385289,1.43973722e-12 C31.7963537,1.48839883e-12 32.8111082,0.419021319 33.5607428,1.1653733 L46.8222139,14.3687727 C47.5761593,15.1194165 48,16.1394916 48,17.2033994 L48,57 C48,59.209139 46.209139,61 44,61 L4,61 C1.790861,61 2.705415e-16,59.209139 0,57 L-1.87405647e-13,4 C-1.87676188e-13,1.790861 1.790861,4.05812251e-16 4,0 Z" id="path-5"></path>
        <filter x="-17.7%" y="-10.7%" width="135.4%" height="127.9%" filterUnits="objectBoundingBox" id="filter-6">
            <feOffset dx="0" dy="2" in="SourceAlpha" result="shadowOffsetOuter1"></feOffset>
            <feGaussianBlur stdDeviation="2.5" in="shadowOffsetOuter1" result="shadowBlurOuter1"></feGaussianBlur>
            <feColorMatrix values="0 0 0 0 0.170084227   0 0 0 0 0.299500553   0 0 0 0 0.428916879  0 0 0 0.161175272 0" type="matrix" in="shadowBlurOuter1"></feColorMatrix>
        </filter>
    </defs>
    <g id="Master-page" stroke="none" stroke-width="1" fill="none" fill-rule="evenodd">
        <g id="Colors,-icons" transform="translate(-542.000000, -1394.000000)">
            <g id="Group-2" transform="translate(547.000000, 1397.000000)">
                <g id="Group-9-Copy-2">
                    <g id="Rectangle">
                        <use fill="black" fill-opacity="1" filter="url(#filter-2)" xlink:href="#path-1"></use>
                        <use fill="#EEF2F6" fill-rule="evenodd" xlink:href="#path-1"></use>
                    </g>
                    <path d="M33,0 L48,15 L48,4 C48,1.790861 46.209139,-4.05812251e-16 44,0 L33,0 Z" id="Rectangle" fill="#DDE4EB" fill-rule="nonzero" transform="translate(40.500000, 7.500000) rotate(-180.000000) translate(-40.500000, -7.500000) "></path>
                </g>
                <g id="Group-9-Copy" transform="translate(55.000000, 14.000000)">
                    <g id="Rectangle">
                        <use fill="black" fill-opacity="1" filter="url(#filter-4)" xlink:href="#path-3"></use>
                        <use fill="#EEF2F6" fill-rule="evenodd" xlink:href="#path-3"></use>
                    </g>
                    <path d="M33,0 L48,15 L48,4 C48,1.790861 46.209139,-4.05812251e-16 44,0 L33,0 Z" id="Rectangle" fill="#DDE4EB" fill-rule="nonzero" transform="translate(40.500000, 7.500000) rotate(-180.000000) translate(-40.500000, -7.500000) "></path>
                </g>
                <g id="Group-9" transform="translate(31.000000, 30.000000)">
                    <g id="Rectangle">
                        <use fill="black" fill-opacity="1" filter="url(#filter-6)" xlink:href="#path-5"></use>
                        <use fill="#F6FAFD" fill-rule="evenodd" xlink:href="#path-5"></use>
                    </g>
                    <path d="M33,0 L48,15 L48,4 C48,1.790861 46.209139,-4.05812251e-16 44,0 L33,0 Z" id="Rectangle" fill="#DDE4EB" fill-rule="nonzero" transform="translate(40.500000, 7.500000) rotate(-180.000000) translate(-40.500000, -7.500000) "></path>
                </g>
                <g id="outline-info-24px" transform="translate(55.000000, 61.000000) rotate(-180.000000) translate(-55.000000, -61.000000) translate(43.000000, 49.000000)">
                    <g id="Bounding_Boxes">
                        <polygon id="Shape" points="0 0 24 0 24 24 0 24"></polygon>
                    </g>
                    <g id="Outline" transform="translate(2.000000, 2.000000)" fill="#2B4762" fill-rule="nonzero">
                        <g id="Group">
                            <rect id="Rectangle-path" x="9" y="5" width="2" height="2"></rect>
                            <rect id="Rectangle-path" x="9" y="9" width="2" height="6"></rect>
                            <path d="M10,0 C4.48,0 0,4.48 0,10 C0,15.52 4.48,20 10,20 C15.52,20 20,15.52 20,10 C20,4.48 15.52,0 10,0 Z M10,18 C5.59,18 2,14.41 2,10 C2,5.59 5.59,2 10,2 C14.41,2 18,5.59 18,10 C18,14.41 14.41,18 10,18 Z" id="Shape"></path>
                        </g>
                    </g>
                </g>
            </g>
        </g>
    </g>
</svg>