<?xml version="1.0" encoding="UTF-8"?>
<svg width="74px" height="89px" viewBox="0 0 74 89" version="1.1" xmlns="http://www.w3.org/2000/svg" xmlns:xlink="http://www.w3.org/1999/xlink">
    <title>17F85E80-454C-49E4-9555-A4AE90560CED</title>
    <defs>
        <path d="M4,0 L34.780927,0 C35.8425283,2.46952226e-15 36.860587,0.422010159 37.6108542,1.17307376 L52.8299272,16.4083029 C53.579155,17.1583261 54,18.1750985 54,19.2352292 L54,65 C54,67.209139 52.209139,69 50,69 L4,69 C1.790861,69 2.705415e-16,67.209139 0,65 L0,4 C-2.705415e-16,1.790861 1.790861,4.05812251e-16 4,0 Z" id="path-1"></path>
        <filter x="-27.8%" y="-21.7%" width="155.6%" height="143.5%" filterUnits="objectBoundingBox" id="filter-2">
            <feOffset dx="0" dy="0" in="SourceAlpha" result="shadowOffsetOuter1"></feOffset>
            <feGaussianBlur stdDeviation="5" in="shadowOffsetOuter1" result="shadowBlurOuter1"></feGaussianBlur>
            <feColorMatrix values="0 0 0 0 0.170084227   0 0 0 0 0.299500553   0 0 0 0 0.428916879  0 0 0 0.161175272 0" type="matrix" in="shadowBlurOuter1"></feColorMatrix>
        </filter>
    </defs>
    <g id="Supply-Point" stroke="none" stroke-width="1" fill="none" fill-rule="evenodd">
        <g id="Detail-smlouvy-1" transform="translate(-800.000000, -2084.000000)">
            <g id="Group-3" transform="translate(810.000000, 2094.000000)">
                <g id="Group-9-Copy-2">
                    <g id="Rectangle">
                        <use fill="black" fill-opacity="1" filter="url(#filter-2)" xlink:href="#path-1"></use>
                        <use fill="#F6FAFD" fill-rule="evenodd" xlink:href="#path-1"></use>
                    </g>
                    <path d="M37,0 L54,17 L54,4 C54,1.790861 52.209139,-4.05812251e-16 50,0 L37,0 L37,0 Z" id="Rectangle" fill="#DDE4EB" fill-rule="nonzero" transform="translate(45.500000, 8.500000) rotate(-180.000000) translate(-45.500000, -8.500000) "></path>
                </g>
                <path d="M34.0897852,26 L38,29.3738236 L26.5258315,42.1347179 C25.5447178,43.2258547 23.8326322,43.2947542 22.7634583,42.2861271 L16,35.90568 L19.6145315,32.2290379 L24.416006,36.7586073 L34.0897852,26 Z" id="chceck-copy" fill="#2B4762" fill-rule="nonzero"></path>
            </g>
        </g>
    </g>
</svg>