<?xml version="1.0" encoding="UTF-8"?>
<svg width="164px" height="167px" viewBox="0 0 164 167" version="1.1" xmlns="http://www.w3.org/2000/svg" xmlns:xlink="http://www.w3.org/1999/xlink">
    <!-- Generator: sketchtool 53.2 (72643) - https://sketchapp.com -->
    <title>C478552E-F10F-4629-87D7-DE4A8024F144</title>
    <desc>Created with sketchtool.</desc>
    <defs>
        <path d="M4,1.8778018e-13 L55.0284731,2.59525734e-12 C56.0879188,2.64399352e-12 57.1040919,0.420302859 57.8540004,1.16867605 L82.8255273,26.0890783 C83.5774465,26.8394581 84,27.8581159 84,28.9204023 L84,103 C84,105.209139 82.209139,107 80,107 L4,107 C1.790861,107 2.705415e-16,105.209139 0,103 L-1.88293825e-13,4 C-1.88564366e-13,1.790861 1.790861,4.05812251e-16 4,0 Z" id="path-1"></path>
        <filter x="-10.1%" y="-6.1%" width="120.2%" height="115.9%" filterUnits="objectBoundingBox" id="filter-2">
            <feOffset dx="0" dy="2" in="SourceAlpha" result="shadowOffsetOuter1"></feOffset>
            <feGaussianBlur stdDeviation="2.5" in="shadowOffsetOuter1" result="shadowBlurOuter1"></feGaussianBlur>
            <feColorMatrix values="0 0 0 0 0.170084227   0 0 0 0 0.299500553   0 0 0 0 0.428916879  0 0 0 0.161175272 0" type="matrix" in="shadowBlurOuter1"></feColorMatrix>
        </filter>
        <path d="M4,1.8778018e-13 L55.0284731,2.59525734e-12 C56.0879188,2.64399352e-12 57.1040919,0.420302859 57.8540004,1.16867605 L82.8255273,26.0890783 C83.5774465,26.8394581 84,27.8581159 84,28.9204023 L84,103 C84,105.209139 82.209139,107 80,107 L4,107 C1.790861,107 2.705415e-16,105.209139 0,103 L-1.88293825e-13,4 C-1.88564366e-13,1.790861 1.790861,4.05812251e-16 4,0 Z" id="path-3"></path>
        <filter x="-10.1%" y="-6.1%" width="120.2%" height="115.9%" filterUnits="objectBoundingBox" id="filter-4">
            <feOffset dx="0" dy="2" in="SourceAlpha" result="shadowOffsetOuter1"></feOffset>
            <feGaussianBlur stdDeviation="2.5" in="shadowOffsetOuter1" result="shadowBlurOuter1"></feGaussianBlur>
            <feColorMatrix values="0 0 0 0 0.170084227   0 0 0 0 0.299500553   0 0 0 0 0.428916879  0 0 0 0.161175272 0" type="matrix" in="shadowBlurOuter1"></feColorMatrix>
        </filter>
        <path d="M4,1.8778018e-13 L55.0284731,2.59525734e-12 C56.0879188,2.64399352e-12 57.1040919,0.420302859 57.8540004,1.16867605 L82.8255273,26.0890783 C83.5774465,26.8394581 84,27.8581159 84,28.9204023 L84,103 C84,105.209139 82.209139,107 80,107 L4,107 C1.790861,107 2.705415e-16,105.209139 0,103 L-1.88293825e-13,4 C-1.88564366e-13,1.790861 1.790861,4.05812251e-16 4,0 Z" id="path-5"></path>
        <filter x="-10.1%" y="-6.1%" width="120.2%" height="115.9%" filterUnits="objectBoundingBox" id="filter-6">
            <feOffset dx="0" dy="2" in="SourceAlpha" result="shadowOffsetOuter1"></feOffset>
            <feGaussianBlur stdDeviation="2.5" in="shadowOffsetOuter1" result="shadowBlurOuter1"></feGaussianBlur>
            <feColorMatrix values="0 0 0 0 0.170084227   0 0 0 0 0.299500553   0 0 0 0 0.428916879  0 0 0 0.161175272 0" type="matrix" in="shadowBlurOuter1"></feColorMatrix>
        </filter>
    </defs>
    <g id="Master-page" stroke="none" stroke-width="1" fill="none" fill-rule="evenodd">
        <g id="Colors,-icons" transform="translate(-517.000000, -818.000000)">
            <g id="Group-5" transform="translate(522.000000, 821.000000)">
                <g id="Group-9">
                    <g id="Rectangle">
                        <use fill="black" fill-opacity="1" filter="url(#filter-2)" xlink:href="#path-1"></use>
                        <use fill="#F6FAFD" fill-rule="evenodd" xlink:href="#path-1"></use>
                    </g>
                    <rect id="Rectangle-Copy-21" fill="#E7ECF1" fill-rule="nonzero" x="14" y="86" width="56" height="2"></rect>
                    <rect id="Rectangle-Copy-23" fill="#E7ECF1" fill-rule="nonzero" x="14" y="90" width="56" height="2"></rect>
                    <rect id="Rectangle-Copy-24" fill="#E7ECF1" fill-rule="nonzero" x="14" y="94" width="35" height="2"></rect>
                    <rect id="Rectangle-Copy-64" fill="#E7ECF1" fill-rule="nonzero" x="14" y="14" width="20" height="2"></rect>
                    <rect id="Rectangle-Copy-65" fill="#E7ECF1" fill-rule="nonzero" x="14" y="18" width="11" height="2"></rect>
                    <circle id="Oval" stroke="#0097FF" stroke-width="2" fill="#EEF2F6" fill-rule="nonzero" cx="60.5" cy="86.5" r="10.5"></circle>
                    <g id="Group" transform="translate(60.015425, 85.092250) rotate(-45.000000) translate(-60.015425, -85.092250) translate(53.515425, 81.092250)" fill="#0097FF" fill-rule="nonzero">
                        <rect id="Rectangle" x="0.282877555" y="0.399230247" width="2.04878049" height="6.81528662"></rect>
                        <polygon id="Rectangle-Copy-25" transform="translate(6.429219, 6.192224) rotate(-90.000000) translate(-6.429219, -6.192224) " points="5.40692602 0.0458824145 7.45151201 0.0458824145 7.45151201 12.3385653 5.40692602 12.3385653"></polygon>
                    </g>
                    <path d="M57,0 L84,27 L84,4 C84,1.790861 82.209139,-4.05812251e-16 80,0 L57,0 Z" id="Rectangle" fill="#DDE4EB" fill-rule="nonzero" transform="translate(70.500000, 13.500000) rotate(-180.000000) translate(-70.500000, -13.500000) "></path>
                </g>
                <g id="Group-9" transform="translate(70.000000, 20.000000)">
                    <g id="Rectangle">
                        <use fill="black" fill-opacity="1" filter="url(#filter-4)" xlink:href="#path-3"></use>
                        <use fill="#F6FAFD" fill-rule="evenodd" xlink:href="#path-3"></use>
                    </g>
                    <rect id="Rectangle-Copy-21" fill="#E7ECF1" fill-rule="nonzero" x="14" y="86" width="56" height="2"></rect>
                    <rect id="Rectangle-Copy-23" fill="#E7ECF1" fill-rule="nonzero" x="14" y="90" width="56" height="2"></rect>
                    <rect id="Rectangle-Copy-24" fill="#E7ECF1" fill-rule="nonzero" x="14" y="64" width="35" height="2"></rect>
                    <rect id="Rectangle-Copy-64" fill="#E7ECF1" fill-rule="nonzero" x="14" y="14" width="20" height="2"></rect>
                    <rect id="Rectangle-Copy-65" fill="#E7ECF1" fill-rule="nonzero" x="14" y="18" width="11" height="2"></rect>
                    <path d="M57,0 L84,27 L84,4 C84,1.790861 82.209139,-4.05812251e-16 80,0 L57,0 Z" id="Rectangle" fill="#DDE4EB" fill-rule="nonzero" transform="translate(70.500000, 13.500000) rotate(-180.000000) translate(-70.500000, -13.500000) "></path>
                </g>
                <g id="Group-9" transform="translate(40.000000, 50.000000)">
                    <g id="Rectangle">
                        <use fill="black" fill-opacity="1" filter="url(#filter-6)" xlink:href="#path-5"></use>
                        <use fill="#F6FAFD" fill-rule="evenodd" xlink:href="#path-5"></use>
                    </g>
                    <rect id="Rectangle-Copy-21" fill="#2B4762" fill-rule="nonzero" x="14" y="56" width="56" height="2"></rect>
                    <rect id="Rectangle-Copy-23" fill="#2B4762" fill-rule="nonzero" x="14" y="60" width="56" height="2"></rect>
                    <rect id="Rectangle-Copy-24" fill="#2B4762" fill-rule="nonzero" x="14" y="64" width="35" height="2"></rect>
                    <rect id="Rectangle-Copy-64" fill="#2B4762" fill-rule="nonzero" x="14" y="14" width="20" height="2"></rect>
                    <rect id="Rectangle-Copy-65" fill="#2B4762" fill-rule="nonzero" x="14" y="18" width="11" height="2"></rect>
                    <circle id="Oval" fill="#2B4762" fill-rule="nonzero" cx="60.5" cy="86.5" r="10.5"></circle>
                    <g id="Group" transform="translate(60.015425, 85.092250) rotate(-45.000000) translate(-60.015425, -85.092250) translate(53.515425, 81.092250)" fill="#E7ECF1" fill-rule="nonzero">
                        <rect id="Rectangle" x="0.282877555" y="0.399230247" width="2.04878049" height="6.81528662"></rect>
                        <polygon id="Rectangle-Copy-25" transform="translate(6.429219, 6.192224) rotate(-90.000000) translate(-6.429219, -6.192224) " points="5.40692602 0.0458824145 7.45151201 0.0458824145 7.45151201 12.3385653 5.40692602 12.3385653"></polygon>
                    </g>
                    <path d="M57,0 L84,27 L84,4 C84,1.790861 82.209139,-4.05812251e-16 80,0 L57,0 Z" id="Rectangle" fill="#DDE4EB" fill-rule="nonzero" transform="translate(70.500000, 13.500000) rotate(-180.000000) translate(-70.500000, -13.500000) "></path>
                </g>
            </g>
        </g>
    </g>
</svg>