<svg xmlns="http://www.w3.org/2000/svg" xmlns:xlink="http://www.w3.org/1999/xlink" viewBox="0 0 666 359" enable-background="new 0 0 666 359"><style type="text/css">.st0{clip-path:url(#XMLID_265_);} .st1{fill:#F2FAFE;} .st2{fill:#FFFFFF;} .st3{fill:none;stroke:#5F8391;stroke-width:2.0343;stroke-linecap:round;stroke-linejoin:round;stroke-miterlimit:10;} .st4{fill:none;stroke:#5F8391;stroke-width:3.3905;stroke-linecap:round;stroke-linejoin:round;stroke-miterlimit:10;} .st5{fill:#DFF2FD;} .st6{fill:none;stroke:#5F8391;stroke-width:1.2923;stroke-linecap:round;stroke-linejoin:round;stroke-miterlimit:10;} .st7{fill:#5F8391;} .st8{fill:none;stroke:#5F8391;stroke-width:2.309;stroke-linecap:round;stroke-linejoin:round;stroke-miterlimit:10;} .st9{fill:none;stroke:#5F8391;stroke-width:1.6067;stroke-linecap:round;stroke-linejoin:round;stroke-miterlimit:10;} .st10{fill:none;stroke:#5F8391;stroke-width:3.7601;stroke-linecap:round;stroke-linejoin:round;stroke-miterlimit:10;} .st11{fill:none;stroke:#5F8391;stroke-width:1.3562;stroke-linecap:round;stroke-linejoin:round;stroke-miterlimit:10;} .st12{fill:none;stroke:#5F8391;stroke-width:1.5414;stroke-linecap:round;stroke-linejoin:round;stroke-miterlimit:10;} .st13{fill:#DBE1E8;} .st14{fill:none;stroke:#5F8391;stroke-width:1.3217;stroke-miterlimit:10;} .st15{fill:none;stroke:#5F8391;stroke-width:1.2433;stroke-miterlimit:10;} .st16{fill:none;stroke:#5F8391;stroke-width:1.3714;stroke-miterlimit:10;} .st17{fill:none;stroke:#5F8391;stroke-width:1.1656;stroke-miterlimit:10;} .st18{fill:#EF797E;} .st19{fill:#FFFFFF;stroke:#5F8391;stroke-width:1.6361;stroke-linecap:round;stroke-linejoin:round;stroke-miterlimit:10;} .st20{fill:#DFF2FD;stroke:#5F8391;stroke-width:1.6361;stroke-linecap:round;stroke-linejoin:round;stroke-miterlimit:10;} .st21{fill:none;stroke:#5F8391;stroke-width:2.0343;stroke-linecap:round;stroke-linejoin:round;stroke-miterlimit:10;stroke-dasharray:9.6709;} .st22{fill:none;stroke:#5F8391;stroke-width:0.8777;stroke-linecap:round;stroke-linejoin:round;stroke-miterlimit:10;} .st23{fill:#CEE8F4;} .st24{fill:none;stroke:#5F8391;stroke-width:0.6781;stroke-linecap:round;stroke-linejoin:round;stroke-miterlimit:10;} .st25{fill:none;stroke:#5F8391;stroke-width:1.8943;stroke-linecap:round;stroke-linejoin:round;stroke-miterlimit:10;} .st26{fill:none;stroke:#5F8391;stroke-width:0.7746;stroke-linecap:round;stroke-linejoin:round;stroke-miterlimit:10;} .st27{fill:none;stroke:#5F8391;stroke-width:1.6361;stroke-linecap:round;stroke-linejoin:round;stroke-miterlimit:10;}</style><g id="XMLID_27_"><defs><path id="XMLID_25_" d="M0 1h666v359H0z"/></defs><clipPath id="XMLID_265_"><use xlink:href="#XMLID_25_" overflow="visible"/></clipPath><g id="XMLID_26_" class="st0"><ellipse id="XMLID_24_" cx="333.4" cy="182.8" class="st1" rx="333.3" ry="149.6"/><path id="XMLID_271_" d="M586.9 219.3l-.5-3.6-7.9-4-3.4-5.2v-3.3l-6.2-5.3-12.1-5.1-8-.6-2.9 2.7-4.7 4.4-9 1.2-4.1.1c-59.8-15.3-131.1-24.2-207.7-24.2-57.9 0-112.9 5.1-162.1 14.2l-7.5 2.6-2.2-1.8-10.1 6.4-11.6-2.8-11.2 2.3-9.8-6.5-10.2 5.6-11.6 5.6-5.6 2.3-11.6 14-12.9 9-2.9 1.1-20.5 7.2c-56.4 26.2-91.7 54-91.7 91 0 82.9 170.8 150 381.4 150s381.4-67.2 381.4-150c0-42.1-44-80.1-114.8-107.3z" class="st2"/><path id="XMLID_268_" d="M114.6 191.3s16.3 9.1 28.5 3.9" class="st3"/><path id="XMLID_274_" d="M28.3 237.4" class="st3"/><path id="XMLID_229_" d="M46.1 230.7" class="st3"/><path id="XMLID_269_" d="M46.1 230.7" class="st3"/><path id="XMLID_14_" d="M141.1 195.9" class="st3"/><path id="XMLID_251_" d="M527.4 200.3c-59.7-15.2-130.8-24-207.2-24-58.4 0-115-.5-163.1 14.4-4.4 1.3-9.8 3.2-16 5.3" class="st3"/><path id="XMLID_243_" d="M527.4 200.3" class="st4"/><path id="XMLID_230_" d="M591.4 220.7" class="st4"/><path id="XMLID_35_" d="M638.9 241.6c-9.4-5-19.9-9.8-31.8-14.5" class="st3"/><path id="XMLID_31_" d="M638.9 241.6" class="st3"/><path id="XMLID_28_" d="M701.7 326.2" class="st3"/><path id="XMLID_29_" d="M-61.1 326.2c0 82.9 170.8 150 381.4 150s381.4-67.2 381.4-150" class="st3"/><path id="XMLID_2_" d="M29.1 214.4" class="st4"/><path id="XMLID_1_" d="M157.2 175.7" class="st4"/><path id="XMLID_253_" d="M80.6 203.1s-1.6 13.1 10 13.3 13.3-1.2 13.3-1.2-9.4 9.2-26.3 6.4c-16.9-2.8-8.6-6-8.6-6s11.8-9.8 11.6-12.5z" class="st5"/><g id="XMLID_172_"><ellipse id="XMLID_170_" cx="339.4" cy="317.2" transform="matrix(-.995 .102 -.102 -.995 709.405 598.055)" class="st6" rx="3.7" ry="2"/><ellipse id="XMLID_141_" cx="355.2" cy="303.8" transform="matrix(-.992 .123 -.123 -.992 745.188 561.559)" class="st5" rx="21" ry="8.3"/><path id="XMLID_119_" d="M376 301.2c-.5-4.1-8.3-6.5-18.2-6 7.3.4 12.6 2.7 13 6 .6 4.5-8.3 9.4-19.8 10.8-1.2.2-2.5.3-3.7.3 2.7.2 5.7.1 8.8-.3 11.6-1.4 20.5-6.2 19.9-10.8z" class="st7"/><ellipse id="XMLID_116_" cx="355.1" cy="303.9" transform="matrix(-.995 .102 -.102 -.995 739.413 570.076)" class="st6" rx="21.6" ry="8.3"/><ellipse id="XMLID_106_" cx="326.3" cy="312.7" transform="matrix(-.995 .102 -.102 -.995 682.718 590.436)" class="st5" rx="5.9" ry="3.3"/><path id="XMLID_101_" d="M331.8 312.3c-.2-1.6-3-2.6-6.2-2.3 0 0 0 0-.1 0 2.2.2 3.9 1.1 4 2.3.2 1.6-2.3 3.1-5.5 3.4.7.1 1.4.1 2.2 0 3.3-.3 5.8-1.8 5.6-3.4z" class="st7"/><ellipse id="XMLID_61_" cx="326.3" cy="312.7" transform="matrix(-.995 .102 -.102 -.995 682.718 590.436)" class="st6" rx="5.9" ry="3.3"/><ellipse id="XMLID_54_" cx="339.4" cy="317.2" transform="matrix(-.995 .102 -.102 -.995 709.405 598.055)" class="st5" rx="3.7" ry="2"/><path id="XMLID_40_" d="M339.7 317.7c-1.8.2-3.4-.3-4.1-1.1-.2.3-.3.6-.3.9.1 1.1 2.1 1.9 4.3 1.7 2.3-.2 4-1.3 3.9-2.4 0-.2-.1-.4-.3-.6-.5.7-1.8 1.4-3.5 1.5z" class="st7"/><path id="XMLID_9_" d="M386.4 301.5c-.5-6.4-8.3-10.3-18.2-9.5 7.3.7 12.6 4.2 13 9.5.6 7.2-8.3 14.9-19.8 17.1-1.2.2-2.5.4-3.7.5 2.7.2 5.7.1 8.8-.5 11.6-2.3 20.5-9.9 19.9-17.1z" class="st7"/></g><ellipse id="XMLID_36_" cx="96.9" cy="197.1" transform="matrix(-.95 .312 -.312 -.95 250.375 354.173)" class="st5" rx="18.7" ry="4.6"/><path id="XMLID_34_" d="M89.3 199.5c-.6-2 4-5.4 11.1-8.3-1.6.4-3.3.9-5 1.4-9.8 3.2-17.1 7.8-16.3 10.2.8 2.4 9.4 1.8 19.2-1.4 1.8-.6 3.6-1.3 5.2-1.9-7.5 2-13.5 2.1-14.2 0z" class="st7"/><ellipse id="XMLID_32_" cx="116.4" cy="200.1" transform="matrix(-.95 .312 -.312 -.95 289.365 353.973)" class="st8" rx="10.8" ry="4.3"/><ellipse id="XMLID_16_" cx="96.9" cy="197.1" transform="matrix(-.95 .312 -.312 -.95 250.375 354.173)" class="st9" rx="18.7" ry="4.6"/><ellipse id="XMLID_12_" cx="116.4" cy="200.1" transform="matrix(-.95 .312 -.312 -.95 289.365 353.973)" class="st5" rx="10.8" ry="4.3"/><path id="XMLID_11_" d="M119.3 202.7c-5.7 1.9-10.9 1.5-11.6-.7-.3-.8.1-1.8 1-2.8-2 1.5-3 3.1-2.6 4.3.7 2.3 5.9 2.6 11.6.7 3.6-1.2 6.5-2.9 8-4.6-1.6 1.2-3.8 2.3-6.4 3.1z" class="st7"/><path id="XMLID_10_" d="M114.6 209c-7 .9-12.7-1.1-12.6-4.5 0-1.2.9-2.5 2.2-3.6-2.8 1.4-4.6 3.3-4.6 5.1-.1 3.3 5.5 5.3 12.6 4.5 4.4-.5 8.4-2.1 10.7-4-2.2 1.2-5.1 2.1-8.3 2.5z" class="st7"/><g id="XMLID_228_"><ellipse id="XMLID_227_" cx="561.4" cy="199.8" transform="matrix(-.919 -.393 .393 -.919 998.882 604.317)" class="st10" rx="14.9" ry="3.7"/><ellipse id="XMLID_226_" cx="561.4" cy="199.8" transform="matrix(-.919 -.393 .393 -.919 998.882 604.317)" class="st5" rx="14.9" ry="3.7"/><path id="XMLID_225_" d="M563.4 196.7c4.5 2.5 7.2 5.1 6.6 6.5-.8 1.9-7.6.8-15.1-2.5-.2-.1-.4-.2-.6-.3 1.7.9 3.5 1.9 5.6 2.8 7.6 3.2 14.3 4.3 15.1 2.5.8-1.9-4.4-5.8-11.6-9z" class="st7"/><path id="XMLID_224_" d="M606.3 227s-15.8-7.8-24.4-12.3c-8.6-4.5-6.9-9.1-6.9-9.1" class="st3"/></g><ellipse id="XMLID_241_" cx="416.2" cy="244" class="st5" rx="150.5" ry="29.8"/><ellipse id="XMLID_244_" cx="333.5" cy="226.2" class="st2" rx="92.9" ry="25.9"/><ellipse id="XMLID_293_" cx="123.3" cy="257.2" transform="matrix(.963 -.27 .27 .963 -64.821 42.796)" class="st5" rx="30.5" ry="11.2"/><ellipse id="XMLID_467_" cx="210.1" cy="228" transform="matrix(.963 -.27 .27 .963 -53.735 65.133)" class="st5" rx="30.5" ry="11.2"/><path id="XMLID_1105_" d="M140.4 257.8c0-2.5.3-5.1 1.1-7.8 2.8-9.6 9.8-16 15.7-14.3 5.9 1.7 8.4 10.9 5.6 20.4-.6 2.2-1.5 4.3-2.5 6.1" class="st11"/><ellipse id="XMLID_472_" cx="161.9" cy="306.4" transform="matrix(.963 -.27 .27 .963 -76.652 55.048)" class="st5" rx="30.5" ry="11.2"/><g id="XMLID_875_"><path id="XMLID_1104_" d="M121.8 265l-3.5 30.2s.2 1.2 1.4 1.5 35.9 7.8 35.9 7.8 1.2 0 1.7-1.6c.6-1.6 9-28.3 9-28.3l-44.5-9.6z" class="st5"/><path id="XMLID_1102_" d="M121.8 265l5.4-10.9 38.6 8.4.5 12.1z" class="st2"/><path id="XMLID_1101_" d="M127.2 254.1l2.1-2.5s1.3-.4 2.2-.2c.9.2 32.1 6.9 32.1 6.9s1.6.9 1.8 2.1c.2 1.2.5 2 .5 2l-38.7-8.3z" class="st5"/><path id="XMLID_933_" d="M132.9 267.1" class="st5"/><path id="XMLID_915_" d="M142.1 278.3" class="st5"/><path id="XMLID_895_" d="M155 271.9" class="st5"/><path id="XMLID_867_" d="M121.8 265l-3.4 30s-.4 1.9 1.7 2.3c2.1.4 35.4 7.7 35.4 7.7s1 .3 2.1-2.4c1.1-2.7 8.7-28 8.7-28l-.5-12.1-.5-2s-.3-1.6-2.4-2.1-31.4-6.8-31.4-6.8-1.7-.4-2.8.8c-1.1 1.3-1.7 2-1.7 2l-5.2 10.6z" class="st11"/><path id="XMLID_30_" d="M149.6 278c-1.9-1.4-4.9-2.2-7.5-2.7-2.6-.5-5.6-1-7.9-.4-2.7.7-4.1 2.6-4.6 5.3l-.4 2 1 .2-1.4 2.1.5.4c.3.2.5.4.7.6l-.4 2.2-1.3-.3-.1.7c-.5 2.5 1.2 5 3.7 5.5l13.1 2.6c2.5.5 5-1.2 5.5-3.7l.1-.7-1.3-.3.4-2.2c.2-.1.5-.2.7-.3l.7-.2-.5-2.5 1 .2.4-2c.4-2.5-.2-4.8-2.4-6.5zm-18.7 2.6c.5-2.4 1.6-3.8 3.7-4.3s4.9-.1 7.3.4c2.5.5 5.2 1.2 6.9 2.4 1.7 1.3 2.2 3 1.8 5.4l-.1.7-19.7-3.9.1-.7zm14.2 14.3l-13.1-2.6c-1.6-.3-2.7-1.7-2.7-3.3l19.5 3.9c-.6 1.4-2.2 2.3-3.7 2zm-14.4-6.9l.3-1.4c.9.4 1.9.3 2.7-.4.2-.2.5-.3.8-.3.3.1.6.3.7.6.6 1.5 2.6 1.9 3.7.7.2-.2.5-.3.8-.3.3.1.6.3.7.6.6 1.5 2.6 1.9 3.7.7.2-.2.5-.3.9-.3.3.1.6.3.7.6.4.9 1.4 1.4 2.4 1.3l-.3 1.4-17.1-3.2zm18.7 0c-.4.2-.8.4-1.2.5-.5.2-1.1-.1-1.3-.5-.3-.7-.9-1.2-1.7-1.4-.8-.1-1.5.1-2.1.6-.5.5-1.3.3-1.5-.3-.3-.7-.9-1.2-1.7-1.4s-1.5.1-2 .6-1.3.3-1.5-.3c-.3-.7-.9-1.2-1.7-1.4s-1.5.1-2 .6c-.4.4-1.1.3-1.4-.1-.3-.3-.5-.6-.9-.9l1.1-1.5L149 286l.4 2z" class="st7"/><path id="XMLID_18_" d="M136.1 286.5l-1.07-.2.22-1.1 1.08.22z" class="st7"/><path id="XMLID_17_" d="M140.53 287.34l-1.08-.2.2-1.1 1.1.23z" class="st7"/><path id="XMLID_15_" d="M144.93 288.3l-1.08-.23.2-1.08 1.1.2z" class="st7"/><path id="XMLID_13_" d="M143.2 285.62l-1.08-.22.2-1.08 1.1.22z" class="st7"/><path id="XMLID_4_" d="M138.78 284.77l-1.08-.2.22-1.1 1.07.22z" class="st7"/></g><ellipse id="XMLID_470_" cx="248.7" cy="277.2" transform="matrix(.963 -.27 .27 .963 -65.566 77.385)" class="st5" rx="30.5" ry="11.2"/><path id="XMLID_1106_" d="M135.7 259.1c0-2.5.3-5.1 1.1-7.8 2.8-9.6 9.8-16 15.7-14.3s8.4 10.9 5.6 20.4c-.6 2.2-1.5 4.3-2.5 6.1" class="st11"/><path id="XMLID_1103_" d="M135.7 259.1" class="st11"/><path id="XMLID_1099_" d="M142.4 271.7" class="st11"/><path id="XMLID_941_" d="M142.4 271.7" class="st11"/><path id="XMLID_894_" d="M155.6 263.5" class="st11"/><path id="XMLID_247_" d="M45.7 224.5" class="st5"/><path id="XMLID_272_" d="M527.4 200.3s9.6 3.5 19.2-5.9" class="st3"/><path id="XMLID_790_" d="M204.2 253.8s-8.9 6-6 16c2.8 10 10.7 24.6 16.7 25.6 6 1.1 14.9-2.8 16-6.8 1.1-3.9-4.3-21.4-4.3-21.4l-22.4-13.4z" class="st5"/><path id="XMLID_789_" d="M204.1 253.8s-8.9 6-6 16c2.8 10 10.7 24.6 16.7 25.6s14.9-2.8 16-6.8c1.1-3.9-4.3-21.4-4.3-21.4l-22.4-13.4z" class="st12"/><path id="XMLID_788_" d="M196.9 216.6c-14.2 9.5-33.6 5.6-43-8.6L118 154.1c-9.5-14.2-5.6-33.6 8.6-43 14.2-9.5 33.6-5.6 43 8.6l35.9 53.9c9.5 14.2 5.6 33.6-8.6 43z" class="st5"/><path id="XMLID_787_" d="M229.3 206.4l12.8 17.2s7.2 13.6 5.7 20.8c-1.5 7.2-6.9 18.5-16.7 21.1S210 247 210 246.3s.3-29.8.3-29.8 16.1-1.8 19-10.1z" class="st5"/><path id="XMLID_786_" d="M218.5 218.4s-2.4.8-1 3.7c1.4 3 2.2 5.9 2.7 7.8.5 1.9 2.8 2.4 6.4.9s8.2-1.4 10.3-1.4 4.2.8 5.3.9c1 .1 2.6-.3 1.5-3.6-1-3.3-5.5-9.4-5.5-9.4l-3.3-4-16.4 5.1z" class="st2"/><path id="XMLID_785_" d="M229.3 205.7l12.8 17.2s7.2 13.6 5.7 20.8c-1.5 7.2-6.9 18.5-16.7 21.1-9.8 2.6-21.1-18.5-21.1-19.3 0-.8.3-29.8.3-29.8s16.1-1.8 19-10z" class="st12"/><path id="XMLID_784_" d="M183.2 281.2s-9.6 6.6-6.6 17.3c3.1 10.8 11.6 26.6 18.1 27.7 6.6 1.2 16.2-3.1 17.3-7.3s-4.6-23.1-4.6-23.1l-24.2-14.6z" class="st5"/><path id="XMLID_783_" d="M255.2 167.5s6.2-9.2 11.6-8.5 15.4 1.5 15.4 1.5 7.3 1.2 7.3 4.6-1.5 8.1-1.5 8.1.8 6.6-.4 7.7c-1.2 1.2-1.2 5.8-3.9 6.6s-7.7 1.2-9.2.4-5.8.8-8.1.8-10.8-2.3-11.2-5.8c-.4-3.4 0-15.4 0-15.4z" class="st5"/><path id="XMLID_782_" d="M276.8 174.2s6.7.6 9.1-.6c2.4-1.2 3.2-2.1 3.1-4.7" class="st12"/><path id="XMLID_781_" d="M255.4 170s1.5 4.8 6.9 5.8 6.7.2 6.7.2 2.7 1.5 5.4.6c2.7-1 3.5-1.5 3.5-3.9s-1-11.6-1-11.6-12.3-2.5-13.5-1.9c-1.1.6-8 8.9-8 10.8z" class="st2"/><path id="XMLID_780_" d="M255.2 167.5s6.2-9.2 11.6-8.5 15.4 1.5 15.4 1.5 7.3 1.2 7.3 4.6-1.5 8.1-1.5 8.1.8 6.6-.4 7.7c-1.2 1.2-1.2 5.8-3.9 6.6s-7.7 1.2-9.2.4c-1.5-.8-5.8.8-8.1.8s-10.8-2.3-11.2-5.8 0-15.4 0-15.4z" class="st12"/><path id="XMLID_779_" d="M213.6 139.8s12.7 0 17.3 5.8c4.6 5.8 9.2 17 15.4 17 6.2 0 9.2.4 9.2.4s4.6 6.6 4.2 12.7c-.4 6.2-1.2 11.2-6.9 13.1-5.8 1.9-11.6 2.3-11.6 2.3s-13.1 1.9-15.4-3.5c-2.2-5.4-12.2-47.8-12.2-47.8z" class="st5"/><path id="XMLID_777_" d="M183.1 281.2s-9.6 6.6-6.6 17.3c3.1 10.8 11.6 26.6 18.1 27.7 6.6 1.2 16.2-3.1 17.3-7.3 1.2-4.2-4.6-23.1-4.6-23.1l-24.2-14.6z" class="st12"/><path id="XMLID_776_" d="M213.6 139.8s12.7 0 17.3 5.8c4.6 5.8 9.2 17 15.4 17s9.2.4 9.2.4 4.6 6.6 4.2 12.7c-.4 6.2-1.2 11.2-6.9 13.1-5.8 1.9-11.6 2.3-11.6 2.3s-13.1 1.9-15.4-3.5c-2.2-5.4-12.2-47.8-12.2-47.8z" class="st12"/><path id="XMLID_775_" d="M196.9 216.6c-14.2 9.5-33.6 5.6-43-8.6L118 154.1c-9.5-14.2-5.6-33.6 8.6-43 14.2-9.5 33.6-5.6 43 8.6l35.9 53.9c9.5 14.2 5.6 33.6-8.6 43z" class="st12"/><g id="XMLID_768_"><path id="XMLID_774_" d="M163.5 218.5s-3.9 22.9 5.4 31.3c9.2 8.5 19.5 15.2 19.5 15.2l-7.5 9s-2.6 6.2.8 11.3c3.3 5.1 13.6 15.2 21.3 11 7.7-4.1 18.2-14.1 19.3-16.2 1-2.1 7.7-12.3 4.9-19-2.8-6.7-13.6-20.3-13.6-20.3s-1.5-4.9 0-6.2c1.5-1.3.3-9.8-1-12.3-1.3-2.6-3.6-5.7-3.6-5.7s-37.6 12.2-45.5 1.9z" class="st2"/><path id="XMLID_773_" d="M213.9 276.8s.5 3.6-2.6 8.5-6.2 9.6-6.2 9.6l12.7-9.2 6.4-8.2-10.3-.7z" class="st5"/><path id="XMLID_772_" d="M193.6 265.3s-12.6 10.5-7.5 18.2c5.1 7.7 16.2 12.6 18.2 11.8 2.1-.8-3.9 2.6-3.9 2.6l-4.5-.5-6.9-3.1-6.6-6.9-2.6-5.7-.3-4.2.6-3.7 7-8.6 6.5.1z" class="st5"/><path id="XMLID_771_" d="M175 222.8s-7.5 25.9 10 32.4 17.5 6.4 17.5 6.4-5.7 8-14.7 3.3c-9-4.6-19.5-15.2-19.5-15.2s-6.4-9.5-5.6-18 .2-13.4.2-13.4l12.1 4.5z" class="st5"/><path id="XMLID_770_" d="M163.5 218.5s-3.9 22.9 5.4 31.3c9.2 8.5 19.5 15.2 19.5 15.2l-7.5 9s-2.6 6.2.8 11.3 13.6 15.2 21.3 11 18.2-14.1 19.3-16.2c1-2.1 7.7-12.3 4.9-19s-13.6-20.3-13.6-20.3-1.5-4.9 0-6.2c1.5-1.3.3-9.8-1-12.3-1.3-2.6-3.6-5.7-3.6-5.7s-37.5 12.2-45.5 1.9z" class="st12"/></g><path id="XMLID_767_" d="M162.7 150.6l-2.3 43.2s-1.9 24.3 8.5 27.4c10.4 3.1 44.7-2.3 52.8-7.7s12.7-12.7 8.1-21.2-8.1-25.4-8.5-35.5c-.4-10-6.2-17.3-6.2-17.3l-52.4 11.1z" class="st2"/><path id="XMLID_766_" d="M173.4 184.7s-4.6 23.7 5.6 26.8c10.2 3.1 9.8 1.2 12.5 3.1 2.7 1.9 2.1 6.4-2.1 7.1-4.2.8-15.6 1.2-15.6 1.2s-9.4-1.2-10.6-5c-1.2-3.9-5.6-18.5-1.9-21.8s12.1-11.4 12.1-11.4z" class="st5"/><path id="XMLID_765_" d="M183.1 162l7.2 11.8-10.1 8.4-2.9-3.5-5.6-16.4z" class="st12"/><g id="XMLID_760_"><path id="XMLID_764_" d="M136.8 217.2s-6.9 17.5-2.5 24.4c4.4 6.9 10 10.3 17.4 10.3s13.6-1.8 13.1-5.4c-.5-3.6-6.9-12.6-4.1-13.4s7.5 1 8.2-1.3c.8-2.3-.5-8-6.4-12.1s-4.6-2.6-4.6-2.6-7.8 7.3-21.1.1z" class="st5"/><path id="XMLID_763_" d="M136 217.2s-6.1 17.5-1.8 24.4c4.4 6.9 9.2 10.3 16.7 10.3s13.6-1.8 13.1-5.4c-.5-3.6-6.9-12.6-4.1-13.4s7.5 1 8.2-1.3c.8-2.3-.5-8-6.4-12.1s-4.6-2.6-4.6-2.6-7.7 7.3-21.1.1z" class="st12"/><path id="XMLID_762_" d="M145.3 250.4s-6.7-10.8-4.4-14.6" class="st12"/><path id="XMLID_761_" d="M155.8 251.7s-5.7-6.4-5.7-14.4" class="st12"/></g><path id="XMLID_759_" d="M162.7 151.3l-2.3 43.2s-1.9 24.3 8.5 27.4c10.4 3.1 44.7-2.3 52.8-7.7 8.1-5.4 12.7-12.7 8.1-21.2s-8.1-25.4-8.5-35.5c-.4-10-6.2-18.1-6.2-18.1l-52.4 11.9z" class="st12"/><path id="XMLID_756_" d="M177.4 161.9l9.2 14.7-6.4 5.6-4.1-5.4-1.4-15.8z" class="st5"/><path id="XMLID_755_" d="M162.2 150.4s-6.7 0-12.3 4.6-15.7 20.8-15.7 20.8-4.4 14.9-1.8 27c2.6 12.1 5.1 18.2 10.8 18 5.7-.3 15.4-2.1 15.9-6.2s0-16.4 4.9-20.8 13.6-11.3 14.6-15.4c1.1-4.1.6-29-16.4-28z" class="st2"/><path id="XMLID_753_" d="M166.9 156.9s-17 6.2-22.4 16.2c-5.4 10 0 41.9 0 41.9l-9.8-1.3-3.1-10.8-.7-12.3 2.8-15.7 7.5-11.3 6.7-8 5.4-2.8 6.4-3.3 7.2 7.4z" class="st5"/><path id="XMLID_752_" d="M161.4 150.4s-6.7 0-12.3 4.6c-5.7 4.6-15.7 20.8-15.7 20.8s-4.4 14.9-1.8 27c2.6 12.1 5.1 18.2 10.8 18 5.7-.3 15.4-2.1 15.9-6.2s0-16.4 4.9-20.8c4.9-4.4 13.6-11.3 14.6-15.4 1.1-4.1.6-29-16.4-28z" class="st12"/><ellipse id="XMLID_747_" cx="137.9" cy="186.4" transform="matrix(-.986 -.168 .168 -.986 242.632 393.269)" class="st5" rx="6.4" ry="10.8"/><path id="XMLID_746_" d="M177.8 288.1s7.6 18.8 10.8 24.7c1.6 3 6.2 9.2 10.8 8.5 3.9-.7 10.4-4.1 12.2-5.1.1-.1.3.1.2.2-.9 1.9 1.5 3.6-2.3 6.1-2.8 1.8-8.5 4-11.9 4.4-3.5.4-6.1-2.5-8-3.7-2-1.2-18.4-24.3-11.8-35.1z" class="st12"/><path id="XMLID_745_" d="M213.6 151.3s1.9 8 1.2 11.9-1.7 8.6-1.7 8.6l5.3 1.7 2.9-12.2-.1-7.8-2.7-7.1-4.9 4.9z" class="st5"/><path id="XMLID_744_" d="M113.4 146.6s22.6.3 30.3-19.5" class="st12"/><path id="XMLID_743_" d="M206.4 148.6s1.2 12.1.6 16.3-.3 5.3-.3 5.3l11.7 3.3s3.4-13 2.8-18.5-6.1-15.7-6.1-15.7l-5.9 1.9-2.8 7.4z" class="st12"/><g id="XMLID_724_"><path id="XMLID_742_" d="M145.5 124.6c3.5 16.4 13.7 29.3 26.3 35.5 7.6 3.7 16 5 24.4 3.2 22.3-4.8 35.9-29.9 30.2-56.1s-28.3-43.5-50.6-38.7-35.9 29.9-30.3 56.1z" class="st7"/><path id="XMLID_741_" d="M138.7 120c3.5 16.4 14.6 29.1 28.5 35 8.4 3.6 17.7 4.7 27.2 2.6 25.1-5.4 40.9-31 35.3-57.2-5.6-26.2-30.6-43.1-55.7-37.7s-41 31.1-35.3 57.3z" class="st2"/><ellipse id="XMLID_740_" cx="187.2" cy="111" transform="matrix(-.978 .21 -.21 -.978 393.462 180.208)" class="st13" rx="43.5" ry="42.9"/><ellipse id="XMLID_739_" cx="188.3" cy="111.1" transform="matrix(-.978 .21 -.21 -.978 395.804 180.116)" class="st2" rx="40.3" ry="38.4"/><path id="XMLID_738_" d="M185.2 80.1c-13.3 2.9-23 13.1-25.7 25.3L165 131c.1.1.1.2.2.3 7.5 9.9 20.5 15.1 33.6 12.3 12.6-2.7 22-12.1 25.2-23.5l-5.9-28.5c-7.5-9.4-20.1-14.3-32.9-11.5z" class="st5"/><ellipse id="XMLID_736_" cx="187.6" cy="110.7" transform="matrix(-.978 .21 -.21 -.978 394.348 179.479)" class="st14" rx="43.2" ry="42.9"/><path id="XMLID_733_" d="M152.2 129.4c1.1-.2 1.9-1.4 1.6-2.5l-3.1-14.6c-.2-1.1-1.4-1.9-2.5-1.6-1.1.2-1.9 1.4-1.6 2.5l3.1 14.6c.2 1.2 1.4 1.9 2.5 1.6z" class="st7"/><path id="XMLID_730_" d="M231.2 112.3c1.1-.2 1.9-1.4 1.6-2.5l-3.1-14.6c-.2-1.1-1.4-1.9-2.5-1.6-1.1.2-1.9 1.4-1.6 2.5l3.1 14.6c.2 1.1 1.4 1.9 2.5 1.6z" class="st7"/><circle id="XMLID_729_" cx="203.3" cy="86.5" r="2.7" class="st2"/><ellipse id="XMLID_728_" cx="210.8" cy="97.5" transform="matrix(.358 .934 -.934 .358 226.513 -134.192)" class="st2" rx="6.7" ry="4.1"/><path id="XMLID_727_" d="M185.4 79.5c-13.3 2.9-23 13.1-25.7 25.3l5.5 25.6c.1.1.1.2.2.3 7.5 9.9 20.5 15.1 33.6 12.3 12.6-2.7 22-12.1 25.2-23.5L218.5 91c-7.6-9.4-20.2-14.2-33.1-11.5z" class="st15"/><ellipse id="XMLID_726_" cx="188.4" cy="111.5" transform="matrix(-.978 .21 -.21 -.978 396.033 180.998)" class="st14" rx="40.5" ry="38.4"/><path id="XMLID_725_" d="M139.1 119.9c3.5 16.4 14.6 29.1 28.5 35 8.4 3.6 17.7 4.7 27.2 2.6 25.1-5.4 40.9-31 35.3-57.2s-30.6-43.1-55.7-37.7-40.9 31.1-35.3 57.3z" class="st16"/></g><path id="XMLID_721_" d="M223.8 198.4l-9.8 6.5-15.9 3.5-11.9-1.9-5.4-24.8 9.8-8 16.2-3.4 11.6 3.3z" class="st5"/><path id="XMLID_720_" d="M218.8 197l-7.2 5.2-11.9 2.5-9-1.7-4.3-20.3 7.2-6.3 12-2.6 8.9 2.9z" class="st2"/><path id="XMLID_717_" d="M223.5 198.5l-9.8 6.5-16 3.4-11.9-1.8-5.3-24.8 9.8-8 16.1-3.5 11.7 3.4z" class="st17"/><path id="XMLID_716_" d="M136.4 182.5" class="st16"/><path id="XMLID_715_" d="M204.6 220.4l5.1 8.2s1.7 3.6 1.7 5.8.3 5.4 1.5 5.5 3.5.1 4.2-2.8c.8-3 1.9-5.5-.6-10.8-2.6-5.3-4.9-8.2-4.9-8.2l-7 2.3z" class="st5"/><path id="XMLID_714_" d="M203.2 220.1l5.7 8.6s1.7 3.6 1.7 5.8.3 5.4 1.5 5.5 3.5.1 4.2-2.8 1.9-5.5-.6-10.8c-2.6-5.3-4.9-8.2-4.9-8.2l-7.6 1.9z" class="st12"/><path id="XMLID_160_" d="M275.6 160.1s1.9.1 2.2 2.2c.3 2.1.5 10.5.5 10.5s.3 2.8-2.3 3c-2.6.1-4.9.5-4.9.5s-1.5-.3-1.8-3.3c-.3-3.1-.5-6.8-.5-6.8" class="st12"/><path id="XMLID_712_" d="M260.2 173.8s7.1 4.8 9.4 1" class="st12"/><path id="XMLID_711_" d="M278.1 164.8h3.7" class="st12"/><path id="XMLID_710_" d="M272.1 177.3s-1.3 2.6 1.6 3.9c2.9 1.3 11.6 3 13.1 1.3s1.9-3.7 1.9-5.1-.8-4.9-.8-4.9" class="st12"/><path id="XMLID_709_" d="M272.1 180.6s-1.9 6.2 3.5 7.5c5.4 1.3 9.4.9 10.8-4.8" class="st12"/><path id="XMLID_708_" d="M269.3 170.4s4.6 3.5 8.6-.8" class="st12"/><path id="XMLID_707_" d="M250.1 162.6s7.7 11 2.3 26.5" class="st12"/><ellipse id="XMLID_704_" cx="218.5" cy="268.2" transform="matrix(-.986 -.168 .168 -.986 389.059 569.151)" class="st5" rx="9" ry="10.8"/><ellipse id="XMLID_703_" cx="218.5" cy="268.2" transform="matrix(-.986 -.168 .168 -.986 389.045 569.158)" class="st12" rx="9" ry="10.8"/><ellipse id="XMLID_702_" cx="137.1" cy="186.4" transform="matrix(-.986 -.168 .168 -.986 241.083 393.132)" class="st12" rx="6.4" ry="10.8"/><path id="XMLID_701_" d="M181.1 259.7s7.4-17.6 36.4-14" class="st12"/><path id="XMLID_700_" d="M177 256.4s5-15.1 36-15.7" class="st12"/><path id="XMLID_699_" d="M215.9 238.9s12.6-12.2 29.5-6.2" class="st12"/><path id="XMLID_698_" d="M216.8 244.8s12.6-15.7 31-7.2" class="st12"/><path id="XMLID_697_" d="M133.7 211.6s11 7.5 24.3-1.3" class="st12"/><path id="XMLID_694_" d="M224 175s9.6-.2 15.2 16.4" class="st12"/><path id="XMLID_693_" d="M139.6 247.9l3.9-.2s5.6 3.5 9.2-1.2c0 0 5 3.9 9.2-3.9" class="st12"/><path id="XMLID_692_" d="M276 175.7s-2.8 4.5.2 6.4c0 0-3.8 4.4-.6 5.8" class="st12"/><ellipse id="XMLID_691_" cx="200.8" cy="312.7" class="st2" rx="8.3" ry="4"/><ellipse id="XMLID_690_" cx="235.4" cy="244.1" class="st2" rx="8.8" ry="5.7"/><ellipse id="XMLID_689_" cx="225.9" cy="149" transform="matrix(.836 .548 -.548 .836 118.743 -99.465)" class="st2" rx="4.1" ry="2.3"/><ellipse id="XMLID_688_" cx="119.6" cy="133" class="st2" rx="4.6" ry="9.1"/><ellipse id="XMLID_687_" cx="133.5" cy="187.2" class="st2" rx="1.2" ry="3.3"/><g id="XMLID_706_"><circle id="XMLID_134_" cx="188.8" cy="42.8" r="3.6" class="st18"/><path id="XMLID_705_" d="M187.7 36.9c-3.8-2.9-8.2-14.5-5.4-18.3 2.2-2.9 12.7-3 14.7 0 2.8 4.1-3.1 15.5-7.2 18.3-.3.3-1.6.4-2.1 0z" class="st18"/></g><path id="XMLID_718_" d="M198.3 45.1l8.1-10.9" class="st12"/><path id="XMLID_719_" d="M201.5 47.3l15.3-10.4" class="st12"/><path id="XMLID_723_" d="M180.2 43.7l-8.1-10.9" class="st12"/><path id="XMLID_722_" d="M177 46l-15.3-10.4" class="st12"/><g id="XMLID_196_"><path id="XMLID_198_" d="M469.3 97.3c0 1.8-1.6 3.4-3.4 3.4-1.7 0-3.3-1.5-3.3-3.2-.1-1.8 1.4-3.4 3.3-3.5 1.9 0 3.4 1.5 3.4 3.3zm-3.4-1.5c-.9.2-1.5.7-1.4 1.7.1.9.7 1.5 1.6 1.4.9-.1 1.5-.7 1.4-1.6-.1-1-.7-1.4-1.6-1.5z" class="st7"/><path id="XMLID_197_" d="M465.9 95.8c.9.1 1.5.6 1.6 1.5.1 1-.5 1.5-1.4 1.6-.9.1-1.6-.5-1.6-1.4-.1-1 .5-1.5 1.4-1.7z" class="st2"/></g><g id="XMLID_841_"><path id="XMLID_845_" d="M590 183.3c0 1.8-1.6 3.4-3.4 3.4-1.7 0-3.3-1.5-3.3-3.2-.1-1.8 1.4-3.4 3.3-3.5 1.8-.1 3.4 1.4 3.4 3.3zm-3.5-1.6c-.9.2-1.5.7-1.4 1.7.1.9.7 1.5 1.6 1.4.9-.1 1.5-.7 1.4-1.6-.1-.9-.7-1.4-1.6-1.5z" class="st7"/><path id="XMLID_842_" d="M586.5 181.7c.9.1 1.5.6 1.6 1.5.1 1-.5 1.5-1.4 1.6-.9.1-1.6-.5-1.6-1.4-.1-1 .5-1.5 1.4-1.7z" class="st2"/></g><g id="XMLID_846_"><path id="XMLID_850_" d="M592 88.3c0 1.8-1.6 3.4-3.4 3.4-1.7 0-3.3-1.5-3.3-3.2-.1-1.8 1.4-3.4 3.3-3.5 1.9 0 3.4 1.5 3.4 3.3zm-3.4-1.5c-.9.2-1.5.7-1.4 1.7.1.9.7 1.5 1.6 1.4.9-.1 1.5-.7 1.4-1.6-.1-1-.7-1.5-1.6-1.5z" class="st7"/><path id="XMLID_847_" d="M588.6 86.8c.9.1 1.5.6 1.6 1.5.1 1-.5 1.5-1.4 1.6-.9.1-1.6-.5-1.6-1.4-.1-1 .5-1.5 1.4-1.7z" class="st2"/></g><g id="XMLID_851_"><path id="XMLID_855_" d="M257.7 129c0 1.8-1.6 3.4-3.4 3.4-1.7 0-3.3-1.5-3.3-3.2-.1-1.8 1.4-3.4 3.3-3.5 1.9-.1 3.4 1.4 3.4 3.3zm-3.4-1.6c-.9.2-1.5.7-1.4 1.7.1.9.7 1.5 1.6 1.4.9-.1 1.5-.7 1.4-1.6-.1-.9-.7-1.4-1.6-1.5z" class="st7"/><path id="XMLID_852_" d="M254.3 127.4c.9.1 1.5.6 1.6 1.5.1 1-.5 1.5-1.4 1.6-.9.1-1.6-.5-1.6-1.4-.1-.9.5-1.4 1.4-1.7z" class="st2"/></g><g id="XMLID_856_"><path id="XMLID_861_" d="M237.3 61.2c0 1.8-1.6 3.4-3.4 3.4-1.7 0-3.3-1.5-3.3-3.2-.1-1.8 1.4-3.4 3.3-3.5 1.9-.1 3.4 1.4 3.4 3.3zm-3.4-1.6c-.9.2-1.5.7-1.4 1.7.1.9.7 1.5 1.6 1.4.9-.1 1.5-.7 1.4-1.6-.1-.9-.7-1.4-1.6-1.5z" class="st7"/><path id="XMLID_858_" d="M233.9 59.6c.9.1 1.5.6 1.6 1.5.1 1-.5 1.5-1.4 1.6-.9.1-1.6-.5-1.6-1.4-.1-.9.5-1.4 1.4-1.7z" class="st2"/></g><g id="XMLID_880_"><path id="XMLID_885_" d="M74.5 82.9c0 1.8-1.6 3.4-3.4 3.4-1.7 0-3.3-1.5-3.3-3.2-.1-1.8 1.4-3.4 3.3-3.5 1.9-.1 3.4 1.4 3.4 3.3zm-3.4-1.6c-.9.2-1.5.7-1.4 1.7.1.9.7 1.5 1.6 1.4.9-.1 1.5-.7 1.4-1.6-.1-.9-.7-1.4-1.6-1.5z" class="st7"/><path id="XMLID_882_" d="M71.1 81.3c.9.1 1.5.6 1.6 1.5.1 1-.5 1.5-1.4 1.6-.9.1-1.6-.5-1.6-1.4-.1-1 .5-1.5 1.4-1.7z" class="st2"/></g><path id="XMLID_2460_" d="M513.1 58.4l-7.8 8.3 6.2 7.9 13.8-5.1-3.7-3-3.9-4z" class="st5"/><path id="XMLID_2459_" d="M572.7 63.8l-1.1-6.1-3-6.4-.4.1-6.3 20.1h1.6l9.2-7.1z" class="st2"/><path id="XMLID_2426_" d="M536.9 30.3c-5.2-.2-10 .5-14.6 2.1-.6.2-.8.1-.8-.5-.1-1.6-.3-3.2-.5-4.8-.1-.7.2-.8.8-1 3.1-.8 6.2-1.7 9.3-2.5.4-.1.8-.3 1.2.2 1.5 2.1 3 4.2 4.6 6.5z" class="st2"/><path id="XMLID_2458_" d="M561.9 68.8s4.8 0 6.6-1.2c1.8-1.1-1.4 1.6-1.4 1.6l-4.8 2.1-.5-.2.1-2.3z" class="st5"/><path id="XMLID_145_" d="M521.1 32.4l-.6-3.9 14.9-2.2 2.5 3.7-4.2.3-5 .4-4 1.3z" class="st5"/><path id="XMLID_115_" d="M515.2 46.1l57.5 17.7-5.6 5.4-13 5.6-10 1.4-12.8-2.7-7.5-4.1-9-8.8-3.2-4.8z" class="st5"/><path id="XMLID_2436_" d="M511.2 42.3c.4-.9 1-3.4 1.5-4.1.6-.8 1.8-.9 2.8-1.1 1.3-.2 2.1-.7 2.2-2 .1-.7.5-1.2 1.2-1.3 1.1-.3 1.3-.9 1.2-2-.4-3.1-.6-6.2-1-9.3-.1-.9.1-1.2.9-1.4 2.9-.7 5.9-1.5 8.8-2.3.8-.2 1.2 0 1.7.6 2.4 3.4 4.9 6.8 7.3 10.2.5.6 1 1 1.8 1.1 17.2 2.2 30.7 15.1 33.6 32.1.2 1.1 0 1.8-.8 2.6-12.2 12-30.6 14.8-45.8 6.7-1.1-.6-2-.7-3.1-.3-3.6 1.3-7.3 2.4-11 3.7-.9.3-1.4.2-2-.5-1.8-2.3-3.7-4.6-5.7-6.9-.6-.6-.6-1 0-1.7 2.2-2.4 4.3-4.8 6.4-7.2.5-.6.7-1 .2-1.6-.6-.8-.7-1.6-.3-2.4.4-.8.2-1.5-.4-2.2-.9-1.1-2.4-1.9-1.9-3.7.3-.4 2-6 2.4-7zm-.7 19.6c-.2.2-.5.6-.5.6-1.1 1.1-1 1.7 0 2.8 1.5 1.6 2.7 3.3 4.1 4.9 2.2 2.7 2.2 2.7 5.4 1.4 0 0 .1-.1.1-.1 1.4-.3 2.8-.8 4.2-1.4-1.8-1.2-3.3-2.4-4.8-3.8s-2.9-2.9-4.2-4.5c-2.1-2.5-1.9-2.8-4.3.1zm53 6c-.3.9-.6 1.8-1 3 1.8-1 5-2.1 9.3-6.8.5-.5.3-1 .2-1.5-.4-2.3-1-4.6-1.9-6.7-.5-1.2-.8-2.4-1.7-3.6-1.6 5.4-3.3 10.5-4.9 15.6zm-49-18.2c-.3.8-.5 1.7-.9 2.5-.3.7 0 .9.6 1.1 3.1 1 6.1 2 9.2 2.9 3.9 1.1 8-1 9.2-4.7.2-.7.3-1.4.4-2.1.6-3.5-1.3-6.9-4.8-8.2-3-1.1-6.1-2-9.2-3-.8-.3-1 0-1.2.7-1 3.6-2.1 7.2-3.3 10.8zm47.1 19.2c1.8-5.7 3.7-11.3 5.6-17 .4-1 .2-1.8-.4-2.7-7.9-11.9-19-17.8-33.3-17.6-4.7.1-9.2 1.2-13.5 3.1-.8.3-1.2.9-1.2 1.6-.1.9.8.7 1.3.9 2.8 1 5.7 1.8 8.5 2.8 4.4 1.5 6.8 5.9 5.9 10.5-.8 4.3-4.9 7.5-9.5 7.3-1.1 0-2.1-.5-3.1-.6-2.5-.8-5.1-1.8-7.6-2.6-.4-.1-1-.5-1.3.1-.3.5-.6 1.1-.3 1.8.2.3.3.6.5.9 9.4 15.2 28 21.7 44.8 15.7 2.1-.9 3.4-2 3.6-4.2zm-24.7-38.6c-1.6-2.3-3.2-4.4-4.6-6.5-.4-.5-.7-.3-1.2-.2-3.1.8-6.2 1.7-9.3 2.5-.5.1-.9.3-.8 1 .2 1.6.3 3.2.5 4.8 0 .6.3.7.8.5 4.7-1.6 9.5-2.3 14.6-2.1zm-22.4 14.9s1.9-5.8 1.9-6c0-.1.2-.8-.2-.9-.9-.2-2.6.8-2.9 1.7-.9 2.7-1.6 5.4-2.6 8.1-.6 1.4-.1 2.4.8 3.4.6.6.8.5 1-.2.7-2.1 1.4-4.1 2-6.1zm.2 28c-2-2.5-3.8-4.9-5.8-7.2-.3-.3-.9-1.2-1.3-.5-.7.6-1.7 1.2-.9 2.4 1.2 1.4 2.4 2.9 3.6 4.4 1.7 2 1.7 2 4.4.9zm16.4-50.9c-.3-.4-.5-.6-.6-.9-.6-1.3-1.5-1.5-2.8-1-1.7.6-3.6 1-5.4 1.4-1.9.5-2 .7-1.6 2.6.1.5.3.6.8.5 3.1-.9 6.3-1.8 9.6-2.6z" class="st7"/><path id="XMLID_2433_" d="M521.9 57.2c1.1.2 2 .6 3.1.6 4.6.2 8.7-3 9.5-7.3.9-4.6-1.6-9-5.9-10.5-2.8-1-5.7-1.8-8.5-2.8-.5-.2-1.3 0-1.3-.9.1-.8.4-1.3 1.2-1.6 4.3-1.8 8.8-3 13.5-3.1 14.3-.2 25.4 5.7 33.3 17.6.6.9.7 1.7.4 2.7-1.9 5.6-3.7 11.3-5.6 17-.5-.2-1-.1-1.4 0-6.6.7-13.1-.1-19.4-1.8-4.3-1.2-8.4-3-12.3-5.2-2.4-1.4-4.8-2.7-6.6-4.7zm35.8 1.9c1.6-4.9-1-10-5.9-11.6-4.8-1.6-10 1.1-11.6 5.9-1.6 4.8 1.1 10.1 5.9 11.7 4.8 1.5 10.1-1.2 11.6-6z" class="st2"/><path id="XMLID_2427_" d="M514.5 49.7c1.1-3.6 2.3-7.2 3.4-10.7.2-.7.4-1 1.2-.7 3 1 6.1 1.9 9.2 3 3.5 1.3 5.4 4.7 4.8 8.2-.1.7-.2 1.3-.4 2.1-.8-.2-1.3.3-1.9.6-2.2 1.3-4.5 1.4-6.9.6-3.1-1.1-6.2-2.1-9.4-3.1zm10 1.7c1.6.5 3.2-.3 3.7-1.9.5-1.5-.4-3.1-1.9-3.6s-3.3.4-3.7 1.9c-.4 1.5.4 3.1 1.9 3.6z" class="st2"/><path id="XMLID_2423_" d="M514.5 49.7c3.1 1 6.3 2 9.4 3.1 2.4.8 4.6.7 6.9-.6.6-.3 1.1-.8 1.9-.6-1.2 3.6-5.3 5.8-9.2 4.7-3.1-.9-6.1-1.9-9.2-2.9-.6-.2-.9-.5-.6-1.1.3-.9.5-1.8.8-2.6z" class="st5"/><path id="XMLID_2398_" d="M512.6 51.2c-.2.7-.5.9-1 .2-.9-1-1.3-1.9-.8-3.4 1-2.6 1.8-5.4 2.6-8.1.3-.9 2-1.8 2.9-1.7.3.1.3.6.2.9-.6 2-1.3 4-1.9 6-.1.1-1.4 4.1-2 6.1z" class="st5"/><path id="XMLID_2397_" d="M531.1 22.3c-3.3.9-6.4 1.7-9.6 2.6-.5.1-.7 0-.8-.5-.4-1.9-.3-2.1 1.6-2.6 1.8-.5 3.6-.9 5.4-1.4 1.3-.4 2.2-.3 2.8 1 .1.2.3.4.6.9z" class="st2"/><circle id="XMLID_2396_" cx="549" cy="56.3" r="8.5" class="st5"/><path id="XMLID_2387_" d="M524.5 51.4c-1.5-.5-2.3-2.1-1.9-3.6.5-1.6 2.2-2.4 3.7-1.9s2.3 2.1 1.9 3.6c-.5 1.6-2.1 2.4-3.7 1.9zm-.6-3.3c-.3 1 .1 1.8 1 2.1.9.3 1.7-.1 2-1 .3-1 0-1.7-1-2.1-.9-.2-1.6.2-2 1z" class="st7"/><path id="XMLID_2385_" d="M523.9 48.1c.4-.8 1.1-1.2 2-.9 1 .3 1.3 1.1 1 2.1-.3.9-1.1 1.3-2 1-.9-.4-1.3-1.2-1-2.2z" class="st18"/><path id="XMLID_2382_" d="M550.2 62.1c-1 .1-2.1.3-3.1-.3.1-.7.4-1 1.3-.9 2 .2 3.5-.6 4.5-2.3.3-.5.5-1.1 1.2-.6.8.5.1.9-.1 1.3-.7 1.5-2.1 2.4-3.8 2.8z" class="st7"/><path id="XMLID_2381_" d="M488 50c-9.2-3-27.1-21.4-26.8-22.2.3-.8 25.4-5.1 34.6-2.1 10.5 3.4 17.3 11.6 15.1 18.3-2.2 6.7-12.4 9.4-22.9 6z" class="st19"/><path id="XMLID_47_" d="M461.2 27.8L510.9 44l-2 3.3-3.9 2.2-4 1.5-4.6.2-5.1-.7-4.6-1.2-4.9-2.3-5.1-3.9-7.4-6.5z" class="st5"/><path id="XMLID_2380_" d="M497 46c-3.6-1.2-10.2-9.4-10.1-9.8.1-.4 10.3-3.1 13.9-1.9 4.1 1.3 6.6 5 5.5 8.3-1 3.1-5.2 4.7-9.3 3.4z" class="st20"/><circle id="XMLID_7_" cx="549.7" cy="56.3" r="8.5" class="st11"/><path id="XMLID_212_" d="M454.3 25.6s-43.8-22-56.9-.3 11 65.1 23.5 46.8-17-67.4-54-39.7" class="st21"/><path id="XMLID_184_" d="M79.1 202.9s-13.2 22.7-32.8 28.2c0 0-12.5 3.9-23.6 5.4" class="st3"/><ellipse id="XMLID_218_" cx="501.6" cy="293.8" transform="matrix(.963 -.27 .27 .963 -60.668 146.244)" class="st5" rx="30.5" ry="11.2"/><g id="XMLID_3_"><g id="XMLID_131_"><g id="XMLID_493_"><path id="XMLID_488_" d="M392.73 239.88l.62-2.83 4.2.9-.62 2.85z" class="st2"/><path id="XMLID_487_" d="M398.4 236.8l1.2-5.4-.1-2.6-4.2-.9-1.2 2.3-1.2 5.4c-.1.7.3 1.4.9 1.5l3.1.7c.7.2 1.4-.3 1.5-1z" class="st5"/><path id="XMLID_486_" d="M398.4 236.95l.93-4.3 2.73.6-.93 4.3z" class="st2"/><path id="XMLID_484_" d="M398.9 228.7l1.7-7.8c1.4-6.7 7.9-11 14.3-9.6 6.4 1.4 10.5 8 9 14.6s-7.9 11-14.3 9.6l-7.7-1.7-.7 3.1 7.7 1.7c3.9.9 8 .1 11.3-2.2 3.4-2.3 5.8-5.8 6.6-9.8s.2-8.2-2-11.7c-2.1-3.5-5.5-5.9-9.4-6.7-3.9-.9-8-.1-11.3 2.2-3.4 2.3-5.8 5.8-6.6 9.8l-1.7 7.8 3.1.7z" class="st18"/><path id="XMLID_498_" d="M397.6 240.9l.6-2.6c.2-.1.4-.3.6-.5l2.2.5c.3.1.7-.1.8-.5l7 1.5c4.1.9 8.3.1 11.9-2.3 3.6-2.4 6-6 7-10.3.3-1.2.4-2.3.4-3.5 0-.4-.3-.7-.7-.7-.4 0-.7.3-.7.7 0 1.1-.1 2.1-.4 3.2-.8 3.9-3.1 7.2-6.3 9.4-3.2 2.2-7.1 2.9-10.8 2.1l-7-1.5.4-1.7 7 1.5c6.8 1.5 13.6-3.1 15.1-10.1s-2.8-14-9.6-15.5-13.6 3.1-15.1 10.1l-1.5 7.1-1.6-.4.2-.9c.1-.4-.2-.8-.5-.9s-.8.2-.8.6l-.2.9c-.3 0-.5.1-.7.4l-1.2 2.3c0 .1-.1.1-.1.2l-1.2 5.4c-.1.6 0 1.2.3 1.6l-.6 2.6c-.1.4.2.8.5.9l4.2.9c.3.2.7-.1.8-.5zm3-4.2l-1.4-.3.6-2.9 1.4.3-.6 2.9zm.7-15.7c1.4-6.3 7.4-10.3 13.4-9 6.1 1.3 9.9 7.5 8.5 13.8-1.4 6.3-7.4 10.3-13.4 9l-7-1.5c0-.4-.2-.7-.5-.8l-2.1-.4.1-.5s0-.1 0-.1 0 0 0-.1l-.1-2.6c0-.3-.2-.5-.4-.6l1.5-7.2zm-7.7 14.8l1.2-5.3.9-1.8h.1l3 .7h.1v1.1l-1.8-.4c-.4-.1-.8.2-.8.6-.1.4.2.8.5.9l2.1.4-1 4.7c-.1.3-.3.5-.6.4l-3.1-.7c-.5 0-.7-.3-.6-.6zm-.1 3.5l.3-1.4 2.8.6-.3 1.4-2.8-.6z" class="st7"/><path id="XMLID_475_" d="M426.4 220.6c0 .1 0 .2 0 .3.1.4.4.7.8.6.4-.1.6-.4.6-.8-.1-.4-.4-.7-.8-.6-.3 0-.5.2-.6.5z" class="st7"/><path id="XMLID_474_" d="M397.4 224.2c0-.2 0-.4-.1-.5-.1-.2-.3-.3-.4-.3-.2 0-.4 0-.5.1-.2.1-.3.3-.3.5s0 .4.1.5c.1.2.3.3.4.3.2 0 .4 0 .5-.1.2-.2.3-.3.3-.5z" class="st7"/><path id="XMLID_473_" d="M398.1 221.3l.2-.9c.8-3.9 3.1-7.2 6.3-9.4 3.2-2.2 7.1-2.9 10.8-2.1s6.9 3.1 9 6.4c.6 1 1.1 2 1.4 3.1.1.4.5.6.9.4.4-.1.6-.6.4-.9-.4-1.2-.9-2.3-1.6-3.4-2.2-3.6-5.7-6.1-9.8-7-4.1-.9-8.3-.1-11.9 2.3-3.6 2.4-6 6-7 10.3l-.2.9c-.1.4.2.8.5.9.5 0 .9-.2 1-.6z" class="st7"/></g><path id="XMLID_254_" d="M404.8 249.1s12.1-12.4 29.3-7.3c17.2 5.1 13.7 6 13.7 6s-21.2-5.5-43 1.3z" class="st7"/><path id="XMLID_259_" d="M458.4 245.6c-.3-2.3-4.6-3.8-9.7-3.4 0 0-.1 0-.1 0 3.5.3 6.1 1.6 6.3 3.4.3 2.3-3.6 4.5-8.6 4.9 1.1.1 2.2.1 3.4 0 5.1-.5 9-2.7 8.7-4.9z" class="st7"/><path id="XMLID_492_" d="M411.8 207.3" class="st7"/><g id="XMLID_122_"><path id="XMLID_139_" d="M419.1 208.9l-24.7-97.4c-.4-1.8-2.3-2.8-4-2.4-1.8.4-2.8 2.3-2.4 4l23.9 94.1c3.4-.7 7.2 1.7 7.2 1.7z" class="st7"/><path id="XMLID_192_" d="M427.2 241l-6.4-25.3c-.1-.3-2.4-2.1-3.5-2.9-1.1-.8-4.4-1.1-4.4-1.1l-1.2-4.4 1.2 4.6 7.8 30.7c.4 1.8 2.3 2.8 4 2.4 1.9-.5 3-2.3 2.5-4z" class="st7"/></g><path id="XMLID_266_" d="M413 211.9" class="st7"/><g id="XMLID_371_"><g id="XMLID_438_"><path id="XMLID_461_" d="M455.8 176.2s-3.1 1.2-4.3 1.4-3.3 1-4.9 1.5-2.3.4-4.9 1.3c-2.6.8-6.2 1.9-7.5 2.3-1.3.4-4.2.7-6.6 1.2-2.4.5.1-.1-5 1.1-5.1 1.2-10 2.7-11.8 3.2-1.8.5-2.7.4-5.5 1.1-2.8.6-4.8 1.1-6.9 1.7-2.1.6-3 1-5.6 1.4-2.6.4-6.1 1-9.3 1.8-3.2.9-10.8 1.5-13.2 2.2-2.4.7-8.9.8-9.4.7-.5-.1.5-2.5.5-2.5l96.5-23.2.7 1.9-2.8 2.9z" class="st5"/><path id="XMLID_460_" d="M356.3 174.4s6.4-2.6 8.6-2.6c2.3 0 8.6-1.3 12.1-2.2s11.8-3.2 12.3-3.3c.5-.1 13.5-3.1 13.8-3.2.3-.1 12.8-2.9 17.1-3.9s13.4-3.4 13.9-3.5c.5-.1 7.7-1.8 8.5-2 .9-.2 6.6-2.4 8.8-2.8 2.2-.4 3.4.2 3.4.2l1.7 10.6s1.9 9.9 1.6 10.3c-.2.4-1.4.7-2.8 1.2-1.3.5-1.5 1-3.2 1.4-1.7.4-3.4.7-4.4.9s-2.9.8-3.9 1.2c-1 .5-9.2 2.6-10.3 2.8-1.1.2-13.4 3.4-13.4 3.4l-12.1 3.2s-12.9 3-13.5 3.1c-.5.1-12 2.2-12 2.2s-10 2.7-10.6 2.8c-.6.1-4.6.1-6.3.5-1.7.4-4.1.7-4.1.7s-2.5-7-2.9-8.2c-.4-1.3-1.1-5.2-1.2-6.1.1-.8-1.1-6.7-1.1-6.7z" class="st2"/><path id="XMLID_459_" d="M354.3 177.7l2-3.6 2.5 12.1s2.6 8.1 2.6 8.4c.1.3-1 2.4-1 2.4s-2.5-4-2.7-5.8-.1-4-.7-5.4c-.5-1.3-2.7-8.1-2.7-8.1z" class="st11"/><path id="XMLID_458_" d="M356.3 174.1s6.4-2.6 8.6-2.6c2.3 0 8.6-1.3 12.1-2.2 3.5-.8 11.8-3.2 12.3-3.3.5-.1 13.5-3.1 13.8-3.2.3-.1 12.8-2.9 17.1-3.9 4.3-1 13.4-3.4 13.9-3.5.5-.1 7.7-1.8 8.5-2 .9-.2 6.6-2.4 8.8-2.8s3.4.2 3.4.2l1.7 10.6s1.9 9.9 1.6 10.3c-.2.4-1.4.7-2.8 1.2-1.3.5-1.5 1-3.2 1.4-1.7.4-3.4.7-4.4.9-1 .2-2.9.8-3.9 1.2s-9.2 2.6-10.3 2.8c-1.1.2-13.4 3.4-13.4 3.4l-12.1 3.2s-12.9 3-13.5 3.1c-.5.1-12 2.2-12 2.2s-10 2.7-10.6 2.8c-.6.1-4.6.1-6.3.5-1.7.4-4.1.7-4.1.7s-2.5-7-2.9-8.2c-.4-1.3-1.1-5.2-1.2-6.1s-1.1-6.7-1.1-6.7z" class="st11"/><path id="XMLID_454_" d="M379.8 175s4.6-2.4 6.2-2" class="st11"/><path id="XMLID_453_" d="M382.7 169.8l6.4-1.4" class="st11"/><path id="XMLID_452_" d="M358.7 184.3s2.9-.6 5.1-1.3" class="st11"/><path id="XMLID_451_" d="M363.6 192.1c.3-.1 2.2-.3 2.2-.3" class="st11"/><path id="XMLID_449_" d="M377.1 190.7s2.8.1 3.3 0" class="st11"/><path id="XMLID_443_" d="M430.5 164.1s2.6-.6 3.4-.8" class="st11"/><path id="XMLID_442_" d="M451.1 157.8l4.4-.7" class="st11"/><path id="XMLID_441_" d="M452.4 164.3l4.3-.8" class="st11"/><path id="XMLID_439_" d="M448.5 172.2l4.5-1.1" class="st11"/></g><g id="XMLID_372_"><g id="XMLID_415_"><path id="XMLID_437_" d="M355.2 170.3l-.7 1.2 3 .2s3-1.5 4.7-1.3c1.6.2 3.5 0 5.7-.5s7.8-1.8 7.8-1.8l7.1-1.6 46.8-11s6.1-1.1 7.4-1.7 3.1-1.1 3.1-1.1l9.2-1.9s4-.6 4.2-1.8-.1-2.8-.1-2.8l-6.6 2.9-15.5 3.4-31.2 7.8-28.1 6.4-7.8 1.7c-.2-.1-8.1 3.2-9 1.9z" class="st5"/><path id="XMLID_436_" d="M350.3 150.9l-1.7 2.3 2.4 11.7 3.1 6.7 1.2-1.8-3.4-12.3z" class="st11"/><g id="XMLID_433_"><path id="XMLID_435_" d="M350.7 151l.9 5.8s1 2.7 1.1 3.5 2.4 10.5 2.4 10.5 3.5-.8 4.3-.7c.8.1 9.7-2.3 9.7-2.3l13.8-3.2 16.1-3.3 16.2-4.8 11.3-2.6 12.8-3.4L453 148l-.8-5.7s-2.2-6.7-2.1-7.7c.1-1-1.5-6-1.5-6l-9.9 2.8s-8.3 2.2-10.1 2.7c-1.8.5-29.7 6.8-29.7 6.8l-18.4 3.6s-9.9 2.6-11.7 2.8-17.1 2.5-18.1 3.7z" class="st2"/><path id="XMLID_434_" d="M350.6 150.7l.9 5.8s1 2.7 1.1 3.5 2.4 10.5 2.4 10.5 3.5-.8 4.3-.7c.8.1 9.7-2.3 9.7-2.3l13.8-3.2 16.1-3.3 16.2-4.8 11.3-2.6 12.8-3.4 13.7-2.5-.8-5.7s-2.2-6.7-2.1-7.7c.1-1-1.5-6-1.5-6l-9.9 2.8s-8.3 2.2-10.1 2.7c-1.8.5-29.7 6.8-29.7 6.8l-18.4 3.6s-9.9 2.6-11.7 2.8-17.1 2.5-18.1 3.7z" class="st2"/></g><g id="XMLID_416_"><path id="XMLID_420_" d="M410.4 157.1s-.6-3.1 4.2-5.8" class="st22"/><path id="XMLID_419_" d="M421.2 154.7s-2.6-2.8 5-3.5" class="st11"/><path id="XMLID_418_" d="M419.3 150s3.5-1.7 6-1.8" class="st11"/><path id="XMLID_417_" d="M429.6 150s2 .4 2.5 1.9" class="st22"/></g><g id="XMLID_255_"><path id="XMLID_257_" d="M350.7 151l.9 5.8s1 2.7 1.1 3.5c.2.7 2.4 10.5 2.4 10.5s3.5-.8 4.3-.7c.8.1 9.7-2.3 9.7-2.3l13.8-3.2 16.1-3.3 16.2-4.8 11.3-2.6 12.8-3.4L453 148l-.8-5.7s-2.2-6.7-2.1-7.7-1.5-6-1.5-6l-9.9 2.8s-8.3 2.2-10.1 2.7c-1.8.5-29.7 6.8-29.7 6.8l-18.4 3.6s-9.9 2.6-11.7 2.8-17.1 2.5-18.1 3.7z" class="st11"/><path id="XMLID_256_" d="M350.6 150.7l.9 5.8s1 2.7 1.1 3.5 2.4 10.5 2.4 10.5 3.5-.8 4.3-.7c.8.1 9.7-2.3 9.7-2.3l13.8-3.2 16.1-3.3 16.2-4.8 11.3-2.6 12.8-3.4 13.7-2.5-.8-5.7s-2.2-6.7-2.1-7.7-1.5-6-1.5-6l-9.9 2.8s-8.3 2.2-10.1 2.7c-1.8.5-29.7 6.8-29.7 6.8l-18.4 3.6s-9.9 2.6-11.7 2.8-17.1 2.5-18.1 3.7z" class="st11"/></g><g id="XMLID_427_"><path id="XMLID_432_" d="M367.5 160.8c-.4-.6-2.8 0-2.5 1.2.3 1.2 2.2 8.6 2.4 9.2s.1 2.7.7 3.1c.7.4 3-.5 3.1-1.8 0-1.4-2.1-9.4-3.7-11.7z" class="st23"/><path id="XMLID_431_" d="M368 160.8c-.4-.6-2.8 0-2.5 1.2.3 1.2 2.2 8.6 2.4 9.2s.1 2.7.7 3.1c.7.4 3-.5 3.1-1.8s-2.2-9.4-3.7-11.7z" class="st22"/><path id="XMLID_430_" d="M368.2 161.5s.7 2.5-1.8 4.4" class="st22"/><path id="XMLID_429_" d="M370 166.2s.7 2.5-1.8 4.4" class="st22"/><path id="XMLID_428_" d="M371.2 171.1s.3 1.4-2.9 2.6" class="st22"/></g><g id="XMLID_421_"><path id="XMLID_426_" d="M434.5 145.5c-.4-.6-2.8 0-2.5 1.2.3 1.2 2.2 8.6 2.4 9.2s.1 2.7.7 3.1c.7.4 3-.5 3.1-1.8-.1-1.4-2.2-9.5-3.7-11.7z" class="st23"/><path id="XMLID_425_" d="M434.9 145.5c-.4-.6-2.8 0-2.5 1.2.3 1.2 2.2 8.6 2.4 9.2s.1 2.7.7 3.1c.7.4 3-.5 3.1-1.8 0-1.4-2.1-9.5-3.7-11.7z" class="st22"/><path id="XMLID_424_" d="M435.2 146.1s.7 2.5-1.8 4.4" class="st22"/><path id="XMLID_423_" d="M437 150.8s.7 2.5-1.8 4.4" class="st22"/><path id="XMLID_422_" d="M438.2 155.7s.3 1.4-2.9 2.6" class="st22"/></g></g><path id="XMLID_414_" d="M399.7 147.7l8.6-2.6" class="st22"/><path id="XMLID_413_" d="M408.6 139.9s3.8-.8 5.2-1.1" class="st22"/><path id="XMLID_412_" d="M354.5 151.3l3.1-.6" class="st11"/><path id="XMLID_411_" d="M352.1 158.3l4.8-.7" class="st11"/><path id="XMLID_410_" d="M355.4 164l2.8-.6" class="st11"/><path id="XMLID_409_" d="M379.8 160.1l8.6-1.9" class="st11"/><path id="XMLID_408_" d="M376.8 147.3l3.9-.9" class="st11"/><path id="XMLID_407_" d="M447.1 141.4l4.8-1" class="st11"/><path id="XMLID_406_" d="M444.6 133.9l3.1-.7" class="st11"/><g id="XMLID_373_"><path id="XMLID_405_" d="M344.4 126.5l14.5-3.8 17-2.8 18.8-4.4 22.9-5.3 12.8-2.9 5.8-1.2 4.4-.9h3.8l2.5 9.4 1.3 6.9-.3 3.1-20.7 6.2-12 1.7-24.1 5.6-13.6 3.5-9 1.8-7.4 1.4-7 1.4-5.2.1-2.7-12z" class="st2"/><path id="XMLID_404_" d="M344.4 126.4l-1.9 3 2.3 10.6 2.4 7.5.8.7 1.4-2-1.5-4.5-.9-5.1-1.4-5.2z" class="st11"/><path id="XMLID_403_" d="M349.1 145.9l-.7 2.2 4.8-1s4.7.5 8-.3 10.6-2.6 10.6-2.6l39-8.2 17.6-4.2 14.8-3.8 3.6-.8 1.7-2.9-6.7 1.7-10.2 3.2s-10.1 1.9-12.5 2.1c-2.3.2-16 3.4-16 3.4l-34.6 7.3c0-.1-18.8 4.1-19.4 3.9z" class="st5"/><path id="XMLID_402_" d="M344.5 126.2l14.4-3.8 17.1-2.7 18.8-4.4 22.8-5.3 12.9-2.9 5.8-1.3 4.4-.9h3.8l2.4 9.5 1.3 6.9-.3 3.1-20.6 6.2-12 1.6-24.2 5.7-13.6 3.5-8.9 1.7-7.5 1.4-7 1.4-5.1.1-2.7-12z" class="st11"/><g id="XMLID_396_"><path id="XMLID_401_" d="M362.7 137.2c-.4-.6-2.8 0-2.5 1.2.3 1.2 2.2 8.6 2.4 9.2s.1 2.7.7 3.1c.7.4 3-.5 3.1-1.8s-2.2-9.5-3.7-11.7z" class="st23"/><path id="XMLID_400_" d="M363.1 137.2c-.4-.6-2.8 0-2.5 1.2.3 1.2 2.2 8.6 2.4 9.2s.1 2.7.7 3.1c.7.4 3-.5 3.1-1.8 0-1.4-2.1-9.5-3.7-11.7z" class="st22"/><path id="XMLID_399_" d="M363.4 137.8s.7 2.5-1.8 4.4" class="st22"/><path id="XMLID_398_" d="M365.2 142.6s.7 2.5-1.8 4.4" class="st22"/><path id="XMLID_397_" d="M366.4 147.4s.3 1.4-2.9 2.6" class="st22"/></g><g id="XMLID_390_"><path id="XMLID_395_" d="M429 121.6c-.4-.6-2.8 0-2.5 1.2s2.2 8.6 2.4 9.2c.1.6.1 2.7.7 3.1.7.4 3-.5 3.1-1.8 0-1.4-2.1-9.5-3.7-11.7z" class="st23"/><path id="XMLID_394_" d="M429.5 121.6c-.4-.6-2.8 0-2.5 1.2.3 1.2 2.2 8.6 2.4 9.2.1.6.1 2.7.7 3.1.7.4 3-.5 3.1-1.8-.1-1.4-2.2-9.5-3.7-11.7z" class="st22"/><path id="XMLID_393_" d="M429.7 122.2s.7 2.5-1.8 4.4" class="st22"/><path id="XMLID_392_" d="M431.5 127s.7 2.5-1.8 4.4" class="st22"/><path id="XMLID_391_" d="M432.7 131.8s.3 1.4-2.9 2.6" class="st22"/></g><path id="XMLID_380_" d="M351.6 134.1l5.8-1.4" class="st11"/><path id="XMLID_379_" d="M353.2 140.9l5.2-1" class="st11"/><path id="XMLID_378_" d="M362.1 124.6l2.5-.8" class="st11"/><path id="XMLID_377_" d="M437.3 111.9l5.8-.8" class="st11"/><path id="XMLID_376_" d="M440.3 123.9l5.7-1.4" class="st11"/><path id="XMLID_375_" d="M427.2 119.1l2.6-.6" class="st11"/><path id="XMLID_374_" d="M372.6 136l3.9-1" class="st11"/></g></g></g><path id="XMLID_465_" d="M413 165.3l-14.4 3.7c-6.4 1.6-13-2.3-14.6-8.7l-3.7-14.4c-1.6-6.4 2.3-13 8.7-14.6l14.4-3.7c6.4-1.6 13 2.3 14.6 8.7l3.7 14.4c1.6 6.4-2.3 12.9-8.7 14.6z" class="st2"/><path id="XMLID_497_" d="M383.3 134.1l6.1 26.4s4.7 5.8 18.5 1.9c13.7-3.9 14.4-4.7 14.4-4.7l-1 3.6-2.4 2.5-9 2.5-17 4.1-5.3-2.2-2.5-3.1-5.9-25.4s.2-6.8 4.1-5.6z" class="st5"/><g id="XMLID_33_"><path id="XMLID_37_" d="M389.1 138.2c1.8-.8 4.3-1.7 7.9-2.6 3.7-.9 6.5-.9 8.6.1 2 .9 3.7 2.8 4.4 5.4s.4 5-.8 6.9c-1.5 2.4-4.3 4-7.8 4.9-.8.2-1.5.3-2.1.4l2.4 9.4-5.9 1.5-6.7-26zm9 10.4c.5 0 1.2-.1 2-.3 3.2-.8 4.7-2.9 4-5.6-.6-2.4-2.7-3.4-5.6-2.7-1.2.3-2 .6-2.4.9l2 7.7z" class="st12"/></g><path id="XMLID_285_" d="M363.8 162.4s1.9-3.6 6.4-1.5" class="st24"/><path id="XMLID_264_" d="M431 147.5s1.9-3.6 6.4-1.5" class="st24"/><path id="XMLID_463_" d="M432 121.6c-4.6-2-6.4 1.5-6.4 1.5" class="st24"/><path id="XMLID_464_" d="M359.1 138.7s1.9-3.6 6.4-1.5" class="st24"/><path id="XMLID_466_" d="M433.5 158s2.9 2.7 6.6-.7" class="st24"/><path id="XMLID_468_" d="M366.3 173.6s2.9 2.7 6.6-.7" class="st24"/><path id="XMLID_240_" d="M413 165.9l-14.4 3.7c-6.4 1.6-13-2.3-14.6-8.7l-3.7-14.4c-1.6-6.4 2.3-13 8.7-14.6l14.4-3.7c6.4-1.6 13 2.3 14.6 8.7l3.7 14.4c1.6 6.4-2.3 13-8.7 14.6z" class="st25"/></g><g id="XMLID_199_"><path id="XMLID_840_" d="M439.4 194.8c0 1.8-1.6 3.4-3.4 3.4-1.7 0-3.3-1.5-3.3-3.2-.1-1.8 1.4-3.4 3.3-3.5 1.8-.1 3.4 1.4 3.4 3.3zm-3.5-1.6c-.9.2-1.5.7-1.4 1.7.1.9.7 1.5 1.6 1.4.9-.1 1.5-.7 1.4-1.6 0-.9-.6-1.4-1.6-1.5z" class="st7"/><path id="XMLID_216_" d="M435.9 193.2c.9.1 1.5.6 1.6 1.5.1 1-.5 1.5-1.4 1.6-.9.1-1.6-.5-1.6-1.4 0-.9.6-1.4 1.4-1.7z" class="st2"/></g><path id="XMLID_149_" d="M360.9 197.1s17.8-2 22.6-2.9c4.9-.9 57.1-13.4 57.1-13.4l15.2-4.6 2.4-4.1" class="st11"/><path id="XMLID_151_" d="M349 146l-.7 2.1 14.2-1.8" class="st11"/><path id="XMLID_152_" d="M366.5 145.1l12.9-2.3" class="st11"/><path id="XMLID_158_" d="M417.9 134.1l11-2.1" class="st11"/><path id="XMLID_150_" d="M432.8 130l14.1-3.5 1-2.1" class="st11"/></g><ellipse id="XMLID_154_" cx="328.9" cy="212.9" transform="matrix(.995 .102 -.102 .995 23.42 -32.427)" class="st26" rx="2.2" ry="1.2"/><ellipse id="XMLID_153_" cx="319.4" cy="204.9" transform="matrix(.992 .123 -.123 .992 27.68 -37.799)" class="st5" rx="12.6" ry="5"/><path id="XMLID_146_" d="M307 203.3c.3-2.4 5-3.9 10.9-3.6-4.4.3-7.5 1.6-7.8 3.6-.3 2.7 5 5.6 11.9 6.5.7.1 1.5.2 2.2.2-1.6.1-3.4 0-5.3-.2-7-.8-12.3-3.7-11.9-6.5z" class="st7"/><ellipse id="XMLID_125_" cx="319.5" cy="205" transform="matrix(.995 .102 -.102 .995 22.563 -31.508)" class="st26" rx="13" ry="5"/><path id="XMLID_52_" d="M333.5 209.9c.1-1 1.8-1.6 3.7-1.4-1.3.1-2.3.7-2.4 1.4-.1.9 1.4 1.9 3.3 2-.4 0-.8 0-1.3 0-2-.1-3.4-1-3.3-2z" class="st7"/><ellipse id="XMLID_46_" cx="328.9" cy="212.9" transform="matrix(.995 .102 -.102 .995 23.42 -32.427)" class="st5" rx="2.2" ry="1.2"/><path id="XMLID_8_" d="M328.7 213.2c1.1.1 2.1-.2 2.4-.6.1.2.2.3.2.5-.1.7-1.2 1.1-2.6 1-1.4-.1-2.4-.8-2.3-1.4 0-.1.1-.2.2-.4.3.5 1.1.8 2.1.9z" class="st7"/><g id="XMLID_41_"><path id="XMLID_42_" d="M195.4 195.6l-.5-2.2-4.1.9-.3-1.4 2.3-6.5 2.7-.6 1.2 5.5 1.1-.2.4 1.6-1.2.3.5 2.2-2.1.4zm-.9-3.8l-.5-2.1c-.1-.6-.2-1.1-.3-1.8h-.1c-.2.7-.3 1.3-.5 1.9l-.8 2.3 2.2-.3z" class="st7"/><path id="XMLID_249_" d="M205.4 188.5c.6 2.9-.1 5.1-2.5 5.7-2.4.5-4-1.4-4.6-4-.6-2.7.1-5.1 2.5-5.6 2.5-.7 4 1.3 4.6 3.9zm-4.9 1.1c.5 2.1 1.2 3.1 2 2.9.8-.2 1.1-1.4.6-3.5-.5-2.1-1.1-3.1-2-2.9-.7.2-1 1.3-.6 3.5z" class="st7"/><path id="XMLID_260_" d="M211.4 192.1l-.5-2.2-4.1.9-.3-1.4 2.3-6.5 2.7-.6 1.2 5.5 1.1-.2.4 1.6-1.1.2.5 2.2-2.2.5zm-.9-3.8l-.5-2.1c-.1-.6-.2-1.1-.3-1.8h-.1c-.2.7-.3 1.3-.5 1.9l-.8 2.3 2.2-.3z" class="st7"/></g><path id="XMLID_5_" d="M488 50c-9.2-3-27.1-21.4-26.8-22.2.3-.8 25.4-5.1 34.6-2.1 10.5 3.4 17.3 11.6 15.1 18.3-2.2 6.7-12.4 9.4-22.9 6z" class="st27"/></g></g></svg>