<?xml version="1.0" encoding="utf-8"?>
<!-- Generator: Adobe Illustrator 21.1.0, SVG Export Plug-In . SVG Version: 6.00 Build 0)  -->
<svg version="1.1" id="Vrstva_1" xmlns="http://www.w3.org/2000/svg" xmlns:xlink="http://www.w3.org/1999/xlink" x="0px" y="0px"
	 viewBox="0 0 80 80" style="enable-background:new 0 0 80 80;" xml:space="preserve">
<style type="text/css">
	.st0{fill:#D9D9D9;}
	.st1{fill:#FFFFFF;}
	.st2{fill:#F2F2F2;}
	.st3{fill:none;stroke:#4D4D4D;stroke-width:0.895;stroke-linecap:round;stroke-linejoin:round;stroke-miterlimit:10;}
	.st4{fill:#B2B2B2;}
</style>
<g id="XMLID_1_">
	<path id="XMLID_78_" class="st0" d="M2.6,55.1h13.5c1.5,0,2.6-1.1,2.6-2.6v-3.4c0-1.5-1.1-2.6-2.6-2.6H2.6c-1.5,0-2.6,1.1-2.6,2.6
		v3.4C0,53.9,1.1,55.1,2.6,55.1z"/>
	<path id="XMLID_75_" class="st0" d="M7.9,62.6h13.5c1.5,0,2.6-1.1,2.6-2.6v-3.4c0-1.5-1.1-2.6-2.6-2.6H7.9c-1.5,0-2.6,1.1-2.6,2.6
		V60C5.4,61.3,6.5,62.6,7.9,62.6z"/>
	<path id="XMLID_72_" class="st0" d="M2.6,37.2h13.5c1.5,0,2.6-1.1,2.6-2.6v-2.7c0-1.5-1.1-2.6-2.6-2.6H2.6c-1.5,0-2.6,1.1-2.6,2.6
		v2.7C0,36.1,1.1,37.2,2.6,37.2z"/>
	<path id="XMLID_71_" class="st1" d="M5.6,22.8l9.7,44.5L50.8,59l-7-32l-14.4-9.4L5.6,22.8z"/>
	<path id="XMLID_68_" class="st2" d="M6.2,23l4.5-0.9l8.8,43.6l-4.5,0.9L6.2,23z"/>
	<path id="XMLID_65_" class="st0" d="M29.4,17.6L32,29.5l12.4-2.8L29.4,17.6z"/>
	<g id="XMLID_58_">
		<path id="XMLID_64_" class="st3" d="M29.4,17.6L32,29.5L43.8,27"/>
		<path id="XMLID_63_" class="st3" d="M29.4,17.6L5.6,22.8l9.7,44.5l35.5-7.7l-7-32.7L29.4,17.6z"/>
		<path id="XMLID_62_" class="st3" d="M22,54.9l17.8-3.8"/>
		<path id="XMLID_61_" class="st3" d="M20.3,47.6l17.8-3.8"/>
		<path id="XMLID_60_" class="st3" d="M18.7,40.1l17.8-3.8"/>
		<path id="XMLID_59_" class="st3" d="M17.1,32.7l6-1.2"/>
	</g>
	<path id="XMLID_55_" class="st0" d="M63.9,51.2h13.5c1.5,0,2.6-1.1,2.6-2.6v-2.7c0-1.5-1.1-2.6-2.6-2.6H63.9
		c-1.5,0-2.6,1.1-2.6,2.6v2.7C61.3,49.9,62.4,51.2,63.9,51.2z"/>
	<path id="XMLID_52_" class="st0" d="M59.8,66.5h13.5c1.5,0,2.6-1.1,2.6-2.6v-2.7c0-1.5-1.1-2.6-2.6-2.6H59.8
		c-1.5,0-2.6,1.1-2.6,2.6v2.7C57.4,65.4,58.5,66.5,59.8,66.5z"/>
	<path id="XMLID_51_" class="st1" d="M39.3,21.5L34,66.7l36.3,3.7L74,37.9L63.4,24.4L39.3,21.5z"/>
	<path id="XMLID_48_" class="st0" d="M63.3,25.4l-1.4,11l12.5,1.5L63.3,25.4z"/>
	<path id="XMLID_47_" class="st3" d="M63.4,24.4L62,36.4L74,37.9"/>
	<path id="XMLID_44_" class="st2" d="M39.8,22.2l4.6,0.5L39.2,67l-4.6-0.5L39.8,22.2z"/>
	<path id="XMLID_43_" class="st3" d="M63.4,24.4l-24.1-2.8L34,66.7L70.1,71L74,37.9L63.4,24.4z"/>
	<g id="XMLID_40_">
		<path id="XMLID_42_" class="st3" d="M53.9,48.6c1.1,1.1,1.1,3,0,4.2l-1.7,1.7c-1.1,1.1-3,1.1-4.2,0c-1.1-1.1-1.1-3,0-4.2l1.4-1.4"
			/>
		<path id="XMLID_41_" class="st3" d="M57,49.6l1.4-1.4c1.1-1.1,1.1-3,0-4.2c-1.1-1.1-3-1.1-4.2,0l-1.7,1.7c-1.1,1.1-1.1,3,0,4.2"/>
	</g>
	<g id="XMLID_33_">
		<g id="XMLID_114_">
			<path id="XMLID_116_" class="st4" d="M41.9,10.8v0.3c0,0.3-0.2,0.7-0.6,0.7l-4.8,0.6c-0.3,0-0.7-0.2-0.7-0.6v-0.3
				c0-0.3,0.2-0.7,0.6-0.7l4.8-0.6C41.6,10.3,41.8,10.5,41.9,10.8z"/>
			<path id="XMLID_115_" class="st4" d="M39.4,14.2h-0.3c-0.3,0-0.7-0.2-0.7-0.6l-0.6-4.4c0-0.3,0.2-0.7,0.6-0.7h0.3
				c0.3,0,0.7,0.2,0.7,0.6l0.6,4.4C40,13.9,39.8,14.2,39.4,14.2z"/>
		</g>
	</g>
	<g id="XMLID_26_">
		<g id="XMLID_106_">
			<path id="XMLID_113_" class="st4" d="M71.8,24.4v0.1c0,0.2-0.2,0.5-0.5,0.5l-3-0.1c-0.2,0-0.5-0.2-0.5-0.5v-0.1
				c0-0.2,0.2-0.5,0.5-0.5l3,0.1C71.7,23.9,71.9,24.1,71.8,24.4z"/>
			<path id="XMLID_107_" class="st4" d="M69.9,26.3h-0.1c-0.2,0-0.5-0.2-0.5-0.5l0.1-2.8c0-0.2,0.2-0.5,0.5-0.5H70
				c0.2,0,0.5,0.2,0.5,0.5l-0.1,2.8C70.3,26.1,70.1,26.3,69.9,26.3z"/>
		</g>
	</g>
	<circle id="XMLID_23_" class="st2" cx="44.8" cy="16.5" r="1.2"/>
	<circle id="XMLID_20_" class="st2" cx="20.1" cy="13.3" r="0.8"/>
	<circle id="XMLID_17_" class="st0" cx="68.1" cy="19.5" r="0.8"/>
</g>
</svg>
