<svg xmlns="http://www.w3.org/2000/svg" viewBox="0 0 90 60" enable-background="new 0 0 90 60"><style type="text/css">.st0{fill:#FDFDFD;} .st1{fill:#DFF2FD;} .st2{fill:#5F8391;} .st3{fill:#FFFFFF;}</style><g id="XMLID_1_"><ellipse id="XMLID_7570_" cx="15.1" cy="43.4" transform="matrix(.833 -.553 .553 .833 -21.525 15.595)" class="st0" rx="8.6" ry="17.8"/><ellipse id="XMLID_7569_" cx="67.5" cy="13.8" transform="matrix(.807 -.59 .59 .807 4.84 42.496)" class="st1" rx="2.7" ry="3.7"/><path id="XMLID_113_" d="M68.4 17.3c-1.2 0-2.5-.7-3.5-2-1.3-1.8-1.3-4.2.1-5.2 1.4-1 3.6-.3 5 1.5 1.3 1.8 1.3 4.2-.1 5.2-.4.3-.9.5-1.5.5zm-1.8-6.9c-.4 0-.7.1-1 .3-1 .7-1 2.6.1 4 1.1 1.5 2.8 2.1 3.8 1.3 1-.7 1-2.6-.1-4-.8-1-1.9-1.6-2.8-1.6z" class="st2"/><path id="XMLID_7567_" d="M51.8 18.6c7.2-4.4 14-6.4 15.1-4.5s-3.8 6.9-11 11.3l-4.1-6.8z" class="st0"/><path id="XMLID_7566_" d="M53.73 31.54l.94-1.04 4.06 3.7-.94 1.04z" class="st2"/><path id="XMLID_7565_" d="M48.32 34.9l.94-1.03 4.06 3.7-.94 1.05z" class="st2"/><path id="XMLID_7564_" d="M55.3 19.2l10.4-5.5 1 1.1-10 7.1z" class="st1"/><path id="XMLID_7563_" d="M29.72 19.7l.8-.88 3.56 3.24-.8.9z" class="st2"/><path id="XMLID_7562_" d="M34.42 17.36l.8-.88 3.56 3.23-.8.9z" class="st2"/><path id="XMLID_110_" d="M55.5 25.8c-.2 0-.3-.1-.4-.2L51 18.8c-.1-.2-.1-.4.1-.6 3.5-2.1 7-3.8 9.9-4.6 2.2-.6 4.9-1.1 5.7.3.8 1.4-.9 3.6-2.4 5.2-2.1 2.2-5.2 4.5-8.7 6.6.1.1 0 .1-.1.1zM52 18.7l3.7 6.1c3.3-2 6.2-4.3 8.2-6.3 2.2-2.3 2.6-3.7 2.3-4.2-.3-.6-1.8-.8-4.8.1-2.8.8-6.1 2.4-9.4 4.3z" class="st2"/><path id="XMLID_7560_" d="M52.9 14.6" class="st2"/><path id="XMLID_7559_" d="M59 25.9" class="st2"/><path id="XMLID_7558_" d="M55.6 20.3c-2.8-4.2-6.6-6.5-8.6-5.1L22.8 27.8c-.2.1-.3.1-.4.2-2.2 1.5-1.6 6.5 1.5 11.1 3.1 4.7 7.4 7.2 9.7 5.7L57 30.1c2-1.2 1.3-5.6-1.4-9.8z" class="st0"/><path id="XMLID_7557_" d="M47.8 14.8l-14.6 9.5s-3.6 2.8.4 8.9S49 34.6 49 34.6l-14.8 9.6-4.9-11.5-7-5 25.5-12.9z" class="st1"/><ellipse id="XMLID_7556_" cx="27.6" cy="36.8" transform="matrix(.833 -.553 .553 .833 -15.784 21.432)" class="st1" rx="4.9" ry="10.1"/><ellipse id="XMLID_7555_" cx="14.4" cy="44.7" transform="matrix(.833 -.553 .553 .833 -22.365 15.424)" class="st1" rx="7.4" ry="17.9"/><path id="XMLID_7552_" d="M5 51.5c.4.6 1.2.7 1.8.3l3.7-2.7c.6-.4.7-1.2.3-1.8-.5-.6-1.3-.7-1.8-.3l-3.7 2.7c-.6.4-.8 1.2-.3 1.8z" class="st2"/><path id="XMLID_7551_" d="M48.5 17.9l-15.7 7.9c-.2.1-.4 0-.5-.2-.1-.2 0-.4.2-.5l15.7-7.9c.2-.1.4 0 .5.2.1.2 0 .4-.2.5z" class="st2"/><path id="XMLID_107_" d="M22.3 59.8c-1.6 0-3.5-.6-5.5-1.8-3.3-1.9-6.5-5.2-9.2-9.2-2.7-4-4.4-8.3-4.9-12.1-.6-3.8.2-6.7 2.3-8.1 2.1-1.4 5-1 8.4 1 3.3 1.9 6.5 5.2 9.2 9.2 5.6 8.4 6.7 17.4 2.6 20.2-.9.6-1.8.8-2.9.8zM7.9 28.6c-.9 0-1.8.2-2.4.7-1.8 1.2-2.5 3.8-2 7.3.5 3.6 2.2 7.8 4.8 11.7s5.8 7.1 8.9 9c3.1 1.8 5.7 2.2 7.5 1 3.8-2.5 2.5-11-2.8-19-2.6-3.9-5.8-7.1-8.9-9-1.9-1.1-3.7-1.7-5.1-1.7z" class="st2"/><g id="XMLID_7530_"><path id="XMLID_7547_" d="M73.6 59.2L48.1 39.4 60 31.2l27.2 16z" class="st0"/><path id="XMLID_7544_" d="M60.6 46.4l-9.4-6.9 5.5-3.5 8.6 6.2z" class="st1"/><path id="XMLID_7541_" d="M66.4 41.2l-8.5-6.1 2.8-1.7 8.9 5.2z" class="st1"/><path id="XMLID_7538_" d="M73.5 56.4l-11.6-8.9 4.8-4.6 13.1 8.3z" class="st1"/><path id="XMLID_7535_" d="M81.1 50.2l-13.4-8.4 2.9-2.8 14.1 8.4z" class="st1"/><path id="XMLID_104_" d="M60.6 46.6s-.1 0-.1 0l-9.4-6.9c-.1 0-.1-.1-.1-.2s0-.1.1-.2l5.6-3.5c.1 0 .2 0 .2 0l8.5 6.2s.1.1.1.2 0 .1-.1.2l-4.7 4.2s0 0-.1 0zm-9-7.1l9 6.6 4.4-3.9-8.2-6-5.2 3.3z" class="st2"/><path id="XMLID_101_" d="M66.4 41.4s-.1 0-.1 0l-8.5-6.1c-.1 0-.1-.1-.1-.2s0-.1.1-.2l2.8-1.8c.1 0 .1 0 .2 0l8.9 5.2c.1 0 .1.1.1.2s0 .1-.1.2l-3.2 2.7s0 0-.1 0zm-8.1-6.3l8.1 5.8 2.9-2.4-8.5-5-2.5 1.6z" class="st2"/><path id="XMLID_98_" d="M73.5 56.6s-.1 0-.1 0l-11.6-8.9s-.1-.1-.1-.1 0-.1.1-.2l4.8-4.6c.1-.1.2-.1.2 0L79.9 51c.1 0 .1.1.1.2s0 .1-.1.2l-6.3 5.2c-.1-.1-.1 0-.1 0zm-11.4-9.2l11.3 8.7 6-4.9-12.8-8.1-4.5 4.3z" class="st2"/><path id="XMLID_95_" d="M81.1 50.4s-.1 0-.1 0L67.6 42c-.1 0-.1-.1-.1-.1 0-.1 0-.1.1-.2l2.9-2.8c.1-.1.2-.1.2 0l14.1 8.4c.1 0 .1.1.1.2s0 .1-.1.2l-3.7 2.8c.1-.1 0-.1 0-.1zM68 41.8L81 50l3.3-2.5-13.8-8.2-2.5 2.5z" class="st2"/></g><path id="XMLID_7527_" d="M28.2 21.5L13.5 5.4l10.8-3.9 14.5 14.7z" class="st0"/><path id="XMLID_92_" d="M28.2 21.5c-.1 0-.2 0-.3-.1L13.2 5.2c-.1-.1-.2-.2-.1-.3 0-.1.1-.2.3-.3L24.2.8c.1-.1.3 0 .4.1l14.5 14.6c.1.1.1.2.1.4s-.1.2-.2.3l-10.6 5.3c-.1 0-.2 0-.2 0zm-14-16.4l14.1 15.4 9.8-4.9-13.9-14-10 3.5z" class="st2"/><path id="XMLID_7523_" d="M21.7 11.5l-5.3-6L20.7 4l4.6 5.7z" class="st1"/><path id="XMLID_7520_" d="M26 9.3l-4.4-5.5 2.5-1 5 5z" class="st1"/><path id="XMLID_7517_" d="M28.5 19.1l-6.1-6.7 3.5-2 6 7.2z" class="st1"/><path id="XMLID_7514_" d="M32.7 17.2l-6-7.1L30 8.6l6.6 6.7z" class="st1"/><path id="XMLID_89_" d="M32 45.4c-1 0-2-.3-3.2-1-1.9-1.1-3.8-3-5.3-5.3-3.3-4.9-3.9-10.1-1.4-11.7.2-.1.3-.2.5-.3l24.1-12.6c1.1-.7 2.7-.5 4.4.5 1.7 1 3.4 2.7 4.7 4.7 1.4 2.1 2.3 4.3 2.5 6.2.3 2-.2 3.6-1.3 4.3L33.8 44.9c-.5.3-1.1.5-1.8.5zm16.3-30.6c-.4 0-.8.1-1.1.3L23 27.8c-.2.1-.3.1-.4.2-2 1.3-1.3 6.2 1.7 10.6 1.5 2.2 3.3 4 5 5 1.7 1 3.1 1.2 4.1.6l23.4-14.7c.8-.5 1.1-1.8.9-3.5-.3-1.8-1.1-3.9-2.4-5.9-1.3-2-2.9-3.6-4.5-4.5-.9-.5-1.8-.8-2.5-.8z" class="st2"/><path id="XMLID_7512_" d="M24.3 38.1c-2-3-2.6-6.5-2.6-9.3-1.4 2-1.7 6.7 1.7 10.7 3.6 4.2 7.4 7.2 9.7 5.7.1-.1.3-.7.4-.7-3.1-.6-6.6-2.6-9.2-6.4z" class="st0"/><path id="XMLID_7509_" d="M22.4 39.6c.3.4.9.5 1.4.2l4.2-3c.4-.3.5-.9.2-1.4-.3-.4-.9-.5-1.4-.2l-4.2 3c-.4.4-.5 1-.2 1.4z" class="st2"/><path id="XMLID_74_" d="M31.3 46.1c-2.5 0-5.9-2.4-8.5-6.3-1.5-2.3-2.5-4.8-2.8-6.9-.3-2.3.2-4 1.4-4.8s3-.6 5 .5c1.9 1.1 3.8 3 5.3 5.3 3.3 4.9 3.9 10.1 1.4 11.7-.6.4-1.2.5-1.8.5zm-8.2-17.7c-.5 0-.9.1-1.3.4-1 .6-1.3 2-1.1 4 .3 2 1.2 4.4 2.7 6.6 2.9 4.4 7.1 7 9.1 5.6 2-1.3 1.3-6.2-1.7-10.6-1.5-2.2-3.3-4-5-5-.9-.7-1.9-1-2.7-1z" class="st2"/><path id="XMLID_71_" d="M6.4 52.4c-.5 0-1.1-.2-1.4-.7-.3-.4-.4-.8-.3-1.3.1-.4.3-.8.7-1.1l3.7-2.7c.8-.5 1.8-.4 2.4.4.5.8.4 1.8-.4 2.4l-3.7 2.7c-.3.2-.7.3-1 .3zm-.7-1.2c.3.4.8.5 1.2.2l3.7-2.7c.4-.3.5-.8.2-1.2s-.8-.5-1.2-.2L5.9 50c-.4.3-.5.8-.2 1.2z" class="st2"/><g id="XMLID_7425_"><path id="XMLID_65_" d="M74 59.6c-.1 0-.2 0-.3-.1L48.2 39.7c-.1-.1-.2-.2-.2-.3 0-.1.1-.3.2-.3l12-8.2c.1-.1.3-.1.4 0l27.2 16c.1.1.2.2.2.3 0 .1 0 .3-.1.3l-13.6 12c-.2.1-.2.1-.3.1zM49.1 39.4l24.8 19.3 13-11.4-26.5-15.6-11.3 7.7z" class="st2"/></g><path id="XMLID_64_" d="M10.8 47.9c-.1 0-.3-.1-.3-.2-.1-.2-.1-.4.1-.6l5.3-3.6c.2-.1.4-.1.6.1s.1.4-.1.6L11 47.8c-.1.1-.2.1-.2.1z" class="st2"/><path id="XMLID_63_" d="M10.3 47.4s-.1 0 0 0c-.3 0-.4-.2-.4-.4L11 35.8c0-.2.2-.4.4-.4s.4.2.4.4L10.7 47c0 .2-.2.4-.4.4z" class="st2"/><path id="XMLID_62_" d="M21.4 49.7l-10.6-1.2c-.2 0-.4-.2-.4-.5 0-.2.2-.4.5-.4l10.5 1.2c.2 0 .4.2.4.5 0 .2-.2.4-.4.4z" class="st2"/><path id="XMLID_59_" d="M22.3 60.2c-1.5 0-3.4-.7-5.5-2.1-3.1-2.1-6.3-5.4-9-9.4s-4.6-8.2-5.3-11.9c-.8-3.8-.2-6.5 1.6-7.7C7.7 26.7 15 31.4 20.8 40c2.7 4 4.6 8.2 5.3 11.9.8 3.8.2 6.5-1.6 7.7-.6.4-1.3.6-2.2.6zM6.4 29.3c-.7 0-1.3.2-1.8.5-1.5 1-1.9 3.5-1.2 6.8.7 3.5 2.6 7.6 5.2 11.6 2.6 3.9 5.7 7.2 8.7 9.2 2.9 1.9 5.3 2.4 6.8 1.4s1.9-3.5 1.2-6.8c-.7-3.5-2.6-7.6-5.2-11.6-4.4-6.6-10.2-11.1-13.7-11.1z" class="st2"/><path id="XMLID_56_" d="M21.5 11.6c-.1 0-.1 0-.1-.1l-5.3-6s-.1-.1 0-.2c0-.1.1-.1.1-.1l4.3-1.5c.1 0 .2 0 .2.1l4.5 5.6s.1.1 0 .2c0 .1-.1.1-.1.1l-3.6 1.9c.1 0 0 0 0 0zm-4.9-6.1l5 5.6 3.2-1.7-4.3-5.3-3.9 1.4z" class="st2"/><path id="XMLID_9_" d="M26 9.4c-.1 0-.1 0-.2-.1l-4.4-5.5s-.1-.1 0-.2c0-.1.1-.1.1-.1l2.5-1c.1 0 .2 0 .2 0l5 5s.1.1.1.2-.1.1-.1.1L26 9.4zm-4.1-5.6L26 9l2.8-1.3L24.1 3l-2.2.8z" class="st2"/><path id="XMLID_6_" d="M28.5 19.3c-.1 0-.1 0-.1-.1l-6.2-6.7s-.1-.1 0-.2c0-.1 0-.1.1-.1l3.5-2c.1 0 .2 0 .3 0l6 7.1s.1.1 0 .2c0 .1-.1.1-.1.1l-3.5 1.7c.1 0 .1 0 0 0zm-5.8-6.8l5.9 6.4 3-1.4-5.7-6.8-3.2 1.8z" class="st2"/><path id="XMLID_3_" d="M32.7 17.4c-.1 0-.1 0-.2-.1l-6.1-7.1s-.1-.1 0-.2.1-.1.1-.1l3.3-1.5c.1 0 .2 0 .2 0l6.6 6.7s.1.1.1.2-.1.1-.1.1l-3.9 2c.1-.1.1 0 0 0zM27 10.1l5.8 6.8 3.4-1.7-6.3-6.4-2.9 1.3z" class="st2"/><path id="XMLID_7416_" d="M49.7 19l-12.1 6c-.2.1-.4 0-.5-.2-.1-.2 0-.4.2-.5l12.1-6.1c.2-.1.4 0 .5.2 0 .3-.1.5-.2.6z" class="st2"/><ellipse id="XMLID_7415_" cx="5.5" cy="34.4" class="st0" rx="1.4" ry="3.1"/><ellipse id="XMLID_7414_" cx="67.1" cy="11.9" class="st0" rx="1.5" ry=".7"/><g id="XMLID_7395_"><path id="XMLID_7402_" d="M16.3 20.6c0 .7-.6 1.3-1.3 1.3-.7 0-1.2-.6-1.2-1.2 0-.7.5-1.3 1.2-1.3s1.3.6 1.3 1.2zm-1.3-.5c-.3.1-.6.3-.5.6 0 .3.3.6.6.5.3 0 .6-.2.5-.6-.1-.3-.3-.5-.6-.5z" class="st2"/><path id="XMLID_7400_" d="M15 20.1c.3 0 .6.2.6.6 0 .4-.2.6-.5.6-.4 0-.6-.2-.6-.5-.1-.5.2-.6.5-.7z" class="st3"/></g><g id="XMLID_7345_"><path id="XMLID_7350_" d="M75.9 27.4c0 .7-.6 1.3-1.3 1.3-.7 0-1.2-.6-1.2-1.2 0-.7.5-1.3 1.2-1.3.7-.1 1.3.5 1.3 1.2zm-1.3-.6c-.3.1-.6.3-.5.6 0 .3.3.6.6.5.3 0 .6-.2.5-.6 0-.3-.3-.5-.6-.5z" class="st2"/><path id="XMLID_7346_" d="M74.6 26.8c.3 0 .6.2.6.6 0 .4-.2.6-.5.6-.4 0-.6-.2-.6-.5-.1-.4.2-.6.5-.7z" class="st3"/></g><g id="XMLID_7306_"><path id="XMLID_7325_" d="M43.4 51.4c0 .7-.6 1.3-1.3 1.3-.7 0-1.2-.6-1.2-1.2 0-.7.5-1.3 1.2-1.3.7-.1 1.3.5 1.3 1.2zm-1.3-.6c-.3.1-.6.3-.5.6 0 .3.3.6.6.5.3 0 .6-.2.5-.6 0-.3-.3-.5-.6-.5z" class="st2"/><path id="XMLID_7307_" d="M42.1 50.8c.3 0 .6.2.6.6 0 .4-.2.6-.5.6-.4 0-.6-.2-.6-.5-.1-.5.2-.6.5-.7z" class="st3"/></g></g></svg>