<?xml version="1.0" encoding="UTF-8"?>
<svg width="66px" height="82px" viewBox="0 0 66 82" version="1.1" xmlns="http://www.w3.org/2000/svg" xmlns:xlink="http://www.w3.org/1999/xlink">
    <!-- Generator: sketchtool 53.2 (72643) - https://sketchapp.com -->
    <title>4B63923C-9130-45A3-8E6A-1C0F790F7211</title>
    <desc>Created with sketchtool.</desc>
    <defs>
        <path d="M3.16520319,27.1239012 L27.1652032,3.01543714 C28.7237745,1.4498221 31.256428,1.44411204 32.8220431,3.00268339 C32.8263039,3.00692505 32.8305552,3.01117631 32.8347968,3.01543714 L56.8347968,27.1239012 C57.5810447,27.8735216 58,28.8882029 58,29.9459442 L58,70 C58,72.209139 56.209139,74 54,74 L6,74 C3.790861,74 2,72.209139 2,70 L2,29.9459442 C2,28.8882029 2.41895533,27.8735216 3.16520319,27.1239012 Z" id="path-1"></path>
        <filter x="-15.2%" y="-7.8%" width="130.4%" height="122.1%" filterUnits="objectBoundingBox" id="filter-2">
            <feOffset dx="0" dy="2" in="SourceAlpha" result="shadowOffsetOuter1"></feOffset>
            <feGaussianBlur stdDeviation="2.5" in="shadowOffsetOuter1" result="shadowBlurOuter1"></feGaussianBlur>
            <feColorMatrix values="0 0 0 0 0.170084227   0 0 0 0 0.299500553   0 0 0 0 0.428916879  0 0 0 0.161175272 0" type="matrix" in="shadowBlurOuter1"></feColorMatrix>
        </filter>
    </defs>
    <g id="Master-page" stroke="none" stroke-width="1" fill="none" fill-rule="evenodd">
        <g id="Colors,-icons" transform="translate(-566.000000, -1124.000000)">
            <g id="Group-6" transform="translate(569.000000, 1125.000000)">
                <g id="Group-5-Copy">
                    <g id="Rectangle-Copy-14">
                        <use fill="black" fill-opacity="1" filter="url(#filter-2)" xlink:href="#path-1"></use>
                        <use fill="#F6FAFD" fill-rule="evenodd" xlink:href="#path-1"></use>
                    </g>
                    <path d="M0,30 L27.1715729,2.82842712 C28.73367,1.26632996 31.26633,1.26632996 32.8284271,2.82842712 L60,30" id="Line-4" stroke="#DDE4EB" stroke-width="4" stroke-linecap="square" fill-rule="nonzero"></path>
                </g>
                <g id="outline-info-24px" transform="translate(30.000000, 45.000000) rotate(-180.000000) translate(-30.000000, -45.000000) translate(18.000000, 33.000000)">
                    <g id="Bounding_Boxes">
                        <polygon id="Shape" points="0 0 24 0 24 24 0 24"></polygon>
                    </g>
                    <g id="Outline" transform="translate(2.000000, 2.000000)" fill="#2B4762" fill-rule="nonzero">
                        <g id="Group">
                            <rect id="Rectangle-path" x="9" y="5" width="2" height="2"></rect>
                            <rect id="Rectangle-path" x="9" y="9" width="2" height="6"></rect>
                            <path d="M10,0 C4.48,0 0,4.48 0,10 C0,15.52 4.48,20 10,20 C15.52,20 20,15.52 20,10 C20,4.48 15.52,0 10,0 Z M10,18 C5.59,18 2,14.41 2,10 C2,5.59 5.59,2 10,2 C14.41,2 18,5.59 18,10 C18,14.41 14.41,18 10,18 Z" id="Shape"></path>
                        </g>
                    </g>
                </g>
            </g>
        </g>
    </g>
</svg>