<?xml version="1.0" encoding="UTF-8"?>
<svg width="64px" height="78px" viewBox="0 0 64 78" version="1.1" xmlns="http://www.w3.org/2000/svg" xmlns:xlink="http://www.w3.org/1999/xlink">
    <title>39DB6A77-052E-4049-8EDE-1C8A0EBF487D</title>
    <defs>
        <path d="M3.15427651,23.8824725 L24.6542765,2.11707753 C26.2067624,0.545427843 28.7393746,0.529892502 30.3110243,2.08237837 C30.3226616,2.0938737 30.3342282,2.1054403 30.3457235,2.11707753 L51.8457235,23.8824725 C52.5852803,24.6311584 53,25.6411307 53,26.6934969 L53,63 C53,65.209139 51.209139,67 49,67 L6,67 C3.790861,67 2,65.209139 2,63 L2,26.6934969 C2,25.6411307 2.41471974,24.6311584 3.15427651,23.8824725 Z" id="path-1"></path>
        <filter x="-16.7%" y="-8.3%" width="133.3%" height="124.0%" filterUnits="objectBoundingBox" id="filter-2">
            <feOffset dx="0" dy="2" in="SourceAlpha" result="shadowOffsetOuter1"></feOffset>
            <feGaussianBlur stdDeviation="2.5" in="shadowOffsetOuter1" result="shadowBlurOuter1"></feGaussianBlur>
            <feColorMatrix values="0 0 0 0 0.170084227   0 0 0 0 0.299500553   0 0 0 0 0.428916879  0 0 0 0.161175272 0" type="matrix" in="shadowBlurOuter1"></feColorMatrix>
        </filter>
    </defs>
    <g id="Supply-Point" stroke="none" stroke-width="1" fill="none" fill-rule="evenodd">
        <g id="Vytvareni-OM" transform="translate(-805.000000, -1826.000000)">
            <g id="Group-5-Copy-2" transform="translate(810.000000, 1829.000000)">
                <g id="Rectangle-Copy-14">
                    <use fill="black" fill-opacity="1" filter="url(#filter-2)" xlink:href="#path-1"></use>
                    <use fill="#F6FAFD" fill-rule="evenodd" xlink:href="#path-1"></use>
                </g>
                <g id="info" transform="translate(14.000000, 26.000000)" fill="#2B4762" fill-rule="nonzero">
                    <g id="Group">
                        <rect id="Rectangle-path" x="12.15" y="6.75" width="2.7" height="2.7"></rect>
                        <rect id="Rectangle-path" x="12.15" y="12.15" width="2.7" height="8.1"></rect>
                        <path d="M13.5,0 C6.048,0 0,6.048 0,13.5 C0,20.952 6.048,27 13.5,27 C20.952,27 27,20.952 27,13.5 C27,6.048 20.952,0 13.5,0 Z M13.5,24.3 C7.5465,24.3 2.7,19.4535 2.7,13.5 C2.7,7.5465 7.5465,2.7 13.5,2.7 C19.4535,2.7 24.3,7.5465 24.3,13.5 C24.3,19.4535 19.4535,24.3 13.5,24.3 Z" id="Shape"></path>
                    </g>
                </g>
                <path d="M21.7976873,0.15068427 C24.636046,-2.58255001 29.0899152,-2.64466897 32.0017062,-0.0356726129 L32.2023127,0.15068427 L58.9488667,25.9066252 L54.0933748,30.9488667 L27.3468208,5.19292576 C27.1773994,5.02977922 26.9216398,5.0093859 26.7306338,5.13174581 L26.6531792,5.19292576 L-0.0933748425,30.9488667 L-4.94886665,25.9066252 L21.7976873,0.15068427 Z" id="Line-4" fill="#DDE4EB" fill-rule="nonzero"></path>
            </g>
        </g>
    </g>
</svg>