<?xml version="1.0" encoding="UTF-8"?>
<svg width="149px" height="157px" viewBox="0 0 149 157" version="1.1" xmlns="http://www.w3.org/2000/svg" xmlns:xlink="http://www.w3.org/1999/xlink">
    <!-- Generator: sketchtool 53.2 (72643) - https://sketchapp.com -->
    <title>1A15D6D5-0B7E-4A55-B27D-4C434D69C7BB</title>
    <desc>Created with sketchtool.</desc>
    <defs>
        <path d="M62.7471964,25 L78.2528036,25 C79.9078906,25 81.3920444,26.0193155 81.986186,27.5640837 L88.909263,45.5640837 C89.7022976,47.6259739 88.673687,49.9403477 86.6117968,50.7333824 C86.1535757,50.9096213 85.6668253,51 85.1758805,51 L55.8241195,51 C53.6149805,51 51.8241195,49.209139 51.8241195,47 C51.8241195,46.5090552 51.9144981,46.0223048 52.090737,45.5640837 L59.013814,27.5640837 C59.6079556,26.0193155 61.0921094,25 62.7471964,25 Z" id="path-1"></path>
        <filter x="-16.3%" y="-25.0%" width="132.6%" height="165.4%" filterUnits="objectBoundingBox" id="filter-2">
            <feOffset dx="0" dy="2" in="SourceAlpha" result="shadowOffsetOuter1"></feOffset>
            <feGaussianBlur stdDeviation="2.5" in="shadowOffsetOuter1" result="shadowBlurOuter1"></feGaussianBlur>
            <feColorMatrix values="0 0 0 0 0.170084227   0 0 0 0 0.299500553   0 0 0 0 0.428916879  0 0 0 0.161175272 0" type="matrix" in="shadowBlurOuter1"></feColorMatrix>
        </filter>
        <path d="M22.6225865,43 L118.377413,43 C119.96992,43 121.41072,43.9446557 122.045694,45.4050956 L140.391858,87.6012739 C140.612069,88.1077577 140.379998,88.6968597 139.873514,88.9170701 C139.747701,88.9717714 139.611978,89 139.474788,89 L1.52521184,89 C0.972927094,89 0.525211844,88.5522847 0.525211844,88 C0.525211844,87.8628098 0.553440472,87.7270869 0.608141788,87.6012739 L18.9543063,45.4050956 C19.5892801,43.9446557 21.0300802,43 22.6225865,43 Z" id="path-3"></path>
        <filter x="-6.1%" y="-14.1%" width="112.1%" height="137.0%" filterUnits="objectBoundingBox" id="filter-4">
            <feOffset dx="0" dy="2" in="SourceAlpha" result="shadowOffsetOuter1"></feOffset>
            <feGaussianBlur stdDeviation="2.5" in="shadowOffsetOuter1" result="shadowBlurOuter1"></feGaussianBlur>
            <feColorMatrix values="0 0 0 0 0.170084227   0 0 0 0 0.299500553   0 0 0 0 0.428916879  0 0 0 0.161175272 0" type="matrix" in="shadowBlurOuter1"></feColorMatrix>
        </filter>
    </defs>
    <g id="Master-page" stroke="none" stroke-width="1" fill="none" fill-rule="evenodd">
        <g id="Colors,-icons" transform="translate(-838.000000, -821.000000)">
            <g id="Group-8-Copy" transform="translate(842.000000, 821.000000)">
                <path d="M59,88 C59,94.627417 64.372583,100 71,100 C77.627417,100 83,94.627417 83,88" id="Oval-Copy-5" fill="#2B4762" fill-rule="nonzero"></path>
                <path d="M17,108 C17,130.09139 40.9527659,148 70.5,148 L70.5,148 C100.047234,148 124,130.09139 124,108" id="Oval-Copy-9" stroke="#DDE4EB" stroke-width="18" stroke-dasharray="3,21" fill-rule="nonzero"></path>
                <g id="Rectangle-Copy-27">
                    <use fill="black" fill-opacity="1" filter="url(#filter-2)" xlink:href="#path-1"></use>
                    <use fill="#DDE4EB" fill-rule="evenodd" xlink:href="#path-1"></use>
                </g>
                <g id="Rectangle">
                    <use fill="black" fill-opacity="1" filter="url(#filter-4)" xlink:href="#path-3"></use>
                    <use fill="#F6FAFD" fill-rule="evenodd" xlink:href="#path-3"></use>
                </g>
                <rect id="Rectangle" fill="#DDE4EB" fill-rule="nonzero" x="69" y="0" width="3" height="25"></rect>
            </g>
        </g>
    </g>
</svg>