<?xml version="1.0" encoding="UTF-8"?>
<svg width="41px" height="69px" viewBox="0 0 41 69" version="1.1" xmlns="http://www.w3.org/2000/svg" xmlns:xlink="http://www.w3.org/1999/xlink">
    <!-- Generator: sketchtool 53.2 (72643) - https://sketchapp.com -->
    <title>B2857E08-93FE-4395-A18E-91D61BE4B91A</title>
    <desc>Created with sketchtool.</desc>
    <g id="Master-page" stroke="none" stroke-width="1" fill="none" fill-rule="evenodd">
        <g id="Colors,-icons" transform="translate(-254.000000, -1739.000000)">
            <g id="Group" transform="translate(254.000000, 1739.000000)">
                <path d="M25.9230769,34.5 L40.4066333,58.0357791 C40.7945907,58.6662098 41,59.3919297 41,60.1321688 L41,65 C41,67.209139 39.209139,69 37,69 L4,69 C1.790861,69 -9.0922416e-13,67.209139 -9.09494702e-13,65 L-9.85878046e-14,60.1321688 C-3.03021604e-14,59.3919297 0.205409324,58.6662098 0.593366733,58.0357791 L15.0769231,34.5 L0.593366733,10.9642209 C0.205409324,10.3337902 -9.09494702e-13,9.60807034 -9.09494702e-13,8.86783124 L-9.16600129e-13,4 C-9.16600129e-13,1.790861 1.790861,-1.44950718e-12 4,-1.45661261e-12 L37,-1.81188398e-12 C39.209139,-1.81188398e-12 41,1.790861 41,4 L41,8.86783124 C41,9.60807034 40.7945907,10.3337902 40.4066333,10.9642209 L25.9230769,34.5 Z" id="Combined-Shape" fill="#FFFFFF"></path>
                <path d="M34.5,61.5245232 L20.5,48.6678881 L6.5,61.5245232 L6.5,62.5877016 L34.5,62.5877016 L34.5,61.5245232 Z" id="Path" stroke="#0097FF" stroke-width="3" fill="#0097FF" fill-rule="nonzero"></path>
                <path d="M24.352667,33.348877 L20.5,26.9185523 L16.647333,33.348877 L24.352667,33.348877 Z" id="Path-Copy" stroke="#0097FF" stroke-width="3" fill="#0097FF" fill-rule="nonzero" transform="translate(20.500000, 29.424438) rotate(-180.000000) translate(-20.500000, -29.424438) "></path>
                <rect id="Rectangle" stroke="#0097FF" fill="#0097FF" fill-rule="nonzero" x="20.5" y="31.5" width="1" height="23"></rect>
            </g>
        </g>
    </g>
</svg>