<svg xmlns="http://www.w3.org/2000/svg" viewBox="0 0 80 80" enable-background="new 0 0 80 80"><style type="text/css">.st0{fill:#D9D9D9;} .st1{fill:#FFFFFF;} .st2{fill:none;stroke:#666666;stroke-width:0.9463;stroke-linecap:round;stroke-linejoin:round;stroke-miterlimit:10;} .st3{fill:#FFFFFF;stroke:#424242;stroke-width:1.2093;stroke-linecap:round;stroke-linejoin:round;stroke-miterlimit:10;} .st4{fill:#FFFFFF;stroke:#666666;stroke-width:0.9463;stroke-linecap:round;stroke-linejoin:round;stroke-miterlimit:10;} .st5{fill:#666666;} .st6{fill:#FFFFFF;stroke:#424242;stroke-width:1.6042;stroke-linecap:round;stroke-linejoin:round;stroke-miterlimit:10;} .st7{fill:none;stroke:#FC797D;stroke-width:3.0247;stroke-linecap:round;stroke-linejoin:round;stroke-miterlimit:10;} .st8{fill:#B2B2B2;}</style><g id="XMLID_1430_"><path id="XMLID_2079_" d="M7.3 48.9h15.2c1.3 0 2.3-1 2.3-2.3v-4.4c0-1.3-1-2.3-2.3-2.3H7.3c-1.3 0-2.3 1-2.3 2.3v4.4c0 1.2 1 2.3 2.3 2.3z" class="st0"/><path id="XMLID_2076_" d="M17.3 54.3h15.2c1.3 0 2.3-1 2.3-2.3v-4.4c0-1.3-1-2.3-2.3-2.3H17.3c-1.3 0-2.3 1-2.3 2.3V52c0 1.3 1 2.3 2.3 2.3z" class="st0"/><path id="XMLID_2072_" d="M11.6 40.6h15.2c1.3 0 2.3-1 2.3-2.3v-3.8c0-1.3-1-2.3-2.3-2.3H11.6c-1.3 0-2.3 1-2.3 2.3v3.8c0 1.3 1 2.3 2.3 2.3z" class="st0"/><path id="XMLID_2069_" d="M68.4 45.4c.1-.1.1-.1.2-.2-1.2-.3-2.2-1.4-2.2-2.7v-.3c0-1.4 1-2.5 2.3-2.7h4c1.5 0 2.7-1.2 2.7-2.7v-2.9c0-1.5-1.2-2.7-2.7-2.7H58.3c-1.5 0-2.7 1.2-2.7 2.7v2.9c0 .5.1.9.3 1.3h-4c-1.5 0-2.7 1.2-2.7 2.7v2.9c0 1.2.8 2.2 1.8 2.5-.4.5-.6 1.1-.6 1.7v2.9c0 1.5 1.2 2.7 2.7 2.7h14.4c1.5 0 2.7-1.2 2.7-2.7v-2.9c0-1.2-.8-2.2-1.8-2.5z" class="st0"/><ellipse id="XMLID_2068_" cx="41.1" cy="50.8" class="st1" rx="20.9" ry="17.3"/><path id="XMLID_2065_" d="M50 31.7h16.4c.9 0 1.7-.8 1.7-1.7v-2c0-.9-.8-1.7-1.7-1.7H50c-.9 0-1.7.8-1.7 1.7v2c0 .9.8 1.7 1.7 1.7z" class="st0"/><ellipse id="XMLID_2064_" cx="41.1" cy="50.8" class="st2" rx="20.9" ry="17.3"/><path id="XMLID_2063_" d="M22.9 45.3" class="st3"/><path id="XMLID_2044_" d="M51.7 45.3" class="st3"/><path id="XMLID_2042_" d="M55.8 34.8c-.2 0-.4.1-.6.2-.7-9.7-6.9-17.2-14.5-17.2-7.5 0-13.8 7.5-14.5 17.2-.1-.1-.3-.1-.4-.1-1.2 0-2.1 1.8-2.1 3.9s.9 3.9 2.1 3.9c.3 0 .7-.2.9-.4 1.8 7.9 7.4 13.7 14 13.7 6.7 0 12.3-5.9 14-13.9.3.4.7.6 1.1.6 1.2 0 2.1-1.8 2.1-3.9s-.9-4-2.1-4z" class="st4"/><g id="XMLID_1939_"><path id="XMLID_2041_" d="M37.7 39.4h-4.9c-.4 0-.7-.3-.7-.7v-.8c0-.4.3-.7.7-.7h4.9c.4 0 .7.3.7.7v.8c0 .4-.3.7-.7.7z" class="st5"/><circle id="XMLID_2007_" cx="35.4" cy="39.5" r="1.2" class="st5"/></g><g id="XMLID_1871_"><path id="XMLID_1874_" d="M48.3 39.4h-4.9c-.4 0-.7-.3-.7-.7v-.8c0-.4.3-.7.7-.7h4.9c.4 0 .7.3.7.7v.8c0 .4-.3.7-.7.7z" class="st5"/><circle id="XMLID_1872_" cx="46" cy="39.5" r="1.2" class="st5"/></g><path id="XMLID_1613_" d="M55.7 25.8c-.3-2.6-1.7-4.7-3-6C50.6 17 45.8 15 40 15c-4.3 0-8.1 1.1-10.6 2.8 0 0-4.8 3-5.3 8s-.5 10.1-.5 10.1l.9.8 3.1.5s1.7.2 1.8-2.4c.1-2.6 0-7.3 0-7.3 2.5 1.7 6.3 2.8 10.6 2.8 4.2 0 7.9-1 10.4-2.7 0 .8-.1 4.8 0 7.1.1 2.6 1.8 2.4 1.8 2.4l3.1-.5.9-.8c0 .1.1-5-.5-10z" class="st4"/><path id="XMLID_1612_" d="M22.8 58.9c-6.1 0-11 4.9-11 11" class="st2"/><path id="XMLID_1611_" d="M34.7 48.5" class="st6"/><path id="XMLID_1607_" d="M60 58.3c6.1 0 11 4.9 11 11" class="st2"/><g id="XMLID_1591_"><circle id="XMLID_1595_" cx="59.9" cy="62.1" r="12.9" class="st1"/><g id="XMLID_1592_"><path id="XMLID_1594_" d="M68.7 53.3l-17 17.1" class="st7"/><circle id="XMLID_1593_" cx="60.2" cy="61.8" r="12.1" class="st7"/></g></g><g id="XMLID_1587_"><path id="XMLID_1590_" d="M24.8 10.5l.1.6c0 .3-.2.6-.5.6l-5.4.7c-.3 0-.6-.2-.6-.5l-.1-.6c0-.3.2-.6.5-.6l5.3-.7c.4 0 .6.3.7.5z" class="st8"/><path id="XMLID_1588_" d="M22.3 14.2l-.6.1c-.3 0-.6-.2-.6-.5l-.6-4.9c0-.3.2-.6.5-.6l.6-.1c.3 0 .6.2.6.5l.6 4.9c0 .3-.2.5-.5.6z" class="st8"/></g><g id="XMLID_1581_"><path id="XMLID_1584_" d="M50.4 5.9v.4c0 .2-.2.3-.4.3l-3.5-.1c-.2 0-.3-.2-.3-.4v-.4c0-.2.2-.3.4-.3l3.5.1c.2 0 .3.2.3.4z" class="st8"/><path id="XMLID_1582_" d="M48.5 8h-.4c-.2 0-.3-.2-.3-.4l.1-3.2c0-.2.2-.3.4-.3h.4c.2 0 .3.2.3.4l-.1 3.2c-.1.1-.2.3-.4.3z" class="st8"/></g><circle id="XMLID_1559_" cx="43.6" cy="9.3" r="1.3" class="st0"/><circle id="XMLID_1471_" cx="29.9" cy="10.1" r=".8" class="st8"/><circle id="XMLID_1437_" cx="62" cy="17.6" r=".8" class="st0"/></g></svg>