<svg xmlns="http://www.w3.org/2000/svg" viewBox="0 0 283.5 283.5" enable-background="new 0 0 283.5 283.5"><style type="text/css">.st0{fill:#FFFFFF;} .st1{fill:#D9D9D9;} .st2{fill:#C2C1C1;} .st3{fill:#F2F2F2;} .st4{fill:none;stroke:#676767;stroke-width:1.5453;stroke-linecap:round;stroke-linejoin:round;stroke-miterlimit:10;} .st5{fill:#B3B2B2;} .st6{fill:none;stroke:#EF797E;stroke-width:10.655;stroke-linecap:round;stroke-linejoin:round;stroke-miterlimit:10;}</style><g id="XMLID_1_"><path id="XMLID_4253_" d="M0 0h283v283H0z" class="st0"/><g id="XMLID_3178_"><g id="XMLID_3587_"><path id="XMLID_4250_" d="M2.4 157H56c1.3 0 2.3-1 2.3-2.3v-21.8c0-1.3-1-2.3-2.3-2.3H2.4c-1.3 0-2.3 1-2.3 2.3v21.8c0 1.2 1 2.3 2.3 2.3z" class="st1"/><g id="XMLID_4235_"><g id="XMLID_55_"><g id="XMLID_56_"><path id="XMLID_57_" d="M52.7 172.2l6.5-25.3v-.2H39.1c-2.7 0-4.9 2.2-4.9 4.9v16.5c0 2.7 2.2 4.9 4.9 4.9h13.8l-.2-.8z" class="st1"/></g></g></g><g id="XMLID_4226_"><g id="XMLID_58_"><g id="XMLID_59_"><path id="XMLID_60_" d="M64.2 125.3l.9-6.6 4.5-5 4.4-.7h1.6c-.2-2.5-2.3-4.6-4.9-4.6H22.4c-2.7 0-4.9 2.2-4.9 4.9V128c0 2.7 2.2 4.9 4.9 4.9h40l1.8-7.6z" class="st1"/></g></g></g><g id="XMLID_4213_"><g id="XMLID_80_"><g id="XMLID_83_"><path id="XMLID_84_" d="M262.2 181.1c.2-.2.3-.4.5-.7-3.6-.8-6.4-4-6.4-7.8v-.7c0-4 3-7.3 6.8-7.9 0 0 0-.1 0-.1h11.7c4.4 0 8-3.6 8-8v-8.5c0-4.4-3.6-8-8-8h-42.2c-4.4 0-8 3.6-8 8v8.5c0 1.3.4 2.6.9 3.7h-11.7c-4.4 0-8 3.6-8 8v8.5c0 3.5 2.2 6.4 5.3 7.5-1.1 1.4-1.8 3.1-1.8 5v8.5c0 4.4 3.6 8 8 8h42.2c4.4 0 8-3.6 8-8v-8.5c0-3.4-2.2-6.4-5.3-7.5z" class="st1"/></g><g id="XMLID_81_"><path id="XMLID_82_" d="M205.6 141h53.6c1.3 0 2.3-1 2.3-2.3v-11.4c0-1.3-1-2.3-2.3-2.3h-53.6c-1.3 0-2.3 1-2.3 2.3v11.4c0 1.3 1 2.3 2.3 2.3z" class="st1"/></g></g></g><path id="XMLID_4212_" d="M214.3 222.1H57.7c-5.1 0-9.3-4.2-9.3-9.3 0 0 18.3-63 21-84.7.6-5.1 4.2-9.3 9.3-9.3h155.4c5.1 0 10 4.2 9.3 9.3-2.9 21.5-14.1 63.7-19.8 84.7-1.4 5.2-4.2 9.3-9.3 9.3z" class="st0"/><path id="XMLID_4209_" d="M208 96.9l-41.5-.7h-22.3s-2.3-.3-3.1-.5c-3.3-1-6.1-4.9-7.1-8.7-1.3-4.9-4.2-9.3-9.3-9.3H81.8c-5.1 0-8.5 4.3-9.3 9.3-.6 3.6-3.7 7.5-7.2 8.5-1 .3-4.7.3-4.7.3l-6.4.2c-5.1 0-9.3 3.9-9.3 9v96.4c0 .1 0 .2 0 .3 0 0 17.2-59.2 19.7-79.5.6-5.1 4.2-9.3 9.3-9.3h143.3V105c.1-5-4.1-8.1-9.2-8.1z" class="st2"/><path id="XMLID_4206_" d="M92.3 119.5l-9.7 43.4s-5.9 31.8 11.6 40.4c17.5 8.6 47.4 18.6 47.4 18.6l-85.4.8L53 221l-3.5-4.8-1.1-3.4 22.1-87.6 4.3-5.1 5.1-.8 12.4.2z" class="st3"/><path id="XMLID_4204_" d="M214.3 222.1H57.7c-5.1 0-9.3-4.2-9.3-9.3 0 0 18.3-63 21-84.7.6-5.1 4.2-9.3 9.3-9.3h155.4c5.1 0 10 4.2 9.3 9.3-2.9 21.5-14.1 63.7-19.8 84.7-1.4 5.2-4.2 9.3-9.3 9.3z" class="st4"/><path id="XMLID_4195_" d="M210.1 237.3l-4.7 3.3c-3.1 2.1-7.4 1.4-9.5-1.7l-19.4-39.4c-2.1-3.1-6.7-3.7-3.6-5.8l4.7-3.3c3.1-2.1 2 2.3 4.2 5.4l30 32.1c2.1 3 1.3 7.3-1.7 9.4z" class="st1"/><path id="XMLID_4188_" d="M208 96.9l-41.5-.7h-22.3s-2.3-.3-3.1-.5c-3.3-1-6.1-4.9-7.1-8.7-1.3-4.9-4.2-9.3-9.3-9.3H81.8c-5.1 0-8.5 4.3-9.3 9.3-.6 3.6-3.7 7.5-7.2 8.5-1 .3-4.7.3-4.7.3l-6.4.2c-5.1 0-9.3 3.9-9.3 9v96.4c0 .1 0 .2 0 .3 0 0 17.2-59.2 19.7-79.5.6-5.1 4.2-9.3 9.3-9.3h143.3V105c.1-5-4.1-8.1-9.2-8.1z" class="st4"/><g id="XMLID_4154_"><path id="XMLID_4183_" d="M132.2 45.7l.8 6.5c0 .3-.2.6-.5.6l-27.4 3.4c-.3 0-.6-.2-.6-.5l-.8-6.5c0-.3.2-.6.5-.6l27.4-3.4c.3 0 .6.2.6.5z" class="st5"/><path id="XMLID_4180_" d="M123.2 63.5l-6.5.8c-.3 0-.6-.2-.6-.5L113 38.5c0-.3.2-.6.5-.6l6.5-.8c.3 0 .6.2.6.5l3.1 25.3c.1.3-.2.6-.5.6z" class="st5"/></g><g id="XMLID_4135_"><g id="XMLID_68_"><path id="XMLID_70_" d="M226.7 53.8l-.2 5.3c0 .2-.2.4-.4.4l-21.8-.7c-.2 0-.4-.2-.4-.4l.2-5.3c0-.2.2-.4.4-.4l21.8.7c.2 0 .4.2.4.4z" class="st1"/><path id="XMLID_69_" d="M217.5 66.7l-5.3-.2c-.2 0-.4-.2-.4-.4l.7-20.2c0-.2.2-.4.4-.4l5.3.2c.2 0 .4.2.4.4l-.7 20.2c0 .2-.2.4-.4.4z" class="st1"/></g></g><circle id="XMLID_4132_" cx="186.3" cy="72.7" r="5.2" class="st3"/><circle id="XMLID_3939_" cx="151.3" cy="54.1" r="2.7" class="st1"/><circle id="XMLID_3938_" cx="174.7" cy="82.4" r="1.8" class="st5"/><circle id="XMLID_3658_" cx="49.7" cy="82.2" r="2.9" class="st3"/><g id="XMLID_3653_"><path id="XMLID_3656_" d="M70.7 59.5l-2.6 2.7c-.2.2-.4.2-.6 0L55.9 50.8c-.2-.2-.2-.4 0-.6l2.6-2.7c.2-.2.4-.2.6 0L70.7 59c.2.1.2.4 0 .5z" class="st1"/><path id="XMLID_3654_" d="M59.1 61.9l-2.7-2.6c-.2-.2-.2-.4 0-.6L67 47.9c.2-.2.4-.2.6 0l2.7 2.6c.2.2.2.4 0 .6L59.7 61.9c-.2.1-.4.1-.6 0z" class="st1"/></g><path id="XMLID_3594_" d="M213.9 232.9l-2.6 2.3c-.4.3-1 .3-1.3-.1l-33.9-37.6c-.3-.4-.3-1 .1-1.3l2.6-2.3c.4-.3 1-.3 1.3.1l33.9 37.6c.3.3.3.9-.1 1.3z" class="st3"/><path id="XMLID_3593_" d="M210.1 237.3l-4.7 3.3c-3.1 2.1-7.4 1.4-9.5-1.7l-19.4-39.4c-2.1-3.1-6.7-3.7-3.6-5.8l4.7-3.3c3.1-2.1 2 2.3 4.2 5.4l30 32.1c2.1 3 1.3 7.3-1.7 9.4z" class="st4"/><circle id="XMLID_3592_" cx="158.1" cy="165.4" r="37" class="st0"/><path id="XMLID_3589_" d="M164.5 191.6c-20.4 0-32.7-12.2-32.7-32.7 0-8.6 2.9-20.7 7.8-27-8.7 6.8-18.6 21.6-18.6 33.5 0 20.4 16.6 37 37 37 11.9 0 26.7-9.6 32.7-18.8-6.2 4.8-17.6 8-26.2 8z" class="st3"/><circle id="XMLID_3588_" cx="158.1" cy="165.4" r="37" class="st4"/></g><path id="XMLID_3363_" d="M124.6 88.3H82.4c-.4 0-.7-.3-.7-.7V85c0-.4.3-.7.7-.7h42.2c.4 0 .7.3.7.7v2.6c0 .3-.3.7-.7.7z" class="st3"/></g><g id="XMLID_3583_"><circle id="XMLID_4136_" cx="64.8" cy="209.5" r="43.5" class="st0"/><g id="XMLID_3584_"><path id="XMLID_3586_" d="M94.5 179.8l-57.7 57.7" class="st6"/><circle id="XMLID_3585_" cx="65.7" cy="208.6" r="40.8" class="st6"/></g></g></g></svg>