<?xml version="1.0" encoding="UTF-8"?>
<svg width="72px" height="77px" viewBox="0 0 72 77" version="1.1" xmlns="http://www.w3.org/2000/svg" xmlns:xlink="http://www.w3.org/1999/xlink">
    <title>ilustrace/papiry</title>
    <g id="V4" stroke="none" stroke-width="1" fill="none" fill-rule="evenodd">
        <g id="HP_v4_3" transform="translate(-166.000000, -775.000000)" fill="#F3F4F5" stroke="#002549" stroke-width="0.64">
            <g id="Group-4" transform="translate(167.000000, 772.000000)">
                <g id="ilustrace/papiry" transform="translate(0.000000, 4.000000)">
                    <polygon id="Fill-764" transform="translate(34.880000, 54.720000) scale(-1, 1) translate(-34.880000, -54.720000) " points="44.4616211 34.56 -7.10542736e-15 60.2584484 25.2983789 74.88 69.76 49.1815516"></polygon>
                    <polygon id="Fill-764" transform="translate(34.880000, 48.960000) scale(-1, 1) translate(-34.880000, -48.960000) " points="44.4616211 28.8 -7.10542736e-15 54.4984484 25.2983789 69.12 69.76 43.4215516"></polygon>
                    <polygon id="Fill-764" transform="translate(34.880000, 42.880000) scale(-1, 1) translate(-34.880000, -42.880000) " points="44.4616211 22.4 -7.10542736e-15 48.5063603 25.2983789 63.36 69.76 37.2536397"></polygon>
                    <polygon id="Fill-764" transform="translate(34.880000, 37.440000) scale(-1, 1) translate(-34.880000, -37.440000) " points="44.4616211 17.28 -7.10542736e-15 42.9784484 25.2983789 57.6 69.76 31.9015516"></polygon>
                    <polygon id="Fill-764" transform="translate(34.880000, 32.000000) scale(-1, 1) translate(-34.880000, -32.000000) " points="44.4616211 11.52 -7.10542736e-15 37.6263603 25.2983789 52.48 69.76 26.3736397"></polygon>
                    <polygon id="Fill-764" transform="translate(34.880000, 25.920000) scale(-1, 1) translate(-34.880000, -25.920000) " points="44.4616211 5.76 -7.10542736e-15 31.4584484 25.2983789 46.08 69.76 20.3815516"></polygon>
                    <polygon id="Fill-764" transform="translate(34.880000, 20.160000) scale(-1, 1) translate(-34.880000, -20.160000) " points="44.4616211 -1.49213975e-13 -7.10542736e-15 25.6984484 25.2983789 40.32 69.76 14.6215516"></polygon>
                </g>
            </g>
        </g>
    </g>
</svg>