<?xml version="1.0" encoding="UTF-8"?>
<svg width="139px" height="127px" viewBox="0 0 139 127" version="1.1" xmlns="http://www.w3.org/2000/svg" xmlns:xlink="http://www.w3.org/1999/xlink">
    <!-- Generator: sketchtool 53.2 (72643) - https://sketchapp.com -->
    <title>E4C3A17D-1BDB-4396-8250-D0B8C5770D33</title>
    <desc>Created with sketchtool.</desc>
    <defs>
        <path d="M4,1.8778018e-13 L55.0284731,2.59525734e-12 C56.0879188,2.64399352e-12 57.1040919,0.420302859 57.8540004,1.16867605 L82.8255273,26.0890783 C83.5774465,26.8394581 84,27.8581159 84,28.9204023 L84,103 C84,105.209139 82.209139,107 80,107 L4,107 C1.790861,107 2.705415e-16,105.209139 0,103 L-1.88293825e-13,4 C-1.88564366e-13,1.790861 1.790861,4.05812251e-16 4,0 Z" id="path-1"></path>
        <filter x="-17.9%" y="-14.0%" width="135.7%" height="128.0%" filterUnits="objectBoundingBox" id="filter-2">
            <feOffset dx="0" dy="0" in="SourceAlpha" result="shadowOffsetOuter1"></feOffset>
            <feGaussianBlur stdDeviation="5" in="shadowOffsetOuter1" result="shadowBlurOuter1"></feGaussianBlur>
            <feColorMatrix values="0 0 0 0 0.170084227   0 0 0 0 0.299500553   0 0 0 0 0.428916879  0 0 0 0.161175272 0" type="matrix" in="shadowBlurOuter1"></feColorMatrix>
        </filter>
        <path d="M74.4649445,90.6776877 L66.5447423,92.9037815 C65.6269166,93.3062916 64.6937084,92.3730834 65.0962185,91.4552577 L67.3223123,83.5376193 L111.365126,39.4922417 C112.024012,38.8359194 113.087972,38.8359194 113.746858,39.4922417 L118.507758,44.2531419 C119.164081,44.912028 119.164081,45.9785517 118.507758,46.6348739 L74.4649445,90.6776877 Z" id="path-3"></path>
        <filter x="-27.8%" y="-27.8%" width="155.6%" height="155.6%" filterUnits="objectBoundingBox" id="filter-4">
            <feOffset dx="0" dy="0" in="SourceAlpha" result="shadowOffsetOuter1"></feOffset>
            <feGaussianBlur stdDeviation="5" in="shadowOffsetOuter1" result="shadowBlurOuter1"></feGaussianBlur>
            <feColorMatrix values="0 0 0 0 0.170084227   0 0 0 0 0.299500553   0 0 0 0 0.428916879  0 0 0 0.161175272 0" type="matrix" in="shadowBlurOuter1"></feColorMatrix>
        </filter>
    </defs>
    <g id="Master-page" stroke="none" stroke-width="1" fill="none" fill-rule="evenodd">
        <g id="Colors,-icons" transform="translate(-843.000000, -1101.000000)">
            <g id="Group-4" transform="translate(853.000000, 1111.000000)">
                <g id="Group-9">
                    <g id="Rectangle">
                        <use fill="black" fill-opacity="1" filter="url(#filter-2)" xlink:href="#path-1"></use>
                        <use fill="#F6FAFD" fill-rule="evenodd" xlink:href="#path-1"></use>
                    </g>
                    <g id="Group-5" transform="translate(14.000000, 14.000000)" fill="#2B4762" fill-rule="nonzero">
                        <rect id="Rectangle-Copy-64" x="0" y="0" width="20" height="2"></rect>
                        <rect id="Rectangle-Copy-65" x="0" y="4" width="11" height="2"></rect>
                    </g>
                    <g id="Group" transform="translate(14.000000, 52.000000)">
                        <rect id="Rectangle" fill="#DDE4EB" fill-rule="nonzero" x="0" y="0" width="10" height="10" rx="2"></rect>
                        <polyline id="Path-2-Copy-2" stroke="#2B4762" stroke-width="2" stroke-linejoin="round" points="2 5 4.22511132 7 8 3"></polyline>
                        <rect id="Rectangle-Copy-23" fill="#DDE4EB" fill-rule="nonzero" x="12" y="2" width="44" height="2"></rect>
                        <rect id="Rectangle-Copy-24" fill="#DDE4EB" fill-rule="nonzero" x="12" y="6" width="17" height="2"></rect>
                    </g>
                    <g id="Group-Copy-2" transform="translate(14.000000, 68.000000)">
                        <rect id="Rectangle" fill="#DDE4EB" fill-rule="nonzero" x="0" y="0" width="10" height="10" rx="2"></rect>
                        <polyline id="Path-2-Copy-2" stroke="#2B4762" stroke-width="2" stroke-linejoin="round" points="2 5 4.22511132 7 8 3"></polyline>
                        <rect id="Rectangle-Copy-23" fill="#DDE4EB" fill-rule="nonzero" x="12" y="2" width="37" height="2"></rect>
                        <rect id="Rectangle-Copy-24" fill="#DDE4EB" fill-rule="nonzero" x="12" y="6" width="30" height="2"></rect>
                    </g>
                    <g id="Group-Copy-3" transform="translate(14.000000, 84.000000)" fill="#DDE4EB" fill-rule="nonzero">
                        <rect id="Rectangle" x="0" y="0" width="10" height="10" rx="2"></rect>
                        <rect id="Rectangle-Copy-23" x="12" y="2" width="31" height="2"></rect>
                        <rect id="Rectangle-Copy-24" x="12" y="6" width="25" height="2"></rect>
                    </g>
                    <path d="M57,0 L84,27 L84,4 C84,1.790861 82.209139,-4.05812251e-16 80,0 L57,0 Z" id="Rectangle" fill="#DDE4EB" fill-rule="nonzero" transform="translate(70.500000, 13.500000) rotate(-180.000000) translate(-70.500000, -13.500000) "></path>
                </g>
                <g id="Fill-1">
                    <use fill="black" fill-opacity="1" filter="url(#filter-4)" xlink:href="#path-3"></use>
                    <use fill="#DDE4EB" fill-rule="evenodd" xlink:href="#path-3"></use>
                </g>
                <polygon id="Fill-1" fill="#F6FAFD" points="74.4649445 90.6776877 67.3223123 83.5376193 106.365126 44.4922417 113.507758 51.6348739"></polygon>
                <path d="M68.996189,92.214765 C68.451423,92.3678797 67.6342742,92.5975519 66.5447423,92.9037815 C65.6269166,93.3062916 64.6937084,92.3730834 65.0962185,91.4552577 C65.4114234,90.3341559 65.647827,89.4933295 65.8054294,88.9327786 L68.996189,92.214765 Z" id="Fill-1" fill="#2B4762"></path>
            </g>
        </g>
    </g>
</svg>