<?xml version="1.0" encoding="utf-8"?>
<!-- Generator: Adobe Illustrator 19.0.0, SVG Export Plug-In . SVG Version: 6.00 Build 0)  -->
<svg version="1.1" id="Vrstva_1" xmlns="http://www.w3.org/2000/svg" xmlns:xlink="http://www.w3.org/1999/xlink" x="0px" y="0px"
	 viewBox="0 0 134 84" style="enable-background:new 0 0 134 84;" xml:space="preserve">
<style type="text/css">
	.st0{fill:#BCE4FA;}
	.st1{fill:#FFFFFF;}
	.st2{fill:#DFF2FD;}
	.st3{fill:none;stroke:#5F8391;stroke-width:1.9341;stroke-linecap:round;stroke-linejoin:round;stroke-miterlimit:10;}
	.st4{fill:#EF797E;}
	.st5{fill:#85D1F5;}
	.st6{fill:none;stroke:#5F8391;stroke-width:1.1193;stroke-linecap:round;stroke-linejoin:round;stroke-miterlimit:10;}
	.st7{fill:none;stroke:#5F8391;stroke-width:0.9214;stroke-linecap:round;stroke-linejoin:round;stroke-miterlimit:10;}
</style>
<g id="XMLID_399_">
	<path id="XMLID_2550_" class="st0" d="M121.2,42.9h-11.1v0h-1.6c-2.5,0-4.6-2.1-4.6-4.6s2.1-4.6,4.6-4.6h0.9h2.1
		c2.5,0,4.6-2.1,4.6-4.6v-8c0-2.5-2.1-4.6-4.6-4.6H82.9c-2.5,0-4.6,2.1-4.6,4.6v8c0,0.9,0.3,1.7,0.7,2.4h-2.1
		c-2.5,0-4.6,2.1-4.6,4.6v8c0,2.5,2.1,4.6,4.6,4.6H88v3.5H76.9c-2.5,0-4.6,2.1-4.6,4.6v8c0,2.5,2.1,4.6,4.6,4.6h28.7
		c2.5,0,4.6-2.1,4.6-4.6v-4.7h11.1c2.5,0,4.6-2.1,4.6-4.6v-8C125.8,45,123.7,42.9,121.2,42.9z"/>
	<path id="XMLID_2538_" class="st0" d="M3.1,58h89c1.3,0,2.3-1,2.3-2.3V43.1c0-1.3-1-2.3-2.3-2.3h-89c-1.3,0-2.3,1-2.3,2.3v12.6
		C0.8,57,1.9,58,3.1,58z"/>
	<path id="XMLID_2533_" class="st0" d="M33.2,80.9h59.1c1.3,0,2.3-1,2.3-2.3v-8.8c0-1.3-1-2.3-2.3-2.3H33.2c-1.3,0-2.3,1-2.3,2.3
		v8.8C30.9,79.8,31.9,80.9,33.2,80.9z"/>
	<path id="XMLID_2528_" class="st0" d="M16.3,42.7h83.4c1.3,0,2.3-1,2.3-2.3v-8.8c0-1.3-1-2.3-2.3-2.3H16.3c-1.3,0-2.3,1-2.3,2.3
		v8.8C14,41.7,15,42.7,16.3,42.7z"/>
	<path id="XMLID_2523_" class="st0" d="M16.4,68.7h77.2c1.3,0,2.3-1,2.3-2.3V53.8c0-1.3-1-2.3-2.3-2.3H16.4c-1.3,0-2.3,1-2.3,2.3
		v12.6C14.1,67.6,15.1,68.7,16.4,68.7z"/>
	<path id="XMLID_2496_" class="st1" d="M31,38.3l-4.8,4.8c-2,2-2,5.1-0.2,7.2l27.3,30.3c2.2,2.5,6.1,2.3,8.1-0.3l21-27.2l29.2-27.4
		l16-11.4c2.1-1.5,2.9-4.1,2.1-6.6l-0.3-1c-1.1-3.3-5-4.7-8-2.9L91.4,22.2L67.9,40.9l-10.4,9.6L38.2,37.6
		C35.9,36.1,32.9,36.4,31,38.3z"/>
	<path id="XMLID_2476_" class="st2" d="M27.4,41.8l25.8,21c0,0,3.1,5.3,10-0.8C70.1,56,97,30,106.7,22.5s22.1-14.9,22.1-14.9v0
		c1.2,2.4,0.5,5.3-1.7,6.8l-9.6,6.6l-9.4,7.5l-8.7,7L93,41l-5.5,7.2L73.9,62.1L65,74.2l-4.2,6.2c-1.7,2.5-5.2,2.7-7.2,0.5l-27.9-31
		c-1.7-1.8-1.6-4.6,0.2-6.4L27.4,41.8z"/>
	<g id="XMLID_2433_" transform="translate(0.5, 0.5)">
		<path id="XMLID_2447_" class="st3" d="M25.7,42.6l5.4-5.4c1.6-1.6,4-1.8,5.8-0.6L57,49.9c0,0,26.6-27,63.5-47.1
			c3.2-1.7,7.1-0.1,8.2,3.3l0,0.1c1,2.9-0.1,6.1-2.7,7.8C115,21.4,84.7,43.6,60,80.2c-1.6,2.3-4.9,2.5-6.7,0.5L25.5,49.8
			C23.6,47.7,23.7,44.5,25.7,42.6z"/>
	</g>
	<g id="XMLID_2420_">
		<path id="XMLID_2422_" class="st4" d="M79.6,4.5l0.2,2c0,0.3-0.2,0.6-0.5,0.6L68.7,8.5c-0.3,0-0.6-0.2-0.6-0.5l-0.2-2
			c0-0.3,0.2-0.6,0.5-0.6L79,4C79.3,4,79.6,4.2,79.6,4.5z"/>
		<path id="XMLID_2421_" class="st4" d="M75.5,11.6l-2,0.2c-0.3,0-0.6-0.2-0.6-0.5l-1.2-9.8c0-0.3,0.2-0.6,0.5-0.6l2-0.2
			c0.3,0,0.6,0.2,0.6,0.5l1.2,9.8C76.1,11.2,75.8,11.5,75.5,11.6z"/>
	</g>
	<circle id="XMLID_2419_" class="st5" cx="89" cy="4.1" r="1.5"/>
	<circle id="XMLID_2416_" class="st0" cx="60.4" cy="21" r="1.5"/>
	<g id="XMLID_2185_">
		<path id="XMLID_2415_" class="st5" d="M44.8,7.1l0,1.3c0,0.2-0.2,0.4-0.4,0.4l-6.9-0.2c-0.2,0-0.4-0.2-0.4-0.4l0-1.3
			c0-0.2,0.2-0.4,0.4-0.4l6.9,0.2C44.6,6.7,44.8,6.9,44.8,7.1z"/>
		<path id="XMLID_2414_" class="st5" d="M41.4,11.2l-1.3,0c-0.2,0-0.4-0.2-0.4-0.4L40,4.4C40,4.2,40.2,4,40.4,4l1.3,0
			c0.2,0,0.4,0.2,0.4,0.4l-0.2,6.4C41.8,11.1,41.6,11.2,41.4,11.2z"/>
	</g>
	<circle id="XMLID_2184_" class="st4" cx="21.6" cy="21.6" r="2"/>
	<g id="XMLID_2181_">
		<path id="XMLID_2183_" class="st5" d="M133.8,33.8l0,1.3c0,0.2-0.2,0.4-0.4,0.4l-6.9-0.2c-0.2,0-0.4-0.2-0.4-0.4l0-1.3
			c0-0.2,0.2-0.4,0.4-0.4l6.9,0.2C133.7,33.4,133.8,33.6,133.8,33.8z"/>
		<path id="XMLID_2182_" class="st5" d="M130.5,37.9l-1.3,0c-0.2,0-0.4-0.2-0.4-0.4l0.2-6.4c0-0.2,0.2-0.4,0.4-0.4l1.3,0
			c0.2,0,0.4,0.2,0.4,0.4l-0.2,6.4C130.9,37.8,130.7,37.9,130.5,37.9z"/>
	</g>
	<circle id="XMLID_2180_" class="st4" cx="21.6" cy="75.6" r="1.5"/>
	<line id="XMLID_2179_" class="st6" x1="28.9" y1="52.8" x2="31.4" y2="48.3"/>
	<line id="XMLID_2173_" class="st6" x1="30.7" y1="55.9" x2="33.8" y2="50"/>
	<line id="XMLID_2172_" class="st6" x1="33.4" y1="58.3" x2="36.5" y2="52.2"/>
	<line id="XMLID_2170_" class="st6" x1="36.5" y1="61.4" x2="39.8" y2="54.8"/>
	<line id="XMLID_2169_" class="st6" x1="41.4" y1="66.6" x2="44.5" y2="60.6"/>
	<line id="XMLID_2163_" class="st6" x1="44" y1="69" x2="47.2" y2="62.9"/>
	<line id="XMLID_941_" class="st6" x1="47.1" y1="72.1" x2="50.4" y2="65.5"/>
	<line id="XMLID_937_" class="st6" x1="50" y1="75.6" x2="53.3" y2="69"/>
	<line id="XMLID_936_" class="st6" x1="53.3" y1="79.8" x2="56.6" y2="73.1"/>
	<line id="XMLID_935_" class="st6" x1="56.3" y1="82.8" x2="59.6" y2="76.2"/>
	<line id="XMLID_934_" class="st6" x1="39.2" y1="64.3" x2="42.4" y2="57.7"/>
	<line id="XMLID_933_" class="st7" x1="26.3" y1="50.6" x2="28.3" y2="46.8"/>
	<line id="XMLID_401_" class="st7" x1="24.5" y1="48.6" x2="26.5" y2="44.8"/>
</g>
</svg>
