<?xml version="1.0" encoding="UTF-8"?>
<svg width="77px" height="93px" viewBox="0 0 77 93" version="1.1" xmlns="http://www.w3.org/2000/svg" xmlns:xlink="http://www.w3.org/1999/xlink">
    <!-- Generator: Sketch 58 (84663) - https://sketch.com -->
    <title>Group 3</title>
    <desc>Created with Sketch.</desc>
    <defs>
        <path d="M4,0 L36.8026381,0 C37.8658237,-6.08070388e-15 38.8852676,0.423267122 39.6357942,1.17630981 L55.8331561,17.4279706 C56.5804081,18.1777276 57,19.1931141 57,20.2516608 L57,69 C57,71.209139 55.209139,73 53,73 L4,73 C1.790861,73 2.705415e-16,71.209139 0,69 L0,4 C-2.705415e-16,1.790861 1.790861,4.05812251e-16 4,0 Z" id="path-1"></path>
        <filter x="-26.3%" y="-20.5%" width="152.6%" height="141.1%" filterUnits="objectBoundingBox" id="filter-2">
            <feOffset dx="0" dy="0" in="SourceAlpha" result="shadowOffsetOuter1"></feOffset>
            <feGaussianBlur stdDeviation="5" in="shadowOffsetOuter1" result="shadowBlurOuter1"></feGaussianBlur>
            <feColorMatrix values="0 0 0 0 0.170084227   0 0 0 0 0.299500553   0 0 0 0 0.428916879  0 0 0 0.161175272 0" type="matrix" in="shadowBlurOuter1"></feColorMatrix>
        </filter>
    </defs>
    <g id="Supplier" stroke="none" stroke-width="1" fill="none" fill-rule="evenodd">
        <g id="uzavrene-smlouvy-empty" transform="translate(-922.000000, -223.000000)">
            <g id="Group-3" transform="translate(932.000000, 233.000000)">
                <g id="Group-4">
                    <g id="Group-9">
                        <g id="Rectangle">
                            <use fill="black" fill-opacity="1" filter="url(#filter-2)" xlink:href="#path-1"></use>
                            <use fill="#F6FAFD" fill-rule="evenodd" xlink:href="#path-1"></use>
                        </g>
                        <path d="M38.6785714,0 L57,18.4205607 L57,4 C57,1.790861 55.209139,-4.05812251e-16 53,0 L38.6785714,0 L38.6785714,0 Z" id="Rectangle" fill="#DDE4EB" fill-rule="nonzero" transform="translate(47.839286, 9.210280) rotate(-180.000000) translate(-47.839286, -9.210280) "></path>
                    </g>
                </g>
                <g id="outline-info-24px-copy" transform="translate(28.000000, 37.000000) rotate(-180.000000) translate(-28.000000, -37.000000) translate(16.000000, 25.000000)">
                    <g id="Bounding_Boxes">
                        <polygon id="Shape" points="0 0 24 0 24 24 0 24"></polygon>
                    </g>
                    <g id="Outline" transform="translate(2.000000, 2.000000)" fill="#2B4762" fill-rule="nonzero">
                        <g id="Group">
                            <rect id="Rectangle-path" x="9" y="5" width="2" height="2"></rect>
                            <rect id="Rectangle-path" x="9" y="9" width="2" height="6"></rect>
                            <path d="M10,0 C4.48,0 0,4.48 0,10 C0,15.52 4.48,20 10,20 C15.52,20 20,15.52 20,10 C20,4.48 15.52,0 10,0 Z M10,18 C5.59,18 2,14.41 2,10 C2,5.59 5.59,2 10,2 C14.41,2 18,5.59 18,10 C18,14.41 14.41,18 10,18 Z" id="Shape"></path>
                        </g>
                    </g>
                </g>
            </g>
        </g>
    </g>
</svg>