<?xml version="1.0" encoding="UTF-8"?>
<svg width="109px" height="72px" viewBox="0 0 109 72" version="1.1" xmlns="http://www.w3.org/2000/svg" xmlns:xlink="http://www.w3.org/1999/xlink">
    <!-- Generator: sketchtool 53.2 (72643) - https://sketchapp.com -->
    <title>ABBCE916-43A3-42DA-9415-4E25E7B87152</title>
    <desc>Created with sketchtool.</desc>
    <defs>
        <path d="M87.88125,27.18 C84.7929167,11.655 71.0316667,0 54.5,0 C41.3745833,0 29.975,7.38 24.2979167,18.18 C10.6275,19.62 0,31.095 0,45 C0,59.895 12.2170833,72 27.25,72 L86.2916667,72 C98.8266667,72 109,61.92 109,49.5 C109,37.62 99.6895833,27.99 87.88125,27.18 L87.88125,27.18 Z" id="path-1"></path>
        <mask id="mask-2" maskContentUnits="userSpaceOnUse" maskUnits="objectBoundingBox" x="0" y="0" width="109" height="72" fill="white">
            <use xlink:href="#path-1"></use>
        </mask>
    </defs>
    <g id="Master-page" stroke="none" stroke-width="1" fill="none" fill-rule="evenodd">
        <g id="Colors,-icons" transform="translate(-853.000000, -1416.000000)">
            <g id="Group-3" transform="translate(853.000000, 1416.000000)">
                <use id="Path" stroke="#CBD4DE" mask="url(#mask-2)" stroke-width="8" stroke-dasharray="15" fill-rule="nonzero" xlink:href="#path-1"></use>
                <path d="M60.3,39.4444444 L60.3,49 C60.3,50.1045695 59.4045695,51 58.3,51 L50.7,51 C49.5954305,51 48.7,50.1045695 48.7,49 L48.7,39.4444444 L44.8415639,39.4444444 C43.7369944,39.4444444 42.8415639,38.5490139 42.8415639,37.4444444 C42.8415639,36.9126811 43.0533329,36.4028101 43.4300674,36.0275191 L53.0885035,26.4060885 C53.8689264,25.6286557 55.1310736,25.6286557 55.9114965,26.4060885 L65.5699326,36.0275191 C66.3524789,36.8070671 66.3549095,38.0733947 65.5753614,38.855941 C65.2000704,39.2326755 64.6901994,39.4444444 64.1584361,39.4444444 L60.3,39.4444444 Z" id="Path" fill="#0097FF"></path>
            </g>
        </g>
    </g>
</svg>