<svg xmlns="http://www.w3.org/2000/svg" xmlns:xlink="http://www.w3.org/1999/xlink" viewBox="0 0 176.879 177.069" enable-background="new 0 0 176.879 177.069"><style type="text/css">.st0{fill:#E9F6FE;} .st1{fill:none;stroke:#618494;stroke-width:1.515;stroke-linecap:round;stroke-linejoin:round;stroke-miterlimit:10;} .st2{fill:none;} .st3{fill:#FFFFFF;} .st4{fill:#618494;} .st5{clip-path:url(#XMLID_86_);fill:#FFFFFF;} .st6{clip-path:url(#XMLID_86_);fill:#E9F6FE;} .st7{clip-path:url(#XMLID_86_);fill:none;stroke:#618494;stroke-width:1.5574;stroke-linecap:round;stroke-linejoin:round;stroke-miterlimit:10;} .st8{clip-path:url(#XMLID_86_);fill:#618494;} .st9{clip-path:url(#XMLID_86_);fill:none;stroke:#618494;stroke-width:1.515;stroke-linecap:round;stroke-linejoin:round;stroke-miterlimit:10;} .st10{clip-path:url(#XMLID_86_);fill:none;stroke:#618494;stroke-width:1.1363;stroke-linecap:round;stroke-linejoin:round;stroke-miterlimit:10;} .st11{clip-path:url(#XMLID_86_);fill:none;stroke:#618494;stroke-width:1.7616;stroke-linecap:round;stroke-linejoin:round;stroke-miterlimit:10;} .st12{clip-path:url(#XMLID_86_);fill:none;stroke:#618494;stroke-width:1.3212;stroke-linecap:round;stroke-linejoin:round;stroke-miterlimit:10;} .st13{clip-path:url(#XMLID_86_);fill:none;stroke:#618494;stroke-width:0.7575;stroke-linecap:round;stroke-linejoin:round;stroke-miterlimit:10;} .st14{clip-path:url(#XMLID_86_);fill:#EE757D;} .st15{clip-path:url(#XMLID_86_);fill:none;stroke:#618494;stroke-width:0.6313;stroke-linecap:round;stroke-linejoin:round;stroke-miterlimit:10;}</style><g id="XMLID_1870_"><circle id="XMLID_1939_" cx="88.439" cy="87.871" r="87.871" class="st0"/><path id="XMLID_1938_" d="M4.67 114.47c11.27 35.53 44.5 61.27 83.77 61.27 40.55 0 74.67-27.46 84.8-64.8-23.1-8.85-50.56-13.98-80-13.98-33.17 0-63.8 6.5-88.57 17.5z" class="st1"/><g id="XMLID_1935_"><path id="XMLID_1937_" d="M92.86 96.96c29.44 0 56.9 5.13 80 13.98 2-7.36 3.07-15.1 3.07-23.07C175.93 39.34 136.6 0 88.06 0S.2 39.34.2 87.87c0 9.27 1.43 18.2 4.1 26.6 24.76-11 55.4-17.5 88.56-17.5z" class="st2"/><path id="XMLID_1936_" d="M4.3 114.47c11.26 35.53 44.5 61.27 83.76 61.27 40.55 0 74.67-27.46 84.8-64.8-23.1-8.85-50.56-13.98-80-13.98-33.17 0-63.8 6.5-88.57 17.5z" class="st3"/></g><path id="XMLID_1934_" d="M147.15 104.28c4.66 4.28 10.02 12.45 5.98 24.6-4.04 12.14-7.67 23.5-33.9 33.86s-75.7-10.47-75.7-10.47-18.6-4.6-25.6-11.97c-7-7.36-3.8-3.86-3.8-3.86l10.93 11.15 3.3 3.64 4.45 4.96 12.65 7.04 17.9 8.07L74.23 175l7.58.6 8.25.72h6.34l8.94-2.1 9.55-2.65 16.34-6.86 10.6-6.98 5.23-4.38 6.68-6.67 6.5-8.9 6.1-9.63 3.17-7.12 2.65-7.68.54-3-9.2-3s-5.94-1.77-8.2-2.4c-1.6-.42-11.12-2.64-11.12-2.64s2.36 1.43 2.97 1.98z" class="st0"/><g id="XMLID_1911_"><path id="XMLID_1926_" d="M152.58 68.74c0 1.43-1.2 2.64-2.64 2.6-1.36 0-2.54-1.15-2.6-2.5-.04-1.43 1.14-2.66 2.58-2.7 1.45-.02 2.66 1.15 2.66 2.6zm-2.7-1.2c-.66.18-1.15.57-1.1 1.3.06.72.54 1.15 1.27 1.1.7-.07 1.17-.52 1.1-1.27-.07-.7-.55-1.08-1.26-1.14z" class="st4"/><path id="XMLID_1925_" d="M149.9 67.53c.7.06 1.18.43 1.25 1.14.07.75-.39 1.2-1.1 1.26-.73.06-1.2-.37-1.27-1.1-.05-.72.44-1.1 1.1-1.3z" class="st3"/></g><g id="XMLID_1899_"><path id="XMLID_1901_" d="M15.85 92.6c0 1.43-1.2 2.64-2.65 2.62-1.36-.03-2.53-1.16-2.58-2.5-.05-1.44 1.13-2.68 2.57-2.7 1.44-.04 2.65 1.13 2.65 2.58zm-2.7-1.2c-.66.18-1.15.57-1.1 1.3.06.72.54 1.15 1.27 1.1.7-.07 1.17-.52 1.1-1.27-.07-.7-.55-1.08-1.26-1.14z" class="st4"/><path id="XMLID_1900_" d="M13.16 91.4c.7.05 1.2.42 1.26 1.13.07.75-.4 1.2-1.1 1.26-.73.05-1.2-.38-1.27-1.1-.05-.73.44-1.12 1.1-1.3z" class="st3"/></g><g id="XMLID_1719_"><path id="XMLID_1723_" d="M65.1 19.88c0 1.43-1.22 2.64-2.66 2.62-1.36-.03-2.53-1.16-2.58-2.5-.05-1.44 1.12-2.68 2.56-2.7 1.46-.04 2.67 1.13 2.67 2.58zm-2.7-1.2c-.68.18-1.16.57-1.1 1.3.05.72.53 1.15 1.26 1.1.7-.07 1.17-.52 1.1-1.27-.07-.7-.55-1.07-1.26-1.13z" class="st4"/><path id="XMLID_1722_" d="M62.4 18.67c.7.06 1.2.43 1.26 1.14.07.76-.4 1.2-1.1 1.27-.73.06-1.2-.37-1.27-1.1-.06-.72.42-1.1 1.1-1.3z" class="st3"/></g><g id="XMLID_265_"><defs><circle id="XMLID_267_" cx="88.818" cy="88.25" r="87.871"/></defs><clipPath id="XMLID_86_"><use xlink:href="#XMLID_267_" overflow="visible"/></clipPath><path id="XMLID_1718_" d="M129 101.35l-84.7.36c-5.7.03-10.07-5-9.26-10.62l6.88-47.74c.66-4.58 4.58-7.98 9.2-7.98h70.65c4.6 0 8.5 3.36 9.2 7.9l7.2 47.38c.86 5.62-3.48 10.68-9.16 10.7z" class="st5"/><path id="XMLID_1714_" d="M126.48 95.04l-78.82.3c-3.4.02-6-2.96-5.54-6.32l5.95-43.8c.38-2.77 2.73-4.83 5.52-4.83h66.25c2.75 0 5.1 2 5.5 4.72l6.62 43.5c.5 3.37-2.08 6.4-5.5 6.42z" class="st6"/><path id="XMLID_1713_" d="M125.67 91.6L46.6 92l6.5-45.84 65.6.02z" class="st5"/><path id="XMLID_1660_" d="M147.96 134.8H23.94l16.3-25h92.3z" class="st5"/><path id="XMLID_1551_" d="M129.8 100.9l-86.96.37c-4.92.02-8.7-4.34-8-9.2L42 42.26c.58-3.97 3.98-6.9 8-6.9h72.25c3.98 0 7.37 2.9 7.96 6.84l7.53 49.42c.74 4.87-3 9.25-7.93 9.27z" class="st7"/><ellipse id="XMLID_1547_" cx="132.16" cy="126.434" transform="matrix(.364 -.931 .931 .364 -33.675 203.574)" class="st6" rx="4.95" ry="7.313"/><ellipse id="XMLID_1543_" cx="131.849" cy="126.028" transform="matrix(.364 -.931 .931 .364 -33.494 203.026)" class="st8" rx="3.774" ry="5.575"/><path id="XMLID_1510_" d="M125.67 91.6l-79.75.3 7.18-45.74h65.05z" class="st9"/><ellipse id="XMLID_1509_" cx="131.594" cy="126.093" transform="matrix(.364 -.931 .931 .364 -33.718 202.83)" class="st8" rx="2.422" ry="3.578"/><path id="XMLID_1503_" d="M147.96 134.8H23.94l16.3-25h92.3z" class="st9"/><path id="XMLID_1501_" d="M126.3 103.9l3.3 20.7s-.38 2.43 1.08 3.1c1.46.65 5.1.76 4.88-1.55-.22-2.3-.26-21.18-.26-21.18l-3.27.92-4.62-.93-1.1-1.06z" class="st5"/><path id="XMLID_1411_" d="M131.6 107.7l1.67 20.4 2.3-.74-.27-22.4-1.03 1.34z" class="st6"/><path id="XMLID_1410_" d="M126.3 103.9l3.3 20.7s-.38 2.43 1.08 3.1c1.46.65 5.1.76 4.88-1.55-.22-2.3-.26-21.18-.26-21.18l-3.27.92-4.62-.93-1.1-1.06z" class="st10"/><ellipse id="XMLID_1408_" cx="130.704" cy="99.394" class="st11" rx="6.597" ry="7.78"/><ellipse id="XMLID_1406_" cx="131.12" cy="98.293" class="st11" rx="7.013" ry="6.679"/><ellipse id="XMLID_1260_" cx="130.704" cy="99.394" class="st5" rx="6.597" ry="7.78"/><ellipse id="XMLID_1234_" cx="130.9" cy="98.293" class="st6" rx="6.793" ry="6.679"/><ellipse id="XMLID_1229_" cx="130.933" cy="97.78" class="st5" rx="4.624" ry="4.404"/><ellipse id="XMLID_1213_" cx="43.956" cy="126.434" transform="matrix(-.364 -.931 .931 -.364 -57.84 213.355)" class="st6" rx="4.95" ry="7.313"/><ellipse id="XMLID_1207_" cx="44.266" cy="126.028" transform="matrix(-.364 -.931 .931 -.364 -57.039 213.09)" class="st8" rx="3.774" ry="5.575"/><ellipse id="XMLID_1205_" cx="44.522" cy="126.093" transform="matrix(-.364 -.931 .931 -.364 -56.751 213.417)" class="st8" rx="2.422" ry="3.578"/><path id="XMLID_1195_" d="M49.8 103.9l-3.3 20.7s.4 2.43-1.06 3.1-5.1.76-4.88-1.55c.22-2.3.26-21.18.26-21.18l3.26.92 4.63-.93 1.1-1.06z" class="st5"/><path id="XMLID_1187_" d="M50.25 103.9l-3.3 20.7s.4 2.43-1.07 3.1c-1.47.65-5.1.76-4.88-1.55.22-2.3.26-21.18.26-21.18l3.26.92 4.63-.93 1.1-1.06z" class="st10"/><ellipse id="XMLID_1175_" cx="45.412" cy="99.394" class="st11" rx="6.597" ry="7.78"/><ellipse id="XMLID_1174_" cx="45.412" cy="99.394" class="st5" rx="6.597" ry="7.78"/><ellipse id="XMLID_1173_" cx="45.451" cy="98.293" class="st6" rx="6.558" ry="6.679"/><ellipse id="XMLID_1171_" cx="45.183" cy="97.78" class="st5" rx="4.624" ry="4.404"/><path id="XMLID_1170_" d="M122.7 130.93H49.37l6.6-17.28h60.12z" class="st5"/><path id="XMLID_1169_" d="M119.84 128.62H52.68l6.05-13h55.06z" class="st5"/><ellipse id="XMLID_1168_" cx="130.933" cy="97.78" class="st9" rx="4.624" ry="4.404"/><path id="XMLID_1167_" d="M122.7 130.93H49.37l6.6-17.28h60.12z" class="st12"/><circle id="XMLID_1165_" cx="93.83" cy="123.139" r="3.193" class="st6"/><circle id="XMLID_1164_" cx="102.803" cy="120.71" r="1.596" class="st6"/><circle id="XMLID_1162_" cx="107.207" cy="120.71" r="1.596" class="st6"/><circle id="XMLID_1159_" cx="111.611" cy="120.71" r="1.596" class="st6"/><path id="XMLID_1158_" d="M85.1 126.72H64.5l2.66-9.36H85.1z" class="st8"/><path id="XMLID_1154_" d="M84.24 125.98H65.46l2.4-7.87h16.38z" class="st6"/><path id="XMLID_1153_" d="M64.5 119.43h-6.54l.88-1.32h6.55z" class="st6"/><path id="XMLID_1152_" d="M132.1 169.93H38.47L23.94 134.8h124.02z" class="st5"/><path id="XMLID_1151_" d="M123.2 169.93H46.8l-11.85-28.67h101.18z" class="st5"/><path id="XMLID_1150_" d="M107.2 143.3l-6 27.22 24.06 1.3 12.94-28.5z" class="st6"/><path id="XMLID_1140_" d="M107.16 142.73l6.03-6.4 36.8.32-15.83 35.66h-9l13.03-29.1z" class="st6"/><path id="XMLID_1137_" d="M132.1 169.93H38.47L23.94 134.8h124.02z" class="st9"/><path id="XMLID_1136_" d="M123.2 169.93H46.8l-11.85-28.67h101.18z" class="st9"/><ellipse id="XMLID_1134_" cx="45.183" cy="97.78" class="st9" rx="4.624" ry="4.404"/><circle id="XMLID_1120_" cx="91.674" cy="121.716" r="3.03" class="st13"/><path id="XMLID_884_" d="M91.67 120.06v1.66h1.66" class="st13"/><circle id="XMLID_883_" cx="102.803" cy="125.255" r="1.596" class="st6"/><circle id="XMLID_882_" cx="107.207" cy="125.255" r="1.596" class="st6"/><circle id="XMLID_881_" cx="111.611" cy="125.255" r="1.596" class="st6"/><path id="XMLID_878_" d="M73.05 66.77h-10.1c-.83 0-1.5-.7-1.5-1.53V54.27c0-.84.67-1.52 1.5-1.52h10.1c.84 0 1.52.68 1.52 1.52v10.97c0 .84-.68 1.53-1.52 1.53z" class="st6"/><path id="XMLID_877_" d="M74.5 53.92H61.45v-.63c0-.43.34-.77.76-.77h11.56c.4 0 .75.34.75.76v.62z" class="st14"/><path id="XMLID_876_" d="M68 62.28v-1.26" class="st15"/><path id="XMLID_874_" d="M65.48 59.76h1.26" class="st15"/><path id="XMLID_842_" d="M68 57.23v1.27" class="st15"/><path id="XMLID_840_" d="M70.53 59.76h-1.27" class="st15"/><path id="XMLID_839_" d="M69.26 57.55L68 55.97l-1.26 1.58z" class="st8"/><path id="XMLID_838_" d="M70.2 61.02l1.6-1.26-1.6-1.27z" class="st8"/><path id="XMLID_837_" d="M66.74 61.97L68 63.55l1.26-1.58z" class="st8"/><path id="XMLID_836_" d="M65.8 58.5l-1.6 1.26 1.6 1.26z" class="st8"/><path id="XMLID_835_" d="M91.42 66.77H80.94c-.73 0-1.32-.6-1.32-1.33V54.08c0-.73.6-1.33 1.32-1.33h10.48c.73 0 1.33.6 1.33 1.33v11.36c0 .73-.6 1.33-1.33 1.33z" class="st6"/><path id="XMLID_834_" d="M92.75 53.92H79.62v-.63c0-.43.34-.77.75-.77H92c.4 0 .75.34.75.76v.62z" class="st14"/><path id="XMLID_816_" d="M109.45 66.77H98.9c-.72 0-1.3-.58-1.3-1.3V54.05c0-.7.58-1.3 1.3-1.3h10.55c.7 0 1.3.6 1.3 1.3v11.44c0 .7-.6 1.28-1.3 1.28z" class="st6"/><path id="XMLID_325_" d="M110.74 53.92H97.6v-.63c0-.43.35-.77.77-.77h11.6c.43 0 .77.34.77.76v.62z" class="st14"/><path id="XMLID_324_" d="M73.5 84.57H62.88c-.7 0-1.25-.57-1.25-1.26V71.8c0-.7.56-1.25 1.25-1.25H73.5c.7 0 1.26.56 1.26 1.26v11.5c0 .7-.57 1.27-1.26 1.27z" class="st6"/><path id="XMLID_322_" d="M74.76 71.72H61.63v-.63c0-.43.33-.77.75-.77H74c.42 0 .76.34.76.76v.62z" class="st14"/><path id="XMLID_309_" d="M91.66 84.57H80.7c-.6 0-1.08-.5-1.08-1.1V71.65c0-.6.48-1.1 1.1-1.1h10.94c.6 0 1.1.5 1.1 1.1v11.84c0 .6-.5 1.1-1.1 1.1z" class="st6"/><path id="XMLID_270_" d="M92.75 71.72H79.62v-.63c0-.43.34-.77.75-.77H92c.4 0 .75.34.75.76v.62z" class="st14"/><path id="XMLID_269_" d="M109.56 84.57H98.78c-.65 0-1.17-.53-1.17-1.18V71.72c0-.65.53-1.18 1.18-1.18h10.78c.65 0 1.18.53 1.18 1.18V83.4c0 .64-.53 1.17-1.18 1.17z" class="st6"/><path id="XMLID_268_" d="M110.74 71.72H97.6v-.63c0-.43.35-.77.77-.77h11.6c.43 0 .77.34.77.76v.62z" class="st14"/></g><path id="XMLID_74_" d="M88.44 177.07C39.67 177.07 0 137.4 0 88.63 0 39.86 39.67.2 88.44.2c48.76 0 88.44 39.66 88.44 88.43 0 48.77-39.67 88.44-88.44 88.44zm0-175.74c-48.14 0-87.3 39.16-87.3 87.3s39.16 87.3 87.3 87.3 87.3-39.16 87.3-87.3-39.16-87.3-87.3-87.3z" class="st4"/></g></svg>