<?xml version="1.0" encoding="UTF-8"?>
<svg width="73px" height="14px" viewBox="0 0 73 14" version="1.1" xmlns="http://www.w3.org/2000/svg" xmlns:xlink="http://www.w3.org/1999/xlink">
    <title>E37868F3-5DDF-44D9-95DB-F09EF72E6A94</title>
    <defs>
        <polygon id="path-1" points="0 0 73 0 73 14 0 14"></polygon>
    </defs>
    <g id="Bank-ID" stroke="none" stroke-width="1" fill="none" fill-rule="evenodd">
        <g id="PXE-Bank-ID-flow-2" transform="translate(-293.000000, -625.000000)">
            <g id="Group-3" transform="translate(293.000000, 625.000000)">
                <mask id="mask-2" fill="white">
                    <use xlink:href="#path-1"></use>
                </mask>
                <g id="Clip-2"></g>
                <path d="M10.6698227,7.29582056 L9.02203195,7.29582056 L9.02203195,6.30950508 L10.4690077,6.30950508 C11.292903,5.63928469 11.714665,4.67321905 11.714665,3.68739747 C11.714665,1.85305811 10.2480608,-4.9389859e-05 7.19355795,-4.9389859e-05 L-5.032959e-05,-4.9389859e-05 L-5.032959e-05,13.8029345 L7.47490036,13.8029345 C10.5490317,13.8029345 12.0362711,11.8900652 12.0362711,10.0167079 C12.0362711,8.97211237 11.5742455,7.96604094 10.6698227,7.29582056 L10.6698227,7.29582056 Z M3.11434469,2.46450457 L6.77129269,2.46450457 C7.89666232,2.46450457 8.47947897,3.25326061 8.47947897,4.04201666 C8.47947897,4.8307727 7.89666232,5.61952875 6.77129269,5.61952875 L4.1194266,5.61952875 L4.1194266,8.18286242 L7.03250326,8.18286242 C8.15787289,8.18286242 8.74068954,8.97211237 8.74068954,9.76037452 C8.74068954,10.5491306 8.15787289,11.3378866 7.03250326,11.3378866 L3.11434469,11.3378866 L3.11434469,2.46450457 Z M13.3423239,8.715779 C13.3423239,11.9888449 15.7334828,14 18.1040064,14 C19.0486928,14 19.9928759,13.6848927 20.777011,12.9746665 L20.777011,11.9295771 L21.7815896,11.9295771 L21.7815896,13.8029345 L24.5945104,13.8029345 L24.5945104,3.64788558 L21.7815896,3.64788558 L21.7815896,5.52124293 L20.777011,5.52124293 L20.777011,4.47615352 C19.9928759,3.76642125 19.0486928,3.45032615 18.1040064,3.45032615 C15.7334828,3.45032615 13.3423239,5.4619751 13.3423239,8.715779 L13.3423239,8.715779 Z M19.0084292,5.97464184 C20.3547457,5.97464184 21.4801153,7.03948719 21.4801153,8.715779 C21.4801153,10.3915769 20.3547457,11.4564223 19.0084292,11.4564223 C17.6626159,11.4564223 16.456719,10.3915769 16.456719,8.715779 C16.456719,7.03948719 17.6626159,5.97464184 19.0084292,5.97464184 L19.0084292,5.97464184 Z M34.239673,13.8029345 L37.2534088,13.8029345 L37.2534088,7.65043975 C37.2534088,5.10686202 35.3645393,3.45032615 33.2552262,3.45032615 C32.3709353,3.45032615 31.4463807,3.7461714 30.6224853,4.3773738 L30.6224853,5.52124293 L29.6179067,5.52124293 L29.6179067,3.64788558 L27.005801,3.64788558 L27.005801,13.8029345 L30.0195368,13.8029345 L30.0195368,8.18286242 C30.0195368,6.76339788 31.1252779,6.01415372 32.2098806,6.01415372 C33.234591,6.01415372 34.239673,6.68437411 34.239673,8.08457661 L34.239673,13.8029345 Z M42.5782794,13.8029345 L42.5782794,10.4113329 L43.5833613,10.4113329 L46.5970972,13.8029345 L49.5912045,13.8029345 L49.5912045,12.8171129 L45.7938369,8.63675523 L49.4905453,4.63370717 L49.4905453,3.64788558 L46.617229,3.64788558 L43.5833613,7.03948719 L43.5833613,8.3996839 L42.5782794,8.3996839 L42.5782794,-4.9389859e-05 L39.5645436,-4.9389859e-05 L39.5645436,13.8029345 L42.5782794,13.8029345 Z M55.1168901,13.8029345 L58.130626,13.8029345 L58.130626,3.64788558 L55.1168901,3.64788558 L55.1168901,13.8029345 Z M55.1168901,2.662064 L58.130626,2.662064 L58.130626,-4.9389859e-05 L55.1168901,-4.9389859e-05 L55.1168901,2.662064 Z M60.5414133,13.8029345 L65.8662839,13.8029345 C70.628973,13.8029345 73,10.352065 73,6.90119559 C73,3.45032615 70.628973,-4.9389859e-05 65.8662839,-4.9389859e-05 L60.5414133,-4.9389859e-05 L60.5414133,13.8029345 Z M62.4504147,2.662064 L65.766128,2.662064 C68.3787371,2.662064 69.6842866,4.79126082 69.6842866,6.90119559 C69.6842866,9.0308863 68.3787371,11.1408211 65.766128,11.1408211 L62.4504147,11.1408211 L62.4504147,10.1549995 L63.8571267,10.1549995 L63.8571267,3.64788558 L62.4504147,3.64788558 L62.4504147,2.662064 Z" id="Fill-1" fill="#FEFEFE" mask="url(#mask-2)"></path>
            </g>
        </g>
    </g>
</svg>