<?xml version="1.0" encoding="utf-8"?>
<!-- Generator: Adobe Illustrator 25.2.1, SVG Export Plug-In . SVG Version: 6.00 Build 0)  -->
<svg version="1.1" id="Layer_1" xmlns="http://www.w3.org/2000/svg" xmlns:xlink="http://www.w3.org/1999/xlink" x="0px" y="0px"
	 viewBox="0 0 114.6 114.6" style="enable-background:new 0 0 114.6 114.6;" xml:space="preserve">
<style type="text/css">
	.st0{fill:#FFFFFF;}
</style>
<g>
	<path class="st0" d="M57.3,14.5c23.6,0,42.8,19.2,42.8,42.8c0,16.8-9.8,31.7-24.4,38.6L39.6,18.3C45.1,15.8,51.1,14.5,57.3,14.5
		 M57.3,0C43.6,0,30.9,4.8,21.1,12.9l47,100.7c26.5-5,46.6-28.3,46.6-56.3C114.6,25.7,89,0,57.3,0L57.3,0z"/>
</g>
<path class="st0" d="M44.2,113.1c4.2,1,8.6,1.5,13.2,1.5c1.1,0,2.3,0,3.4-0.1L15.7,18c-3.8,4-7,8.6-9.5,13.6L44.2,113.1z"/>
<path class="st0" d="M2.5,40.4C0.9,45.8,0,51.4,0,57.3c0,23.8,14.4,44.1,35,52.8L2.5,40.4z"/>
<path class="st0" d="M78.8,85.7c8.6-6.5,14.1-16.8,14.1-28.4c0-19.7-15.9-35.6-35.6-35.6c-2.7,0-5.4,0.3-7.9,0.9L78.8,85.7z"/>
</svg>
