<?xml version="1.0" encoding="UTF-8"?>
<svg width="146px" height="29px" viewBox="0 0 146 29" version="1.1" xmlns="http://www.w3.org/2000/svg" xmlns:xlink="http://www.w3.org/1999/xlink">
    <title>E4639B01-2C2A-42B4-9242-938BABBCAF92</title>
    <defs>
        <polygon id="path-1" points="0 0 145.0439 0 145.0439 28.3459 0 28.3459"></polygon>
    </defs>
    <g id="Request-individual" stroke="none" stroke-width="1" fill="none" fill-rule="evenodd">
        <g id="1-06-Payment-QR-and-bankID" transform="translate(-1126.000000, -715.000000)">
            <g id="Group-3" transform="translate(1126.000000, 715.000000)">
                <mask id="mask-2" fill="white">
                    <use xlink:href="#path-1"></use>
                </mask>
                <g id="Clip-2"></g>
                <path d="M21.1999,14.7719 L17.9259,14.7719 L17.9259,12.7749 L20.8009,12.7749 C22.4379,11.4179 23.2759,9.4619 23.2759,7.4659 C23.2759,3.7519 20.3619,-0.0001 14.2929,-0.0001 L-0.0001,-0.0001 L-0.0001,27.9469 L14.8519,27.9469 C20.9599,27.9469 23.9149,24.0739 23.9149,20.2809 C23.9149,18.1659 22.9969,16.1289 21.1999,14.7719 L21.1999,14.7719 Z M6.1879,4.9899 L13.4539,4.9899 C15.6899,4.9899 16.8479,6.5869 16.8479,8.1839 C16.8479,9.7809 15.6899,11.3779 13.4539,11.3779 L8.1849,11.3779 L8.1849,16.5679 L13.9729,16.5679 C16.2089,16.5679 17.3669,18.1659 17.3669,19.7619 C17.3669,21.3589 16.2089,22.9559 13.9729,22.9559 L6.1879,22.9559 L6.1879,4.9899 Z M26.5099,17.6469 C26.5099,24.2739 31.2609,28.3459 35.9709,28.3459 C37.8479,28.3459 39.7239,27.7079 41.2819,26.2699 L41.2819,24.1539 L43.2779,24.1539 L43.2779,27.9469 L48.8669,27.9469 L48.8669,7.3859 L43.2779,7.3859 L43.2779,11.1789 L41.2819,11.1789 L41.2819,9.0629 C39.7239,7.6259 37.8479,6.9859 35.9709,6.9859 C31.2609,6.9859 26.5099,11.0589 26.5099,17.6469 L26.5099,17.6469 Z M37.7679,12.0969 C40.4429,12.0969 42.6789,14.2529 42.6789,17.6469 C42.6789,21.0399 40.4429,23.1959 37.7679,23.1959 C35.0939,23.1959 32.6979,21.0399 32.6979,17.6469 C32.6979,14.2529 35.0939,12.0969 37.7679,12.0969 L37.7679,12.0969 Z M68.0309,27.9469 L74.0189,27.9469 L74.0189,15.4899 C74.0189,10.3399 70.2659,6.9859 66.0749,6.9859 C64.3179,6.9859 62.4809,7.5849 60.8439,8.8629 L60.8439,11.1789 L58.8479,11.1789 L58.8479,7.3859 L53.6579,7.3859 L53.6579,27.9469 L59.6459,27.9469 L59.6459,16.5679 C59.6459,13.6939 61.8429,12.1769 63.9979,12.1769 C66.0339,12.1769 68.0309,13.5339 68.0309,16.3689 L68.0309,27.9469 Z M84.5989,27.9469 L84.5989,21.0799 L86.5959,21.0799 L92.5839,27.9469 L98.5329,27.9469 L98.5329,25.9509 L90.9879,17.4869 L98.3329,9.3819 L98.3329,7.3859 L92.6239,7.3859 L86.5959,14.2529 L86.5959,17.0069 L84.5989,17.0069 L84.5989,-0.0001 L78.6109,-0.0001 L78.6109,27.9469 L84.5989,27.9469 Z M109.5119,27.9469 L115.4999,27.9469 L115.4999,7.3859 L109.5119,7.3859 L109.5119,27.9469 Z M109.5119,5.3899 L115.4999,5.3899 L115.4999,-0.0001 L109.5119,-0.0001 L109.5119,5.3899 Z M120.2899,27.9469 L130.8699,27.9469 C140.3329,27.9469 145.0439,20.9599 145.0439,13.9729 C145.0439,6.9859 140.3329,-0.0001 130.8699,-0.0001 L120.2899,-0.0001 L120.2899,27.9469 Z M124.0829,5.3899 L130.6709,5.3899 C135.8619,5.3899 138.4559,9.7009 138.4559,13.9729 C138.4559,18.2849 135.8619,22.5569 130.6709,22.5569 L124.0829,22.5569 L124.0829,20.5609 L126.8779,20.5609 L126.8779,7.3859 L124.0829,7.3859 L124.0829,5.3899 Z" id="Fill-1" fill="#1D1D1B" mask="url(#mask-2)"></path>
            </g>
        </g>
    </g>
</svg>