<?xml version="1.0" encoding="UTF-8"?>
<svg width="164px" height="162px" viewBox="0 0 164 162" version="1.1" xmlns="http://www.w3.org/2000/svg" xmlns:xlink="http://www.w3.org/1999/xlink">
    <title>Fill 1 Copy</title>
    <defs>
        <filter x="-65.3%" y="-376.8%" width="230.7%" height="853.6%" filterUnits="objectBoundingBox" id="filter-1">
            <feOffset dx="-30" dy="30" in="SourceAlpha" result="shadowOffsetOuter1"></feOffset>
            <feGaussianBlur stdDeviation="40" in="shadowOffsetOuter1" result="shadowBlurOuter1"></feGaussianBlur>
            <feColorMatrix values="0 0 0 0 0   0 0 0 0 0   0 0 0 0 0  0 0 0 0.1 0" type="matrix" in="shadowBlurOuter1" result="shadowMatrixOuter1"></feColorMatrix>
            <feMerge>
                <feMergeNode in="shadowMatrixOuter1"></feMergeNode>
                <feMergeNode in="SourceGraphic"></feMergeNode>
            </feMerge>
        </filter>
    </defs>
    <g id="Texty+prototyp" stroke="none" stroke-width="1" fill="none" fill-rule="evenodd">
        <g id="Login_zalozit-Copy" transform="translate(-287.000000, -544.000000)" fill="#FFFFFE">
            <g id="Group-3" filter="url(#filter-1)" transform="translate(279.000000, 568.000000)">
                <g id="Group-9" transform="translate(20.000000, 18.000000)">
                    <path d="M110,10.0611134 C110,4.50450982 105.522852,0 100,0 C94.4771484,0 90,4.50450982 90,10.0611134 C90,15.0829059 93.6568555,19.24522 98.4375,20 L98.4375,12.969404 L95.8984375,12.969404 L95.8984375,10.0611134 L98.4375,10.0611134 L98.4375,7.84452436 C98.4375,5.32295781 99.9304297,3.93012242 102.214648,3.93012242 C103.30873,3.93012242 104.453125,4.12662854 104.453125,4.12662854 L104.453125,6.60260567 L103.192148,6.60260567 C101.949902,6.60260567 101.5625,7.37815638 101.5625,8.17380966 L101.5625,10.0611134 L104.335938,10.0611134 L103.892578,12.969404 L101.5625,12.969404 L101.5625,20 C106.343145,19.24522 110,15.0829059 110,10.0611134" id="Fill-1-Copy"></path>
                </g>
            </g>
        </g>
    </g>
</svg>