<?xml version="1.0" encoding="utf-8"?>
<!-- Generator: Adobe Illustrator 25.2.0, SVG Export Plug-In . SVG Version: 6.00 Build 0)  -->
<svg version="1.1" id="Layer_1" xmlns="http://www.w3.org/2000/svg" xmlns:xlink="http://www.w3.org/1999/xlink" x="0px" y="0px"
	 viewBox="0 0 20 20" style="enable-background:new 0 0 20 20;" xml:space="preserve">
<style type="text/css">
	.st0{filter:url(#filter-1);}
	.st1{fill-rule:evenodd;clip-rule:evenodd;fill:#FFFFFE;}
</style>
<filter  filterUnits="objectBoundingBox" height="853.6%" id="filter-1" width="230.7%" x="-65.3%" y="-376.8%">
	<feOffset  dx="-30" dy="30" in="SourceAlpha" result="shadowOffsetOuter1"></feOffset>
	<feGaussianBlur  in="shadowOffsetOuter1" result="shadowBlurOuter1" stdDeviation="40"></feGaussianBlur>
	
		<feColorMatrix  in="shadowBlurOuter1" result="shadowMatrixOuter1" type="matrix" values="0 0 0 0 0   0 0 0 0 0   0 0 0 0 0  0 0 0 0.1 0">
		</feColorMatrix>
	<feMerge>
		<feMergeNode  in="shadowMatrixOuter1"></feMergeNode>
		<feMergeNode  in="SourceGraphic"></feMergeNode>
	</feMerge>
</filter>
<g id="Texty_x2B_prototyp">
	<g id="Login_zalozit-Copy" transform="translate(-287.000000, -544.000000)">
		<g id="Group-3" transform="translate(279.000000, 568.000000)" class="st0">
			<g id="Group-9_1_" transform="translate(20.000000, 18.000000)">
				<path id="Fill-1-Copy_1_" class="st1" d="M8-31.9C8-37.5,3.5-42-2-42s-10,4.5-10,10.1c0,5,3.7,9.2,8.4,9.9v-7h-2.5v-2.9h2.5
					v-2.2c0-2.5,1.5-3.9,3.8-3.9c1.1,0,2.2,0.2,2.2,0.2v2.5H1.2c-1.2,0-1.6,0.8-1.6,1.6v1.9h2.8L1.9-29h-2.3v7
					C4.3-22.8,8-26.9,8-31.9"/>
			</g>
		</g>
	</g>
</g>
</svg>
