<?xml version="1.0" encoding="utf-8"?>
<!-- Generator: Adobe Illustrator 25.2.0, SVG Export Plug-In . SVG Version: 6.00 Build 0)  -->
<svg version="1.1" id="Layer_1" xmlns="http://www.w3.org/2000/svg" xmlns:xlink="http://www.w3.org/1999/xlink" x="0px" y="0px"
	 viewBox="0 0 17.6 17.9" style="enable-background:new 0 0 17.6 17.9;" xml:space="preserve">
<style type="text/css">
	.st0{fill:#4285F4;}
	.st1{fill:#34A853;}
	.st2{fill:#FBBC04;}
	.st3{fill:#EA4335;}
</style>
<g id="Texty_x2B_prototyp">
	<g id="Login_zalozit-Copy" transform="translate(-408.000000, -431.000000)">
		<g id="Group-3" transform="translate(279.000000, 568.000000)">
			<g id="Group-5" transform="translate(173.000000, 0.000000)">
				<g id="Group-10" transform="translate(20.000000, 19.000000)">
					<g id="Google_x5F__x22_G_x22__x5F_Logo-Copy" transform="translate(92.000000, 0.000000)">
						<path id="Path" class="st0" d="M-138.4-146.8c0-0.6,0-1.2-0.2-1.8h-8.5v3.5h4.8c-0.2,1.1-0.8,2.1-1.8,2.7v2.2h2.9
							C-139.4-141.8-138.4-144.1-138.4-146.8z"/>
						<path id="Path_1_" class="st1" d="M-147-138.1c2.4,0,4.5-0.8,5.9-2.2l-2.9-2.2c-0.8,0.5-1.8,0.9-3.1,0.9c-2.3,0-4.3-1.6-5-3.7
							h-3v2.3C-153.5-140-150.4-138.1-147-138.1z"/>
						<path id="Path_2_" class="st2" d="M-152.1-145.3c-0.4-1.1-0.4-2.3,0-3.4v-2.3h-3c-1.3,2.5-1.3,5.5,0,8.1L-152.1-145.3z"/>
						<path id="Path_3_" class="st3" d="M-147-152.4c1.3,0,2.5,0.5,3.4,1.3l0,0l2.6-2.6c-1.6-1.5-3.8-2.4-6-2.3
							c-3.4,0-6.5,1.9-8,4.9l3,2.3C-151.4-150.9-149.4-152.4-147-152.4z"/>
					</g>
				</g>
			</g>
		</g>
	</g>
</g>
</svg>
