<?xml version="1.0" encoding="UTF-8"?>
<svg width="330px" height="330px" viewBox="0 0 330 330" version="1.1" xmlns="http://www.w3.org/2000/svg" xmlns:xlink="http://www.w3.org/1999/xlink">
    <title>Google_"G"_Logo Copy</title>
    <defs>
        <filter x="-65.3%" y="-376.8%" width="230.7%" height="853.6%" filterUnits="objectBoundingBox" id="filter-1">
            <feOffset dx="-30" dy="30" in="SourceAlpha" result="shadowOffsetOuter1"></feOffset>
            <feGaussianBlur stdDeviation="40" in="shadowOffsetOuter1" result="shadowBlurOuter1"></feGaussianBlur>
            <feColorMatrix values="0 0 0 0 0   0 0 0 0 0   0 0 0 0 0  0 0 0 0.1 0" type="matrix" in="shadowBlurOuter1" result="shadowMatrixOuter1"></feColorMatrix>
            <feMerge>
                <feMergeNode in="shadowMatrixOuter1"></feMergeNode>
                <feMergeNode in="SourceGraphic"></feMergeNode>
            </feMerge>
        </filter>
    </defs>
    <g id="Texty+prototyp" stroke="none" stroke-width="1" fill="none" fill-rule="evenodd">
        <g id="Login_zalozit-Copy" transform="translate(-408.000000, -431.000000)" fill-rule="nonzero">
            <g id="Group-3" filter="url(#filter-1)" transform="translate(279.000000, 568.000000)">
                <g id="Group-5" transform="translate(173.000000, 0.000000)">
                    <g id="Group-10" transform="translate(20.000000, 19.000000)">
                        <g id="Google_&quot;G&quot;_Logo-Copy" transform="translate(92.000000, 0.000000)">
                            <path d="M17.6208791,9.21098901 C17.6208791,8.6010989 17.5714286,7.98791209 17.4659341,7.38791209 L9.0032967,7.38791209 L9.0032967,10.8428571 L13.8494505,10.8428571 C13.6483516,11.9571429 13.0021978,12.9428571 12.056044,13.5692308 L12.056044,15.810989 L14.9472527,15.810989 C16.6450549,14.2483516 17.6208791,11.9406593 17.6208791,9.21098901 Z" id="Path" fill="#4285F4"></path>
                            <path d="M9.0032967,17.9769231 C11.4230769,17.9769231 13.4637363,17.1824176 14.9505495,15.810989 L12.0593407,13.5692308 C11.2549451,14.1164835 10.2164835,14.4263736 9.00659341,14.4263736 C6.66593407,14.4263736 4.68131868,12.8472527 3.96923077,10.7241758 L0.985714286,10.7241758 L0.985714286,13.0351648 C2.50879121,16.0648352 5.61098901,17.9769231 9.0032967,17.9769231 Z" id="Path" fill="#34A853"></path>
                            <path d="M3.96593407,10.7241758 C3.59010989,9.60989011 3.59010989,8.4032967 3.96593407,7.28901099 L3.96593407,4.97802198 L0.985714286,4.97802198 C-0.286813187,7.51318681 -0.286813187,10.5 0.985714286,13.0351648 L3.96593407,10.7241758 Z" id="Path" fill="#FBBC04"></path>
                            <path d="M9.0032967,3.58351648 C10.2824176,3.56373626 11.5186813,4.04505495 12.4450549,4.92857143 L12.4450549,4.92857143 L15.0065934,2.36703297 C13.3846154,0.843956044 11.2318681,0.00659340659 9.0032967,0.032967033 C5.61098901,0.032967033 2.50879121,1.94505495 0.985714286,4.97802198 L3.96593407,7.28901099 C4.67472527,5.16263736 6.66263736,3.58351648 9.0032967,3.58351648 Z" id="Path" fill="#EA4335"></path>
                        </g>
                    </g>
                </g>
            </g>
        </g>
    </g>
</svg>