<!-- Generated by IcoMoon.io -->
<svg version="1.1" xmlns="http://www.w3.org/2000/svg" width="1024" height="1024" viewBox="0 0 1024 1024">
<title></title>
<g id="icomoon-ignore">
</g>
<path fill="#4285f4" d="M1013.869 523.788c0-34.811-2.814-69.788-8.845-104.030h-482.909v197.154h276.542c-11.475 63.591-48.346 119.826-102.338 155.575v127.918h164.991c96.876-89.171 152.56-220.858 152.56-376.618z"></path>
<path fill="#34a853" d="M522.114 1024.001c138.087 0 254.53-45.33 339.379-123.596l-164.991-127.918c-45.9 31.225-105.151 48.916-174.204 48.916-133.563 0-246.806-90.109-287.447-211.259h-170.25v131.871c86.909 172.88 263.927 281.985 457.513 281.985z"></path>
<path fill="#fbbc04" d="M234.667 610.127c-21.442-63.591-21.442-132.441 0-196.014v-131.871h-170.066c-72.62 144.67-72.62 315.105 0 459.775l170.066-131.871z"></path>
<path fill="#ea4335" d="M522.114 202.651c72.988-1.122 143.53 26.334 196.4 76.758v0l146.178-146.178c-92.555-86.909-215.397-134.703-342.56-133.195-193.568 0-370.604 109.105-457.513 282.187l170.066 131.871c40.439-121.334 153.884-211.443 287.447-211.443z"></path>
</svg>
